<svg width="357" height="604" viewBox="0 0 357 604" fill="none" xmlns="http://www.w3.org/2000/svg">
<path d="M48 2.99892C48 2.99892 293 -28.5 161 241C29 510.5 384.5 439.499 295 350.499C205.5 261.499 324 489.501 114 589" stroke="#FF5630" stroke-width="2" stroke-dasharray="4 4"/>
<path fill-rule="evenodd" clip-rule="evenodd" d="M107.042 585.344C106.331 585.609 104.812 589.293 104.671 589.963C103.298 589.795 99.5324 588.152 98.358 588.589C96.6967 589.208 96.2625 591.185 98.3159 591.85C99.8329 592.342 101.586 592.593 102.933 593.247C102.369 595.893 98.8538 598.66 103.177 599.136C104.237 599.253 104.681 598.855 105.072 598.116C105.709 596.896 106.06 595.488 106.902 594.399C108.3 594.568 109.97 595.238 111.4 595.642C114.125 596.411 114.679 593.952 114.353 593.372C113.803 592.409 109.678 591.352 108.417 591.197C108.65 590.094 110.776 587.05 110.252 586.123C109.817 585.35 108.083 584.956 107.042 585.344Z" fill="#13005A"/>
</svg>
