<svg xmlns="http://www.w3.org/2000/svg" width="70" height="70" viewBox="0 0 70 70" fill="none">
  <path d="M48.4214 0.0142036C51.5713 0.0111511 54.6644 0.0223129 57.7574 0.0328723C58.2088 0.0344132 58.6603 0.0330856 59.3101 0.0330856C58.954 0.434398 58.6917 0.729983 58.3802 1.08504C58.305 1.19026 58.279 1.23601 58.2138 1.29443C58.1013 1.42262 58.028 1.53815 57.9137 1.67327C56.7254 3.17025 55.7298 4.73904 55.0306 6.53652C54.9649 6.67768 54.9302 6.78751 54.8665 6.93884C54.7448 7.2709 54.6521 7.56147 54.5228 7.88332C54.4493 8.07173 54.4124 8.22884 54.3461 8.42613C54.0921 9.55126 53.8675 10.6362 53.6149 11.7549C53.5836 11.9038 53.5804 12.0189 53.5545 12.1908C53.5232 12.5311 53.5146 12.8148 53.4769 13.1463C53.4229 14.9076 53.398 16.6211 53.3308 18.3523C51.7346 20.1125 50.1805 21.8552 48.586 23.6122C48.4236 23.7862 48.3019 23.946 48.1392 24.124C46.8764 25.5216 45.6049 26.8597 44.4478 28.2931C43.4352 29.5475 42.3214 30.5718 40.7114 30.91C40.6287 30.9274 40.5563 30.995 40.4409 31.0337C40.3367 31.0648 40.2708 31.1015 40.1543 31.1352C39.5053 31.4078 38.7213 31.4162 38.4649 32.1997C38.2523 32.8493 38.1016 33.5199 37.8928 34.2049C37.8538 34.3033 37.8456 34.378 37.8095 34.4929C37.7763 34.5971 37.771 34.6611 37.7308 34.7553C37.6462 34.9957 37.5966 35.206 37.5232 35.4619C37.4559 35.707 37.4124 35.9066 37.3404 36.1323C37.2961 36.2324 37.2804 36.3063 37.2433 36.4297C36.9135 37.5961 36.605 38.713 36.2657 39.8534C36.2258 39.9517 36.2167 40.0264 36.1801 40.1452C36.1087 40.3905 36.0648 40.5917 35.9909 40.8174C35.9473 40.9162 35.9336 40.9905 35.8967 41.1108C35.8295 41.356 35.7855 41.5553 35.7152 41.7825C35.6736 41.8832 35.6582 41.9561 35.6217 42.0712C35.597 42.1757 35.5935 42.2382 35.5607 42.3268C35.517 42.4284 35.5026 42.5038 35.4669 42.6223C35.4099 42.8198 35.3743 42.9741 35.3171 43.1715C35.299 43.2775 35.3024 43.3405 35.2857 43.4563C35.3053 44.158 35.5706 44.603 36.3045 44.6825C36.5876 44.6388 36.8359 44.5686 37.1335 44.4989C37.4214 44.3914 37.6599 44.2834 37.9417 44.1795C38.0839 44.126 38.1828 44.0683 38.3284 44.0139C39.211 43.6633 40.0469 43.3095 40.9212 42.9588C41.0226 42.9193 41.0857 42.8765 41.1942 42.8357C41.3466 42.7817 41.4535 42.7258 41.6038 42.6746C41.7482 42.623 41.8491 42.5668 41.9968 42.5118C43.0125 42.1048 43.9813 41.6965 44.9937 41.2864C45.1877 41.2045 45.3381 41.1242 45.5381 41.0451C45.8595 40.937 46.1264 40.812 46.4043 40.7216C47.1743 40.471 47.6178 39.9692 47.6714 39.1021C47.7107 39.0037 47.7198 38.9293 47.753 38.8124C47.7785 38.7054 47.78 38.641 47.8113 38.552C47.8533 38.4531 47.8655 38.3788 47.8993 38.2615C47.9224 38.1551 47.9241 38.0917 47.9549 38.0028C47.9963 37.9028 48.0085 37.8283 48.0407 37.7106C48.0624 37.6044 48.0639 37.5414 48.0934 37.4519C48.1346 37.3512 48.148 37.277 48.1826 37.152C48.3761 36.4138 48.5483 35.7266 48.7537 35.0247C48.8566 34.9122 48.9261 34.8145 49.0369 34.6982C49.2871 34.4245 49.4961 34.1694 49.7451 33.8997C49.8868 33.7501 49.9887 33.615 50.1306 33.4579C51.103 32.3635 52.0352 31.291 53.0056 30.2026C53.1059 30.0972 53.168 30.0077 53.2301 29.9181C53.2885 30.024 53.3979 30.1299 53.3978 30.2357C53.3935 33.4771 53.3784 36.7186 53.3435 40.0203C53.268 40.0808 53.2141 40.0809 53.0765 40.0926C52.7458 40.1665 52.4988 40.2289 52.2517 40.2913C51.9177 40.3731 51.5836 40.455 51.1601 40.565C50.8513 40.6917 50.6319 40.7902 50.4125 40.8888C48.4446 41.4845 46.783 42.6156 45.3062 44.0193C42.1528 47.0167 40.4964 50.7242 40.3467 55.1171C40.343 55.2266 40.3281 55.3358 40.3158 55.4731C29.2645 55.4731 18.2446 55.4731 7.11727 55.4731C7.11727 55.2659 7.11707 55.0495 7.1173 54.8331C7.13319 39.8655 7.14439 24.8979 7.16746 9.93031C7.17623 4.24135 11.3612 0.0298388 16.9662 0.0307469C25.4398 0.0321187 33.9134 0.0293374 42.4992 0.0287456C42.7137 0.0196052 42.8162 0.0100381 42.9186 0.000471421C43.1518 0.00972174 43.385 0.0189724 43.7196 0.0283777C43.8819 0.0190271 43.9427 0.00952197 44.0035 1.78688e-05C44.2811 0.00941368 44.5587 0.0188095 44.9389 0.0282201C45.1023 0.0188232 45.1631 0.00941165 45.2239 0C45.5015 0.00933698 45.7791 0.0186729 46.1593 0.0283504C46.3228 0.0192311 46.3836 0.009771 46.4444 0.000311127C46.6776 0.00961863 46.9108 0.0189262 47.2508 0.0287025C47.4601 0.0196053 47.5625 0.0100381 47.6649 0.000470895C47.8981 0.00972177 48.1313 0.0189725 48.4214 0.0142036ZM18.9832 18.1207C28.8504 18.1207 38.7175 18.1207 48.5988 18.1207C48.5988 17.2829 48.5988 16.5173 48.5988 15.7463C36.3442 15.7463 24.1291 15.7463 11.9012 15.7463C11.9012 16.5498 11.9012 17.3192 11.9012 18.1208C14.2405 18.1208 16.5441 18.1208 18.9832 18.1207ZM35.2565 26.5725C38.1175 26.5725 40.9785 26.5725 43.8574 26.5725C43.8574 25.732 43.8574 24.9646 43.8574 24.1879C33.1771 24.1879 22.5339 24.1879 11.9115 24.1879C11.9115 25.0042 11.9115 25.7719 11.9115 26.5726C19.6802 26.5726 27.4005 26.5726 35.2565 26.5725ZM38.2399 9.67476C41.6887 9.67476 45.1376 9.67476 48.5953 9.67476C48.5953 8.84283 48.5953 8.07872 48.5953 7.31624C37.9229 7.31624 27.2934 7.31624 16.6533 7.31624C16.6533 8.11526 16.6533 8.88127 16.6533 9.6744C23.8313 9.6744 30.9678 9.6744 38.2399 9.67476ZM20.8818 34.9993C25.7759 34.9993 30.6701 34.9993 35.5461 34.9993C35.5461 34.1455 35.5461 33.3794 35.5461 32.6413C27.2381 32.6413 18.9783 32.6413 10.7011 32.6413C10.7011 33.439 10.7011 34.1865 10.7011 34.9992C14.0697 34.9992 17.408 34.9992 20.8818 34.9993ZM24.4077 41.0374C19.8509 41.0374 15.2942 41.0374 10.7131 41.0374C10.7131 41.8626 10.7131 42.6275 10.7131 43.385C17.8357 43.385 24.9155 43.385 32.0103 43.385C32.0103 42.5939 32.0103 41.8475 32.0103 41.0375C29.5002 41.0375 27.0217 41.0375 24.4077 41.0374ZM28.4486 49.5419C28.2741 49.5167 28.0995 49.4697 27.9249 49.4696C22.3457 49.4657 16.7666 49.4662 11.1874 49.4673C11.0349 49.4674 10.8824 49.4811 10.7136 49.4892C10.7136 50.2953 10.7136 51.0602 10.7136 51.8347C16.6415 51.8347 22.5258 51.8347 28.4699 51.8347C28.4699 51.0895 28.4699 50.3836 28.4486 49.5419ZM32.285 45.8609C32.2055 45.9424 32.0592 46.022 32.057 46.1056C32.0385 46.8055 32.0464 47.506 32.0464 48.2078C32.8675 48.2078 33.6169 48.2078 34.351 48.2078C34.351 47.402 34.351 46.6398 34.351 45.8598C33.675 45.8598 33.0468 45.8598 32.285 45.8609Z" fill="#454F5B"/>
  <path d="M69.6751 58.8038C69.6433 58.8788 69.6115 58.9538 69.5611 59.1081C69.2948 59.9397 69.0472 60.6919 68.7995 61.4442C68.5994 61.816 68.3994 62.1879 68.1548 62.6378C67.9446 63.0115 67.7789 63.3072 67.6132 63.6029C67.5111 63.7266 67.409 63.8504 67.2585 64.0368C66.5723 64.8257 65.9345 65.552 65.2552 66.284C65.1434 66.3723 65.073 66.4549 64.9637 66.5553C64.7783 66.7072 64.6317 66.8413 64.4852 66.9754C63.6815 67.4735 62.8777 67.9716 61.9931 68.5139C61.0962 68.8758 60.2803 69.1935 59.4643 69.5112C59.3369 69.5287 59.2094 69.5462 59.009 69.5848C58.7061 69.668 58.4761 69.7299 58.2109 69.7775C58.1064 69.7896 58.0371 69.8161 57.9095 69.8314C56.8087 69.872 55.7661 69.9239 54.7236 69.9757C54.6531 69.9562 54.5827 69.9367 54.4263 69.9066C54.0612 69.8758 53.7821 69.8557 53.4744 69.8093C53.3716 69.7807 53.2974 69.7784 53.1751 69.7458C52.9412 69.6896 52.7554 69.6636 52.5333 69.6063C52.3419 69.5503 52.1868 69.5255 51.9969 69.47C51.7534 69.3866 51.5445 69.3339 51.3115 69.2488C51.21 69.2088 51.1324 69.2012 51.0186 69.158C50.6637 69.0049 50.3451 68.8873 50.0265 68.7697C49.6777 68.5843 49.3289 68.3989 48.9329 68.2106C47.2328 67.1553 45.7325 65.9356 44.5174 64.3584C38.3633 56.3699 42.1847 44.3972 51.7909 41.6068C51.9208 41.5691 52.049 41.5254 52.2654 41.472C52.4202 41.4261 52.4876 41.3926 52.555 41.3592C52.656 41.3494 52.7571 41.3397 52.9059 41.3113C53.551 41.2157 54.1485 41.1386 54.8528 41.0548C55.1043 41.0354 55.249 41.0228 55.4492 41.0246C55.6949 41.0293 55.8851 41.0195 56.1281 41.0241C56.3257 41.0321 56.4705 41.0256 56.6152 41.019C57.2569 41.1171 57.8986 41.2152 58.639 41.3238C58.7994 41.3341 58.861 41.3338 58.9601 41.3636C59.153 41.421 59.3083 41.4484 59.5043 41.5054C60.193 41.7532 60.8408 41.9714 61.5164 42.2258C61.6559 42.3016 61.7677 42.3412 61.9081 42.415C62.2888 42.626 62.6408 42.8028 63.0201 43.018C63.2379 43.1633 63.4283 43.2701 63.6188 43.377C63.7749 43.5006 63.931 43.6242 64.1498 43.7937C64.4692 44.0303 64.7257 44.2209 65.0014 44.4532C65.8263 45.3751 66.6322 46.2552 67.4473 47.181C67.6299 47.4721 67.8033 47.7176 67.983 48.0123C68.2672 48.5756 68.545 49.0896 68.8236 49.6536C68.9294 49.9454 69.0346 50.1874 69.1341 50.4682C69.1686 50.5709 69.2089 50.6348 69.2452 50.75C69.3435 51.0905 69.4458 51.3797 69.5387 51.7124C69.5688 51.8642 69.6083 51.9726 69.6388 52.1246C69.6691 52.2784 69.7085 52.3885 69.7368 52.5463C69.7482 52.6536 69.7708 52.7134 69.784 52.8219C69.8012 52.9294 69.8278 52.9881 69.8393 53.0817C69.8481 53.1871 69.8719 53.2575 69.8853 53.3858C69.9116 53.6333 69.9485 53.8229 69.9678 54.0471C69.9718 54.1534 69.9933 54.2249 70.0004 54.3592C69.9582 55.4796 69.9305 56.5374 69.8813 57.6377C69.8421 57.836 69.8245 57.9918 69.7793 58.197C69.7263 58.4322 69.7007 58.618 69.6751 58.8038ZM49.4621 61.0717C50.4486 61.8754 51.4336 62.6811 52.4221 63.4822C53.2429 64.1475 53.8406 64.0799 54.5028 63.2578C56.9057 60.275 59.3094 57.2929 61.7122 54.31C62.7958 52.9648 63.878 51.6184 64.9974 50.227C64.3613 49.7019 63.7756 49.2185 63.1549 48.7062C59.8211 52.8434 56.5367 56.9195 53.2232 61.0316C51.5217 59.6546 49.8739 58.321 48.2021 56.968C47.68 57.6301 47.2072 58.2296 46.722 58.8448C47.6599 59.6076 48.5229 60.3095 49.4621 61.0717Z" fill="#454F5B"/>
  <path d="M0.367503 63.9649C0.313632 63.8138 0.297451 63.6948 0.253695 63.4916C0.19052 63.3069 0.15492 63.2065 0.13247 63.0569C0.0970787 62.8101 0.0485393 62.6126 0 62.415C0.069061 61.489 0.138121 60.5629 0.20148 59.5795C0.268206 59.335 0.340633 59.1478 0.436218 58.877C0.495796 58.6691 0.532217 58.5449 0.597949 58.382C0.68597 58.1925 0.744681 58.0415 0.803392 57.8906C1.22821 56.913 1.98221 56.6774 2.99532 56.6797C15.198 56.7073 27.4007 56.6975 39.6034 56.6975C39.8473 56.6975 40.0912 56.6975 40.3751 56.6975C40.9321 61.8027 43.229 65.8035 47.4882 68.6876C47.6838 68.787 47.8101 68.8382 47.9365 68.8894C48.1063 69.1151 48.2761 69.3409 48.4847 69.6474C48.3932 69.8087 48.265 69.955 48.1325 69.9591C47.1636 69.9887 46.1939 69.9899 45.2244 70C45.1636 69.9907 45.1027 69.9813 44.9391 69.9724C44.5588 69.9823 44.2813 69.9919 43.9415 69.9875C42.7455 69.9823 41.6118 69.9911 40.478 70C40.4172 69.9907 40.3564 69.9813 40.1928 69.9724C39.8125 69.9823 39.5349 69.9919 39.1951 69.9875C37.9992 69.9823 36.8654 69.9911 35.7317 70C35.6709 69.9907 35.61 69.9813 35.4464 69.9724C35.0661 69.9823 34.7886 69.9919 34.4488 69.9875C33.2528 69.9823 32.1191 69.9911 30.9853 70C30.9245 69.9907 30.8637 69.9813 30.7001 69.9724C30.3198 69.9823 30.0422 69.9919 29.7024 69.9875C28.5065 69.9823 27.3727 69.9911 26.239 70C26.1782 69.9907 26.1173 69.9813 25.9537 69.9724C25.5734 69.9823 25.2959 69.9919 24.9561 69.9875C23.7601 69.9823 22.6264 69.9911 21.4926 70C21.4318 69.9907 21.371 69.9813 21.2074 69.9724C20.8271 69.9823 20.5495 69.9919 20.2097 69.9875C19.0137 69.9823 17.88 69.9911 16.7463 70C16.6854 69.9907 16.6246 69.9813 16.461 69.9724C16.0807 69.9823 15.8032 69.9919 15.4634 69.9875C14.2674 69.9823 13.1337 69.9911 11.9999 70C11.9391 69.9907 11.8783 69.9813 11.7147 69.9724C11.3344 69.9823 11.0568 69.9919 10.717 69.9875C9.52086 69.931 8.38693 69.8885 7.25299 69.8461C7.1984 69.8227 7.14381 69.7993 7.01134 69.7543C6.81393 69.7185 6.69439 69.7045 6.56362 69.6725C6.52478 69.6395 6.49811 69.6411 6.4313 69.6232C6.1832 69.5324 5.97619 69.4774 5.73667 69.3874C5.15312 69.0997 4.60207 68.8471 4.02826 68.5542C3.82345 68.4081 3.64141 68.3022 3.43978 68.1565C3.20786 67.9611 2.99552 67.8056 2.78318 67.65C2.62681 67.4812 2.47043 67.3124 2.25909 67.0871C2.00399 66.8187 1.80385 66.6068 1.59817 66.3548C1.49222 66.1958 1.3918 66.0769 1.29139 65.9579C0.995993 65.3043 0.700593 64.6507 0.367503 63.9649Z" fill="#454F5B"/>
  <path d="M68.9488 5.65279C68.7573 5.93627 68.5658 6.21976 68.3282 6.57436C68.0442 7.04598 67.8064 7.44648 67.5686 7.84698C67.2033 8.40851 66.838 8.97004 66.4314 9.59767C66.3478 9.75399 66.3055 9.84421 66.2222 9.95631C65.6096 10.9124 65.0381 11.8467 64.4276 12.8032C64.3238 12.9594 64.2591 13.0933 64.1536 13.2513C63.912 13.6259 63.7111 13.9765 63.4712 14.3488C63.2832 14.6313 63.1342 14.8921 62.9462 15.1713C62.8104 15.3647 62.7136 15.5396 62.582 15.7473C62.2074 16.3417 61.8677 16.9033 61.4909 17.4845C61.3278 17.7318 61.2017 17.9594 61.0358 18.2102C60.6126 18.8595 60.2292 19.4856 59.8458 20.1118C59.7593 20.221 59.6727 20.3303 59.5412 20.5023C59.4295 20.6885 59.3629 20.8118 59.2963 20.9352C59.1346 21.14 58.9728 21.3448 58.7656 21.6178C58.5068 21.9874 58.2936 22.289 58.0394 22.6086C57.8977 22.8019 57.7971 22.9771 57.6834 23.1953C57.5903 23.3587 57.5104 23.4792 57.3848 23.5963C57.177 23.7633 57.0149 23.9335 56.8135 24.1174C56.6774 24.2645 56.5807 24.3979 56.4418 24.5475C56.2914 24.7057 56.1832 24.8478 56.075 24.9899C55.9804 25.0821 55.8858 25.1742 55.74 25.3221C55.3597 25.7701 55.0305 26.1623 54.7013 26.5545C54.5321 26.7225 54.3628 26.8906 54.1417 27.12C53.8871 27.4324 53.6844 27.6834 53.4818 27.9345C53.1898 28.2431 52.8979 28.5518 52.5523 28.9228C52.3289 29.1977 52.1592 29.4102 51.9467 29.6373C50.8569 30.8533 49.8098 32.0548 48.7224 33.2721C48.5753 33.4261 48.4685 33.5643 48.3093 33.7174C47.6936 33.3302 47.1302 32.9279 46.5505 32.486C46.4167 32.372 46.2993 32.2976 46.1627 32.1818C45.4616 31.5948 44.7797 31.0493 44.0811 30.4904C44.4949 29.9812 44.8619 29.5297 45.2635 29.0684C45.318 29.0165 45.3378 28.9744 45.3987 28.913C45.7736 28.5202 46.1058 28.1453 46.4415 27.7736C50.1327 23.6867 53.6193 19.4087 57.6202 15.6116C60.3066 13.062 62.9128 10.4252 65.5907 7.81563C65.6891 7.72746 65.7516 7.65107 65.8552 7.55911C66.0091 7.41185 66.122 7.28017 66.2776 7.13621C66.5669 6.86646 66.8137 6.60899 67.1027 6.33915C67.3006 6.15276 67.4562 5.97874 67.6568 5.78964C67.8076 5.56174 67.9133 5.34892 68.0745 5.13928C68.2756 5.05185 68.4211 4.96125 68.6051 4.86061C68.8153 4.66739 68.987 4.48422 69.1989 4.29866C69.3261 4.19997 69.4132 4.10367 69.5406 4.00781C69.6472 4.0513 69.7134 4.09435 69.7688 4.18753C69.7264 4.32955 69.6948 4.42144 69.6303 4.53177C69.5567 4.64015 69.516 4.73007 69.4367 4.84243C69.2483 5.12751 69.0985 5.39015 68.9488 5.65279Z" fill="#454F5B"/>
  <path d="M46.6204 38.5845C46.5561 38.8115 46.4918 39.0385 46.3923 39.3334C46.2966 39.4528 46.2363 39.5044 46.1759 39.556C43.4339 40.6682 40.6917 41.7799 37.9502 42.8934C37.5529 43.0548 37.1591 43.2251 36.6756 43.4028C36.5425 43.3644 36.4973 43.3144 36.4521 43.2645C36.5727 42.8866 36.6932 42.5086 36.8415 42.0541C36.8819 41.9015 36.8945 41.8255 36.9071 41.7495C36.9689 41.5546 37.0307 41.3598 37.1176 41.0868C37.1582 40.9344 37.1737 40.86 37.1892 40.7856C37.5151 39.6712 37.8409 38.5569 38.1933 37.3671C38.2302 37.216 38.2406 37.1404 38.2509 37.0648C38.3155 36.8697 38.3801 36.6746 38.4715 36.4036C38.5105 36.2521 38.5227 36.1765 38.5349 36.101C38.8308 35.1016 39.0988 34.0922 39.4409 33.1095C39.5352 32.8384 39.8098 32.5497 40.0718 32.4365C40.8925 32.082 41.7465 31.8073 42.664 31.467C42.8452 31.382 42.95 31.3316 43.0547 31.2813C43.1183 31.2717 43.1818 31.2622 43.3319 31.2363C43.5674 31.289 43.7163 31.3579 43.8653 31.4268C44.8831 32.2527 45.8727 33.1187 46.93 33.8886C47.5132 34.3134 47.7416 34.7322 47.4277 35.4109C47.3431 35.5938 47.3231 35.8074 47.2492 36.0828C47.215 36.233 47.205 36.3072 47.1949 36.3815C47.1727 36.4417 47.1504 36.502 47.1047 36.6356C47.0698 36.7834 47.0584 36.8577 47.047 36.9321C47.0274 36.9926 47.0078 37.0531 46.9657 37.1868C46.93 37.3344 46.917 37.4086 46.9039 37.4829C46.8851 37.543 46.8663 37.603 46.8249 37.7372C46.7884 37.8854 46.7745 37.9595 46.7607 38.0336C46.7431 38.0936 46.7255 38.1537 46.6868 38.2889C46.6507 38.4376 46.6355 38.5111 46.6204 38.5845Z" fill="#454F5B"/>
</svg>