<svg xmlns="http://www.w3.org/2000/svg" width="70" height="70" viewBox="0 0 70 70" fill="none">
  <path d="M14.4799 46.3439C14.4778 51.4883 14.4759 56.5769 14.4755 61.6655C14.4754 62.5617 14.4472 62.5963 13.5638 62.5992C12.6043 62.6023 11.6448 62.6038 10.6853 62.5992C9.96549 62.5957 9.93269 62.5602 9.93246 61.8287C9.93013 54.4589 9.92877 47.0891 9.92736 39.7194C9.92707 38.1668 9.92718 36.6142 9.92726 35.0077C9.92728 34.5355 9.57499 34.4677 9.45807 34.9251C8.92517 37.0102 8.44013 39.1073 7.93628 41.1998C7.6177 42.5228 6.75049 43.3202 5.63261 43.3221C4.103 43.3246 3.06222 41.9037 3.43712 40.4285C3.92035 38.5269 4.32449 36.6055 4.77196 34.6949C5.32523 32.3324 5.88257 29.9709 6.4493 27.6116C6.68512 26.6299 7.41008 26.0342 8.20373 25.5067C9.91079 24.3719 11.7947 23.7346 13.8246 23.4554C17.2901 22.9787 20.3983 23.8164 23.237 25.8184C24.2157 26.5086 24.4262 27.5299 24.691 28.5685C24.7809 28.9209 24.8251 29.2872 24.9123 29.6742C24.9995 30.061 25.4792 30.1021 25.6897 29.7661C25.85 29.5102 26.001 29.2699 26.1532 29.0304C26.6863 28.1918 27.2091 27.3461 27.7616 26.5203C28.1673 25.9139 28.7557 25.576 29.497 25.6087C29.9708 25.6297 30.3017 25.4545 30.629 25.1289C33.5369 22.2352 36.4555 19.3519 39.3776 16.4723C39.9754 15.8832 40.4261 15.7977 41.0018 16.1044C41.6257 16.4368 41.8179 17.2353 41.3984 17.8062C41.2608 17.9935 41.0904 18.1585 40.9248 18.3236C38.0065 21.2344 35.0893 24.1465 32.1627 27.049C31.8828 27.3265 31.692 27.6001 31.7322 28.0137C31.8036 28.7467 31.2687 29.2402 30.9389 29.7927C29.661 31.934 28.3341 34.0465 27.0214 36.1673C26.4994 37.0106 25.7418 37.2827 24.7649 37.1512C23.9142 37.0366 23.1316 36.7837 22.3951 36.3513C21.828 36.0184 21.5364 35.542 21.4515 34.8941C21.399 34.493 21.2946 34.0986 21.2011 33.7096C21.1644 33.5572 20.959 33.4389 20.9628 33.5956C21.0927 38.9751 21.0411 44.3557 20.9818 49.7346C20.9402 53.5166 20.8737 57.2992 20.9631 61.0789C21.0036 62.7878 21.0011 62.5936 19.4371 62.5985C18.6929 62.6008 17.9476 62.5711 17.2051 62.6056C16.6535 62.6313 16.505 62.4141 16.5065 61.8858C16.5209 57.0897 16.5162 52.2934 16.5065 47.4973C16.504 46.2502 16.4524 45.0033 16.4481 43.7562C16.4465 43.3026 16.268 43.1461 15.8163 43.1432C14.5376 43.1351 14.5459 43.1201 14.5418 44.3605C14.5396 45.0031 14.5021 45.6456 14.4799 46.3439Z" fill="#454F5B"/>
  <path d="M56.2505 30.9902C56.2501 23.9924 56.2506 17.0531 56.2487 10.1137C56.2484 9.2294 56.2424 9.22581 55.3809 9.22595C43.9474 9.22788 32.5138 9.23073 21.0802 9.23409C20.3827 9.23429 20.3876 9.26171 20.4023 9.9669C20.4238 10.9988 20.4064 12.0316 20.3934 13.0639C20.3889 13.4288 20.1595 13.5396 19.895 13.3213C19.1625 12.7167 18.3668 12.2403 17.4629 11.9407C17.2343 11.8649 17.2221 11.6525 17.2222 11.4542C17.2225 10.5186 17.1948 9.58155 17.2388 8.64787C17.2841 7.68424 18.279 6.54166 19.2598 6.284C19.7119 6.16521 20.1758 6.07184 20.651 6.08468C27.071 6.25813 33.4923 6.14111 39.913 6.16471C45.2773 6.18443 50.6417 6.15783 56.0061 6.15326C57.5818 6.15192 58.6119 6.81525 59.1345 8.14009C59.239 8.40511 59.2463 8.6725 59.2463 8.94356C59.2488 17.0915 59.2296 25.2394 59.2682 33.3872C59.2745 34.7238 57.9636 36.3121 56.1575 36.3067C48.2285 36.2832 40.2993 36.298 32.3702 36.3035C31.5682 36.304 30.7659 36.3564 29.9643 36.3461C29.3672 36.3384 29.2779 36.1418 29.5939 35.6224C29.999 34.9565 30.4264 34.3038 30.8203 33.6315C31.0436 33.2504 31.3478 33.0911 31.7837 33.1012C33.0945 33.1316 34.4056 33.1634 35.7167 33.1651C42.2949 33.1734 48.8731 33.1725 55.4514 33.1741C56.2316 33.1743 56.2342 33.172 56.2458 32.3933C56.2525 31.9452 56.2493 31.4969 56.2505 30.9902Z" fill="#454F5B"/>
  <path d="M58.3108 52.8649C60.7949 52.6874 63 53.3145 64.9997 54.6945C65.6522 55.1448 65.9481 55.7438 65.9306 56.5301C65.9114 57.3864 65.9151 58.2438 65.9338 59.1001C65.9435 59.5456 65.7553 59.7508 65.3149 59.7498C62.4611 59.7434 59.6073 59.7413 56.7535 59.7319C55.5609 59.7279 54.3681 59.6911 53.1758 59.7062C52.671 59.7126 52.469 59.5384 52.4831 59.0302C52.5074 58.1546 52.5053 57.2776 52.4857 56.4018C52.4687 55.6424 52.8251 55.1101 53.4244 54.696C54.8834 53.6882 56.5104 53.124 58.3108 52.8649Z" fill="#454F5B"/>
  <path d="M45.9279 59.7006C43.4418 59.6985 41.0145 59.6978 38.5871 59.6936C37.7956 59.6923 37.7013 59.6212 37.7208 58.8184C37.7448 57.8309 37.5835 56.8367 37.8727 55.855C38.0077 55.3965 38.2388 55.0416 38.6197 54.7777C42.3314 52.2059 46.7353 52.1703 50.3974 54.7737C50.9659 55.1778 51.2746 55.7383 51.2519 56.4715C51.2248 57.3477 51.2324 58.2257 51.2497 59.1024C51.2585 59.5524 51.0887 59.7213 50.6258 59.7144C49.0797 59.6914 47.5331 59.7026 45.9279 59.7006Z" fill="#454F5B"/>
  <path d="M24.7593 54.2406C28.3061 52.3063 31.768 52.3557 35.1974 54.4369C36.025 54.9392 36.554 55.5694 36.5127 56.5951C36.4799 57.4119 36.5111 58.2311 36.5148 59.0493C36.5168 59.5016 36.3269 59.7042 35.8384 59.7024C31.8073 59.687 27.7761 59.6851 23.745 59.6966C23.2532 59.698 23.0871 59.5121 23.1008 59.0416C23.1236 58.2629 23.1469 57.4806 23.0975 56.7044C23.0347 55.7169 23.4123 55.0102 24.2755 54.5417C24.4297 54.4581 24.5722 54.3532 24.7593 54.2406Z" fill="#454F5B"/>
  <path d="M18.1498 21.5927C15.5215 23.3806 12.456 22.4801 11.2443 19.5985C10.2252 17.175 11.8321 14.2903 14.4414 13.6732C17.1351 13.0362 20.0844 15.1714 19.9556 18.2752C19.9002 19.6104 19.2585 20.7281 18.1498 21.5927Z" fill="#454F5B"/>
  <path d="M30.1468 45.2647C32.2534 45.6396 33.1275 46.9335 33.3413 48.4837C33.5065 49.6817 32.6977 51.325 31.121 51.9314C29.1703 52.6817 26.8836 51.6431 26.4245 49.3094C26.0217 47.262 27.694 45.3263 29.8019 45.2603C29.8996 45.2573 29.9976 45.2615 30.1468 45.2647Z" fill="#454F5B"/>
  <path d="M47.8993 49.2743C47.4867 50.8248 46.5958 51.807 45.0096 52.1156C43.4845 52.4123 41.7603 51.3889 41.2028 49.9471C40.449 47.9976 41.7012 45.9046 43.615 45.3701C45.2094 44.9249 47.2251 45.9874 47.7108 47.5711C47.8765 48.1112 48.0399 48.651 47.8993 49.2743Z" fill="#454F5B"/>
  <path d="M62.3922 49.9272C61.7426 51.5712 60.3075 52.2167 59.0251 52.17C57.5425 52.1159 56.2665 51.089 55.8344 49.7138C55.3844 48.2815 56.0228 46.6618 57.3773 45.7993C58.6825 44.9682 60.3451 45.1306 61.4982 46.2019C62.537 47.1671 62.8938 48.6073 62.3922 49.9272Z" fill="#454F5B"/>
</svg>