<svg xmlns="http://www.w3.org/2000/svg" width="65" height="64" viewBox="0 0 65 64" fill="none">
  <path d="M12.333 44H4.33301V57H12.333V44Z" fill="#454F5B"/>
  <path d="M44.333 43H36.333V57H44.333V43Z" fill="#454F5B"/>
  <path d="M28.333 27H20.333V57H28.333V27Z" fill="#454F5B"/>
  <path d="M60.333 27H52.333V57H60.333V27Z" fill="#454F5B"/>
  <path d="M8.33301 31C10.5421 31 12.333 29.2091 12.333 27C12.333 24.7909 10.5421 23 8.33301 23C6.12387 23 4.33301 24.7909 4.33301 27C4.33301 29.2091 6.12387 31 8.33301 31Z" fill="#454F5B"/>
  <path d="M40.333 31C42.5421 31 44.333 29.2091 44.333 27C44.333 24.7909 42.5421 23 40.333 23C38.1239 23 36.333 24.7909 36.333 27C36.333 29.2091 38.1239 31 40.333 31Z" fill="#454F5B"/>
  <path d="M24.333 15C26.5421 15 28.333 13.2091 28.333 11C28.333 8.79086 26.5421 7 24.333 7C22.1239 7 20.333 8.79086 20.333 11C20.333 13.2091 22.1239 15 24.333 15Z" fill="#454F5B"/>
  <path d="M56.333 15C58.5421 15 60.333 13.2091 60.333 11C60.333 8.79086 58.5421 7 56.333 7C54.1239 7 52.333 8.79086 52.333 11C52.333 13.2091 54.1239 15 56.333 15Z" fill="#454F5B"/>
  <path d="M11.1611 24.172L21.5051 13.828M37.5051 24.172L27.1611 13.828M43.1611 24.172L53.5051 13.828M4.33301 44H12.333V57H4.33301V44ZM36.333 43H44.333V57H36.333V43ZM20.333 27H28.333V57H20.333V27ZM52.333 27H60.333V57H52.333V27ZM12.333 27C12.333 29.2091 10.5421 31 8.33301 31C6.12387 31 4.33301 29.2091 4.33301 27C4.33301 24.7909 6.12387 23 8.33301 23C10.5421 23 12.333 24.7909 12.333 27ZM44.333 27C44.333 29.2091 42.5421 31 40.333 31C38.1239 31 36.333 29.2091 36.333 27C36.333 24.7909 38.1239 23 40.333 23C42.5421 23 44.333 24.7909 44.333 27ZM28.333 11C28.333 13.2091 26.5421 15 24.333 15C22.1239 15 20.333 13.2091 20.333 11C20.333 8.79086 22.1239 7 24.333 7C26.5421 7 28.333 8.79086 28.333 11ZM60.333 11C60.333 13.2091 58.5421 15 56.333 15C54.1239 15 52.333 13.2091 52.333 11C52.333 8.79086 54.1239 7 56.333 7C58.5421 7 60.333 8.79086 60.333 11Z" stroke="#454F5B" stroke-width="4" stroke-miterlimit="10"/>
</svg>