<svg xmlns="http://www.w3.org/2000/svg" width="71" height="70" viewBox="0 0 71 70" fill="none">
  <path d="M44.6199 32.8127L41.9949 35.496C39.8949 37.596 38.5824 39.3752 38.5824 43.7502H32.749V42.2918C32.749 39.0543 34.0615 36.1377 36.1615 34.0377L39.7782 30.3627C40.8574 29.3127 41.499 27.8543 41.499 26.2502C41.499 24.7031 40.8844 23.2193 39.7905 22.1254C38.6965 21.0314 37.2128 20.4168 35.6657 20.4168C34.1186 20.4168 32.6349 21.0314 31.5409 22.1254C30.4469 23.2193 29.8324 24.7031 29.8324 26.2502H23.999C23.999 23.156 25.2282 20.1885 27.4161 18.0006C29.604 15.8127 32.5715 14.5835 35.6657 14.5835C38.7599 14.5835 41.7273 15.8127 43.9153 18.0006C46.1032 20.1885 47.3324 23.156 47.3324 26.2502C47.3282 28.7096 46.3534 31.068 44.6199 32.8127ZM38.5824 55.4168H32.749V49.5835H38.5824M35.6657 5.8335C31.8355 5.8335 28.0428 6.58791 24.5041 8.05368C20.9654 9.51944 17.7501 11.6678 15.0417 14.3762C9.57193 19.846 6.49902 27.2647 6.49902 35.0002C6.49902 42.7356 9.57193 50.1543 15.0417 55.6241C17.7501 58.3325 20.9654 60.4809 24.5041 61.9466C28.0428 63.4124 31.8355 64.1668 35.6657 64.1668C43.4012 64.1668 50.8198 61.0939 56.2896 55.6241C61.7594 50.1543 64.8324 42.7356 64.8324 35.0002C64.8324 18.871 51.7074 5.8335 35.6657 5.8335Z" fill="#454F5B"/>
</svg>