<svg xmlns="http://www.w3.org/2000/svg" width="71" height="70" viewBox="0 0 71 70" fill="none">
  <path d="M47.0575 34.9062C48.7394 35.0109 50.3715 34.9483 52.0027 34.9522C52.6843 34.9538 53.0721 34.5962 53.0637 34.0455C53.0555 33.5014 52.6668 33.179 51.9673 33.1782C47.4164 33.1729 42.8656 33.1747 38.3147 33.172C38.1521 33.1719 37.9856 33.192 37.8296 33.1691C37.7058 33.1509 37.5831 33.038 37.6395 32.9263C37.6714 32.8631 37.7366 32.8213 37.7865 32.7744C38.8126 31.8085 39.6889 30.7192 40.3911 29.4972C40.6197 29.0993 40.8959 28.9543 41.3509 28.9566C44.7231 28.9739 48.0955 28.9669 51.4679 28.9675C51.6129 28.9675 51.758 28.969 51.903 28.9667C52.5805 28.9559 53.0034 28.6253 53.0055 28.1063C53.0077 27.5476 52.6372 27.2448 51.926 27.2443C48.7712 27.2423 45.6164 27.2444 42.4616 27.245C42.3166 27.245 42.1713 27.2494 42.0266 27.2429C41.7241 27.2296 41.5872 27.0948 41.706 26.7821C42.1221 25.6873 42.3628 24.551 42.4923 23.3893C42.5247 23.0984 42.6921 22.9736 42.9632 22.9673C43.3075 22.9594 43.6521 22.959 43.9965 22.959C46.5348 22.9591 49.0732 22.9606 51.6115 22.9602C51.8107 22.9602 52.0127 22.9683 52.2087 22.9397C52.6714 22.8719 52.907 22.5758 52.9288 22.1193C52.9498 21.6798 52.6282 21.3112 52.187 21.2548C52.0082 21.2319 51.825 21.2393 51.6438 21.2393C48.8698 21.2391 46.0957 21.2289 43.3218 21.2502C42.7939 21.2542 42.5952 21.1122 42.5759 20.5485C42.5463 19.679 42.4144 18.8114 42.2169 17.9593C42.203 17.8993 42.186 17.8402 42.1778 17.7773C42.154 17.5931 42.3421 17.4792 42.5276 17.4697C43.287 17.4308 44.0631 17.3695 44.8448 17.4273C45.0781 17.4445 45.3196 17.4594 45.5476 17.4193C46.094 17.3233 46.3717 16.9406 46.3189 16.4105C46.273 15.9496 45.9584 15.672 45.4106 15.665C44.3229 15.6512 43.2343 15.637 42.1473 15.6684C41.6622 15.6825 41.4014 15.5331 41.2035 15.067C40.5348 13.4928 39.5556 12.1182 38.3875 10.8766C38.2702 10.7519 38.1138 10.653 38.0407 10.4946C38.0053 10.4179 38.0102 10.3195 38.0752 10.2656C38.1568 10.1977 38.2708 10.221 38.3747 10.2211C42.3257 10.2262 46.2767 10.2318 50.2277 10.2373C50.2458 10.2373 50.264 10.2381 50.2821 10.2369C51.4692 10.1635 51.3621 10.104 51.3636 11.344C51.3653 12.784 51.3568 14.224 51.3668 15.6639C51.377 17.1405 52.3539 18.1247 53.8334 18.1369C55.4107 18.15 56.9881 18.1363 58.5655 18.1372C59.218 18.1376 59.2733 18.1895 59.2735 18.8591C59.2762 27.0432 59.2743 35.2273 59.2829 43.4114C59.2833 43.8705 59.1585 44.0664 58.6578 44.1442C57.0157 44.3993 55.5859 45.2016 54.1817 46.0469C53.946 46.1887 53.7065 46.3241 53.4789 46.4543C53.3864 46.5071 53.1998 46.5265 53.1958 46.4201C53.1538 45.2802 53.0462 45.1752 51.8747 45.1748C47.1244 45.173 42.374 45.169 37.6238 45.1781C37.087 45.1792 36.5894 45.0726 36.0866 44.8959C34.4287 44.313 32.8026 43.6281 31.0826 43.2379C29.6324 42.9089 28.2488 43.1216 26.9061 43.7615C25.5267 44.4188 24.2392 45.2358 22.9184 45.9951C22.3644 46.3136 22.2656 46.2716 22.2649 45.6358C22.2616 42.7377 22.2616 39.8395 22.2682 36.9414C22.2699 36.1781 22.3301 36.1627 23.0442 36.3589C26.951 37.4328 30.7196 37.057 34.3344 35.2166C34.7211 35.0197 35.1019 34.9463 35.5312 34.9459C39.3561 34.9419 43.181 34.9212 47.0575 34.9062ZM34.8436 39.1748C34.3905 39.1751 33.9374 39.175 33.4843 39.1756C32.125 39.1774 30.7656 39.1709 29.4064 39.1863C28.9198 39.1917 28.5381 39.6046 28.5442 40.0588C28.5503 40.5164 28.8828 40.8507 29.3826 40.8852C29.6173 40.9014 29.8536 40.8954 30.0892 40.8954C35.3633 40.8967 40.6375 40.8979 45.9117 40.8981C47.9416 40.8981 49.9715 40.8977 52.0014 40.8934C52.7708 40.8917 53.1519 40.6077 53.155 40.0504C53.1582 39.4873 52.7672 39.1848 52.0255 39.1767C51.9349 39.1757 51.8442 39.1762 51.7536 39.1762C46.1532 39.1757 40.5528 39.1753 34.8436 39.1748Z" fill="#454F5B" stroke="#454F5B"/>
  <path d="M40.7773 23.1471C40.4447 25.7114 39.5326 27.9922 37.9398 29.9557C35.2092 33.3217 31.6945 35.0944 27.3315 35.1612C21.8211 35.2456 16.7315 31.7924 14.6693 26.6317C11.5801 18.9011 15.9468 10.321 23.9955 8.27125C30.426 6.63362 37.1186 9.98803 39.7502 16.1041C40.7213 18.361 40.9476 20.6907 40.7773 23.1471ZM23.6561 20.4222C23.2539 18.8544 22.8444 17.2884 22.4537 15.7177C22.3247 15.1991 22.0504 14.841 21.5044 14.8265C20.5084 14.8 19.5104 14.7941 18.5148 14.827C17.9385 14.846 17.598 15.2638 17.6282 15.793C17.656 16.2782 17.9809 16.571 18.5502 16.5892C19.0572 16.6054 19.565 16.5939 20.0725 16.5953C20.8737 16.5976 20.8821 16.5956 21.0873 17.39C22.006 20.9473 22.9165 24.5067 23.8401 28.0627C23.9223 28.3793 23.9176 28.6519 23.7802 28.956C23.6394 29.2678 23.5584 29.6091 23.6499 29.9667C23.8418 30.7166 24.2776 31.2501 25.0371 31.4261C25.794 31.6015 26.3822 31.2488 26.835 30.6678C27.0184 30.4324 27.185 30.2341 27.4945 30.1511C29.6463 29.5748 31.7955 28.9884 33.9416 28.3909C34.6615 28.1905 35.3659 27.9642 36.0849 28.3961C36.1993 28.4648 36.3685 28.4702 36.5093 28.4602C36.8628 28.4351 37.1251 28.2602 37.2534 27.9153C37.3811 27.5718 37.3372 27.2049 37.0476 27.0228C36.3476 26.5823 35.6324 26.1252 34.7262 26.372C32.612 26.9476 30.4945 27.511 28.3798 28.0846C27.5557 28.3081 26.7458 28.7087 25.9419 27.9704C25.7555 27.7992 25.5608 27.6996 25.4896 27.4241C24.8933 25.1174 24.2827 22.8145 23.6561 20.4222ZM32.2696 24.6369C32.6553 24.5372 33.0409 24.4369 33.4268 24.338C33.8087 24.2401 33.9803 24.0084 33.8746 23.6114C33.4628 22.0655 33.0446 20.5214 32.6369 18.9744C32.5321 18.5765 32.2832 18.439 31.9061 18.5256C31.4653 18.6267 31.0297 18.7502 30.5915 18.8627C30.2805 18.9425 30.1944 19.138 30.2787 19.4392C30.3766 19.7891 30.478 20.1393 30.5494 20.4952C30.6654 21.0737 30.3628 21.5942 29.8452 21.7477C29.3164 21.9044 28.7638 21.5946 28.5741 21.0117C28.4674 20.684 28.3942 20.3449 28.314 20.009C28.2371 19.6868 28.0714 19.5454 27.7269 19.6463C27.3103 19.7683 26.8878 19.8717 26.4648 19.9698C26.0405 20.0682 25.8997 20.3285 26.0062 20.7368C26.396 22.2314 26.7993 23.7225 27.1751 25.2206C27.3071 25.7469 27.6036 25.8917 28.0947 25.7597C29.458 25.3932 30.8222 25.0304 32.2696 24.6369ZM27.8748 13.0432C28.0606 13.8154 27.8136 14.3616 27.1994 14.5369C26.6237 14.7011 26.1474 14.3552 25.9117 13.6019C25.89 13.5325 25.8657 13.4639 25.8469 13.3938C25.6415 12.6261 25.6202 12.613 24.8425 12.8124C24.7024 12.8483 24.5624 12.8864 24.4256 12.9332C24.1171 13.0387 24.0015 13.2517 24.0874 13.5712C24.4083 14.7637 24.7302 15.9559 25.0485 17.149C25.1448 17.5096 25.3644 17.6777 25.7312 17.5809C27.1815 17.198 28.6313 16.8129 30.0771 16.4133C30.3621 16.3346 30.558 16.14 30.4448 15.7988C30.0552 14.6253 29.7957 13.4166 29.4782 12.2236C29.4147 11.9851 29.3118 11.7797 29.0325 11.7356C28.1837 11.6016 27.6604 12.1436 27.8748 13.0432Z" fill="#454F5B"/>
  <path d="M53.6588 54.0871C50.447 56.0782 47.2593 58.0328 44.0944 60.0242C42.3438 61.1258 40.5489 61.4986 38.5033 60.9145C34.5501 59.7857 30.5643 58.7723 26.5927 57.7084C26.2151 57.6073 25.8448 57.5494 25.4885 57.7686C25.2269 57.9295 25.0566 57.8435 24.9152 57.5899C23.4882 55.0309 22.0591 52.4732 20.6244 49.9187C20.4595 49.6252 20.48 49.4326 20.794 49.2551C23.0682 47.9696 25.2685 46.5536 27.6076 45.3823C28.9008 44.7348 30.1985 44.7113 31.5573 45.1779C34.3505 46.1371 37.1088 47.2101 39.9942 47.879C40.311 47.9524 40.6276 48.0283 40.9467 48.0904C41.9886 48.2932 42.7578 49.2853 42.5763 50.1998C42.3516 51.3318 41.4357 51.9359 40.2707 51.714C38.3095 51.3404 36.4296 50.6566 34.4954 50.1797C34.4602 50.1711 34.4265 50.1569 34.3915 50.1474C33.6091 49.936 33.1369 50.0985 32.9919 50.6289C32.8282 51.2274 33.1168 51.6572 33.9003 51.8528C36.2876 52.4488 38.605 53.3357 41.0667 53.6221C42.9404 53.84 44.7214 53.6753 46.4089 52.6587C49.7355 50.6546 53.1063 48.724 56.4741 46.79C57.4201 46.2468 58.4277 45.8172 59.5504 45.801C60.7219 45.7842 61.4213 46.2811 61.7137 47.3167C61.9763 48.2463 61.5834 49.1706 60.6799 49.7317C58.3515 51.1778 56.0217 52.6215 53.6588 54.0871Z" fill="#454F5B"/>
  <path d="M23.288 58.2675C23.9446 59.4247 24.602 60.5361 25.2183 61.6701C25.7029 62.5616 25.5075 63.2723 24.6327 63.8103C23.8299 64.304 23.0052 64.7639 22.1738 65.208C21.36 65.6426 20.6593 65.4478 20.1733 64.6455C19.6835 63.8372 19.233 63.0048 18.7696 62.1805C16.7292 58.5506 14.6901 54.9198 12.6512 51.289C12.1382 50.3755 12.3157 49.6625 13.2206 49.1182C13.9508 48.6789 14.7012 48.2735 15.4396 47.8479C16.473 47.2521 17.2082 47.4466 17.7927 48.482C18.6419 49.9863 19.4893 51.4916 20.3354 52.9976C21.3151 54.7415 22.2926 56.4867 23.288 58.2675ZM16.4192 51.9442C16.811 51.6599 16.9297 51.2722 16.7179 50.8504C16.5327 50.4814 16.1919 50.3197 15.7634 50.4171C15.3478 50.5115 15.1628 50.8023 15.1371 51.1977C15.0966 51.8218 15.5826 52.1322 16.4192 51.9442Z" fill="#454F5B"/>
  <path d="M59.0739 52.8882C59.2991 53.0142 59.2732 53.2091 59.2737 53.3864C59.2772 54.6252 59.2882 55.8642 59.2699 57.1027C59.2588 57.8561 58.829 58.306 58.0806 58.3117C55.6706 58.3301 53.2604 58.3212 50.8503 58.3202C50.7478 58.3201 50.6278 58.3415 50.5597 58.2102C50.5544 58.0051 50.7396 57.9582 50.867 57.8793C53.5046 56.2458 56.145 54.6169 58.7861 52.9891C58.8617 52.9425 58.9508 52.9179 59.0739 52.8882Z" fill="#454F5B"/>
  <path d="M50.1705 48.3898C48.7249 49.2321 47.3065 50.0424 45.9081 50.8862C45.4635 51.1545 45.0056 51.104 44.5394 51.0967C44.3449 51.0937 44.2301 50.9799 44.27 50.7752C44.5499 49.3393 44.084 48.1593 43.0606 47.1651C43.0291 47.1346 43.0328 47.0675 43.0039 46.9541C46.1208 46.9541 49.2104 46.9541 52.3 46.9541C51.6812 47.5761 50.9152 47.9301 50.1705 48.3898Z" fill="#454F5B"/>
  <path d="M53.1514 11.5994C53.1785 11.1897 53.0845 10.8239 53.2763 10.313C55.2897 12.2753 57.2015 14.2161 59.1033 16.1574C58.926 16.3961 58.7497 16.3349 58.5979 16.3354C57.0942 16.3396 55.5904 16.339 54.0866 16.3362C53.2964 16.3347 53.1616 16.2023 53.1585 15.4234C53.1535 14.1666 53.1536 12.9098 53.1514 11.5994Z" fill="#454F5B"/>
</svg>