<svg xmlns="http://www.w3.org/2000/svg" width="71" height="70" viewBox="0 0 71 70" fill="none">
  <path fill-rule="evenodd" clip-rule="evenodd" d="M8.66602 10.5294C8.66602 8.58017 10.1202 7 11.9141 7H59.4179C61.2118 7 62.666 8.58017 62.666 10.5294V16.5C62.666 16.7761 62.4422 17 62.166 17H9.16602C8.88987 17 8.66602 16.7761 8.66602 16.5V10.5294ZM48.3202 13.25C48.3202 12.6409 48.7746 12.1471 49.3352 12.1471H52.1773C52.7379 12.1471 53.1923 12.6409 53.1923 13.25C53.1923 13.8591 52.7379 14.3529 52.1773 14.3529H49.3352C48.7746 14.3529 48.3202 13.8591 48.3202 13.25ZM19.1547 12.1471C18.5941 12.1471 18.1397 12.6409 18.1397 13.25C18.1397 13.8591 18.5941 14.3529 19.1547 14.3529H21.9968C22.5574 14.3529 23.0119 13.8591 23.0119 13.25C23.0119 12.6409 22.5574 12.1471 21.9968 12.1471H19.1547Z" fill="#454F5B"/>
  <path fill-rule="evenodd" clip-rule="evenodd" d="M10.8206 20C9.63067 20 8.66602 20.9656 8.66602 22.1567V59.7649C8.66602 61.5516 10.113 63 11.8979 63H49.065C49.3625 63 49.6037 62.7586 49.6037 62.4608V54.6426C49.6037 51.9626 51.7741 49.79 54.4516 49.79H62.1274C62.4249 49.79 62.666 49.5486 62.666 49.2508V22.1567C62.666 20.9656 61.7014 20 60.5114 20H10.8206ZM21.3244 28.4922C20.7294 28.4922 20.2471 28.975 20.2471 29.5705C20.2471 30.1661 20.7294 30.6489 21.3244 30.6489H50.0077C50.6026 30.6489 51.085 30.1661 51.085 29.5705C51.085 28.975 50.6026 28.4922 50.0077 28.4922H21.3244ZM26.3069 40.3542C26.3069 39.7587 26.7892 39.2759 27.3842 39.2759H50.0077C50.6026 39.2759 51.085 39.7587 51.085 40.3542C51.085 40.9498 50.6026 41.4326 50.0077 41.4326H27.3842C26.7892 41.4326 26.3069 40.9498 26.3069 40.3542ZM21.3244 39.2759C20.7294 39.2759 20.2471 39.7587 20.2471 40.3542C20.2471 40.9498 20.7294 41.4326 21.3244 41.4326H23.479C24.074 41.4326 24.5563 40.9498 24.5563 40.3542C24.5563 39.7587 24.074 39.2759 23.479 39.2759H21.3244ZM20.2471 51.6771C20.2471 51.0815 20.7294 50.5987 21.3244 50.5987H35.3294C35.9243 50.5987 36.4067 51.0815 36.4067 51.6771C36.4067 52.2727 35.9243 52.7555 35.3294 52.7555H21.3244C20.7294 52.7555 20.2471 52.2727 20.2471 51.6771Z" fill="#454F5B"/>
  <path d="M54.9398 52C53.1318 52 51.666 53.4657 51.666 55.2738V62.318C51.666 62.6946 51.9714 63 52.3481 63C52.5266 63 52.698 62.93 52.8255 62.8051L62.4209 53.4006C62.5777 53.2469 62.666 53.0366 62.666 52.8171C62.666 52.3658 62.3002 52 61.8489 52H54.9398Z" fill="#454F5B"/>
</svg>