<svg width="510" height="788" viewBox="0 0 510 788" fill="none" xmlns="http://www.w3.org/2000/svg">
<path d="M246.108 10.5C246.108 10.5 408.608 32 276.608 301.5C144.608 571 451.608 558.058 433.108 406C414.608 253.942 303.608 612 18.1084 710.5" stroke="#FF5630" stroke-width="2" stroke-dasharray="4 4"/>
<path fill-rule="evenodd" clip-rule="evenodd" d="M10.1505 708.344C9.43988 708.609 7.92062 712.293 7.77971 712.963C6.40672 712.795 2.64083 711.152 1.46643 711.589C-0.194937 712.208 -0.629137 714.185 1.42435 714.85C2.94131 715.342 4.69433 715.593 6.04151 716.247C5.47697 718.893 1.96215 721.66 6.2851 722.136C7.3449 722.253 7.78959 721.855 8.18047 721.116C8.81731 719.896 9.16797 718.488 10.0107 717.399C11.4085 717.568 13.0784 718.238 14.5083 718.642C17.2329 719.411 17.7872 716.952 17.4611 716.372C16.9117 715.409 12.786 714.352 11.5252 714.197C11.758 713.094 13.884 710.05 13.3603 709.123C12.9254 708.35 11.1909 707.956 10.1505 708.344Z" fill="#13005A"/>
</svg>
