<svg xmlns="http://www.w3.org/2000/svg" width="80" height="81" viewBox="0 0 80 81" fill="none">
  <path d="M22.3167 20.75V64.7333H11.7667C10.6408 64.7334 9.56061 64.2884 8.7614 63.4955C7.9622 62.7025 7.5088 61.6258 7.5 60.5V28.5333M57.6833 20.75V64.7333H68.2333C69.3592 64.7334 70.4394 64.2884 71.2386 63.4955C72.0378 62.7025 72.4912 61.6258 72.5 60.5V28.5333" stroke="#00A76F" stroke-width="2" stroke-miterlimit="10"/>
  <path d="M71.5194 19.3977C72.1575 20.4303 72.497 21.6196 72.5 22.8334V28.8334L40 52.9168L7.5 28.8334V24.6668C7.50303 23.4529 7.84248 20.4303 8.48063 19.3977C9.11878 18.3651 10.5823 16.8791 11.6667 16.3334C12.751 15.7878 15.4572 16.2305 16.6667 16.3334C17.8762 16.4363 20.3759 18.6767 21.3525 19.3977L40 33.9334L62.0333 17.5668" stroke="#FF5630" stroke-width="2" stroke-miterlimit="10" stroke-dasharray="8 8"/>
</svg>