<svg width="1093" height="163" viewBox="0 0 1093 163" fill="none" xmlns="http://www.w3.org/2000/svg">
<path d="M1065.5 111.175C1065.5 111.175 910.551 221.321 662.5 115.514C464 30.8436 169 146.844 338.5 146.844C508 146.843 224 -79.5004 5.5 33.5" stroke="#FF5630" stroke-width="2" stroke-dasharray="6 6"/>
<path fill-rule="evenodd" clip-rule="evenodd" d="M1078.67 90.9693C1078.25 91.6108 1079.27 95.7621 1079.57 96.44C1078.34 97.0713 1074.23 97.7488 1073.53 98.8068C1072.55 100.305 1073.41 102.316 1075.51 101.741C1077.06 101.316 1078.66 100.543 1080.17 100.36C1081.34 103.041 1080.16 107.51 1084.01 105.475C1084.95 104.976 1085.07 104.368 1084.93 103.486C1084.71 102.035 1084.12 100.579 1084.14 99.1279C1085.4 98.4838 1087.18 98.1307 1088.61 97.6775C1091.33 96.8128 1090.26 94.3035 1089.64 93.9721C1088.59 93.4256 1084.55 94.8306 1083.41 95.4098C1082.92 94.2933 1082.79 90.3675 1081.79 89.8379C1080.95 89.396 1079.28 90.0314 1078.67 90.9693Z" fill="#13005A"/>
</svg>
