<svg xmlns="http://www.w3.org/2000/svg" width="24" height="24" viewBox="0 0 24 24" fill="none">
  <path d="M2.39745 21.2724C3.04151 20.629 3.67064 19.9914 4.3124 19.3667C4.44772 19.235 4.43314 19.1596 4.32052 19.0295C3.41604 17.985 2.72735 16.8146 2.26134 15.5106C1.82637 14.2935 1.6339 13.0378 1.66008 11.7523C1.70434 9.57957 2.34303 7.59252 3.59087 5.80709C4.84757 4.00897 6.50399 2.71436 8.54269 1.9164C9.57494 1.51237 10.648 1.28703 11.7613 1.22684C12.9433 1.16293 14.1028 1.26329 15.2426 1.57275C16.8433 2.00732 18.2607 2.78817 19.5152 3.86965C19.5614 3.9095 19.5988 3.96399 19.6676 3.97318C19.7391 3.95297 19.7774 3.89118 19.8255 3.84319C20.6316 3.03909 21.4377 2.23488 22.2418 1.42871C22.3845 1.28564 22.5385 1.16672 22.7521 1.20432C22.9382 1.2371 23.0853 1.32905 23.1483 1.528C23.2178 1.74742 23.1517 1.92394 22.999 2.07716C22.4697 2.60829 21.9383 3.13744 21.4082 3.66775C18.2469 6.82988 15.0859 9.99224 11.9245 13.1543C8.80249 16.2771 5.68048 19.3999 2.55751 22.5218C2.22897 22.8502 1.78247 22.7634 1.66983 22.3537C1.61661 22.16 1.68166 21.9964 1.81412 21.8587C2.00184 21.6636 2.19575 21.4745 2.39745 21.2724ZM6.2855 4.34879C6.212 4.4123 6.13877 4.47612 6.06496 4.53927C4.72087 5.68924 3.75703 7.10225 3.18155 8.77178C2.89639 9.59907 2.72165 10.4515 2.66443 11.332C2.61455 12.0995 2.64929 12.8591 2.78251 13.6098C3.00646 14.8715 3.45175 16.0562 4.14239 17.1411C4.44355 17.6142 4.76885 18.0704 5.1257 18.438C9.72282 13.8427 14.3088 9.25862 18.8939 4.67538C15.6762 1.69047 10.2887 1.1652 6.2855 4.34879Z" fill="#637381"/>
  <path d="M7.49975 21.5442C6.96083 21.2652 6.46674 20.9441 5.98646 20.6002C5.86421 20.5127 5.85615 20.4408 5.9676 20.3388C6.10062 20.2171 6.23497 20.0938 6.3487 19.9548C6.48736 19.7853 6.60653 19.781 6.78126 19.9136C7.30847 20.3137 7.88299 20.6363 8.49016 20.9005C9.54219 21.3583 10.6366 21.6276 11.7847 21.7076C12.5312 21.7597 13.2712 21.7291 14.0014 21.602C15.1422 21.4034 16.2283 21.0355 17.24 20.4532C18.8842 19.5068 20.154 18.2011 21.0488 16.5335C21.6184 15.4719 21.9679 14.3377 22.1167 13.1399C22.2427 12.1264 22.2182 11.1178 22.0176 10.1191C21.7397 8.73469 21.2191 7.4489 20.3685 6.3108C20.2522 6.1553 20.2327 6.04395 20.3948 5.91047C20.5389 5.79185 20.6684 5.65386 20.794 5.51503C20.9083 5.38868 20.976 5.42311 21.0669 5.54634C21.811 6.55616 22.3683 7.65674 22.7268 8.8608C22.9677 9.66952 23.0917 10.4925 23.1477 11.3335C23.2241 12.4805 23.1197 13.6076 22.8223 14.7124C22.3483 16.4735 21.4881 18.0239 20.2281 19.351C18.6284 21.036 16.6852 22.0961 14.4108 22.5366C13.3653 22.7391 12.3083 22.7594 11.2429 22.6506C9.92651 22.5163 8.69253 22.1353 7.49975 21.5442Z" fill="#637381"/>
</svg>