<svg xmlns="http://www.w3.org/2000/svg" width="24" height="24" viewBox="0 0 24 24" fill="none">
  <path d="M4.03331 4.12495C4.14796 3.97879 4.32492 3.99149 4.49855 4.0131C5.27875 4.11021 6.05819 4.21125 6.83812 4.30979C8.7746 4.55447 10.7113 4.79804 12.6477 5.04302C14.5774 5.28715 16.5069 5.53265 18.4365 5.7771C18.8199 5.82566 19.2035 5.87282 19.5873 5.91946C19.9023 5.95775 19.9998 6.04764 19.9998 6.30532C20 11.3939 20 16.4826 20 21.5712C20 21.9176 19.8986 21.9996 19.4671 21.9998C18.2424 22.0002 17.0177 21.9999 15.7623 21.9999C15.7623 21.9273 15.7623 21.8706 15.7623 21.8139C15.7622 20.7346 15.7624 19.6554 15.762 18.5762C15.7619 18.2769 15.6388 18.1762 15.2713 18.1759C14.3141 18.1751 13.3568 18.1753 12.3996 18.1751C12.3611 18.1751 12.3226 18.1751 12.264 18.1751C12.264 19.4477 12.264 20.7073 12.264 21.976C12.0729 21.976 11.9019 21.976 11.7017 21.976C11.7017 20.7159 11.7017 19.4573 11.7017 18.1876C11.6164 18.1824 11.5589 18.1759 11.5014 18.1759C10.5575 18.1753 9.61368 18.1751 8.66982 18.1759C8.31697 18.1761 8.19111 18.2798 8.191 18.5686C8.19058 19.6425 8.19087 20.7163 8.19089 21.7902C8.19089 21.848 8.19089 21.9058 8.19089 21.9722C8.1256 21.9756 8.0805 21.9799 8.03541 21.9799C6.83049 21.9793 5.62557 21.9783 4.42064 21.9774C4.24557 21.9772 4.0869 21.9495 4.00384 21.7934C4.00967 21.6844 4.0005 21.5944 4.00049 21.5044C3.99981 15.8501 3.99964 10.1959 4.00128 4.54157C4.00132 4.4027 4.02216 4.26383 4.03331 4.12495ZM13.5053 14.093C13.45 14.082 13.3947 14.0616 13.3394 14.0615C12.4227 14.0595 11.506 14.0599 10.5893 14.0608C10.5455 14.0609 10.5017 14.0704 10.4574 14.0755C10.4574 14.7195 10.4574 15.3527 10.4574 15.9849C10.4928 15.9904 10.5123 15.9961 10.5318 15.9961C11.4819 15.9968 12.432 15.9975 13.3822 15.9959C13.4322 15.9958 13.4822 15.9759 13.5647 15.9501C13.5759 15.9257 13.5969 15.9013 13.597 15.8768C13.5991 15.3214 13.6002 14.7659 13.5961 14.2105C13.5959 14.1779 13.5502 14.1456 13.5053 14.093ZM8.07659 14.0601C7.74228 14.06 7.40797 14.0597 7.07366 14.0601C6.72695 14.0604 6.59613 14.162 6.59511 14.4357C6.59364 14.8292 6.59392 15.2226 6.59536 15.6161C6.59638 15.8963 6.71903 15.9964 7.06415 15.9968C7.94003 15.9979 8.81592 15.9974 9.6918 15.997C9.7503 15.997 9.80881 15.9922 9.86358 15.9897C9.86358 15.3423 9.86358 14.7058 9.86358 14.0601C9.26567 14.0601 8.69121 14.0601 8.07659 14.0601ZM16.63 12.5757C16.7036 12.5757 16.7771 12.576 16.8506 12.5758C17.2418 12.5749 17.3643 12.4766 17.365 12.1591C17.3659 11.7765 17.3659 11.3939 17.3639 11.0113C17.3626 10.7406 17.2366 10.6384 16.9049 10.6381C16.0292 10.6374 15.1535 10.6377 14.2778 10.6383C14.2138 10.6384 14.1499 10.644 14.0905 10.6468C14.0905 11.2964 14.0905 11.9288 14.0905 12.5757C14.9351 12.5757 15.7628 12.5757 16.63 12.5757ZM15.7082 14.0601C15.1697 14.0601 14.6312 14.0601 14.0942 14.0601C14.0942 14.7189 14.0942 15.3522 14.0942 15.9847C14.127 15.9902 14.1462 15.9963 14.1654 15.9963C15.1016 15.9968 16.0378 15.9987 16.974 15.9955C17.219 15.9947 17.3553 15.8738 17.3579 15.6598C17.3628 15.2447 17.3634 14.8296 17.3585 14.4146C17.3556 14.1693 17.2158 14.0617 16.9119 14.0603C16.5241 14.0585 16.1362 14.06 15.7082 14.0601ZM6.65553 12.4279C6.75458 12.552 6.90635 12.5762 7.07446 12.576C7.95033 12.5751 8.8262 12.5757 9.70207 12.575C9.75353 12.575 9.80499 12.5684 9.86539 12.5643C9.86539 11.9225 9.86539 11.2898 9.86539 10.6631C9.8386 10.6521 9.82717 10.6433 9.81571 10.6432C8.85978 10.6414 7.90384 10.6375 6.94794 10.6413C6.75831 10.642 6.61476 10.7394 6.6103 10.8898C6.5961 11.369 6.60577 11.8487 6.60854 12.3282C6.60869 12.3534 6.63034 12.3785 6.65553 12.4279ZM14.945 9.1422C15.6138 9.14187 16.2826 9.14374 16.9514 9.14012C17.2152 9.13869 17.3522 9.03436 17.3558 8.82389C17.363 8.39269 17.3635 7.96128 17.3556 7.53009C17.3518 7.31926 17.2123 7.21242 16.9515 7.21162C16.042 7.20883 15.1324 7.21232 14.2229 7.20899C14.0965 7.20853 14.0665 7.24472 14.0677 7.34143C14.0739 7.88589 14.072 8.43041 14.0738 8.97491C14.074 9.02626 14.0811 9.0776 14.086 9.14219C14.3719 9.14219 14.6384 9.14219 14.945 9.1422ZM6.5963 8.07393C6.59642 8.31105 6.59502 8.54818 6.59707 8.78529C6.59925 9.03754 6.72581 9.14034 7.03276 9.14046C7.90853 9.14081 8.78431 9.14059 9.66008 9.13989C9.72444 9.13983 9.78879 9.13416 9.85254 9.13113C9.85254 8.48487 9.85254 7.85315 9.85254 7.21295C8.87122 7.21295 7.90922 7.21028 6.94728 7.21504C6.73713 7.21608 6.60653 7.33354 6.59905 7.50808C6.59144 7.68571 6.59668 7.86371 6.5963 8.07393ZM10.4407 12.0886C10.4407 12.1964 10.4489 12.3047 10.4385 12.4119C10.4267 12.5335 10.4672 12.5806 10.6353 12.5793C11.5313 12.5721 12.4274 12.576 13.3236 12.5753C13.3812 12.5752 13.4389 12.5683 13.4956 12.5646C13.4956 11.9164 13.4956 11.2835 13.4956 10.6452C12.473 10.6452 11.4664 10.6452 10.4407 10.6452C10.4407 11.1215 10.4407 11.5889 10.4407 12.0886ZM13.5087 8.81635C13.5087 8.28491 13.5087 7.75347 13.5087 7.22221C12.4666 7.22221 11.4604 7.22221 10.4523 7.22221C10.4523 7.86616 10.4523 8.49833 10.4523 9.13128C11.4772 9.13128 12.4836 9.13128 13.5087 9.13128C13.5087 9.02922 13.5087 8.93854 13.5087 8.81635Z" fill="#637381"/>
  <path d="M18.6746 1.05748C18.801 1.0357 18.9819 0.969697 18.9968 1.09711C18.9986 1.11274 18.999 1.12925 18.9992 1.14579C19.0007 1.27262 18.9996 1.39946 18.9996 1.5263C18.9997 2.61595 18.9997 3.70561 18.9998 4.79526C18.9998 4.90388 18.9044 4.98783 18.7966 4.97415C18.4087 4.92488 18.0388 4.87841 17.6693 4.82999C15.9741 4.60786 14.279 4.38493 12.5838 4.1622C10.1194 3.83838 7.65513 3.51328 5.18989 3.19361C5.04274 3.17453 4.99831 3.13507 5.00005 3.0096C5.00851 2.39856 5.00485 1.78738 5.00334 1.17626C5.00322 1.12961 5.0037 1.08478 5.02306 1.05266C5.08552 0.948984 5.24538 1.03538 5.36468 1.05579C5.39026 1.06017 5.41515 1.06264 5.44005 1.06265C8.35523 1.06451 11.2704 1.06423 14.1856 1.06422C15.6673 1.06422 17.149 1.06515 18.6307 1.06152C18.6454 1.06148 18.66 1.06 18.6746 1.05748Z" fill="#637381"/>
  <path d="M5.88216 4.36748C5.88359 4.49847 5.86722 4.63645 5.86719 4.77443C5.8659 10.3925 5.86604 16.0106 5.86657 21.6287C5.86658 21.7182 5.87378 21.8076 5.86824 21.9043C5.84689 21.8507 5.82443 21.7897 5.82441 21.7287C5.82269 16.0262 5.82247 10.3238 5.8246 4.62133C5.82463 4.53904 5.85551 4.45676 5.88216 4.36748Z" fill="#637381"/>
  <path d="M17.3309 1.41709C17.2873 1.44069 17.2294 1.47722 17.1714 1.47739C16.0425 1.48076 14.9135 1.4799 13.7846 1.4799C11.5635 1.47991 9.34233 1.48017 7.12121 1.47844C7.06267 1.4784 7.00415 1.45665 6.94214 1.43275C6.96984 1.41756 7.00103 1.41206 7.03221 1.41206C10.4603 1.41214 13.8885 1.41263 17.3309 1.41709Z" fill="#637381"/>
  <path d="M13.3634 16.1175C13.3468 15.6389 13.3429 15.1529 13.3393 14.6669C13.3384 14.5493 13.3386 14.4316 13.3419 14.2994C13.3648 14.317 13.4006 14.3491 13.4008 14.3815C13.404 14.9334 13.4032 15.4853 13.4015 16.0372C13.4014 16.0615 13.385 16.0857 13.3634 16.1175Z" fill="#637381"/>
</svg>