<svg xmlns="http://www.w3.org/2000/svg" width="22" height="22" viewBox="0 0 22 22" fill="none">
  <path d="M16 13C16.2652 13 16.5196 12.8946 16.7071 12.7071C16.8946 12.5196 17 12.2652 17 12C17 11.7348 16.8946 11.4804 16.7071 11.2929C16.5196 11.1054 16.2652 11 16 11C15.7348 11 15.4804 11.1054 15.2929 11.2929C15.1054 11.4804 15 11.7348 15 12C15 12.2652 15.1054 12.5196 15.2929 12.7071C15.4804 12.8946 15.7348 13 16 13ZM16 17C16.2652 17 16.5196 16.8946 16.7071 16.7071C16.8946 16.5196 17 16.2652 17 16C17 15.7348 16.8946 15.4804 16.7071 15.2929C16.5196 15.1054 16.2652 15 16 15C15.7348 15 15.4804 15.1054 15.2929 15.2929C15.1054 15.4804 15 15.7348 15 16C15 16.2652 15.1054 16.5196 15.2929 16.7071C15.4804 16.8946 15.7348 17 16 17ZM12 12C12 12.2652 11.8946 12.5196 11.7071 12.7071C11.5196 12.8946 11.2652 13 11 13C10.7348 13 10.4804 12.8946 10.2929 12.7071C10.1054 12.5196 10 12.2652 10 12C10 11.7348 10.1054 11.4804 10.2929 11.2929C10.4804 11.1054 10.7348 11 11 11C11.2652 11 11.5196 11.1054 11.7071 11.2929C11.8946 11.4804 12 11.7348 12 12ZM12 16C12 16.2652 11.8946 16.5196 11.7071 16.7071C11.5196 16.8946 11.2652 17 11 17C10.7348 17 10.4804 16.8946 10.2929 16.7071C10.1054 16.5196 10 16.2652 10 16C10 15.7348 10.1054 15.4804 10.2929 15.2929C10.4804 15.1054 10.7348 15 11 15C11.2652 15 11.5196 15.1054 11.7071 15.2929C11.8946 15.4804 12 15.7348 12 16ZM6 13C6.26522 13 6.51957 12.8946 6.70711 12.7071C6.89464 12.5196 7 12.2652 7 12C7 11.7348 6.89464 11.4804 6.70711 11.2929C6.51957 11.1054 6.26522 11 6 11C5.73478 11 5.48043 11.1054 5.29289 11.2929C5.10536 11.4804 5 11.7348 5 12C5 12.2652 5.10536 12.5196 5.29289 12.7071C5.48043 12.8946 5.73478 13 6 13ZM6 17C6.26522 17 6.51957 16.8946 6.70711 16.7071C6.89464 16.5196 7 16.2652 7 16C7 15.7348 6.89464 15.4804 6.70711 15.2929C6.51957 15.1054 6.26522 15 6 15C5.73478 15 5.48043 15.1054 5.29289 15.2929C5.10536 15.4804 5 15.7348 5 16C5 16.2652 5.10536 16.5196 5.29289 16.7071C5.48043 16.8946 5.73478 17 6 17Z" fill="#637381"/>
  <path fill-rule="evenodd" clip-rule="evenodd" d="M6 0.75C6.19891 0.75 6.38968 0.829018 6.53033 0.96967C6.67098 1.11032 6.75 1.30109 6.75 1.5V2.263C7.412 2.25 8.141 2.25 8.943 2.25H13.056C13.859 2.25 14.588 2.25 15.25 2.263V1.5C15.25 1.30109 15.329 1.11032 15.4697 0.96967C15.6103 0.829018 15.8011 0.75 16 0.75C16.1989 0.75 16.3897 0.829018 16.5303 0.96967C16.671 1.11032 16.75 1.30109 16.75 1.5V2.327C17.01 2.347 17.256 2.372 17.489 2.403C18.661 2.561 19.61 2.893 20.359 3.641C21.107 4.39 21.439 5.339 21.597 6.511C21.75 7.651 21.75 9.106 21.75 10.944V13.056C21.75 14.894 21.75 16.35 21.597 17.489C21.439 18.661 21.107 19.61 20.359 20.359C19.61 21.107 18.661 21.439 17.489 21.597C16.349 21.75 14.894 21.75 13.056 21.75H8.944C7.106 21.75 5.65 21.75 4.511 21.597C3.339 21.439 2.39 21.107 1.641 20.359C0.893 19.61 0.561 18.661 0.403 17.489C0.25 16.349 0.25 14.894 0.25 13.056V10.944C0.25 9.106 0.25 7.65 0.403 6.511C0.561 5.339 0.893 4.39 1.641 3.641C2.39 2.893 3.339 2.561 4.511 2.403C4.744 2.372 4.991 2.347 5.25 2.327V1.5C5.25 1.30109 5.32902 1.11032 5.46967 0.96967C5.61032 0.829018 5.80109 0.75 6 0.75ZM4.71 3.89C3.705 4.025 3.125 4.279 2.702 4.702C2.279 5.125 2.025 5.705 1.89 6.711C1.867 6.881 1.848 7.061 1.832 7.25H20.168C20.152 7.06 20.133 6.881 20.11 6.71C19.975 5.705 19.721 5.125 19.298 4.702C18.875 4.279 18.295 4.025 17.289 3.89C16.262 3.752 14.907 3.75 13 3.75H9C7.093 3.75 5.739 3.752 4.71 3.89ZM1.75 11C1.75 10.146 1.75 9.403 1.763 8.75H20.237C20.25 9.403 20.25 10.146 20.25 11V13C20.25 14.907 20.248 16.262 20.11 17.29C19.975 18.295 19.721 18.875 19.298 19.298C18.875 19.721 18.295 19.975 17.289 20.11C16.262 20.248 14.907 20.25 13 20.25H9C7.093 20.25 5.739 20.248 4.71 20.11C3.705 19.975 3.125 19.721 2.702 19.298C2.279 18.875 2.025 18.295 1.89 17.289C1.752 16.262 1.75 14.907 1.75 13V11Z" fill="#637381"/>
</svg>