<svg width="24" height="24" viewBox="0 0 24 24" fill="none" xmlns="http://www.w3.org/2000/svg">
<g id="_icon">
<path id="Vector" d="M5.712 21.0306C5.23112 20.9483 5.23112 20.9483 5.23112 20.4924C5.23112 19.2979 5.23364 18.1035 5.22755 16.909C5.22688 16.7776 5.27105 16.7218 5.39143 16.6751C6.24179 16.3455 7.09038 16.0114 7.93691 15.6724C8.31148 15.5224 8.69103 15.4965 9.08808 15.5605C10.4261 15.7759 11.7657 15.9827 13.1045 16.1935C13.4909 16.2543 13.8774 16.3146 14.2628 16.3811C14.503 16.4225 14.567 16.5687 14.4276 16.7633C13.9345 17.4514 13.2562 17.7566 12.4032 17.6774C12.0797 17.6474 11.758 17.5972 11.4358 17.5536C11.1548 17.5155 10.9369 17.6486 10.8998 17.8854C10.862 18.1271 11.0166 18.3244 11.3008 18.3634C12.1688 18.4826 13.0381 18.5932 13.9068 18.7073C14.557 18.7926 15.2092 18.8653 15.8565 18.968C16.3 19.0383 16.649 18.9689 17.0078 18.6509C18.1485 17.6398 19.3302 16.6731 20.4953 15.6884C20.7685 15.4575 21.0754 15.3771 21.4161 15.507C21.7864 15.6481 21.9239 16.015 21.7397 16.3586C21.6141 16.5927 21.4728 16.8186 21.3384 17.0481C21.3063 17.1029 21.2736 17.1572 21.2291 17.2322C21.3505 17.2414 21.4478 17.2423 21.5428 17.257C21.985 17.3253 22.2999 17.6178 22.6336 17.8706C22.7494 17.9583 22.7063 18.1022 22.5532 18.1844C22.1521 18.3998 21.7499 18.6134 21.3443 18.8206C19.588 19.718 17.7872 20.5172 15.9158 21.1576C14.76 21.5531 13.5882 21.8957 12.3858 22.1275C11.8919 22.2228 11.3995 22.1742 10.9084 22.0745C9.18162 21.7239 7.45335 21.3804 5.712 21.0306Z" fill="#637381"/>
<path id="Vector_2" d="M12.84 8.71937C12.1531 8.57138 11.5184 8.90263 11.2789 9.52347C11.0494 10.1185 11.3122 10.7817 11.8989 11.1051C11.9504 11.1335 12.0113 11.2035 12.0117 11.2545C12.0182 12.1084 12.0159 12.9623 12.0149 13.8163C12.0149 13.8315 12.0075 13.8467 11.9978 13.8844C11.7448 13.8844 11.4876 13.8896 11.231 13.8791C11.19 13.8774 11.1384 13.8117 11.1146 13.7645C10.6968 12.9365 10.2826 12.1068 9.86766 11.2774C9.67594 10.8943 9.47895 10.5136 9.29343 10.1276C8.65783 8.80517 8.78035 7.53483 9.69499 6.39595C10.6253 5.23754 11.888 4.82668 13.3547 5.15018C15.0467 5.52337 16.1996 7.06083 16.1079 8.76128C16.0842 9.20102 15.9834 9.62701 15.7838 10.0262C15.1675 11.2581 14.5494 12.4892 13.9388 13.7238C13.876 13.8508 13.8039 13.8971 13.6626 13.8888C13.4543 13.8767 13.2448 13.8857 13.0218 13.8857C13.0171 13.8279 13.01 13.7814 13.01 13.7349C13.0093 12.9242 13.0107 12.1135 13.0079 11.3028C13.0075 11.2074 13.0286 11.1485 13.1241 11.0985C13.5943 10.8522 13.8775 10.347 13.8259 9.86966C13.7647 9.30436 13.4109 8.88721 12.84 8.71937Z" fill="#637381"/>
<path id="Vector_3" d="M2.33244 16.3974C2.36713 16.1482 2.47524 16.0438 2.71212 16.0411C3.14787 16.0361 3.58377 16.0355 4.0195 16.0411C4.26343 16.0443 4.39428 16.1786 4.39455 16.422C4.39641 18.1083 4.39658 19.7945 4.39444 21.4808C4.39412 21.7323 4.26036 21.8586 4.00245 21.8605C3.58322 21.8636 3.16394 21.8628 2.74469 21.861C2.45612 21.8597 2.3324 21.7375 2.3323 21.4542C2.33174 19.7734 2.33218 18.0925 2.33244 16.3974Z" fill="#637381"/>
<path id="Vector_4" d="M13.1304 2.55197C13.1329 2.93883 13.1366 3.31167 13.1335 3.68445C13.1306 4.04354 12.8619 4.31366 12.5162 4.3133C12.1658 4.31293 11.8986 4.04956 11.8931 3.68986C11.8882 3.36032 11.8913 3.03066 11.892 2.70106C11.8927 2.32785 12.1006 2.06918 12.4382 2.01935C12.7533 1.97286 13.0258 2.17752 13.1304 2.55197Z" fill="#637381"/>
<path id="Vector_5" d="M7.35213 13.2453C7.39961 13.1648 7.43216 13.0863 7.488 13.03C7.7566 12.7591 8.02633 12.4888 8.30571 12.2287C8.5403 12.0102 8.88566 12.0036 9.11909 12.1959C9.39243 12.4212 9.43369 12.8025 9.1898 13.0602C8.91664 13.3488 8.62938 13.6254 8.33698 13.8954C8.13651 14.0806 7.84368 14.0962 7.61668 13.9599C7.37152 13.8127 7.27504 13.5606 7.35213 13.2453Z" fill="#637381"/>
<path id="Vector_6" d="M8.71047 4.3743C8.86651 4.52779 9.01837 4.66941 9.1615 4.81904C9.40619 5.07484 9.40562 5.44149 9.16648 5.67999C8.92746 5.91837 8.55117 5.91916 8.29059 5.67254C8.02507 5.42126 7.76403 5.16522 7.50724 4.90536C7.25455 4.64965 7.2547 4.29233 7.49834 4.04821C7.7357 3.81038 8.09432 3.80288 8.36087 4.03642C8.47984 4.14065 8.58884 4.25582 8.71047 4.3743Z" fill="#637381"/>
<path id="Vector_7" d="M15.7946 5.60231C15.6173 5.29386 15.647 5.03601 15.8868 4.79639C16.1375 4.54591 16.3884 4.29532 16.6474 4.05322C16.9196 3.79878 17.2838 3.80402 17.5335 4.0541C17.7731 4.29401 17.7657 4.65309 17.5142 4.91219C17.4383 4.99038 17.3588 5.06528 17.2809 5.14161C17.1057 5.31333 16.9322 5.48695 16.7546 5.65625C16.4547 5.94198 16.0794 5.92326 15.7946 5.60231Z" fill="#637381"/>
<path id="Vector_8" d="M16.8915 14.0131C16.797 13.9559 16.705 13.913 16.6353 13.8473C16.3774 13.604 16.1245 13.3554 15.8742 13.1045C15.6266 12.8563 15.6234 12.4817 15.8606 12.2445C16.0993 12.0059 16.4807 12 16.7374 12.2419C17.0034 12.4925 17.2635 12.7494 17.5201 13.0093C17.7314 13.2233 17.7656 13.5153 17.6199 13.7532C17.4726 13.9937 17.2085 14.091 16.8915 14.0131Z" fill="#637381"/>
<path id="Vector_9" d="M6.42208 8.3587C6.68096 8.35878 6.92335 8.35589 7.16563 8.35965C7.51653 8.36511 7.77275 8.6124 7.78193 8.94873C7.7907 9.27039 7.54486 9.5449 7.2019 9.55814C6.80049 9.57364 6.39741 9.57438 5.9961 9.55754C5.64795 9.54294 5.41205 9.26558 5.42455 8.92719C5.43649 8.60364 5.6944 8.36565 6.04204 8.35926C6.16317 8.35703 6.28437 8.35877 6.42208 8.3587Z" fill="#637381"/>
<path id="Vector_10" d="M19.0181 9.56211C18.6232 9.56296 18.2431 9.5686 17.8633 9.56128C17.5596 9.55543 17.3274 9.35752 17.2659 9.07233C17.2103 8.81418 17.3402 8.539 17.5897 8.42474C17.6809 8.38298 17.7901 8.36402 17.8917 8.36176C18.2329 8.35417 18.5745 8.35826 18.9159 8.35887C19.3082 8.35958 19.571 8.56533 19.5993 8.89262C19.6302 9.25083 19.4298 9.4875 19.0181 9.56211Z" fill="#637381"/>
</g>
</svg>
