<svg xmlns="http://www.w3.org/2000/svg" width="19" height="18" viewBox="0 0 19 18" fill="none">
  <path opacity="0.2" d="M6 3C6 3.44501 5.86804 3.88002 5.62081 4.25003C5.37357 4.62004 5.02217 4.90843 4.61104 5.07873C4.1999 5.24903 3.7475 5.29358 3.31105 5.20677C2.87459 5.11995 2.47368 4.90566 2.15901 4.59099C1.84434 4.27632 1.63005 3.87541 1.54323 3.43895C1.45642 3.0025 1.50097 2.5501 1.67127 2.13896C1.84157 1.72783 2.12996 1.37643 2.49997 1.12919C2.86998 0.88196 3.30499 0.75 3.75 0.75C4.34674 0.75 4.91903 0.987053 5.34099 1.40901C5.76295 1.83097 6 2.40326 6 3ZM15.75 12.75C15.305 12.75 14.87 12.882 14.5 13.1292C14.13 13.3764 13.8416 13.7278 13.6713 14.139C13.501 14.5501 13.4564 15.0025 13.5432 15.439C13.6301 15.8754 13.8443 16.2763 14.159 16.591C14.4737 16.9057 14.8746 17.12 15.311 17.2068C15.7475 17.2936 16.1999 17.249 16.611 17.0787C17.0222 16.9084 17.3736 16.62 17.6208 16.25C17.868 15.88 18 15.445 18 15C18 14.4033 17.7629 13.831 17.341 13.409C16.919 12.9871 16.3467 12.75 15.75 12.75Z" fill="#637381"/>
  <path d="M6.75001 3.00001C6.74972 2.43898 6.59212 1.88926 6.29511 1.4133C5.99809 0.937333 5.57355 0.554194 5.06972 0.307392C4.56588 0.0605901 4.00293 -0.0399838 3.44481 0.0170923C2.88668 0.0741684 2.35574 0.286607 1.91229 0.630282C1.46884 0.973957 1.13065 1.4351 0.936116 1.96133C0.741586 2.48756 0.698517 3.0578 0.8118 3.60728C0.925082 4.15676 1.19018 4.66346 1.57698 5.06985C1.96378 5.47623 2.45679 5.76601 3.00001 5.90626V12.0938C2.29301 12.2763 1.67687 12.7104 1.26706 13.3148C0.857247 13.9191 0.681912 14.6522 0.773918 15.3765C0.865924 16.1009 1.21895 16.7668 1.76683 17.2495C2.31471 17.7322 3.01983 17.9985 3.75001 17.9985C4.48019 17.9985 5.1853 17.7322 5.73318 17.2495C6.28106 16.7668 6.63409 16.1009 6.7261 15.3765C6.8181 14.6522 6.64277 13.9191 6.23296 13.3148C5.82315 12.7104 5.207 12.2763 4.50001 12.0938V5.90626C5.14375 5.73906 5.71385 5.36305 6.121 4.83714C6.52816 4.31122 6.74938 3.66512 6.75001 3.00001ZM2.25001 3.00001C2.25001 2.70334 2.33798 2.41333 2.5028 2.16666C2.66763 1.91999 2.90189 1.72773 3.17598 1.6142C3.45007 1.50066 3.75167 1.47096 4.04264 1.52884C4.33361 1.58671 4.60089 1.72958 4.81067 1.93935C5.02045 2.14913 5.16331 2.41641 5.22119 2.70738C5.27906 2.99835 5.24936 3.29995 5.13583 3.57404C5.0223 3.84813 4.83004 4.0824 4.58336 4.24722C4.33669 4.41204 4.04668 4.50001 3.75001 4.50001C3.35218 4.50001 2.97065 4.34198 2.68935 4.06067C2.40804 3.77937 2.25001 3.39784 2.25001 3.00001ZM5.25001 15C5.25001 15.2967 5.16203 15.5867 4.99721 15.8334C4.83239 16.08 4.59812 16.2723 4.32403 16.3858C4.04994 16.4994 3.74834 16.5291 3.45737 16.4712C3.1664 16.4133 2.89913 16.2705 2.68935 16.0607C2.47957 15.8509 2.33671 15.5836 2.27883 15.2927C2.22095 15.0017 2.25066 14.7001 2.36419 14.426C2.47772 14.1519 2.66998 13.9176 2.91665 13.7528C3.16333 13.588 3.45334 13.5 3.75001 13.5C4.14783 13.5 4.52936 13.6581 4.81067 13.9394C5.09197 14.2207 5.25001 14.6022 5.25001 15ZM16.5 12.0938V8.61376C16.5018 7.92406 16.3668 7.24084 16.1029 6.60361C15.839 5.96639 15.4514 5.38779 14.9625 4.90126L12.3103 2.25001H15C15.1989 2.25001 15.3897 2.171 15.5303 2.03034C15.671 1.88969 15.75 1.69893 15.75 1.50001C15.75 1.3011 15.671 1.11034 15.5303 0.969685C15.3897 0.829033 15.1989 0.750015 15 0.750015H10.5C10.3011 0.750015 10.1103 0.829033 9.96968 0.969685C9.82903 1.11034 9.75001 1.3011 9.75001 1.50001V6.00001C9.75001 6.19893 9.82903 6.38969 9.96968 6.53034C10.1103 6.671 10.3011 6.75001 10.5 6.75001C10.6989 6.75001 10.8897 6.671 11.0303 6.53034C11.171 6.38969 11.25 6.19893 11.25 6.00001V3.31033L13.9013 5.96251C14.2507 6.30976 14.5278 6.7229 14.7164 7.17801C14.905 7.63311 15.0014 8.12113 15 8.61376V12.0938C14.293 12.2763 13.6769 12.7104 13.2671 13.3148C12.8572 13.9191 12.6819 14.6522 12.7739 15.3765C12.8659 16.1009 13.219 16.7668 13.7668 17.2495C14.3147 17.7322 15.0198 17.9985 15.75 17.9985C16.4802 17.9985 17.1853 17.7322 17.7332 17.2495C18.2811 16.7668 18.6341 16.1009 18.7261 15.3765C18.8181 14.6522 18.6428 13.9191 18.233 13.3148C17.8232 12.7104 17.207 12.2763 16.5 12.0938ZM15.75 16.5C15.4533 16.5 15.1633 16.412 14.9167 16.2472C14.67 16.0824 14.4777 15.8481 14.3642 15.574C14.2507 15.3 14.221 14.9984 14.2788 14.7074C14.3367 14.4164 14.4796 14.1491 14.6893 13.9394C14.8991 13.7296 15.1664 13.5867 15.4574 13.5288C15.7483 13.471 16.0499 13.5007 16.324 13.6142C16.5981 13.7277 16.8324 13.92 16.9972 14.1667C17.162 14.4133 17.25 14.7033 17.25 15C17.25 15.3978 17.092 15.7794 16.8107 16.0607C16.5294 16.342 16.1478 16.5 15.75 16.5Z" fill="#637381"/>
</svg>