<svg width="28" height="28" viewBox="0 0 28 28" fill="none" xmlns="http://www.w3.org/2000/svg">
<g opacity="0.98">
<rect width="28" height="28" rx="14" fill="#22C55E" fill-opacity="0.12"/>
<rect x="0.5" y="0.5" width="27" height="27" rx="13.5" stroke="#00A76F" stroke-opacity="0.48"/>
<g clip-path="url(#clip0_1008_18883)">
<path d="M17.2096 9.29726C16.9833 9.03158 16.7571 8.9103 16.4122 8.9103H8.77487C8.5939 8.9103 8.44687 8.77168 8.4299 8.58628L8.32245 7.29254C8.30549 7.09616 8.16411 6.93502 7.97183 6.89979L6.62307 6.69245C6.39121 6.65721 6.17066 6.81373 6.13107 7.04996C6.09149 7.28098 6.24983 7.50623 6.47604 7.54666C6.97916 7.63514 7.35931 8.05182 7.40138 8.56092L7.85025 13.9929C7.91245 14.7553 8.53452 15.3438 9.28666 15.3438H15.4565C16.1747 15.3438 16.7854 14.8072 16.8872 14.0789L17.4245 10.2901C17.4753 9.94414 17.4358 9.56294 17.2096 9.29726Z" fill="url(#paint0_linear_1008_18883)"/>
<path opacity="0.24" d="M17.2096 9.29726C16.9833 9.03158 16.7571 8.9103 16.4122 8.9103H8.77487C8.5939 8.9103 8.44687 8.77168 8.4299 8.58628L8.32245 7.29254C8.30549 7.09616 8.16411 6.93502 7.97183 6.89979L6.62307 6.69245C6.39121 6.65721 6.17066 6.81373 6.13107 7.04996C6.09149 7.28098 6.24983 7.50623 6.47604 7.54666C6.97916 7.63514 7.35931 8.05182 7.40138 8.56092L7.85025 13.9929C7.91245 14.7553 8.53452 15.3438 9.28666 15.3438H15.4565C16.1747 15.3438 16.7854 14.8072 16.8872 14.0789L17.4245 10.2901C17.4753 9.94414 17.4358 9.56294 17.2096 9.29726Z" fill="url(#paint1_linear_1008_18883)"/>
<g opacity="0.48" filter="url(#filter0_f_1008_18883)">
<rect x="8.81445" y="10.4551" width="6.78219" height="4.06932" rx="2.03466" fill="#22C55E"/>
</g>
<g filter="url(#filter1_b_1008_18883)">
<path d="M10.6886 11.3907C10.3135 11.3907 10.0675 11.5226 9.82151 11.8115C9.57553 12.1004 9.53249 12.5149 9.58783 12.8911L10.172 17.0111C10.2827 17.803 10.9469 18.3865 11.7278 18.3865H18.4368C19.2547 18.3865 19.9312 17.7465 19.9988 16.9175L20.5645 10.0712L21.4931 9.90789C21.7391 9.86392 21.9113 9.61899 21.8682 9.36777C21.8252 9.1109 21.5854 8.9407 21.3332 8.97901L19.8666 9.20448C19.6575 9.24279 19.5038 9.41801 19.4853 9.63155L19.3685 11.0384C19.35 11.24 19.1902 11.3907 18.9934 11.3907H10.6886Z" fill="#22C55E" fill-opacity="0.24"/>
<path d="M18.5354 19.3792C19.052 19.3792 19.4702 19.8063 19.4702 20.3338C19.4702 20.8551 19.052 21.2822 18.5354 21.2822C18.025 21.2822 17.6069 20.8551 17.6069 20.3338C17.6069 19.8063 18.025 19.3792 18.5354 19.3792Z" fill="#22C55E" fill-opacity="0.24"/>
<path d="M11.6174 19.3792C12.134 19.3792 12.5521 19.8063 12.5521 20.3338C12.5521 20.8551 12.134 21.2822 11.6174 21.2822C11.107 21.2822 10.6888 20.8551 10.6888 20.3338C10.6888 19.8063 11.107 19.3792 11.6174 19.3792Z" fill="#22C55E" fill-opacity="0.24"/>
</g>
<g filter="url(#filter2_bd_1008_18883)">
<path fill-rule="evenodd" clip-rule="evenodd" d="M12.7114 14.6559H14.4148C14.673 14.6559 14.876 14.4424 14.876 14.1849C14.876 13.9211 14.673 13.7139 14.4148 13.7139H12.7114C12.4531 13.7139 12.2502 13.9211 12.2502 14.1849C12.2502 14.4424 12.4531 14.6559 12.7114 14.6559Z" fill="url(#paint2_linear_1008_18883)"/>
</g>
</g>
</g>
<defs>
<filter id="filter0_f_1008_18883" x="-5.18555" y="-3.54492" width="34.7822" height="32.0693" filterUnits="userSpaceOnUse" color-interpolation-filters="sRGB">
<feFlood flood-opacity="0" result="BackgroundImageFix"/>
<feBlend mode="normal" in="SourceGraphic" in2="BackgroundImageFix" result="shape"/>
<feGaussianBlur stdDeviation="7" result="effect1_foregroundBlur_1008_18883"/>
</filter>
<filter id="filter1_b_1008_18883" x="-14.4336" y="-15.0264" width="60.3086" height="60.3086" filterUnits="userSpaceOnUse" color-interpolation-filters="sRGB">
<feFlood flood-opacity="0" result="BackgroundImageFix"/>
<feGaussianBlur in="BackgroundImageFix" stdDeviation="12"/>
<feComposite in2="SourceAlpha" operator="in" result="effect1_backgroundBlur_1008_18883"/>
<feBlend mode="normal" in="SourceGraphic" in2="effect1_backgroundBlur_1008_18883" result="shape"/>
</filter>
<filter id="filter2_bd_1008_18883" x="-2.75" y="-1.28613" width="32.626" height="30.9424" filterUnits="userSpaceOnUse" color-interpolation-filters="sRGB">
<feFlood flood-opacity="0" result="BackgroundImageFix"/>
<feGaussianBlur in="BackgroundImageFix" stdDeviation="7.5"/>
<feComposite in2="SourceAlpha" operator="in" result="effect1_backgroundBlur_1008_18883"/>
<feColorMatrix in="SourceAlpha" type="matrix" values="0 0 0 0 0 0 0 0 0 0 0 0 0 0 0 0 0 0 127 0" result="hardAlpha"/>
<feOffset dx="5" dy="5"/>
<feGaussianBlur stdDeviation="5"/>
<feColorMatrix type="matrix" values="0 0 0 0 1 0 0 0 0 0.670588 0 0 0 0 0 0 0 0 0.5 0"/>
<feBlend mode="normal" in2="effect1_backgroundBlur_1008_18883" result="effect2_dropShadow_1008_18883"/>
<feBlend mode="normal" in="SourceGraphic" in2="effect2_dropShadow_1008_18883" result="shape"/>
</filter>
<linearGradient id="paint0_linear_1008_18883" x1="6.125" y1="6.6875" x2="14.479" y2="17.6114" gradientUnits="userSpaceOnUse">
<stop stop-color="#77ED8B"/>
<stop offset="1" stop-color="#22C55E"/>
</linearGradient>
<linearGradient id="paint1_linear_1008_18883" x1="6.125" y1="6.6875" x2="14.479" y2="17.6114" gradientUnits="userSpaceOnUse">
<stop stop-color="#22C55E"/>
<stop offset="1" stop-color="#118D57"/>
</linearGradient>
<linearGradient id="paint2_linear_1008_18883" x1="12.4363" y1="13.884" x2="15.3404" y2="14.1479" gradientUnits="userSpaceOnUse">
<stop stop-color="white"/>
<stop offset="1" stop-color="white" stop-opacity="0.2"/>
</linearGradient>
<clipPath id="clip0_1008_18883">
<rect width="18" height="18" fill="white" transform="translate(5 5)"/>
</clipPath>
</defs>
</svg>
