<svg width="18" height="18" viewBox="0 0 18 18" fill="none" xmlns="http://www.w3.org/2000/svg">
<g clip-path="url(#clip0_1008_18884)">
<path d="M12.2096 4.29726C11.9833 4.03158 11.7571 3.9103 11.4122 3.9103H3.77487C3.5939 3.9103 3.44687 3.77168 3.4299 3.58628L3.32245 2.29254C3.30549 2.09616 3.16411 1.93502 2.97183 1.89979L1.62307 1.69245C1.39121 1.65721 1.17066 1.81373 1.13107 2.04996C1.09149 2.28098 1.24983 2.50623 1.47604 2.54666C1.97916 2.63514 2.35931 3.05182 2.40138 3.56092L2.85025 8.99287C2.91245 9.75525 3.53452 10.3438 4.28666 10.3438H10.4565C11.1747 10.3438 11.7854 9.80723 11.8872 9.07892L12.4245 5.2901C12.4753 4.94414 12.4358 4.56294 12.2096 4.29726Z" fill="url(#paint0_linear_1008_18884)"/>
<path opacity="0.24" d="M12.2096 4.29726C11.9833 4.03158 11.7571 3.9103 11.4122 3.9103H3.77487C3.5939 3.9103 3.44687 3.77168 3.4299 3.58628L3.32245 2.29254C3.30549 2.09616 3.16411 1.93502 2.97183 1.89979L1.62307 1.69245C1.39121 1.65721 1.17066 1.81373 1.13107 2.04996C1.09149 2.28098 1.24983 2.50623 1.47604 2.54666C1.97916 2.63514 2.35931 3.05182 2.40138 3.56092L2.85025 8.99287C2.91245 9.75525 3.53452 10.3438 4.28666 10.3438H10.4565C11.1747 10.3438 11.7854 9.80723 11.8872 9.07892L12.4245 5.2901C12.4753 4.94414 12.4358 4.56294 12.2096 4.29726Z" fill="url(#paint1_linear_1008_18884)"/>
<g opacity="0.48" filter="url(#filter0_f_1008_18884)">
<rect x="3.81445" y="5.45508" width="6.78219" height="4.06932" rx="2.03466" fill="#22C55E"/>
</g>
<g filter="url(#filter1_b_1008_18884)">
<path d="M5.68858 6.3907C5.31346 6.3907 5.06749 6.52258 4.82151 6.81148C4.57553 7.10038 4.53249 7.51489 4.58783 7.89109L5.17203 12.0111C5.28272 12.803 5.94686 13.3865 6.72783 13.3865H13.4368C14.2547 13.3865 14.9312 12.7465 14.9988 11.9175L15.5645 5.07118L16.4931 4.90789C16.7391 4.86392 16.9113 4.61899 16.8682 4.36777C16.8252 4.1109 16.5854 3.9407 16.3332 3.97901L14.8666 4.20448C14.6575 4.24279 14.5038 4.41801 14.4853 4.63155L14.3685 6.03836C14.35 6.23997 14.1902 6.3907 13.9934 6.3907H5.68858Z" fill="#22C55E" fill-opacity="0.24"/>
<path d="M13.5354 14.3792C14.052 14.3792 14.4702 14.8063 14.4702 15.3338C14.4702 15.8551 14.052 16.2822 13.5354 16.2822C13.025 16.2822 12.6069 15.8551 12.6069 15.3338C12.6069 14.8063 13.025 14.3792 13.5354 14.3792Z" fill="#22C55E" fill-opacity="0.24"/>
<path d="M6.6174 14.3792C7.13395 14.3792 7.55211 14.8063 7.55211 15.3338C7.55211 15.8551 7.13395 16.2822 6.6174 16.2822C6.107 16.2822 5.68884 15.8551 5.68884 15.3338C5.68884 14.8063 6.107 14.3792 6.6174 14.3792Z" fill="#22C55E" fill-opacity="0.24"/>
</g>
<g filter="url(#filter2_bd_1008_18884)">
<path fill-rule="evenodd" clip-rule="evenodd" d="M7.71138 9.65593H9.41477C9.67305 9.65593 9.87598 9.4424 9.87598 9.1849C9.87598 8.92112 9.67305 8.71387 9.41477 8.71387H7.71138C7.45311 8.71387 7.25018 8.92112 7.25018 9.1849C7.25018 9.4424 7.45311 9.65593 7.71138 9.65593Z" fill="url(#paint2_linear_1008_18884)"/>
</g>
</g>
<defs>
<filter id="filter0_f_1008_18884" x="-10.1855" y="-8.54492" width="34.7822" height="32.0693" filterUnits="userSpaceOnUse" color-interpolation-filters="sRGB">
<feFlood flood-opacity="0" result="BackgroundImageFix"/>
<feBlend mode="normal" in="SourceGraphic" in2="BackgroundImageFix" result="shape"/>
<feGaussianBlur stdDeviation="7" result="effect1_foregroundBlur_1008_18884"/>
</filter>
<filter id="filter1_b_1008_18884" x="-19.4336" y="-20.0264" width="60.3086" height="60.3086" filterUnits="userSpaceOnUse" color-interpolation-filters="sRGB">
<feFlood flood-opacity="0" result="BackgroundImageFix"/>
<feGaussianBlur in="BackgroundImageFix" stdDeviation="12"/>
<feComposite in2="SourceAlpha" operator="in" result="effect1_backgroundBlur_1008_18884"/>
<feBlend mode="normal" in="SourceGraphic" in2="effect1_backgroundBlur_1008_18884" result="shape"/>
</filter>
<filter id="filter2_bd_1008_18884" x="-7.75" y="-6.28613" width="32.626" height="30.9424" filterUnits="userSpaceOnUse" color-interpolation-filters="sRGB">
<feFlood flood-opacity="0" result="BackgroundImageFix"/>
<feGaussianBlur in="BackgroundImageFix" stdDeviation="7.5"/>
<feComposite in2="SourceAlpha" operator="in" result="effect1_backgroundBlur_1008_18884"/>
<feColorMatrix in="SourceAlpha" type="matrix" values="0 0 0 0 0 0 0 0 0 0 0 0 0 0 0 0 0 0 127 0" result="hardAlpha"/>
<feOffset dx="5" dy="5"/>
<feGaussianBlur stdDeviation="5"/>
<feColorMatrix type="matrix" values="0 0 0 0 1 0 0 0 0 0.670588 0 0 0 0 0 0 0 0 0.5 0"/>
<feBlend mode="normal" in2="effect1_backgroundBlur_1008_18884" result="effect2_dropShadow_1008_18884"/>
<feBlend mode="normal" in="SourceGraphic" in2="effect2_dropShadow_1008_18884" result="shape"/>
</filter>
<linearGradient id="paint0_linear_1008_18884" x1="1.125" y1="1.6875" x2="9.47901" y2="12.6114" gradientUnits="userSpaceOnUse">
<stop stop-color="#77ED8B"/>
<stop offset="1" stop-color="#22C55E"/>
</linearGradient>
<linearGradient id="paint1_linear_1008_18884" x1="1.125" y1="1.6875" x2="9.47901" y2="12.6114" gradientUnits="userSpaceOnUse">
<stop stop-color="#22C55E"/>
<stop offset="1" stop-color="#118D57"/>
</linearGradient>
<linearGradient id="paint2_linear_1008_18884" x1="7.43634" y1="8.88398" x2="10.3404" y2="9.1479" gradientUnits="userSpaceOnUse">
<stop stop-color="white"/>
<stop offset="1" stop-color="white" stop-opacity="0.2"/>
</linearGradient>
<clipPath id="clip0_1008_18884">
<rect width="18" height="18" fill="white"/>
</clipPath>
</defs>
</svg>
