<svg xmlns="http://www.w3.org/2000/svg" width="100" height="100" viewBox="0 0 100 100" fill="none">
  <path d="M81.3815 51.793C81.8284 52.7182 82.3244 53.568 82.6339 54.482C83.4001 56.7452 81.5964 59.3207 79.2265 59.3991C78.044 59.4382 76.8586 59.433 75.6758 59.3994C75.1239 59.3837 74.9446 59.5651 74.9545 60.1249C74.9846 61.8226 74.9311 63.5219 74.9701 65.2192C75.0887 70.3876 71.7977 74.9359 67.3927 76.4632C66.147 76.8951 64.7925 77.0797 63.472 77.2003C62.1151 77.3242 60.7377 77.2627 59.3712 77.2197C58.7198 77.1992 58.5156 77.3986 58.5217 78.0671C58.5525 81.4367 58.5148 84.807 58.5527 88.1765C58.5608 88.8893 58.3528 89.064 57.6656 89.0625C47.8273 89.0412 37.989 89.0415 28.1507 89.0619C27.4656 89.0634 27.2604 88.8851 27.2627 88.1733C27.2886 80.4783 27.2706 72.7832 27.2932 65.0882C27.2952 64.4114 27.0956 63.9771 26.5725 63.5449C22.0559 59.8131 18.8842 55.1502 17.1207 49.521C15.7234 45.061 15.3223 40.5197 15.8456 35.8716C16.6598 28.6393 19.6838 22.5181 24.9128 17.5391C28.3536 14.2629 32.3854 11.9767 36.9474 10.6264C40.1823 9.66896 43.4672 9.22612 46.8216 9.41953C53.2363 9.7894 58.9749 11.999 64.015 16.0273C68.3385 19.4828 71.3985 23.8666 73.2797 29.0762C74.5208 32.5131 75.1022 36.0728 74.9934 39.746C74.9774 40.2872 75.1659 40.8962 75.4339 41.3745C77.3794 44.8462 79.3696 48.2925 81.3815 51.793ZM51.6238 31.7597C51.2321 31.4943 50.735 31.3084 50.4682 30.9487C49.6297 29.8181 48.5637 29.5763 47.2485 29.7766C46.4892 29.8923 45.6984 29.7976 44.9741 29.7976C45.1082 31.2509 45.2423 32.7045 45.3837 34.2375C45.5975 34.1967 45.8585 34.1856 46.0892 34.0955C46.7461 33.8393 47.3835 33.5322 48.0419 33.2803C48.7122 33.0238 49.3107 33.2403 49.566 33.8455C49.852 34.5235 49.3917 34.9759 48.8945 35.1633C47.5547 35.6679 46.1662 36.0394 44.8089 36.4994C44.4897 36.6076 44.1692 36.809 43.9337 37.051C43.4763 37.521 43.1139 38.087 42.6451 38.5432C42.2686 38.9096 41.7033 39.1142 41.3007 38.6891C41.0262 38.3992 40.9056 37.8743 40.8953 37.4499C40.8894 37.2084 41.224 36.9389 41.4388 36.7147C43.1745 34.9026 43.5208 32.7881 42.6547 30.4924C42.4223 29.8765 41.9464 29.1349 41.3952 28.9024C39.8884 28.2669 38.35 28.4846 36.8313 29.1571C34.4577 30.2082 32.8177 31.7346 32.8423 34.5616C32.8502 35.4772 33.0469 35.6102 33.9013 35.4693C34.9031 35.3042 35.9235 35.2171 36.9387 35.1828C37.7718 35.1546 38.3269 35.7 38.3074 36.3791C38.288 37.056 37.7869 37.4036 36.9309 37.4556C36.0207 37.5109 35.1156 37.651 34.2079 37.7507C33.5937 37.8181 33.5645 38.0907 33.8084 38.6168C34.3472 39.7792 35.3196 40.4858 36.2917 41.2118C37.6813 42.2498 39.1412 43.2163 39.9802 44.8291C40.6498 46.1163 40.7033 47.5262 40.7346 48.9224C40.7828 51.071 40.7738 53.2218 40.7397 55.3709C40.7291 56.0425 40.9516 56.2535 41.6012 56.2182C42.4931 56.1698 43.3915 56.1703 44.2835 56.2175C44.9817 56.2545 45.2535 56.0603 45.2389 55.2911C45.1945 52.9567 45.1473 50.6157 45.2805 48.2877C45.3369 47.3025 45.6882 46.2568 46.171 45.3889C47.4709 43.0519 49.6163 42.0799 52.2069 42.0557C55.0745 42.029 57.9424 42.0442 60.8102 42.0456C62.496 42.0464 64.0207 41.5547 65.3367 40.4898C66.9335 39.1976 68.1107 37.5527 68.1716 35.4718C68.2367 33.2507 67.2741 31.3648 65.4282 30.0377C65.0395 29.7582 64.8519 29.4676 64.7993 28.9532C64.4367 25.4093 62.0047 22.8542 58.3378 22.5407C57.7682 22.4921 57.5203 22.2696 57.2762 21.8079C56.9831 21.2534 56.6371 20.7083 56.2231 20.2411C54.2894 18.0588 50.8845 17.358 48.0807 18.853C47.6826 19.0653 47.3451 19.252 46.876 18.8872C44.2992 16.8835 41.0947 17.0106 38.5809 18.9548C37.8567 19.515 37.2528 19.7743 36.2844 19.6814C33.5596 19.42 31.072 21.052 29.8148 23.6073C29.6484 23.9455 29.2141 24.1681 28.8709 24.3927C28.6349 24.5472 28.3392 24.6068 28.0743 24.7188C25.3891 25.8547 23.5518 29.3506 24.2821 32.0159C24.4379 32.5843 24.3577 33.0044 24.0538 33.494C22.6906 35.6901 22.6116 37.955 23.8054 40.2586C23.9253 40.4899 24.0709 40.7236 24.1211 40.9733C24.8065 44.3838 26.7746 46.7691 29.9634 47.9801C31.8418 48.6935 33.259 49.7475 33.7944 51.7057C34.133 52.9441 34.2089 54.2544 34.436 55.5264C34.4785 55.7644 34.6726 56.1622 34.8078 56.167C36.1626 56.215 37.5197 56.1962 38.9013 56.1962C38.9013 53.2453 38.9618 50.4089 38.8732 47.5772C38.8347 46.3443 38.3181 45.2082 37.2774 44.4209C36.2293 43.6282 35.1874 42.8254 34.1061 42.0813C33.948 41.9725 33.5282 42.0848 33.3292 42.232C32.5683 42.7944 31.8701 43.4438 31.1046 43.9992C30.6316 44.3424 30.088 44.317 29.6863 43.8368C29.2843 43.3562 29.3786 42.8473 29.7755 42.4063C29.9658 42.1948 30.2183 42.041 30.4393 41.8571C30.9646 41.42 31.4776 40.967 32.0151 40.5457C32.5131 40.1554 32.4264 39.7432 32.2264 39.2152C31.884 38.3113 31.6563 37.3638 31.3477 36.4458C31.254 36.1669 31.1156 35.8167 30.8904 35.6832C29.3419 34.7651 28.5054 33.3451 28.0084 31.6747C27.858 31.1696 27.7471 30.65 27.6552 30.1304C27.5695 29.6461 28.1029 29.0039 28.6022 28.9427C29.1376 28.877 29.6873 29.402 29.8084 30.0843C29.9907 31.1111 30.2381 32.1132 30.9509 33.135C31.659 30.5852 33.0456 28.7867 35.4603 27.6839C35.1097 27.2726 34.8752 26.8898 34.5434 26.637C34.1745 26.3559 33.704 26.2152 33.301 25.9738C32.753 25.6455 32.5726 25.146 32.8342 24.5526C33.083 23.988 33.5244 23.6607 34.1573 23.8508C35.4046 24.2253 36.4426 24.9303 37.1117 26.0725C37.4356 26.6254 37.8013 26.7245 38.3423 26.4861C38.5566 26.3916 38.7854 26.327 39.0119 26.2651C41.2144 25.6633 41.9751 24.7639 42.069 22.643C42.1044 21.8446 42.5026 21.3667 43.1552 21.3398C43.8023 21.313 44.2757 21.8619 44.3283 22.6668C44.4325 24.2621 43.8855 25.6146 42.733 26.8437C43.0988 26.9815 43.3756 27.1527 43.6672 27.1842C44.9962 27.328 46.3291 27.5268 47.6611 27.5304C50.0625 27.5369 52.0438 26.6226 53.3832 24.5113C53.8349 23.7992 54.3668 23.6189 54.8766 23.944C55.4695 24.322 55.6684 25.1227 55.1697 25.7458C54.5171 26.5611 53.7628 27.3008 53.0005 28.017C52.6096 28.3842 52.1062 28.6295 51.5953 28.9686C52.5769 29.8022 53.6147 30.3724 54.7834 30.5557C56.7257 30.8603 58.7039 31.1887 60.4123 29.7321C60.8443 29.3639 61.3305 29.3253 61.7718 29.7123C62.191 30.0801 62.3189 30.553 62.0408 31.0667C61.9181 31.2931 61.7658 31.5453 61.5589 31.676C60.6718 32.2362 59.7594 32.7555 58.8262 33.3075C58.7952 33.2145 58.7991 33.2743 58.83 33.3109C58.9829 33.4917 59.1405 33.6687 59.3008 33.843C60.5552 35.2069 61.1724 36.8089 61.1239 38.6783C61.1061 39.3623 60.8142 39.7139 60.1318 39.7389C59.5391 39.7606 59.191 39.4918 59.0768 38.9004C58.9469 38.2283 58.8779 37.5318 58.6503 36.8939C58.1852 35.5906 57.2017 34.6629 56.0633 33.9962C54.6691 33.1797 53.1731 32.5403 51.6238 31.7597Z" fill="#00A76F"/>
</svg>