<svg xmlns="http://www.w3.org/2000/svg" width="100" height="100" viewBox="0 0 100 100" fill="none">
  <path d="M67.8283 95.9897C48.1101 95.9897 28.4423 95.9897 8.7746 95.9897C8.00117 95.9897 8.00093 95.9894 8.00093 95.1277C8.00088 87.8854 8.00015 80.643 8.00182 73.4007C8.00206 72.3871 7.92036 72.5116 8.82439 72.5105C11.5186 72.5074 14.2128 72.5045 16.907 72.5193C17.2807 72.5213 17.4361 72.4423 17.4355 71.9659C17.4223 61.5821 17.4246 51.1983 17.4239 40.8145C17.4239 40.6272 17.4239 40.4399 17.4239 40.2527C17.396 40.2473 17.3681 40.242 17.3402 40.2366C17.1333 41.1548 16.9208 42.0716 16.7206 42.9916C16.2567 45.1231 15.77 47.2491 15.3509 49.3916C15.1504 50.4165 14.712 51.1529 13.8271 51.5172C13.1104 51.8122 12.4632 51.608 11.9016 51.074C11.3085 50.51 11.0078 49.7782 11.1884 48.9128C11.9201 45.4073 12.6759 41.908 13.4257 38.4072C13.7066 37.0958 13.9842 35.7833 14.2844 34.4774C14.4794 33.6289 15.094 33.1535 15.6914 32.7051C18.1214 30.8814 20.8233 30.134 23.7268 30.3319C26.1905 30.4998 28.4033 31.4741 30.3662 33.1422C30.9322 33.6232 31.1674 34.3391 31.3249 35.0775C31.7099 36.8826 32.0743 38.6932 32.4497 40.5008C32.999 43.1459 33.5125 45.8013 34.1193 48.4298C34.3721 49.5246 34.1622 50.3757 33.409 51.0338C32.2357 52.0588 30.5276 51.3979 30.1549 49.7634C29.546 47.0931 28.9935 44.4068 28.4145 41.728C28.303 41.2121 28.1788 40.6996 27.9687 40.1869C27.958 40.3611 27.938 40.5352 27.938 40.7094C27.9364 51.0932 27.94 61.477 27.9264 71.8608C27.9257 72.3891 28.0661 72.5285 28.5263 72.5228C30.5973 72.4975 32.6687 72.4967 34.7396 72.5222C35.202 72.5279 35.3052 72.3395 35.3025 71.8659C35.287 69.1574 35.3039 66.4486 35.2858 63.7401C35.2827 63.2729 35.402 63.1345 35.8239 63.1375C38.6019 63.1577 41.3801 63.138 44.1581 63.1603C44.5989 63.1638 44.7298 63.0346 44.7292 62.5324C44.7169 51.4526 44.7217 40.3728 44.7099 29.293C44.7096 28.9933 44.6129 28.6609 44.4762 28.3992C42.7233 25.0441 40.9556 21.6986 39.1902 18.3516C38.0059 16.1062 36.8185 13.8629 35.6338 11.6177C35.002 10.4203 35.2747 9.16298 36.3299 8.39469C37.2918 7.69436 38.4316 7.92494 39.0907 9.09508C40.2434 11.1416 41.3234 13.2394 42.426 15.3209C43.4701 17.2919 44.5116 19.2647 45.5359 21.2485C45.7373 21.6387 45.9567 21.687 46.3197 21.5665C48.0299 20.9991 49.7733 20.7497 51.5511 21.0473C52.3296 21.1776 53.1064 21.3433 53.8686 21.5605C54.1733 21.6472 54.2955 21.546 54.4273 21.295C55.4641 19.32 56.5022 17.3457 57.5447 15.3745C58.6475 13.2892 59.7203 11.1825 60.875 9.13356C61.5524 7.93153 62.7132 7.70949 63.7294 8.43483C64.6963 9.12505 64.9755 10.4256 64.363 11.598C62.8977 14.4033 61.4096 17.1937 59.9348 19.9928C58.4264 22.8558 56.9197 25.7198 55.4246 28.5913C55.3218 28.7887 55.2798 29.0527 55.2796 29.2857C55.2725 40.3843 55.2759 51.483 55.2641 62.5816C55.2636 63.0796 55.4311 63.1607 55.8261 63.1582C58.5873 63.1406 61.3487 63.1584 64.1099 63.136C64.5652 63.1323 64.7076 63.2606 64.706 63.7911C64.689 69.5661 64.6957 75.3411 64.6963 81.1161C64.6964 81.8979 64.6973 81.8975 65.3849 81.8976C67.7757 81.8978 70.1667 81.8885 72.5574 81.9079C72.9645 81.9112 73.1046 81.8015 73.104 81.3184C73.0916 70.9159 73.094 60.5132 73.0935 50.1106C73.0935 49.9454 73.0935 49.7802 73.0935 49.615C73.061 49.6093 73.0285 49.6036 72.996 49.5979C72.684 51.0473 72.3726 52.4967 72.0598 53.9458C71.6863 55.6762 71.3272 57.4107 70.9323 59.1349C70.6334 60.4396 69.5244 61.2123 68.461 60.9671C67.3286 60.7061 66.5274 59.2229 66.9012 58.0331C67.1663 57.1895 67.2796 56.2867 67.4648 55.4115C68.1519 52.1645 68.8412 48.918 69.5284 45.6711C69.6246 45.2165 69.7308 44.7633 69.8029 44.3037C69.9882 43.1227 70.7733 42.4876 71.5828 41.9112C73.7822 40.3449 76.204 39.6202 78.8082 39.6922C81.4934 39.7664 83.913 40.7066 86.0483 42.5415C86.607 43.0217 86.8279 43.7174 86.9841 44.4261C87.3688 46.1708 87.7072 47.9281 88.0704 49.6788C88.6381 52.4156 89.1329 55.1756 89.813 57.8773C90.182 59.3432 89.0911 60.9948 87.7426 60.9104C86.9365 60.8599 86.0609 60.1607 85.8438 59.2355C85.4352 57.4949 85.0749 55.7401 84.6947 53.9912C84.368 52.4887 84.0415 50.9862 83.6413 49.4924C83.6413 60.2647 83.6413 71.0371 83.6413 81.8983C83.8401 81.8983 84.0346 81.8983 84.229 81.8983C86.6199 81.8983 89.0109 81.9113 91.4016 81.8868C91.8596 81.8821 92.0024 82.0096 92 82.5412C91.9803 86.7924 91.9806 91.0438 91.9985 95.295C92.0007 95.8404 91.8553 96.0009 91.3688 96C83.5388 95.9854 75.7088 95.9897 67.8283 95.9897ZM77.2583 80.8132C77.2583 80.9447 77.2719 81.0785 77.2559 81.2076C77.1893 81.7438 77.375 81.9665 77.8707 81.9076C78.2035 81.8681 78.546 81.8698 78.8788 81.9089C79.3309 81.962 79.4416 81.7683 79.4406 81.2759C79.4263 74.6595 79.4312 68.0431 79.4297 61.4266C79.4297 61.2271 79.4117 61.0276 79.4017 60.8216C78.6668 60.8216 77.9876 60.8216 77.2583 60.8216C77.2583 67.4773 77.2583 74.0899 77.2583 80.8132ZM48.9331 54.5231C48.9331 57.3747 48.9331 60.2263 48.9331 63.1513C49.4651 63.1513 49.9315 63.1519 50.3979 63.1511C51.056 63.1501 51.0568 63.1496 51.0568 62.4199C51.057 56.1964 51.0582 49.9729 51.0547 43.7494C51.0544 43.2084 51.207 42.4398 50.9566 42.1863C50.6698 41.8958 50.01 42.0833 49.5159 42.0249C49.0535 41.9701 48.9198 42.1532 48.9224 42.6778C48.9421 46.5885 48.9331 50.4994 48.9331 54.5231ZM23.1067 51.416C22.8544 51.4162 22.6021 51.4169 22.3498 51.4166C21.642 51.4159 21.6412 51.4157 21.6412 52.2001C21.6413 58.7389 21.6415 65.2778 21.6432 71.8166C21.6433 72.033 21.6603 72.2495 21.6714 72.5154C22.2288 72.5154 22.732 72.4887 23.2318 72.5237C23.6447 72.5526 23.7754 72.4079 23.7744 71.9299C23.7609 65.2971 23.7599 58.6642 23.7758 52.0314C23.777 51.5198 23.6335 51.3443 23.1067 51.416Z" fill="#FFAC82"/>
  <path d="M45.7631 14.4066C45.8102 12.3996 47.5434 10.6019 49.4958 10.254C51.7471 9.85272 54.0154 11.417 54.603 13.511C55.0666 15.1633 54.3765 17.2712 52.9274 18.308C50.5809 19.9866 47.494 19.1741 46.2191 16.6969C45.8611 16.0014 45.6888 15.2495 45.7631 14.4066Z" fill="#FFAC82"/>
  <path d="M74.5528 31.3272C75.4947 29.7562 76.8732 28.9427 78.6411 29.0031C80.4318 29.0643 81.7826 29.9839 82.5666 31.6088C83.8696 34.3092 82.0897 37.4954 79.1616 37.9494C76.801 38.3154 74.5303 36.6472 74.1094 34.5024C73.8966 33.4184 73.9688 32.351 74.5528 31.3272Z" fill="#FFAC82"/>
  <path d="M24.2268 28.0279C22.0081 29.131 19.4404 28.2842 18.4023 26.0694C17.4642 24.0679 18.1941 21.562 20.3063 20.4646C22.3266 19.4149 24.9251 20.2071 25.988 22.2042C27.1164 24.3243 26.3641 26.8547 24.2268 28.0279Z" fill="#FFAC82"/>
</svg>