<svg width="88" height="88" viewBox="0 0 88 88" fill="none" xmlns="http://www.w3.org/2000/svg">
<path opacity="0.08" d="M66.0312 10.5286C71.4024 15.5348 75.6494 20.5409 79.5216 26.1729C83.3939 31.7422 86.8914 37.9374 87.7658 44.6331C88.6401 51.3289 86.9538 58.5878 84.5805 66.7854C82.2697 75.0456 79.2718 84.3696 73.0262 87.0604C66.7807 89.7512 57.2874 85.934 48.4812 84.6824C39.7374 83.4309 31.6182 84.8076 23.2491 83.3683C14.8176 81.8665 6.13629 77.6112 2.4514 70.6026C-1.17102 63.594 0.203004 53.8319 0.515282 44.3202C0.890016 34.8085 0.140546 25.4845 4.44998 19.5397C8.75942 13.6575 18.0028 11.0918 26.0596 7.65005C34.1164 4.14574 40.9865 -0.297238 47.6068 0.0156473C54.2271 0.328533 60.7225 5.45985 66.0312 10.5286Z" fill="#00A76F"/>
<g clip-path="url(#clip0_221_806)">
<path d="M38.6808 16.2795C26.3143 16.2795 16.2893 26.3045 16.2893 38.671C16.2893 51.0375 26.3143 61.0625 38.6808 61.0625C51.0473 61.0625 61.0723 51.0375 61.0723 38.671C61.0589 26.3101 51.0417 16.2929 38.6808 16.2795ZM38.6808 18.412C45.2671 18.4172 51.439 21.6272 55.2249 27.0167L52.5593 29.6824C51.9106 29.2899 51.1679 29.0798 50.4097 29.0746C48.0542 29.0746 46.1447 30.9842 46.1447 33.3397C46.1484 34.0987 46.3572 34.8426 46.7492 35.4925L39.7673 42.4743C38.4453 41.6683 36.7838 41.6683 35.4618 42.4743L30.6124 37.625C31.0044 36.9751 31.2133 36.2312 31.217 35.4722C31.2199 33.1214 29.3166 31.2133 26.9658 31.2104C25.0216 31.208 23.3229 32.5231 22.8383 34.4059H18.8825C20.9013 25.0832 29.142 18.426 38.6808 18.412ZM52.5422 33.3397C52.5422 34.5175 51.5875 35.4722 50.4097 35.4722C49.2319 35.4722 48.2772 34.5175 48.2772 33.3397C48.2772 32.1619 49.2319 31.2072 50.4097 31.2072C51.5875 31.2072 52.5422 32.1619 52.5422 33.3397ZM39.7471 46.1348C39.7471 47.3126 38.7924 48.2673 37.6146 48.2673C36.4367 48.2673 35.482 47.3126 35.482 46.1348C35.482 44.957 36.4367 44.0023 37.6146 44.0023C38.7924 44.0023 39.7471 44.957 39.7471 46.1348ZM29.0845 35.4722C29.0845 36.65 28.1298 37.6047 26.9519 37.6047C25.7741 37.6047 24.8194 36.65 24.8194 35.4722C24.8194 34.2944 25.7741 33.3397 26.9519 33.3397C28.1298 33.3397 29.0845 34.2944 29.0845 35.4722ZM48.5243 56.3851C45.5132 58.057 42.1251 58.9329 38.6808 58.9298C27.4997 58.9374 18.4294 49.8797 18.4218 38.6986C18.4213 37.977 18.4594 37.2558 18.5359 36.5383H22.8383C23.323 38.4156 25.0131 39.7298 26.9519 39.7371C27.711 39.7334 28.4548 39.5245 29.1047 39.1325L33.9541 43.9819C33.5621 44.6318 33.3532 45.3756 33.3495 46.1347C33.3495 48.4902 35.2591 50.3997 37.6146 50.3997C39.9701 50.3997 41.8796 48.4902 41.8796 46.1347C41.8759 45.3756 41.667 44.6318 41.275 43.9819L48.2569 37C48.9068 37.392 49.6507 37.6009 50.4097 37.6046C52.7652 37.6046 54.6748 35.695 54.6748 33.3395C54.671 32.5805 54.4622 31.8366 54.0702 31.1868L56.3946 28.8634C61.8212 38.6367 58.2975 50.9586 48.5243 56.3851Z" fill="#00A76F"/>
<path d="M65.3373 22.6768C67.2762 22.6695 68.9662 21.3554 69.451 19.478H76V17.3455H69.451C68.9662 15.4681 67.2762 14.154 65.3373 14.1467C62.9818 14.1467 61.0723 16.0562 61.0723 18.4117C61.076 19.1708 61.2849 19.9146 61.6769 20.5645L59.8034 22.4379C50.8395 10.7596 34.1056 8.55908 22.4272 17.523C10.7488 26.4869 8.54834 43.221 17.5123 54.8994C25.9736 65.9228 41.4838 68.5968 53.1478 61.043L66.4569 74.3521C68.6399 76.5352 72.1791 76.5352 74.3622 74.3521C76.5452 72.1691 76.5452 68.6299 74.3622 66.4469L61.0531 53.1378C66.7655 44.339 66.7655 33.0026 61.0531 24.2037L63.1856 22.0712C63.8351 22.4633 64.5787 22.6725 65.3373 22.6768ZM65.3373 16.2792C66.5152 16.2792 67.4699 17.2339 67.4699 18.4117C67.4699 19.5896 66.5152 20.5443 65.3373 20.5443C64.1595 20.5443 63.2048 19.5896 63.2048 18.4117C63.2048 17.2339 64.1596 16.2792 65.3373 16.2792ZM72.8545 67.9546C74.2201 69.2895 74.245 71.4788 72.9101 72.8444C71.5751 74.2101 69.3858 74.235 68.0202 72.9C68.0014 72.8818 67.983 72.8632 67.9646 72.8444L59.3812 64.261L64.2711 59.3711L72.8545 67.9546ZM62.7634 57.8634L57.8735 62.7533L54.9221 59.8019C55.0724 59.6868 55.2132 59.5599 55.3614 59.4415C55.5096 59.3232 55.6813 59.1813 55.8401 59.0481C56.0736 58.8519 56.304 58.6536 56.53 58.4499C56.6462 58.3433 56.7571 58.2366 56.8712 58.13C57.3084 57.7206 57.7317 57.2973 58.1411 56.8601C58.2478 56.746 58.3544 56.6351 58.461 56.5189C58.6647 56.2928 58.863 56.0625 59.0592 55.829C59.1929 55.6712 59.324 55.5117 59.4526 55.3503C59.5699 55.2031 59.6968 55.0624 59.812 54.912L62.7634 57.8634ZM58.6284 52.9107C58.2925 53.3798 57.946 53.8394 57.5803 54.2819C57.4737 54.4109 57.3596 54.5356 57.2497 54.6625C56.9235 55.0421 56.5865 55.4104 56.2389 55.7672C56.0875 55.9235 55.9336 56.0775 55.7772 56.2289C55.4218 56.5765 55.0536 56.9134 54.6726 57.2397C54.5457 57.3463 54.4209 57.4625 54.2919 57.5702C53.8494 57.936 53.3899 58.2825 52.9207 58.6184C41.8828 66.504 26.542 63.9486 18.6564 52.9107C10.7707 41.8727 13.3261 26.532 24.3641 18.6463C35.402 10.7606 50.7427 13.3159 58.6284 24.354C64.7302 32.8951 64.7302 44.3696 58.6284 52.9107Z" fill="#00A76F"/>
</g>
<defs>
<clipPath id="clip0_221_806">
<rect width="64" height="64" fill="white" transform="translate(12 12)"/>
</clipPath>
</defs>
</svg>
