<svg xmlns="http://www.w3.org/2000/svg" width="100" height="100" viewBox="0 0 100 100" fill="none">
  <path d="M67.7615 10.1308C68.2212 10.1322 68.6867 10.1328 69.2553 10.1333C69.634 10.1244 69.9096 10.1157 70.1852 10.1069C70.2727 10.1158 70.3601 10.1246 70.4904 10.1205C71.6191 10.116 72.7049 10.1244 73.8441 10.1199C75.3278 10.1172 76.7581 10.1276 78.2675 10.1911C78.3645 11.5781 78.3769 12.9121 78.4053 14.2457C78.4107 14.4989 78.4794 14.7504 78.5278 14.995C78.5368 14.9872 78.5174 14.9999 78.5183 15.0344C78.6023 15.0828 78.6855 15.0966 78.8221 15.1213C79.3827 15.1219 79.8898 15.1117 80.4168 15.122C80.4856 15.0841 80.5346 15.0256 80.5963 14.9063C80.5989 13.6303 80.5888 12.4152 80.5788 11.2C80.6804 10.1419 80.6804 10.1426 81.6515 10.1405C82.5114 10.1386 83.3713 10.135 84.2846 10.1196C84.8328 10.1196 85.3275 10.1322 85.884 10.2046C85.9526 10.7138 85.965 11.1632 85.9654 11.6126C85.9696 16.1107 85.9719 20.6087 85.9217 25.1241C85.3983 25.1648 84.9278 25.1881 84.4113 25.1944C84.0722 25.2615 83.7791 25.3455 83.4596 25.4696C83.4014 25.7797 83.3695 26.0498 83.3239 26.3639C83.3093 26.4699 83.3084 26.5319 83.2881 26.6322C83.2363 26.9563 83.2039 27.242 83.1559 27.5704C83.1353 27.7357 83.1303 27.8582 83.0973 28.0187C83.0406 28.2874 83.0118 28.5181 82.9677 28.7758C82.9523 28.8027 82.9377 28.8651 82.8841 28.8683C76.4641 28.8731 70.0979 28.8761 63.7316 28.8691C63.5305 28.8688 63.3294 28.7648 63.1308 28.663C63.1217 28.5258 63.1101 28.4347 63.1062 28.2909C63.0618 28.006 63.0098 27.7738 62.9605 27.491C62.9485 27.3409 62.9336 27.2414 62.9294 27.0867C62.8059 26.4272 62.6718 25.8228 62.4929 25.1984C61.7006 25.1785 60.9532 25.1785 60.1025 25.1785C60.1025 22.9217 60.1025 20.7724 60.1164 18.5617C60.121 16.4721 60.1118 14.4439 60.116 12.3631C60.1203 12.1656 60.111 12.0208 60.1145 11.8265C60.1187 11.6749 60.1101 11.573 60.1152 11.4132C60.1321 11.1145 60.0975 10.8618 60.15 10.6366C60.1937 10.4491 60.3396 10.2939 60.4852 10.1403C61.9606 10.1597 63.3913 10.1848 64.8211 10.1549C65.3189 10.1444 65.5111 10.3077 65.4949 10.9115C65.4624 12.1246 65.4957 13.3398 65.4797 14.5538C65.4737 15.0091 65.6054 15.2231 66.0144 15.1975C66.3806 15.1745 66.7507 15.1643 67.1155 15.1997C67.6073 15.2475 67.7407 15.0034 67.7353 14.4564C67.7209 13.0191 67.7542 11.581 67.7686 10.1433C67.7686 10.1433 67.7672 10.13 67.7615 10.1308Z" fill="#FF5630"/>
  <path d="M78.1176 91.5629C76.485 91.5693 74.8957 91.552 73.2539 91.5521C72.6174 91.5586 72.0335 91.5477 71.3472 91.5339C70.9937 91.5234 70.7427 91.5093 70.4917 91.5092C65.5427 91.5066 60.5938 91.5066 55.6449 91.5016C55.3564 91.5014 55.068 91.4636 54.7827 91.4094C54.7686 91.2876 54.7514 91.1998 54.7515 91.0739C54.7572 90.8679 54.7456 90.6998 54.747 90.479C54.7489 88.5201 54.7377 86.6138 54.7424 84.6575C54.7513 83.9317 54.7443 83.256 54.7559 82.5329C54.8048 82.1595 54.8354 81.8333 54.9205 81.5117C56.1733 81.5165 57.3716 81.5024 58.5694 81.5251C58.95 81.5323 59.0799 81.3827 59.0672 80.9441C59.0444 80.1582 59.0194 79.3671 59.0713 78.5849C59.1329 77.6559 59.0547 76.8518 58.2308 76.3996C58.1347 76.3469 58.0556 76.217 58.0013 76.1019C57.6448 75.3465 57.2972 74.5853 56.9518 73.7691C56.9369 73.5237 56.9168 73.3353 56.9085 73.0913C56.9121 72.8464 56.904 72.657 56.9115 72.4108C56.9357 72.0767 56.9442 71.7993 56.9841 71.4945C57.0368 71.3515 57.058 71.2359 57.1 71.085C57.1618 70.89 57.2029 70.7304 57.274 70.54C57.3462 70.3989 57.3884 70.2885 57.4558 70.1562C57.5092 70.0455 57.5374 69.9567 57.6005 69.845C57.6893 69.7186 57.7432 69.6149 57.8233 69.5043C57.8841 69.4726 57.8996 69.4369 57.9321 69.3734C58.1463 69.1398 58.3243 68.9228 58.5395 68.6972C58.8123 68.5129 59.048 68.3373 59.319 68.1645C59.4089 68.1217 59.4633 68.076 59.558 68.0298C59.6464 68.0025 59.6945 67.9757 59.7868 67.9575C60.6102 67.863 61.3894 67.7599 62.2251 67.6493C62.2439 67.3843 62.2723 67.0768 62.2867 66.7683C62.4851 62.5131 62.6874 58.2581 62.8762 54.0023C62.9983 51.2488 63.0998 48.4941 63.2359 45.6973C63.2589 45.3697 63.2566 45.0848 63.2725 44.7405C63.3028 44.0447 63.3149 43.4083 63.3546 42.7288C63.4161 42.2734 63.45 41.8611 63.5365 41.4479C64.3567 41.4312 65.1242 41.4155 65.9446 41.4156C69.0172 41.4209 72.0369 41.4104 75.1095 41.4155C77.6415 41.43 80.1205 41.4288 82.6195 41.4793C82.6808 41.9753 82.7397 42.4184 82.7601 42.864C82.8451 44.7265 82.9123 46.59 82.9975 48.4525C83.2725 54.4662 83.5556 60.4793 83.8285 66.4931C83.897 68.0018 83.7661 67.7678 84.9338 67.7464C87.674 67.6962 89.8316 70.5164 89.0599 74.1943C88.7978 75.4435 88.0572 76.2848 87.1932 77.0743C87.115 77.2861 87.0493 77.4764 87.0475 77.6676C87.0376 78.7405 87.06 79.8142 87.0358 80.8865C87.0244 81.3921 87.189 81.5437 87.6089 81.5347C88.8383 81.5082 90.0683 81.5212 91.3153 81.5701C91.3653 82.6644 91.3982 83.7072 91.4311 84.7501C91.4196 86.149 91.408 87.5479 91.4129 89.0076C91.4122 89.6724 91.3638 90.2782 91.3873 90.8801C91.4074 91.3969 91.2387 91.529 90.8164 91.5249C89.0011 91.5075 87.1854 91.5256 85.3178 91.55C82.8974 91.5593 80.5292 91.5493 78.1176 91.5629Z" fill="#FF5630"/>
  <path d="M47.432 75.8331C47.3594 75.9323 47.2869 76.0314 47.1657 76.1843C46.7986 76.6021 46.4801 76.9662 46.1617 77.3302C46.1503 78.5913 46.139 79.8523 46.1371 81.1756C46.2871 81.343 46.426 81.5358 46.5684 81.5395C47.5918 81.5659 48.6159 81.5539 49.6398 81.5541C49.8503 81.5541 50.0608 81.5541 50.3248 81.5541C50.3248 84.8526 50.3248 88.0953 50.3248 91.4154C50.1075 91.4335 49.886 91.4681 49.6645 91.4682C37.9962 91.4734 26.3279 91.4759 14.6596 91.478C13.8235 91.4781 13.8216 91.4756 13.8215 90.5202C13.8211 87.8235 13.8216 85.1267 13.8235 82.43C13.8242 81.5509 13.8268 81.5495 14.6024 81.5484C15.607 81.5471 16.6118 81.5324 17.6159 81.5562C18.0163 81.5656 18.1741 81.407 18.157 80.9351C18.1108 79.6633 18.0873 78.3904 17.9914 77.061C17.6545 76.7568 17.381 76.5094 17.1087 76.2246C17.0505 76.123 16.9911 76.0587 16.919 75.9532C16.7926 75.7561 16.6789 75.6004 16.5628 75.3955C16.3866 74.9089 16.2128 74.4713 16.0421 73.9973C16.035 73.9136 16.0249 73.8664 16.0264 73.772C16.0328 73.0355 16.0275 72.3462 16.0345 71.6253C16.0465 71.5483 16.0462 71.5027 16.0736 71.4228C16.1729 71.1158 16.2448 70.843 16.337 70.5425C16.3687 70.4684 16.38 70.422 16.4227 70.3494C16.5405 70.1401 16.6268 69.9571 16.7349 69.7508C16.7758 69.6874 16.7948 69.6474 16.8492 69.5943C17.0272 69.3806 17.1697 69.1801 17.3434 68.9648C17.419 68.8919 17.4635 68.8338 17.541 68.7741C17.6346 68.7026 17.6951 68.6327 17.7528 68.5594C17.75 68.5558 17.7545 68.5637 17.7965 68.5555C18.1155 68.3938 18.3803 68.1841 18.672 68.0996C19.1425 67.9632 19.2403 67.6462 19.2332 67.1265C19.2087 65.318 19.2352 63.5086 19.2167 61.7C19.2117 61.2183 19.1152 60.7379 19.0655 60.2063C19.0452 59.9897 19.0201 59.8237 19.0016 59.6139C18.9672 59.4641 18.9263 59.3581 18.8862 59.2069C18.8728 59.1039 18.8585 59.0462 18.8525 58.9379C18.7567 58.558 18.6526 58.2286 18.5455 57.8545C18.5281 57.7526 18.5136 57.6954 18.5045 57.589C18.2229 56.7927 17.9358 56.0458 17.6453 55.2527C17.5773 55.073 17.5128 54.9396 17.4518 54.7593C17.1001 53.953 16.7449 53.1935 16.3849 52.3904C16.3157 52.221 16.2514 52.0954 16.1876 51.9308C16.1347 51.8111 16.0813 51.7303 16.0259 51.6234C16.0238 51.5973 15.9961 51.556 15.9917 51.5148C15.9374 51.3796 15.8874 51.2856 15.8271 51.1516C15.7575 50.9907 15.6982 50.8699 15.6334 50.7051C15.5304 50.4935 15.4329 50.3259 15.3344 50.1197C15.3158 50.0344 15.2983 49.9878 15.2788 49.9001C15.2265 49.7676 15.176 49.6762 15.1189 49.5433C15.0575 49.377 15.0028 49.2521 14.9457 49.0775C14.6697 48.3431 14.3962 47.6584 14.118 46.9279C14.0954 46.825 14.0775 46.7677 14.0652 46.6631C13.7858 45.6984 13.5008 44.7811 13.217 43.8188C13.207 43.7157 13.1957 43.6575 13.1917 43.5525C13.1417 43.3328 13.0842 43.1599 13.0311 42.952C13.0249 42.8721 13.0143 42.8271 13.0135 42.7483C12.9686 42.5586 12.9141 42.4026 12.8623 42.1961C12.8484 42.0464 12.8316 41.9474 12.8233 41.8044C12.7844 41.6251 12.7371 41.4898 12.6933 41.3075C12.6803 41.1372 12.6639 41.0137 12.6585 40.8541C12.614 40.6206 12.5584 40.4231 12.5075 40.1718C12.4988 39.9744 12.4854 39.8309 12.4815 39.636C12.4368 39.3256 12.3826 39.0666 12.3358 38.7545C12.3289 38.4865 12.3146 38.2715 12.313 38.0091C12.3165 36.2394 12.3073 34.5172 12.3087 32.7446C12.3226 32.5219 12.3259 32.3496 12.3548 32.1374C12.4106 31.7856 12.4407 31.4737 12.4838 31.1192C12.4996 31.0167 12.5025 30.9568 12.528 30.8626C12.581 30.5843 12.6115 30.3402 12.6548 30.051C12.6743 29.8799 12.6809 29.7539 12.716 29.5975C12.7698 29.424 12.7952 29.281 12.8351 29.096C12.8522 28.9939 12.8547 28.9338 12.8801 28.8428C12.94 28.608 12.9769 28.4043 13.0262 28.1708C13.0497 28.0972 13.049 28.0537 13.0662 27.9806C13.1791 27.631 13.2623 27.3112 13.36 26.9611C13.3772 26.8855 13.38 26.8401 13.4131 26.7626C14.1753 24.9263 14.9073 23.122 15.6553 21.2978C15.6714 21.2778 15.6798 21.2238 15.7137 21.2018C16.0211 20.6864 16.2946 20.1929 16.5878 19.6819C16.6326 19.6361 16.6453 19.6015 16.6455 19.5608C16.6628 19.5503 16.68 19.5399 16.7396 19.4803C16.8248 19.3401 16.8677 19.249 16.9105 19.158C16.9546 19.1022 16.9986 19.0465 17.0881 18.9409C17.1812 18.8005 17.2288 18.71 17.2764 18.6194C17.2764 18.6194 17.2839 18.6202 17.3178 18.6016C17.5545 18.2803 17.7571 17.9775 17.9598 17.6747C18.0777 17.531 18.1956 17.3873 18.3665 17.1932C18.9447 16.5215 19.4698 15.9001 19.9949 15.2788C20.0444 15.2319 20.094 15.185 20.1948 15.1042C20.3033 14.9956 20.3605 14.921 20.4178 14.8464C20.4178 14.8464 20.4175 14.8452 20.4526 14.8369C20.5476 14.7484 20.6075 14.6684 20.6674 14.5883C20.704 14.5797 20.7333 14.5578 20.8051 14.4867C20.9841 14.3153 21.1135 14.1802 21.2429 14.045C21.3006 14.0066 21.3584 13.9682 21.4743 13.892C21.8415 13.5729 22.1506 13.2916 22.4596 13.0103C22.4983 12.9919 22.537 12.9735 22.6296 12.9179C22.7977 12.7844 22.9119 12.6882 23.0261 12.5919C23.0261 12.5919 23.0637 12.5861 23.1167 12.5633C23.4492 12.3473 23.7212 12.1378 24.0093 11.9643C25.0253 11.3522 26.0469 10.7526 27.0663 10.1482C27.1105 10.1411 27.1547 10.134 27.2719 10.1095C27.7389 9.90593 28.1329 9.71974 28.5269 9.53355C28.5799 9.52846 28.6329 9.52336 28.7641 9.51057C29.1615 9.37356 29.4808 9.24423 29.8 9.11491C29.8534 9.11222 29.9067 9.10953 30.0424 9.10061C30.5959 8.9657 31.067 8.837 31.5382 8.70831C31.6642 8.70443 31.7903 8.70056 32.0125 8.69409C32.9347 8.67845 33.7608 8.6654 34.5869 8.65234C34.7091 8.67522 34.8312 8.69811 35.0286 8.75314C36.1785 9.04968 36.469 9.97512 36.4961 11.083C36.5103 11.6612 36.4474 12.2418 36.4193 12.8214C36.4079 12.9069 36.3964 12.9924 36.361 13.1547C36.3092 13.4137 36.2813 13.5958 36.2534 13.7779C36.4377 13.9096 36.6221 14.0412 36.8488 14.1637C37.0565 14.2055 37.2219 14.2565 37.4486 14.3362C37.5743 14.3831 37.6386 14.4013 37.703 14.4195C37.7524 14.4392 37.8018 14.4588 37.9196 14.5018C38.241 14.6273 38.4939 14.7295 38.7468 14.8317C39.258 15.1557 39.7717 15.4744 40.2788 15.8067C40.4372 15.9105 40.5778 16.0508 40.7757 16.2374C40.9049 16.3564 40.9849 16.4124 41.0649 16.4683C41.1293 16.5422 41.1938 16.6162 41.2965 16.7448C41.4033 16.8594 41.4719 16.9194 41.5404 16.9794C41.564 17.0188 41.5877 17.0583 41.6493 17.1548C41.8196 17.3836 41.952 17.5554 42.0844 17.7272C42.3826 18.3629 42.6809 18.9986 42.998 19.7234C43.0663 20.1359 43.1157 20.4595 43.1561 20.8333C43.1904 21.074 43.2337 21.2642 43.2668 21.5076C43.2146 22.3597 43.7687 22.5498 44.2466 22.8796C44.3605 22.9769 44.451 23.0362 44.5602 23.1359C44.8332 23.3376 45.0876 23.4989 45.3388 23.709C45.8094 24.1606 46.2834 24.5635 46.7544 25.0058C46.8098 25.0792 46.8681 25.1131 46.9457 25.1849C47.1303 25.3454 47.2954 25.468 47.4605 25.5907C47.5056 25.6482 47.5508 25.7058 47.6405 25.815C47.7639 25.918 47.8428 25.9693 47.9217 26.0207C48.7699 26.8802 49.6182 27.7398 50.511 28.6636C50.6302 28.7978 50.7049 28.8679 50.7795 28.9379C50.9373 29.1627 51.095 29.3876 51.2824 29.6973C51.4701 30.4223 51.6282 31.0625 51.7864 31.7026C51.7821 31.9847 51.7779 32.2668 51.7589 32.6556C51.5965 33.5858 51.4488 34.4092 51.3011 35.2326C51.2843 35.2782 51.2675 35.3238 51.2165 35.433C50.9565 35.9951 50.7306 36.4937 50.5047 36.9923C50.5047 36.9923 50.4654 37.0254 50.4193 37.0619C50.3243 37.1915 50.2753 37.2844 50.2263 37.3774C50.2263 37.3774 50.2322 37.381 50.1975 37.3934C50.1125 37.4908 50.0621 37.5758 50.0118 37.6608C50.0118 37.6608 50.0034 37.6573 49.9686 37.674C49.6755 37.9853 49.4171 38.28 49.1587 38.5747C49.106 38.6136 49.0534 38.6525 48.9419 38.7286C47.6189 39.374 46.3547 39.9823 45.0904 40.5907C45.0465 40.5914 45.0027 40.592 44.8864 40.5908C44.532 40.6004 44.2499 40.612 43.9679 40.6235C43.8561 40.6085 43.7443 40.5935 43.5675 40.5445C43.3073 40.4196 43.1121 40.3286 42.9169 40.2376C42.9169 40.2376 42.8805 40.205 42.844 40.1616C42.7301 40.061 42.6526 40.0037 42.5752 39.9464C42.5752 39.9464 42.5751 39.9462 42.5662 39.9048C42.4473 39.7561 42.3372 39.6489 42.2271 39.5416C42.2271 39.5416 42.2271 39.5414 42.2209 39.4988C42.1031 39.3493 41.9914 39.2424 41.8797 39.1355C41.8797 39.1355 41.8791 39.1365 41.8725 39.0945C41.7507 38.958 41.6356 38.8634 41.5204 38.7687C41.4243 38.6813 41.3283 38.5938 41.1874 38.4481C40.9955 38.307 40.8485 38.2241 40.7014 38.1412C40.6158 38.0783 40.5303 38.0154 40.3739 37.9222C40.1264 37.8474 39.9497 37.8029 39.773 37.7583C39.5077 37.7456 39.2425 37.7329 38.8852 37.7238C38.5077 37.7962 38.2221 37.8651 37.9365 37.934C37.8513 37.9366 37.766 37.9391 37.5922 37.9371C37.374 37.9389 37.2443 37.9453 37.1147 37.9517C37.0292 37.9437 36.9438 37.9356 36.7813 37.9108C36.5282 37.8478 36.3522 37.8017 36.1762 37.7555C36.1278 37.739 36.0794 37.7224 35.967 37.6695C35.6208 37.4686 35.3385 37.3041 35.0562 37.1395C35.0212 37.1745 34.9862 37.2094 34.9512 37.2443C35.0784 37.4939 35.2056 37.7434 35.3328 37.9929C35.3328 37.9929 35.3407 38.0355 35.3607 38.0944C35.4918 38.311 35.6029 38.4688 35.7139 38.6265C35.8671 38.8182 36.0203 39.0099 36.2122 39.2689C36.3911 39.4338 36.5312 39.5314 36.6713 39.629C36.788 39.7346 36.9047 39.8402 37.0729 39.9934C37.2057 40.0805 37.2869 40.1201 37.3682 40.1596C37.4483 40.2217 37.5284 40.2837 37.6628 40.3965C38.1784 40.768 38.6397 41.0887 39.101 41.4094C39.3259 41.6037 39.5509 41.7981 39.8332 42.0453C40.1289 42.2783 40.3673 42.4585 40.6057 42.6388C40.6532 42.6847 40.7008 42.7306 40.792 42.8262C40.9137 42.9313 40.9917 42.9867 41.0696 43.042C41.1162 43.0885 41.1627 43.135 41.2526 43.2347C41.417 43.3738 41.5381 43.4597 41.6592 43.5456C41.6592 43.5456 41.6829 43.5929 41.7175 43.6459C41.8759 43.782 41.9997 43.8651 42.1234 43.9482C42.1234 43.9482 42.1502 43.9949 42.1828 44.0477C42.2935 44.1595 42.3717 44.2186 42.4499 44.2776C42.4499 44.2776 42.4568 44.2646 42.4655 44.3074C42.548 44.4071 42.6217 44.4639 42.6954 44.5207C42.7392 44.5718 42.783 44.6229 42.8709 44.7278C43.114 44.9589 43.3129 45.1362 43.5118 45.3134C43.7905 45.6272 44.0691 45.941 44.3926 46.3202C44.5911 46.5315 44.7448 46.6773 44.8985 46.8232C44.8985 46.8232 44.895 46.8284 44.9054 46.8698C45.0593 47.0716 45.2028 47.232 45.3463 47.3924C45.422 47.4961 45.4978 47.5998 45.6017 47.7717C45.6924 47.9113 45.7549 47.9827 45.8174 48.0541C45.9179 48.2101 46.0185 48.3661 46.1485 48.6019C46.3995 49.1124 46.6212 49.5431 46.8428 49.9737C46.8466 50.0249 46.8504 50.076 46.8721 50.2126C47.0476 50.7588 47.2055 51.2196 47.3633 51.6804C47.3662 51.7386 47.3692 51.7969 47.3722 51.9434C47.4242 52.2055 47.4762 52.3794 47.5283 52.5532C47.538 52.6813 47.5477 52.8095 47.5614 53.0439C47.6153 53.6045 47.6652 54.0589 47.7151 54.5132C47.7112 54.6611 47.7072 54.809 47.6863 55.0594C47.5979 56.824 47.1981 58.395 46.6909 59.9363C46.6278 60.0638 46.5646 60.1914 46.4609 60.3851C46.2699 60.7725 46.1194 61.0937 45.969 61.4149C45.9249 61.4706 45.8809 61.5263 45.7917 61.6319C45.7028 61.7721 45.6591 61.8624 45.6154 61.9528C45.5723 62.0083 45.5292 62.0639 45.4408 62.1678C45.3522 62.3081 45.3088 62.4 45.2655 62.492C45.2009 62.7141 45.0825 62.9356 45.0805 63.1585C45.067 64.6491 45.0784 66.14 45.1055 67.739C45.3614 67.9463 45.5935 68.0453 45.8256 68.1444C45.8256 68.1444 45.8655 68.171 45.9129 68.2064C46.1431 68.3518 46.3258 68.4618 46.5085 68.5717C46.5085 68.5717 46.5157 68.5568 46.5232 68.601C46.6068 68.6965 46.683 68.7477 46.7592 68.799C47.1021 69.2751 47.445 69.7512 47.8158 70.3056C47.9145 70.5374 47.9853 70.6908 48.0562 70.8441C48.0648 70.9018 48.0735 70.9594 48.085 71.1048C48.1492 71.4375 48.2105 71.6826 48.2718 71.9277C48.2713 72.0274 48.2709 72.127 48.2673 72.3263C48.2743 72.6675 48.2845 72.9092 48.2947 73.1508C48.2879 73.2277 48.2812 73.3046 48.2611 73.4617C48.1453 73.9979 48.0429 74.4538 47.9405 74.9097C47.9405 74.9097 47.9125 74.9613 47.8765 75.0144C47.7043 75.3228 47.5682 75.5779 47.432 75.8331Z" fill="#FF5630"/>
  <path d="M83.0867 38.9566C80.469 38.9699 77.8745 38.9643 75.2272 38.9742C72.3866 38.9793 69.599 38.9687 66.7585 38.974C65.4851 38.9699 64.2647 38.9499 62.9632 38.9019C62.6074 38.7899 62.3327 38.7059 62.0579 38.6219C62.0233 38.5991 61.9887 38.5764 61.9041 38.5102C61.6146 38.2865 61.375 38.1064 61.1354 37.9262C61.1178 37.8869 61.0944 37.8532 61.04 37.7644C60.9469 37.6326 60.8789 37.5614 60.811 37.4901C60.811 37.4901 60.7902 37.5117 60.7953 37.4576C60.6936 37.24 60.5867 37.0765 60.4798 36.9131C60.4706 36.867 60.4614 36.8209 60.4337 36.7054C60.3759 36.5717 60.3366 36.5075 60.2974 36.4432C60.2949 36.3849 60.2925 36.3266 60.2872 36.1818C60.239 35.9577 60.1936 35.82 60.1565 35.6491C60.1495 35.575 60.1343 35.5342 60.1191 35.4934C60.1236 35.4322 60.128 35.371 60.1332 35.2221C60.1361 35.0091 60.1382 34.8838 60.1698 34.7234C60.4848 33.9761 60.7703 33.2639 61.0879 32.5341C61.2427 32.3873 61.3654 32.2582 61.5269 32.1226C61.713 31.9982 61.8603 31.8804 62.0076 31.7625C62.0076 31.7625 62.0437 31.7601 62.0962 31.7514C62.2362 31.6859 62.3239 31.6291 62.4115 31.5723C62.4616 31.566 62.5118 31.5597 62.6523 31.5484C63.2246 31.5214 63.7065 31.4801 64.1884 31.4805C70.5979 31.4852 77.0073 31.4958 83.4168 31.505C83.4685 31.5194 83.5201 31.5339 83.6337 31.5758C83.7565 31.6234 83.8173 31.6435 83.8782 31.6637C85.1126 32.2892 85.8709 33.349 85.9579 34.9358C86.048 36.5788 85.4018 37.7769 84.1059 38.5908C83.9881 38.6636 83.935 38.7077 83.8819 38.7517C83.829 38.7547 83.7761 38.7577 83.6479 38.7698C83.4554 38.8338 83.3381 38.8887 83.2209 38.9436L83.1659 38.9272C83.1659 38.9272 83.1098 38.9375 83.0867 38.9566Z" fill="#FF5630"/>
</svg>