<svg width="301" height="128" viewBox="0 0 301 128" fill="none" xmlns="http://www.w3.org/2000/svg">
<path fill-rule="evenodd" clip-rule="evenodd" d="M46.8369 74.67C62.4456 54.0316 70.2484 43.7124 70.2484 43.7124C79.7183 43.7124 84.454 43.7124 84.454 43.7124V84.5415C83.1759 92.4285 78.4032 96.5706 70.1388 96.9632L70.1435 97H70.1388C70.2114 73.7392 70.2484 62.1088 70.2484 62.1088C63.8318 70.4835 60.6242 74.67 60.6242 74.67C65.8507 74.67 68.464 74.67 68.464 74.67C68.464 83.1705 68.464 87.4215 68.464 87.4215C54.047 87.4199 46.8369 87.4199 46.8369 87.4199C46.8369 78.9195 46.8369 74.67 46.8369 74.67Z" fill="#03C988"/>
<path d="M0 70.2841V58.6782C0 53.4365 1.23179 49.6426 3.69534 47.2978C5.01048 46.0449 6.73311 45.1201 8.8648 44.5221C8.73977 44.5834 8.624 44.6846 8.53601 44.8318C8.49588 44.9039 8.46963 44.9668 8.45111 45.048L8.39091 45.3287L8.33534 45.6078L8.28287 45.8884L8.23655 46.1675L8.19334 46.4466L8.1563 46.7258L8.12233 47.0048L8.09455 47.284L8.06985 47.5631L8.04978 47.8406L8.02972 48.2148C8.01891 48.5093 8.16092 48.7669 8.41561 48.9172C8.92345 49.1963 9.53934 48.8635 9.57175 48.2884L9.59027 47.9373L9.6088 47.6827L9.63041 47.4296L9.65666 47.1751L9.68752 46.919L9.72147 46.6629L9.76007 46.4083L9.80329 46.1522L9.85115 45.8961L9.90208 45.6385L9.95765 45.3824C10.0873 44.8165 9.59799 44.4116 9.1272 44.4515C11.015 43.9531 13.2146 43.7031 15.7229 43.7031H40.269C42.342 43.7031 44.023 45.3732 44.023 47.4342V50.4553C44.023 52.5149 42.342 54.1849 40.269 54.1849H18.8672C15.7229 54.1849 14.1516 55.6832 14.1516 58.6782V60.5598C13.7116 59.948 13.2964 59.3192 12.9044 58.6767C12.4644 57.9405 11.3021 58.3792 11.4904 59.241C11.509 59.3207 11.5383 59.3928 11.58 59.4634C12.1279 60.362 12.716 61.2285 13.3504 62.0688C13.565 62.3541 13.8768 62.4246 14.1516 62.3541V70.2841V81.8884C14.1516 84.8834 15.7229 86.3817 18.8672 86.3817H40.269C42.342 86.3817 44.023 88.0517 44.023 90.1112V93.1323C44.023 95.1934 42.342 96.8634 40.269 96.8634H15.7229C10.2201 96.8634 6.21138 95.6657 3.69534 93.2703C1.23179 90.924 0 87.13 0 81.8884V70.2841ZM9.48994 55.2078C9.58718 55.47 9.81564 55.6556 10.0935 55.7001C10.6739 55.789 11.1416 55.2231 10.9378 54.6756C10.7418 54.1588 10.5735 53.6436 10.4161 53.1145C10.2988 52.6958 10.1876 52.2756 10.0966 51.8508C10.024 51.4935 9.70913 51.2359 9.3433 51.2359C8.85399 51.2359 8.48661 51.6791 8.58386 52.1545L8.65642 52.4765L8.78762 53.0087L8.93271 53.5377C9.09941 54.1036 9.28001 54.6557 9.48994 55.2078Z" fill="#13005A"/>
<path d="M85.9976 43.7123H100.785C106.473 43.7123 110.59 44.9514 113.137 47.4266C115.736 49.8526 117.037 53.7739 117.037 59.1904V66.9302C117.037 72.3467 115.736 76.294 113.137 78.7707C110.59 81.1952 106.473 82.4083 100.785 82.4083H89.8797C87.7356 82.4083 85.9976 84.135 85.9976 86.2636V94.0309V94.0724V94.0463V94.0309V58.4037V57.6461V56.203V54.7324V53.2356V51.7143V50.1655V48.5921V46.991V45.3655V44.9882V43.7123ZM84.9541 43.7123C85.2289 43.7001 85.5746 43.7001 85.9976 43.7123H84.9541ZM102.41 59.1904C102.41 56.0957 100.785 54.5468 97.5358 54.5468H89.8797C87.7356 54.5468 85.9976 56.2736 85.9976 58.4037V67.7169C85.9976 69.847 87.7356 71.5737 89.8797 71.5737H97.5358C100.785 71.5737 102.41 70.0249 102.41 66.9302V59.1904Z" fill="#13005A"/>
<path d="M104.707 56.8444C104.703 57.1158 104.832 57.3612 105.062 57.5099C105.575 57.8289 106.228 57.4823 106.249 56.8827C106.276 55.8629 106.337 54.7986 106.316 53.7804C106.3 52.92 105.058 52.736 104.802 53.5841C104.78 53.6607 104.771 53.7343 104.772 53.8126C104.794 54.8048 104.732 55.8506 104.707 56.8444Z" fill="#F86F03"/>
<path d="M104.517 64.4673C104.454 65.3153 105.621 65.6282 105.992 64.8399C106.029 64.754 106.047 64.6835 106.055 64.59C106.137 63.61 106.11 62.4844 106.135 61.4815C106.141 61.21 106.01 60.9647 105.78 60.8159C105.268 60.4969 104.615 60.8435 104.593 61.4431C104.568 62.4169 104.593 63.5149 104.517 64.4673Z" fill="#F86F03"/>
<path d="M102.443 71.5033C102.316 71.7594 102.339 72.0508 102.503 72.2854C102.844 72.7608 103.559 72.7056 103.826 72.1857C104.298 71.2365 104.717 70.2672 105.059 69.2643C105.126 69.0588 105.11 68.8549 105.011 68.6616C104.69 68.0651 103.818 68.1341 103.596 68.772C103.272 69.7152 102.887 70.6108 102.443 71.5033Z" fill="#F86F03"/>
<path d="M98.0406 77.4961C97.7859 77.7691 97.7628 78.177 97.9866 78.4776C98.2799 78.861 98.834 78.8916 99.1674 78.542C99.8945 77.7737 100.558 76.9885 101.222 76.1665C101.373 75.9702 101.421 75.7418 101.362 75.5025C101.199 74.8876 100.405 74.7204 100.009 75.2188C99.3866 76.0055 98.7291 76.7662 98.0406 77.4961Z" fill="#F86F03"/>
<path d="M92.2908 82.1518C91.4773 82.575 91.9512 83.808 92.8511 83.5718C92.9036 83.5565 92.9483 83.5397 92.9962 83.5151C93.9347 83.0351 94.8531 82.4984 95.7299 81.9171C96.4569 81.4218 95.9383 80.3023 95.0769 80.5446C95.0013 80.5692 94.9426 80.5968 94.8763 80.6397C94.0381 81.1903 93.183 81.6948 92.2908 82.1518Z" fill="#F86F03"/>
<path d="M85.3817 84.5384C84.4679 84.6733 84.5065 85.9952 85.4419 86.0643C85.4929 86.0673 85.5392 86.0658 85.5886 86.0581C86.6135 85.9247 87.6585 85.7637 88.6742 85.5735C89.0447 85.506 89.3133 85.1809 89.3071 84.8068C89.2978 84.3329 88.8641 83.9786 88.3948 84.066C87.4038 84.2516 86.382 84.408 85.3817 84.5384Z" fill="#F86F03"/>
<path d="M77.5124 85.5964C76.6048 85.6608 76.5292 86.9613 77.4445 87.1193C77.5017 87.1269 77.5526 87.13 77.6097 87.1254C78.647 87.0625 79.6796 86.9828 80.7123 86.8862C81.6137 86.788 81.6554 85.506 80.7416 85.3618C80.6814 85.3542 80.6274 85.3526 80.5657 85.3588C79.55 85.4554 78.5312 85.532 77.5124 85.5964Z" fill="#F86F03"/>
<path d="M70.1033 85.5491C69.2034 85.5123 68.9734 86.7683 69.8332 87.0474C69.898 87.0673 69.9566 87.0765 70.0246 87.0811C71.0603 87.1317 72.093 87.1732 73.1303 87.1992C73.4992 87.2069 73.8249 86.9538 73.902 86.595C74.0055 86.1257 73.652 85.6764 73.1673 85.6657C72.1439 85.6396 71.1251 85.5997 70.1033 85.5491Z" fill="#F86F03"/>
<path d="M62.6432 84.8636C61.7772 84.7654 61.4315 85.9677 62.2542 86.3296C62.3237 86.3603 62.3931 86.3772 62.4688 86.3864C63.5014 86.5045 64.5279 86.595 65.5605 86.7008C66.4605 86.7698 66.7321 85.5199 65.8847 85.2132C65.8214 85.1917 65.7628 85.1795 65.6949 85.1718C64.6776 85.0814 63.6604 84.9786 62.6432 84.8636Z" fill="#F86F03"/>
<path d="M54.8682 83.6798C53.9513 83.5387 53.6025 84.8192 54.4715 85.155C54.5194 85.1719 54.5626 85.1842 54.6135 85.1918C55.6369 85.3621 56.6588 85.517 57.6868 85.6596C58.5497 85.7777 58.9263 84.5876 58.1128 84.2027C58.0434 84.172 57.9739 84.1506 57.8983 84.1414C56.8857 84.0003 55.8777 83.8469 54.8682 83.6798Z" fill="#F86F03"/>
<path d="M18.6943 67.7964C19.3688 68.3852 20.3444 67.5525 19.8489 66.798C19.8119 66.7428 19.7717 66.6968 19.7223 66.6523C18.9691 65.9944 18.2343 65.2859 17.5351 64.5713C17.2896 64.3198 16.9084 64.2615 16.5997 64.4348C16.1597 64.6833 16.0764 65.2706 16.4237 65.634C17.1507 66.3778 17.9117 67.1124 18.6943 67.7964Z" fill="#F86F03"/>
<path d="M24.9551 72.4756C25.1913 72.6228 25.4707 72.6335 25.7192 72.5124C26.2533 72.2363 26.2873 71.5079 25.784 71.1812C24.9304 70.6445 24.0892 70.0802 23.2726 69.4882C22.9824 69.2797 22.595 69.2919 22.3203 69.5189C21.9344 69.844 21.956 70.4252 22.3588 70.7242C23.1939 71.3377 24.0768 71.9235 24.9551 72.4756Z" fill="#F86F03"/>
<path d="M31.9027 76.0858C32.7193 76.4186 33.3784 75.3482 32.6838 74.7792C32.6251 74.7332 32.568 74.6995 32.5001 74.6703C31.5848 74.2946 30.6262 73.8683 29.7479 73.4144C29.4963 73.2871 29.1922 73.3055 28.9591 73.465C28.4791 73.7947 28.5254 74.5155 29.0456 74.7792C29.9748 75.2485 30.9396 75.6902 31.9027 76.0858Z" fill="#F86F03"/>
<path d="M39.4879 78.2539C39.8368 78.2984 40.1563 78.1251 40.3029 77.8077C40.5098 77.3384 40.2165 76.8109 39.7071 76.7357C38.7285 76.6008 37.7344 76.3922 36.7805 76.1346C35.9346 75.9137 35.4267 77.0286 36.1522 77.5148C36.2248 77.5608 36.2896 77.5915 36.3714 77.6145C37.384 77.889 38.4491 78.1113 39.4879 78.2539Z" fill="#F86F03"/>
<path d="M47.4976 76.9167C48.186 76.3922 47.621 75.308 46.7813 75.581C46.7011 75.6101 46.6362 75.6423 46.5668 75.6929C45.795 76.2511 45 76.541 44.0677 76.7235C43.6972 76.7909 43.4302 77.1176 43.4364 77.4902C43.4456 77.9641 43.8809 78.3168 44.3502 78.2309C44.5709 78.188 44.7855 78.1389 45.0047 78.0837L45.3489 77.9856L45.5171 77.9303L45.6854 77.8736L46.0111 77.7494L46.1716 77.6819L46.3291 77.6114L46.485 77.5362L46.6378 77.4596L46.7875 77.3783L46.9341 77.2939L47.0792 77.205L47.2212 77.113L47.3586 77.0179L47.4976 76.9167Z" fill="#F86F03"/>
<path d="M43.6772 63.4029C42.7927 63.1315 42.2509 64.3445 43.0783 64.8092C43.12 64.8306 43.1601 64.8475 43.2049 64.8628C44.0646 65.1312 44.9723 65.5836 45.67 66.1525C45.8012 66.2568 45.9463 66.3136 46.1145 66.3243C46.8631 66.3534 47.2166 65.4379 46.6424 64.9625C45.761 64.2632 44.7531 63.7388 43.6772 63.4029Z" fill="#F86F03"/>
<path d="M35.6027 64.0685C35.348 64.1851 35.1767 64.4289 35.1551 64.7065C35.1088 65.2877 35.7123 65.7064 36.2464 65.4625C37.1355 65.0592 38.0246 64.774 38.9894 64.6083C39.8461 64.4673 39.8553 63.2144 38.9492 63.0901C38.8751 63.0825 38.8088 63.084 38.7362 63.0963C37.6356 63.2834 36.6169 63.6085 35.6027 64.0685Z" fill="#F86F03"/>
<path d="M31.6156 70.0176C31.6465 70.197 31.7283 70.3504 31.8657 70.4715C32.4152 70.9454 33.2472 70.4914 33.1407 69.7814C33.0049 68.938 33.451 68.3414 34.0699 67.8123C34.7414 67.2265 34.0622 66.1607 33.2287 66.541C33.1669 66.5717 33.1206 66.6024 33.0666 66.6469C32.0309 67.5317 31.3903 68.6267 31.6156 70.0176Z" fill="#F86F03"/>
<path d="M38.358 80.5129C38.5509 80.5681 38.73 80.5543 38.9121 80.4731C39.5481 80.1663 39.4833 79.2585 38.8087 79.0453C38.0354 78.8245 36.9672 78.4227 36.3683 77.8737C35.7354 77.2833 34.7475 78.024 35.1597 78.7969C35.2029 78.872 35.2446 78.9273 35.3079 78.9871C36.1043 79.7216 37.3238 80.217 38.358 80.5129Z" fill="#F86F03"/>
<path d="M48.3203 72.0679L48.3065 72.2565C48.2231 73.1598 49.5089 73.4465 49.8115 72.5647C49.8269 72.5126 49.8361 72.4666 49.8423 72.4114C49.9411 71.3471 49.7759 70.1034 49.4611 69.0805C49.2203 68.3 48.0718 68.3797 47.9561 69.214C47.9453 69.3229 47.9514 69.421 47.9838 69.5268C48.2416 70.3626 48.342 71.1938 48.3203 72.0679Z" fill="#F86F03"/>
<path d="M44.9846 82.5771C45.2593 82.6614 45.5449 82.597 45.7548 82.4007C46.1747 81.9943 46.0126 81.2981 45.4554 81.1171C44.4783 80.812 43.4935 80.5037 42.521 80.1832C41.7014 79.9164 41.1148 80.9991 41.8233 81.5312C41.8928 81.5788 41.9576 81.614 42.0394 81.6401C43.0181 81.9575 44.0013 82.2704 44.9846 82.5771Z" fill="#F86F03"/>
<path d="M48.7201 82.1264C47.8186 81.9086 47.3617 83.1554 48.1999 83.5633C48.2462 83.5833 48.2879 83.5986 48.3373 83.6124C49.3421 83.867 50.347 84.1077 51.3596 84.3378C52.2085 84.5279 52.6855 83.3747 51.9076 82.9208C51.8412 82.8855 51.7748 82.8579 51.7007 82.8426C50.7036 82.6156 49.711 82.3779 48.7201 82.1264Z" fill="#F86F03"/>
<path d="M104.165 50.3786C104.212 50.647 104.388 50.8617 104.641 50.9644C105.206 51.1807 105.78 50.7175 105.687 50.124C105.516 49.118 105.374 48.063 105.156 47.0677C104.976 46.2243 103.721 46.2795 103.633 47.1612C103.627 47.2395 103.63 47.3131 103.647 47.3913C103.858 48.3589 103.999 49.3987 104.165 50.3786Z" fill="#F86F03"/>
<path d="M217.852 92.355L217.85 92.3274V59.4268L217.852 59.5111V75.2452V91.829V92.355Z" fill="#13005A"/>
<path d="M301 93.0802C301 95.1689 299.307 96.8634 297.217 96.8634H260.819C260.726 96.8634 260.635 96.8588 260.544 96.8527C263.312 96.6579 264.968 93.5909 263.52 91.151L259.62 84.569C258.321 82.3776 259.623 79.6018 261.639 78.0438C262.545 77.3414 263.296 76.501 263.897 75.5226C265.376 73.1947 266.113 69.9283 266.113 65.7264V58.8913C266.113 53.5761 264.846 49.7284 262.312 47.3484C261.214 46.2733 259.816 45.436 258.118 44.8364C258.805 44.1371 259.762 43.7031 260.819 43.7031H297.217C299.307 43.7031 301 45.3977 301 47.4879V50.5519C301 52.6406 299.307 54.3352 297.217 54.3352H275.077C272.987 54.3352 271.294 56.0297 271.294 58.1184V60.8037C271.294 62.8939 272.987 64.5869 275.077 64.5869H290.879C292.969 64.5869 294.664 66.2815 294.664 68.3717V71.4357C294.664 73.526 292.969 75.219 290.879 75.219H275.077C272.987 75.219 271.294 76.9135 271.294 79.0038V82.4466C271.294 84.5368 272.987 86.2314 275.077 86.2314H297.217C299.307 86.2314 301 87.9259 301 90.0146V93.0802Z" fill="#13005A"/>
<path fill-rule="evenodd" clip-rule="evenodd" d="M289.314 30.4792C289.117 30.6356 288.957 32.1062 288.969 32.3623C288.534 32.416 287.242 32.1323 286.918 32.39C286.459 32.7549 286.49 33.5125 287.176 33.583C287.682 33.6352 288.241 33.58 288.708 33.7057C288.755 34.7179 287.906 36.0214 289.272 35.8328C289.607 35.7868 289.71 35.6043 289.769 35.3022C289.863 34.8038 289.854 34.2609 290.022 33.7931C290.465 33.7379 291.033 33.8422 291.505 33.8698C292.405 33.922 292.371 32.9788 292.223 32.7948C291.975 32.4896 290.621 32.4498 290.221 32.4988C290.201 32.0771 290.601 30.7889 290.363 30.4945C290.166 30.2491 289.601 30.2507 289.314 30.4792Z" fill="#13005A"/>
<path d="M13.2933 62.0501C13.8259 62.7892 14.9866 62.1866 14.6717 61.3247C14.647 61.2603 14.6177 61.2066 14.5776 61.1499C13.9849 60.3248 13.4199 59.4538 12.8935 58.5827C12.7083 58.2776 12.3425 58.1319 11.9967 58.2331C11.5028 58.3772 11.282 58.9431 11.5429 59.3832C12.0909 60.2865 12.6759 61.1898 13.2933 62.0501Z" fill="#F86F03"/>
<path d="M9.50992 55.2616C9.83407 56.1342 11.143 55.852 11.0674 54.9165C11.0612 54.8475 11.0473 54.7847 11.0242 54.7203C10.663 53.7449 10.3435 52.7343 10.061 51.7344C9.9622 51.3832 9.64114 51.141 9.27222 51.1471C8.74432 51.1563 8.37385 51.6547 8.51123 52.1592C8.80451 53.199 9.13637 54.2479 9.50992 55.2616Z" fill="#F86F03"/>
<path d="M7.98499 48.1519C7.89546 49.0766 9.19825 49.3879 9.53784 48.5123C9.56254 48.4463 9.57644 48.385 9.58416 48.316C9.68449 47.2823 9.83884 46.2334 10.021 45.2121C10.0843 44.8517 9.90059 44.4959 9.56564 44.3425C9.08712 44.1232 8.53451 44.4131 8.43881 44.9268C8.24895 45.9896 8.08995 47.0768 7.98499 48.1519Z" fill="#F86F03"/>
<path d="M229.685 43.7124H244.844C251.361 43.7124 256.085 44.9285 259.002 47.3576C261.983 49.7362 263.471 53.5838 263.471 58.8991V65.731C263.471 69.9345 262.603 73.1994 260.865 75.5288C260.158 76.5057 259.274 77.3461 258.21 78.0469C255.838 79.605 254.308 82.3807 255.835 84.5706L260.422 91.1511C262.179 93.6737 260.044 96.8635 256.594 96.8635H248.824C247.226 96.8635 245.752 96.1351 244.96 94.9558L236.81 82.8239C236.015 81.6446 236.342 80.9177 234.746 80.9177H234.083V70.2872H241.115C244.844 70.2872 246.708 68.7705 246.708 65.731V58.8991C246.708 55.8627 244.844 54.3429 241.115 54.3429H234.083V47.4527C234.083 45.387 232.113 43.7124 229.685 43.7124Z" fill="#13005A"/>
<path d="M216.477 96.9448C216.321 96.9524 216.162 96.9586 216.004 96.9647C216.163 96.9586 216.321 96.9524 216.477 96.9448ZM215.964 96.9663C215.368 96.9893 214.755 97 214.124 97H199.121C192.676 97 187.979 95.8253 185.032 93.4728C182.147 91.0713 180.706 87.2436 180.706 81.9912V47.4527C180.706 45.387 182.675 43.7124 185.103 43.7124H192.88C195.311 43.7124 197.277 45.387 197.277 47.4527V81.9912C197.277 84.9924 199.121 86.4952 202.804 86.4952H210.44C214.124 86.4952 215.964 84.9924 215.964 81.9912V96.9663Z" fill="#13005A"/>
<path d="M217.508 47.4527C217.508 45.387 219.479 43.7124 221.907 43.7124H229.685C232.113 43.7124 234.083 45.387 234.083 47.4527V81.9912C234.083 87.2436 232.61 91.0713 229.663 93.4728C227.059 95.5953 223.009 96.7592 217.508 96.9663V81.9912V47.4527Z" fill="#03C988"/>
<path d="M158.134 43.7124H173.204C175.666 43.7124 177.663 45.4116 177.663 47.5064V50.5765C177.663 52.6729 175.666 54.3705 173.204 54.3705H162.513C160.4 54.3705 158.631 55.6204 158.171 57.2981H158.134V43.7124Z" fill="#13005A"/>
<path d="M138.036 57.2981C137.576 55.6204 135.807 54.3705 133.694 54.3705H123.003C120.54 54.3705 118.542 52.6729 118.542 50.5765V47.5064C118.542 45.4116 120.54 43.7124 123.003 43.7124H138.154H138.473C138.473 48.2149 138.469 52.8078 138.461 57.2981H138.036Z" fill="#13005A"/>
<path d="M139.975 47.4527C139.975 45.387 141.945 43.7124 144.374 43.7124H152.152C154.58 43.7124 156.549 45.387 156.549 47.4527V81.9912C156.549 87.2436 155.078 91.0713 152.131 93.4728C149.527 95.5953 145.475 96.7592 139.975 96.9663V81.9912V47.4527Z" fill="#03C988"/>
<path d="M284.116 36.3008C284.487 36.2241 284.746 35.8944 284.731 35.5202C284.714 35.0448 284.271 34.7044 283.803 34.7995C283.301 34.9022 282.8 35.0034 282.298 35.1016C281.424 35.2795 281.491 36.5508 282.403 36.6198C282.472 36.6228 282.528 36.6198 282.596 36.6075C283.104 36.5063 283.61 36.4051 284.116 36.3008ZM278.021 37.4402C278.87 37.3007 278.887 36.0631 277.996 35.9251C277.916 35.9159 277.845 35.9143 277.765 35.9281C277.26 36.0125 276.755 36.0968 276.249 36.175C275.333 36.3269 275.409 37.6641 276.354 37.6994C276.402 37.6994 276.442 37.6979 276.49 37.6902C277 37.6089 277.51 37.5261 278.021 37.4402ZM271.885 38.3512C272.742 38.2407 272.802 37.0062 271.919 36.8345C271.84 36.8222 271.768 36.8191 271.687 36.8299C271.18 36.8943 270.672 36.9571 270.164 37.0185C269.244 37.1366 269.27 38.457 270.189 38.5444C270.243 38.5474 270.292 38.5474 270.345 38.5413C270.859 38.48 271.371 38.4171 271.885 38.3512ZM265.717 39.0198C266.09 38.986 266.382 38.6962 266.418 38.3251C266.455 37.8405 266.067 37.4571 265.581 37.4923C265.07 37.5368 264.561 37.5767 264.051 37.6196C263.111 37.704 263.102 39.0581 264.051 39.1486C264.092 39.1517 264.129 39.1517 264.169 39.1486C264.686 39.1087 265.201 39.0658 265.717 39.0198ZM259.524 39.44C260.441 39.3909 260.527 38.0736 259.609 37.9156C259.555 37.9079 259.506 37.9064 259.452 37.908C258.941 37.931 258.43 37.9539 257.917 37.9724C257.033 38.0046 256.888 39.2789 257.781 39.4875C257.845 39.5013 257.909 39.5074 257.974 39.5059L259.524 39.44ZM253.32 39.604C253.509 39.601 253.674 39.5412 253.817 39.42C254.362 38.9508 254.03 38.0705 253.313 38.0705C252.8 38.0736 252.289 38.0736 251.777 38.072C250.88 38.072 250.702 39.3418 251.576 39.5795C251.643 39.5964 251.701 39.604 251.769 39.6056C252.286 39.6071 252.803 39.6071 253.32 39.604ZM247.115 39.5105C247.396 39.5212 247.657 39.3801 247.804 39.1424C248.108 38.6425 247.759 38 247.172 37.9785C246.663 37.9616 246.147 37.9432 245.638 37.9156C245.342 37.9049 245.082 38.046 244.931 38.299C244.65 38.8035 244.984 39.4154 245.564 39.4476C246.079 39.4706 246.598 39.4936 247.115 39.5105ZM240.919 39.1593C241.098 39.1716 241.276 39.1256 241.422 39.0228C242.012 38.6042 241.764 37.6948 241.04 37.6304C240.53 37.5905 240.019 37.5491 239.51 37.5031C238.704 37.431 238.326 38.503 239.07 38.94C239.169 38.9906 239.26 39.0198 239.371 39.0305C239.887 39.0765 240.402 39.1179 240.919 39.1593ZM234.742 38.552C235.075 38.5888 235.384 38.4217 235.531 38.1227C235.758 37.6427 235.455 37.0967 234.929 37.0292C234.419 36.9679 233.911 36.9065 233.404 36.8406C232.544 36.7286 232.175 37.9141 232.981 38.2975C233.053 38.3297 233.124 38.3511 233.203 38.3603C233.715 38.4278 234.229 38.4907 234.742 38.552ZM228.598 37.6963C229.486 37.8267 229.852 36.6182 229.038 36.241C228.973 36.2119 228.913 36.1935 228.844 36.1827C228.338 36.1014 227.833 36.0186 227.328 35.9327C226.437 35.7855 226.053 37.0277 226.899 37.3957C226.956 37.4187 227.007 37.4326 227.067 37.4448C227.577 37.5307 228.087 37.615 228.598 37.6963ZM222.48 36.5707C223.322 36.7593 223.799 35.623 223.046 35.1644C222.974 35.1215 222.903 35.0924 222.821 35.0755C222.324 34.9651 221.828 34.847 221.334 34.7258C220.501 34.5219 220.002 35.626 220.723 36.1106C220.802 36.1597 220.871 36.1904 220.961 36.2134C221.465 36.3376 221.972 36.4572 222.48 36.5707ZM216.461 35.0034C216.816 35.1031 217.174 34.9543 217.356 34.6354C217.59 34.1983 217.372 33.6769 216.895 33.5312C216.403 33.3886 215.912 33.2444 215.421 33.0988C214.526 32.8411 214.016 34.0756 214.848 34.5158C214.89 34.5372 214.93 34.5526 214.975 34.5664C215.47 34.7136 215.966 34.8593 216.461 35.0034ZM210.54 33.1923C210.802 33.2721 211.083 33.2199 211.289 33.0359C211.735 32.6402 211.583 31.9164 211.015 31.7324L209.549 31.26C208.716 30.9901 208.135 32.1111 208.878 32.6249C208.938 32.6648 209 32.6954 209.069 32.7184C209.558 32.8779 210.049 33.0344 210.54 33.1923ZM204.668 31.2692C205.486 31.5345 206.078 30.4718 205.374 29.9258C205.303 29.8752 205.239 29.843 205.159 29.8154L203.697 29.3262C202.821 29.0425 202.266 30.2418 203.061 30.7156C203.108 30.7417 203.152 30.7616 203.203 30.78L204.668 31.2692ZM198.815 29.3048C199.04 29.3784 199.267 29.3523 199.469 29.2296C200.024 28.8846 199.928 28.0641 199.312 27.8525L197.849 27.3602C196.983 27.0781 196.422 28.2497 197.196 28.7389C197.248 28.7696 197.296 28.7926 197.355 28.8125L198.815 29.3048ZM192.968 27.3434C193.84 27.6271 194.4 26.4294 193.601 25.9524C193.553 25.9264 193.51 25.9064 193.459 25.8896L191.992 25.4019C191.819 25.3467 191.642 25.3497 191.472 25.4142C190.798 25.6795 190.819 26.6211 191.506 26.8572L192.968 27.3434ZM187.113 25.4203C187.942 25.6902 188.527 24.5707 187.781 24.0539C187.72 24.014 187.658 23.9834 187.589 23.9619L186.119 23.488C185.233 23.2181 184.693 24.4312 185.519 24.8958C185.562 24.9173 185.6 24.9342 185.645 24.948L187.113 25.4203ZM181.238 23.5647C182.076 23.8208 182.638 22.6921 181.888 22.1876C181.826 22.1493 181.765 22.1201 181.695 22.0986L180.216 21.6462C179.389 21.3932 178.826 22.5066 179.557 23.0142C179.622 23.0586 179.69 23.0908 179.766 23.1138L181.238 23.5647ZM175.34 21.8042C175.712 21.91 176.109 21.7275 176.262 21.3717C176.445 20.9469 176.214 20.4593 175.766 20.3305L174.28 19.9072C174.031 19.8382 173.766 19.8949 173.571 20.059C173.099 20.4562 173.266 21.2169 173.858 21.3825L175.34 21.8042ZM169.408 20.1725C170.307 20.3918 170.767 19.1604 169.944 18.7417C169.896 18.7187 169.848 18.7018 169.797 18.688L168.298 18.3016C167.971 18.2219 167.638 18.3522 167.456 18.6359C167.179 19.0837 167.406 19.6542 167.919 19.7891L169.408 20.1725ZM163.436 18.7034C164.314 18.9012 164.773 17.6851 163.949 17.2665C163.891 17.2404 163.844 17.2235 163.782 17.2082C163.277 17.0962 162.774 16.9797 162.269 16.8693C161.389 16.6914 160.956 17.8707 161.746 18.2985C161.811 18.3292 161.868 18.3507 161.939 18.3675C162.437 18.4764 162.936 18.5914 163.436 18.7034ZM157.427 17.4413C158.287 17.5992 158.717 16.4184 157.912 16.0013C157.847 15.9691 157.78 15.9476 157.709 15.9338C157.202 15.8387 156.694 15.7452 156.184 15.6547C155.274 15.5029 154.911 16.7757 155.766 17.1223C155.815 17.1422 155.863 17.1545 155.916 17.1637C156.421 17.2542 156.924 17.3477 157.427 17.4413ZM151.373 16.4414C152.27 16.5564 152.605 15.3096 151.762 14.9677C151.702 14.9447 151.646 14.9309 151.583 14.9217C151.07 14.8496 150.558 14.7821 150.044 14.7177C149.754 14.6855 149.487 14.8005 149.315 15.0382C148.985 15.5136 149.275 16.1638 149.851 16.239C150.359 16.3034 150.867 16.3709 151.373 16.4414ZM145.282 15.7728C145.541 15.7912 145.785 15.6854 145.947 15.4845C146.329 14.9953 146.021 14.299 145.402 14.2438L144.808 14.1994L143.846 14.1365C143.467 14.1166 143.126 14.3711 143.047 14.7422C142.95 15.2008 143.285 15.6424 143.757 15.6685L144.699 15.7283L145.282 15.7728ZM139.182 15.5335C140.103 15.5167 140.236 14.1886 139.302 14.0092C139.254 14.0031 139.214 14 139.166 14L138.634 14.0031L138.086 14.0107L137.609 14.0215C136.709 14.0537 136.575 15.3296 137.467 15.5381C137.532 15.5504 137.586 15.5565 137.651 15.555L138.114 15.5443L138.649 15.5366L139.182 15.5335ZM133.097 15.851C133.409 15.8157 133.667 15.5979 133.753 15.2974C133.901 14.7729 133.469 14.2668 132.924 14.3266L132.208 14.4079L131.689 14.4739L131.368 14.5183C131.086 14.5597 130.854 14.7453 130.754 15.0106C130.558 15.5642 131.004 16.1117 131.589 16.0366L131.893 15.9936L132.396 15.9307L133.097 15.851ZM127.125 16.8923C127.312 16.8432 127.461 16.7389 127.573 16.5794C127.968 15.9921 127.435 15.2376 126.744 15.4063L126.179 15.5504L125.697 15.6823L125.226 15.8188C124.342 16.0887 124.59 17.3861 125.51 17.3171C125.566 17.3125 125.612 17.3032 125.665 17.2879L126.115 17.1591L126.578 17.0334L127.125 16.8923ZM121.431 18.8491C122.216 18.4902 121.897 17.291 121.006 17.3922C120.929 17.4029 120.855 17.4244 120.784 17.4566L120.626 17.5272L120.188 17.7326L119.753 17.9443L119.362 18.1436C118.581 18.5638 118.992 19.7293 119.865 19.576C119.943 19.5591 120.004 19.5392 120.075 19.5039L120.444 19.3168L120.856 19.1144L121.273 18.9196L121.431 18.8491ZM116.269 21.8778C116.565 21.6508 116.659 21.2506 116.49 20.9193C116.269 20.4915 115.719 20.3688 115.335 20.6556L114.867 21.0129L114.489 21.315L114.086 21.6478C113.878 21.8303 113.781 22.114 113.841 22.3854C113.967 22.9574 114.662 23.1859 115.105 22.801L115.465 22.502L115.821 22.2183L116.269 21.8778ZM111.939 25.977C112.518 25.2669 111.589 24.3238 110.857 24.8943C110.817 24.928 110.781 24.9618 110.747 25.0032L110.656 25.1105L110.338 25.5016L110.027 25.8988L109.769 26.2407C109.256 26.94 110.116 27.8203 110.839 27.3204C110.908 27.2698 110.959 27.2191 111.011 27.1517L111.254 26.8312L111.549 26.4539L111.848 26.0843L111.939 25.977ZM108.622 30.9487C109.037 30.139 107.946 29.3999 107.338 30.1099C107.304 30.1513 107.279 30.1927 107.253 30.2387L106.967 30.7938L106.723 31.2861L106.552 31.648C106.433 31.9041 106.466 32.1924 106.629 32.4209C106.976 32.8917 107.708 32.8197 107.954 32.289L108.114 31.9501L108.347 31.4793L108.622 30.9487ZM106.305 36.4848C106.574 35.6184 105.388 35.0893 104.913 35.8499C104.879 35.9051 104.856 35.9573 104.836 36.0171L104.627 36.6734L104.453 37.2593L104.38 37.5169C104.149 38.3864 105.348 38.8833 105.803 38.0843C105.831 38.0306 105.851 37.9816 105.868 37.9217L105.936 37.6856L106.104 37.1197L106.305 36.4848ZM104.843 42.3353C104.995 41.4351 103.732 41.0686 103.371 41.9074C103.349 41.9611 103.335 42.0102 103.324 42.0654L103.173 42.9226L103.065 43.5959C102.932 44.4807 104.175 44.8365 104.536 44.0161C104.562 43.9532 104.579 43.8964 104.59 43.8305L104.695 43.1741L104.843 42.3353Z" fill="#F86F03"/>
</svg>
