<svg width="100" height="100" viewBox="0 0 100 100" fill="none" xmlns="http://www.w3.org/2000/svg">
<path fill-rule="evenodd" clip-rule="evenodd" d="M47.8033 4.42162C46.168 4.3431 42.6102 7.10079 41.5272 8.0548C40.6782 8.8023 37.098 12.4204 36.8555 13.3153C37.4747 13.7487 38.9078 13.511 39.5142 16.0396C40.0728 18.3671 39.6951 20.8118 39.9728 22.3799C40.0664 22.9102 39.9536 22.651 39.6632 23.2629C39.1057 24.4364 39.4174 26.7681 40.0855 27.8308C40.726 28.8504 41.0005 28.4707 41.8059 28.8934C42.0421 29.2903 42.024 29.8915 42.223 30.4443C42.3826 30.8864 42.6762 31.3822 42.9167 31.7016C43.2667 32.1663 43.4933 32.3868 43.8657 32.7202C44.6264 33.4031 44.2072 33.1633 44.6328 33.9216C45.3339 35.1713 48.7427 35.7209 50.6354 35.7349C52.5537 35.75 55.9221 35.4434 56.7424 34.0108C57.1711 33.2633 56.7232 33.4376 57.4541 32.7589C57.7839 32.4534 58.1297 32.1577 58.4564 31.7941C59.7554 30.3475 59.2468 29.3258 59.6426 28.9246C60.4853 28.0717 60.5821 30.1399 61.9258 26.1454C62.6642 23.9481 62.2546 23.5221 60.7917 22.8478C61.3151 21.9938 61.8769 21.5614 62.3439 20.501C64.5739 15.4352 62.1099 8.50437 56.9498 7.50627C55.887 7.29977 56.3072 7.07283 54.755 5.7854C54.2123 5.33583 52.9005 4.42162 52.0962 4.42162C50.9525 4.56036 50.4833 3.99786 49.9492 4.00001C49.3832 4.00216 48.8683 4.55068 47.8033 4.42162Z" fill="#454F5B"/>
<path fill-rule="evenodd" clip-rule="evenodd" d="M26.9311 50.4033H74.2311C74.3811 49.2083 73.3427 45.0223 72.9278 43.9199C72.248 42.1151 70.8978 40.7212 69.0934 40.006C67.3358 39.309 64.8898 38.8165 62.9524 38.3905C62.0194 38.1862 60.9767 37.8624 60.0171 37.5441C59.4968 37.372 59.1255 37.2042 58.6435 36.959C58.2478 36.7568 57.7892 36.3879 57.4243 36.2373C57.1423 36.6815 56.7785 37.9883 56.5657 38.596L53.9516 45.9989L52.1057 40.761C52.5441 40.0017 53.2643 39.8113 53.3537 38.7551C53.509 36.9418 51.4546 37.2429 49.9491 37.2429C48.8831 37.2429 48.1043 37.5312 48.1394 38.6573C48.1724 39.7403 49.0703 40.1243 49.3916 40.7513L47.5713 46.057C47.1744 45.5397 44.1816 36.9482 43.7401 36.2384C43.1028 36.5352 42.8049 37.0181 41.276 37.5495C40.2291 37.913 39.3227 38.1528 38.1768 38.3981C36.1202 38.8369 33.7775 39.2531 31.9805 40.0286C30.2282 40.7836 29.0653 41.9538 28.2653 43.8166C27.8567 44.7696 26.7907 49.3449 26.9311 50.4033Z" fill="#454F5B"/>
<path fill-rule="evenodd" clip-rule="evenodd" d="M12.3947 47.3951C12.4256 47.622 12.3766 48.4878 12.3426 48.8944C12.3064 49.3493 12.2724 49.317 12.1351 49.6311C12.0085 49.9226 12.0053 49.6505 12 50.1689L23.284 50.2194C23.5606 49.6817 24.0521 45.0719 24.9565 42.6939C27.3748 36.3374 33.1977 36.4719 33.9647 35.52C34.6776 34.6359 37.2916 30.7952 37.1086 29.5228C37.0065 28.814 36.6256 28.6656 36.0458 28.3117C35.7532 25.8993 36.998 22.4092 34.4244 19.7085C32.9019 18.1102 30.3048 16.6453 27.9929 15.9764C24.7522 15.0396 25.8917 16.5916 24.9192 17.5434C24.4756 17.9779 23.1946 18.1253 21.8019 19.5074C19.4336 21.8596 20.1231 24.5527 20.0614 28.0794C19.5262 28.5763 18.2378 29.2023 19.0634 31.0662C19.5794 32.2289 21.7966 35.249 22.6403 36.5063C23.6883 38.068 23.9394 37.8787 22.552 39.3231C20.9923 40.9472 18.7059 41.4355 16.5259 42.4228C15.3524 42.9552 14.4672 43.5124 13.8331 44.2383C13.2991 44.8514 12.2905 46.3883 12.3947 47.3951Z" fill="#454F5B"/>
<path fill-rule="evenodd" clip-rule="evenodd" d="M77.8545 50.1692H87.9C87.8766 49.3518 87.2798 49.0485 87.5053 47.3954C87.6085 46.4059 86.6265 44.8969 86.1201 44.3021C84.0157 41.8338 79.7514 41.7445 77.4044 39.3815C77.1874 39.1632 76.4905 38.3791 76.4267 38.1425C76.2799 37.5875 76.8735 37.0809 77.1672 36.6454C77.8353 35.658 80.3558 32.1152 80.8005 31.1461C81.0473 30.6073 81.2197 29.92 80.959 29.279C80.6781 28.5885 80.294 28.5024 79.8387 28.0797C79.7717 24.2487 80.6494 20.7349 76.7299 18.4515C76.332 18.2203 75.2659 17.7868 75.0436 17.6008C73.9924 16.7199 75.2617 15.07 71.989 15.9519C69.6484 16.5822 67.0322 18.1267 65.5331 19.6497C64.715 20.48 64.1234 21.6609 63.8798 23.1151C63.6106 24.7219 64.049 26.7052 63.8543 28.3121C62.6957 29.0176 62.3733 29.5984 63.2766 31.3365C63.5638 31.8882 65.5512 35.316 66.1481 35.5494C67.4567 36.0603 68.8079 35.9183 71.6082 37.3488C77.5598 40.3904 76.915 47.6212 77.8545 50.1692Z" fill="#454F5B"/>
<path d="M13.0442 54.4082C13.0282 54.8847 13.0304 55.4052 13.0304 55.9312V55.9333V60.285C13.0304 60.9884 13.0304 61.6875 13.0676 62.2801C13.1091 62.9061 13.2038 63.6406 13.5091 64.4118H13.507C14.1134 65.9649 15.255 67.2405 16.7201 68.0052L16.7211 68.0041C17.4489 68.3816 18.1638 68.5526 18.7766 68.657C19.3554 68.7538 20.0395 68.8248 20.7353 68.8936V68.8904C22.1918 69.0388 23.0834 69.1324 23.7143 69.2453C23.7611 69.2539 23.8047 69.2625 23.8441 69.2711C23.8218 69.3055 23.7962 69.3432 23.7686 69.384C23.4036 69.9175 22.8387 70.6209 21.911 71.7642C21.4875 72.2729 21.08 72.7946 20.6917 73.3313C20.2608 73.9185 19.9246 74.5714 19.6959 75.264C19.1937 76.8526 19.2788 78.5713 19.9342 80.1007C20.2587 80.859 20.7045 81.4516 21.1141 81.9259C21.5013 82.3712 21.9897 82.8638 22.4833 83.3596L25.5283 86.4378L25.5262 86.4389C26.0209 86.939 26.5082 87.4316 26.9508 87.8253C27.4189 88.2372 28.0009 88.6889 28.7562 89.0202L28.7573 89.018C30.2702 89.6806 31.9693 89.7645 33.5386 89.2579C34.2248 89.0266 34.8696 88.6868 35.4505 88.2523C35.9271 87.907 36.4633 87.4628 37.0017 87.0186L37.0038 87.0218L37.0591 86.9767L37.107 86.9315C38.1794 86.0452 38.8444 85.4978 39.3561 85.1407C39.3966 85.1127 39.4338 85.0869 39.4678 85.0643C39.4753 85.1041 39.4838 85.1482 39.4923 85.1956C39.604 85.8334 39.6966 86.7357 39.8424 88.2071C39.9104 88.9094 39.9796 89.6021 40.0743 90.1882C40.1775 90.8077 40.3477 91.5316 40.7222 92.2683C41.4787 93.7504 42.7415 94.9055 44.2757 95.5175C45.0354 95.8208 45.7663 95.9209 46.3897 95.9617C46.9717 96.0004 47.6633 96.0004 48.3591 96.0004H52.6637C53.3617 96.0004 54.0532 96.0004 54.6394 95.9617C55.2597 95.9209 55.9885 95.8273 56.7524 95.5175C58.2844 94.9045 59.5452 93.7504 60.2995 92.2683C60.6751 91.5316 60.8464 90.8077 60.9474 90.1882C61.0496 89.6021 61.1113 88.9094 61.1826 88.2071C61.3294 86.7357 61.422 85.8334 61.5337 85.1956C61.5422 85.1461 61.5507 85.102 61.5592 85.0611C61.5932 85.0837 61.6305 85.1095 61.6698 85.1375C62.1986 85.5096 62.8902 86.0786 64.0211 87.0154L66.5054 83.949L66.3649 84.1254L64.0243 87.0186C64.5627 87.4628 65.0946 87.907 65.5755 88.2523C66.0809 88.6136 66.7065 89.0062 67.4863 89.2579C69.0577 89.7645 70.7579 89.6806 72.2719 89.0159C72.9326 88.7169 73.5411 88.3125 74.0773 87.821C74.5178 87.4316 75.0051 86.9358 75.4956 86.4367L78.5416 83.3596C79.0363 82.8595 79.5236 82.3712 79.9119 81.9238C80.3194 81.4495 80.762 80.8601 81.0897 80.1007H81.0907C81.7472 78.5702 81.8323 76.8494 81.3301 75.2608C81.1014 74.5681 80.7652 73.9174 80.3343 73.3313C79.9928 72.8462 79.5544 72.3084 79.115 71.7599C78.4692 70.9887 77.85 70.1961 77.2574 69.384C77.2298 69.3432 77.2042 69.3055 77.1819 69.2711C77.2213 69.2625 77.2638 69.2539 77.3117 69.2453C77.9458 69.1324 78.8352 69.0388 80.2907 68.8904H80.2928L80.2939 68.8936L80.4066 68.8839L80.4896 68.871C81.1152 68.8086 81.7259 68.7441 82.2504 68.657C82.8632 68.5526 83.5793 68.3816 84.3081 68.002C85.7741 67.2362 86.9168 65.9606 87.5211 64.4086C87.8222 63.6406 87.9212 62.9028 87.9605 62.2736C87.9999 61.6832 87.9999 60.9841 87.9999 60.2817V55.9269C87.9999 55.4042 87.9999 54.8836 87.9839 54.4082H81.1673C81.1876 54.7169 81.1876 55.1449 81.1876 55.9269H81.1833V60.2817C81.1833 61.0776 81.1833 61.5079 81.1631 61.8187L81.1599 61.8574L81.1258 61.8628C80.6247 61.9359 80.1204 61.9951 79.6161 62.0392H79.613L79.6119 62.0349C78.2724 62.1725 77.0627 62.2898 76.1063 62.4662C75.1828 62.635 73.972 62.9308 72.9219 63.7407C71.9655 64.4774 71.2186 65.4583 70.7568 66.5812C70.2972 67.7051 70.1387 68.9323 70.2983 70.138C70.476 71.4609 71.1228 72.5364 71.6612 73.3141C72.2176 74.1229 72.9879 75.0715 73.839 76.1255C74.3369 76.7418 74.6061 77.072 74.7838 77.328L74.804 77.357L74.7795 77.3861C74.5763 77.6205 74.2784 77.9238 73.7231 78.4885L70.677 81.5645C70.3228 81.9313 69.96 82.2873 69.5865 82.6336L69.5567 82.6594L69.528 82.6401C69.1248 82.3346 68.7279 82.0163 68.3407 81.6871L68.3417 81.6861L68.3151 81.6646C67.281 80.8084 66.3522 80.0383 65.5585 79.4812C64.7882 78.937 63.7243 78.2863 62.4157 78.1067C61.223 77.9443 60.0101 78.1045 58.8983 78.5702C57.7876 79.0359 56.8183 79.7899 56.0896 80.7568L56.0885 80.7557C55.2874 81.8173 54.9948 83.0391 54.8267 83.9727C54.6575 84.945 54.5415 86.1646 54.4043 87.5209C54.3596 88.0328 54.3 88.5394 54.2266 89.0471L54.2202 89.0901L54.1894 89.0933C53.683 89.1138 53.1776 89.1213 52.6701 89.1138L52.6637 96.0004L52.6669 89.1095H48.3591C47.5718 89.1095 47.1451 89.1095 46.8387 89.089L46.8111 89.0869L46.8057 89.0514C46.7323 88.5448 46.6738 88.0361 46.6313 87.5252L39.8424 88.2071L46.6238 87.5209C46.4887 86.1646 46.3727 84.945 46.1982 83.9727C46.0312 83.0434 45.7386 81.8194 44.9375 80.759C44.2087 79.791 43.2395 79.0359 42.1277 78.5702C41.0159 78.1045 39.8009 77.9443 38.6103 78.1067C37.3017 78.2863 36.2378 78.9391 35.4675 79.4834C34.6664 80.0426 33.7301 80.8213 32.6864 81.6861L32.6896 81.6893L32.6353 81.7334L32.596 81.7689C32.2374 82.07 31.8746 82.3615 31.5001 82.6433L31.4714 82.6648L31.4395 82.6358C31.066 82.2905 30.7011 81.9356 30.3489 81.5688L27.3029 78.4885C26.9391 78.1325 26.588 77.7636 26.2454 77.3861L26.2209 77.3581L26.2422 77.328C26.4188 77.0763 26.6859 76.7418 27.187 76.1255C28.0381 75.0715 28.8126 74.1229 29.3669 73.3141C29.9021 72.5364 30.55 71.4609 30.7277 70.138C30.8873 68.9323 30.7288 67.7051 30.267 66.5812C29.8063 65.4583 29.0595 64.4774 28.103 63.7407C27.0529 62.9308 25.8475 62.635 24.9197 62.4662C23.9633 62.2941 22.7557 62.1725 21.4098 62.0349C20.9055 61.9918 20.4055 61.9359 19.9044 61.8628L19.8725 61.8574L19.8693 61.8187C19.848 61.3067 19.8384 60.7969 19.8459 60.285V55.9333V55.9312C19.8459 55.146 19.8459 54.7158 19.8682 54.4082H13.0442ZM79.6161 62.0392L79.9545 65.4701L79.9534 65.4669L79.6161 62.0392ZM79.9534 65.4669L79.9875 65.8122L80.2907 68.8904L79.9502 65.4443L79.9534 65.4669ZM87.5211 64.4086L81.1876 61.88L81.1886 61.8789L87.5211 64.4086ZM60.2995 92.2683L54.2479 89.1138L54.25 89.1127L60.2995 92.2683ZM33.5386 89.2579L31.465 82.7003L31.4693 82.6982L33.5386 89.2579ZM19.8395 61.8821L17.7999 62.6974L19.8416 61.8789L19.8395 61.8821Z" fill="#454F5B"/>
<path fill-rule="evenodd" clip-rule="evenodd" d="M62.4164 54.4082C62.8154 55.6741 63.0313 57.0239 63.0313 58.4243C63.0313 65.7283 57.1734 71.6491 49.9482 71.6491C42.7231 71.6491 36.8662 65.7283 36.8662 58.4243C36.8662 57.0239 37.0822 55.6741 37.4812 54.4082H62.4164Z" fill="#454F5B"/>
</svg>
