<svg width="100" height="100" viewBox="0 0 100 100" fill="none" xmlns="http://www.w3.org/2000/svg">
<path fill-rule="evenodd" clip-rule="evenodd" d="M48.2445 21.1859L48.2269 25.8425L33.3523 25.9008L33.3534 20.6952C34.831 18.0705 41.8549 14.3302 46.1844 13.1905C52.7447 11.4634 57.465 12.1025 63.6477 13.7791L63.6289 21.2651C63.5926 23.6181 62.0302 22.308 61.8044 24.6885C61.6503 26.321 62.7877 27.5322 64.2368 27.6653C66.8232 27.9029 68.1192 24.9382 66.549 23.2089C66.2705 22.9009 66.2253 22.9658 65.9412 22.6798C65.4909 22.2232 65.579 22.5071 65.3411 21.8338L65.3555 14.5271C68.9725 15.5755 72.409 18.4137 75.0032 21.0242C77.3805 23.4168 80.8742 27.4805 81.4941 30.8126L76.471 30.8281C72.9959 26.8095 71.0822 30.3385 71.0096 31.5211C70.905 33.202 71.8255 34.2581 73.356 34.3967C75.48 34.5892 75.4326 33.1481 76.7562 32.553H81.8817C83.8009 33.9677 83.8912 41.7903 83.7073 44.3238C83.301 49.943 81.4292 54.747 78.4342 59.0791C76.155 62.3783 71.1021 67.454 67.2604 68.6685L67.2659 59.5929C68.259 59.1693 69.7543 57.9461 70.8345 57.1771C72.0875 56.286 73.2062 55.406 74.4461 54.5259C75.7971 53.5656 77.2582 53.0518 77.3585 51.1641C77.462 49.2059 77.3276 46.8925 77.3474 44.8815C78.0863 43.9421 79.3338 43.776 79.1775 41.7507C78.8174 37.0842 70.568 39.9543 75.0142 44.3447C75.7795 45.0994 75.2322 44.1522 75.6308 45.1654L75.6077 51.6096L70.5878 55.2179C68.9527 56.3928 67.2119 57.8218 65.634 58.7447L65.5272 69.509C63.0674 70.7246 59.9733 71.4473 57.0323 71.7256L57.0081 58.4873C48.3326 58.2662 50.5997 58.8767 48.5572 57.1133C44.9423 53.9924 41.7536 61.8469 46.8538 61.892C49.263 61.914 48.6827 60.4366 49.9842 60.0483L55.2618 60.0626L55.3168 71.8103C49.5669 72.5034 42.3713 70.0337 38.4019 67.5486C34.3796 65.0295 30.0138 60.9922 27.9107 56.6381L32.9074 57.1012C37.0387 61.639 40.3563 53.3092 35.3992 52.9737C33.6617 52.8549 33.2102 54.0562 32.3271 54.802L26.9043 54.7998C23.4612 46.0267 22.6254 37.7453 27.2324 28.6961C28.0604 27.0691 30.4432 23.0164 31.6412 22.4191L31.6235 39.3636C28.0296 41.7639 30.2031 44.8243 32.5881 44.755C35.0094 44.6835 35.9277 41.8343 34.5921 40.347C34.2375 39.9532 33.4734 39.6298 33.3556 38.9059L33.3677 27.6081L48.8237 27.5685C50.9763 27.0042 49.7024 24.2573 50.0162 21.2651C55.6383 17.4511 47.0608 13.0904 46.3903 18.2168C46.1723 19.8911 47.2414 20.6501 48.2445 21.1859ZM73.2679 94C73.6742 91.9572 73.3901 86.8132 73.3945 84.4293C73.4121 75.6837 78.2063 71.708 82.3629 65.2748C85.0055 61.1847 87.004 57.9791 88.5973 52.4303C93.0864 36.7927 86.3797 20.5698 74.4769 12.4392C51.7174 -3.10714 21.3383 11.1147 18.1528 37.7904C17.7674 41.0115 17.8357 43.7672 18.286 46.9728C18.8058 50.6724 17.8016 51.7372 16.5221 54.4203C15.486 56.5952 14.3882 58.5995 13.2948 60.8635C12.5273 62.4531 10.6533 65.7786 10.1996 67.2076C8.32117 73.1238 20.2933 67.7434 21.2689 74.7563C21.6422 77.4482 20.5785 81.326 21.9516 83.4074C24.8199 87.7582 34.9698 82.6824 38.2411 85.9221C40.2924 87.9518 39.0955 90.9638 39.5701 93.9956L73.2679 94Z" fill="#454F5B"/>
<path fill-rule="evenodd" clip-rule="evenodd" d="M47.265 43.0698C47.6284 41.5022 48.0413 39.1634 48.8517 38.0194L50.2666 43.1633L47.265 43.0698ZM38.9375 51.1345L44.9076 51.1367L46.0869 47.0191L51.3402 46.9993L52.7143 51.151L58.5259 51.1367L53.3508 32.9942L44.1919 32.9414L38.9375 51.1345Z" fill="#454F5B"/>
<path fill-rule="evenodd" clip-rule="evenodd" d="M61.6187 51.1333L67.3322 51.1311L67.3553 32.9699L61.6528 32.9512L61.6187 51.1333Z" fill="#454F5B"/>
</svg>
