<svg width="100" height="100" viewBox="0 0 100 100" fill="none" xmlns="http://www.w3.org/2000/svg">
<path d="M30 78.2168L40.6667 83V78.3462H62L62 73.2692H59.8667V76.2308H40.6667L40.6667 24.1923L59.8667 24.1923V27.1538H61.5733V22.5L40.6667 22.5L40.6667 17L30 22.7021L30 78.2168Z" fill="#454F5B"/>
<path d="M60.6158 35.3713C60.6158 36.2654 60.9562 37.1229 61.5619 37.7552C62.1676 38.3874 62.9892 38.7426 63.8458 38.7426C64.7025 38.7426 65.5241 38.3874 66.1298 37.7552C66.7355 37.1229 67.0758 36.2654 67.0758 35.3713C67.0758 34.4772 66.7355 33.6197 66.1298 32.9874C65.5241 32.3552 64.7025 32 63.8458 32C62.9892 32 62.1676 32.3552 61.5619 32.9874C60.9562 33.6197 60.6158 34.4772 60.6158 35.3713ZM67.205 40.4327C67.0537 40.2549 66.868 40.1124 66.6602 40.0148C66.4524 39.9172 66.2271 39.8666 65.9992 39.8664H62.8876C61.2898 39.8664 60.0452 41.3115 60.211 42.968L61.137 52.1446C61.1679 52.4471 61.2315 52.7449 61.3264 53.0324L62.0112 55.0687L61.5525 55.6126C61.4546 55.7319 61.3721 55.8642 61.3071 56.0059L57.0004 65.5579C56.9036 65.759 56.8465 65.9783 56.8322 66.2028C56.8179 66.4274 56.8469 66.6526 56.9174 66.8653C56.9878 67.078 57.0984 67.2738 57.2425 67.4411C57.3866 67.6085 57.5614 67.7441 57.7565 67.8398C57.9516 67.9356 58.1631 67.9896 58.3786 67.9986C58.594 68.0077 58.809 67.9717 59.0108 67.8926C59.2127 67.8136 59.3974 67.6932 59.5539 67.5385C59.7105 67.3838 59.8358 67.1979 59.9225 66.9918L64.1344 57.6556L67.752 53.3381C68.0304 53.0079 68.1741 52.5772 68.1525 52.1379L67.8554 46.2651L68.7921 47.3641L69.7912 53.6258C69.8614 54.0669 70.0967 54.4608 70.4452 54.7208C70.7937 54.9809 71.2269 55.0858 71.6495 55.0125C72.0721 54.9392 72.4495 54.6936 72.6987 54.3299C72.9479 53.9661 73.0484 53.514 72.9781 53.0729L71.9015 46.3303C71.851 46.0168 71.7166 45.7246 71.5139 45.4874L67.2072 40.4305L67.205 40.4327Z" fill="#454F5B"/>
<path d="M67.6138 58.3972V55.2102L65.0212 58.3006L64.4592 59.4783C64.5176 59.6649 64.6049 59.8403 64.7176 59.9975L70.1009 67.3019C70.3619 67.6566 70.7472 67.8885 71.172 67.9467C71.5969 68.0049 72.0264 67.8845 72.3662 67.6121C72.706 67.3397 72.9282 66.9376 72.984 66.4941C73.0397 66.0507 72.9244 65.6024 72.6634 65.2477L67.6138 58.3972ZM58.5268 48.9239L59.5905 47.8136L59.1491 43.6714L59.1361 43.5208L56.7158 46.047H53.615C53.1867 46.047 52.7759 46.2246 52.473 46.5408C52.1702 46.8569 52 47.2856 52 47.7327C52 48.1797 52.1702 48.6085 52.473 48.9246C52.7759 49.2407 53.1867 49.4183 53.615 49.4183H57.3855C57.5979 49.4184 57.8082 49.3748 58.0044 49.29C58.2006 49.2051 58.3788 49.0807 58.5289 48.9239H58.5268Z" fill="#454F5B"/>
<path d="M50 92.5C73.4721 92.5 92.5 73.4721 92.5 50C92.5 26.5279 73.4721 7.5 50 7.5C26.5279 7.5 7.5 26.5279 7.5 50C7.5 73.4721 26.5279 92.5 50 92.5ZM21.111 24.0485L75.9515 78.889C69.0734 85.0719 59.9765 88.8333 50 88.8333C28.5529 88.8333 11.1667 71.4471 11.1667 50C11.1667 40.0235 14.9281 30.9266 21.111 24.0485ZM78.3789 76.508L23.492 21.6211C30.4322 15.1356 39.7521 11.1667 50 11.1667C71.4471 11.1667 88.8333 28.5529 88.8333 50C88.8333 60.2479 84.8645 69.5678 78.3789 76.508Z" fill="#919EAB" stroke="#919EAB"/>
</svg>
