<svg width="100" height="100" viewBox="0 0 100 100" fill="none" xmlns="http://www.w3.org/2000/svg">
<path fill-rule="evenodd" clip-rule="evenodd" d="M48.0446 26.1689C44.5309 26.25 40.7412 26.8307 37.6302 27.869C25.4327 31.9409 34.6178 39.2542 51.8659 38.6262C55.4464 38.4962 59.0181 38.0185 62.2152 36.9481C64.4943 36.1851 69.4465 33.9921 67.3045 30.9651C64.4873 26.9843 54.4634 26.0187 48.0446 26.1689Z" fill="#454F5B"/>
<path fill-rule="evenodd" clip-rule="evenodd" d="M19.614 35.3319C17.9926 35.2846 16.3167 35.3234 14.69 35.3234C12.8945 35.3234 11.5562 35.0246 10.5134 36.1405C8.91481 37.8507 11.412 40.1365 13.0563 42.2181L20.5461 51.6822C21.0297 51.9979 21.7788 52.2528 22.5667 52.0823C23.9911 51.775 24.3481 50.6152 24.3428 49.0418L24.3411 34.768C24.3411 31.6533 24.1124 28.964 25.4753 26.3388C26.5973 24.1762 28.2328 22.6349 30.5242 21.5494C33.2975 20.2359 36.0708 20.5111 39.34 20.5111C42.6444 20.5111 45.954 20.5331 49.2566 20.5162C52.9268 20.4976 52.9004 16.0981 49.3867 16.0374C46.063 15.98 42.6725 16.0407 39.34 16.0407C33.4927 16.0407 28.5705 15.98 24.1388 20.5516C23.8979 20.7998 23.8205 20.8791 23.5603 21.1222L21.9441 23.2038C18.4498 28.8914 20.2295 33.1119 19.614 35.3319Z" fill="#919EAB"/>
<path fill-rule="evenodd" clip-rule="evenodd" d="M44.2963 46.7867C44.3068 45.6421 45.063 45.7822 46.2483 45.8598C49.0286 46.0439 51.2602 46.0928 53.8594 45.7991C55.0359 45.6657 55.5635 45.7974 55.5635 46.7867C55.5635 49.2616 55.6672 49.0826 53.476 49.2396C51.1178 49.4101 48.6927 49.4085 46.3362 49.2379C44.1802 49.0809 44.2963 49.2244 44.2963 46.7867ZM67.775 38.6377C66.4456 39.2961 66.6355 39.5595 64.2333 40.5065C56.3689 43.6061 41.02 43.6837 33.8239 39.6844C33.182 39.3282 32.607 38.9044 32.0636 38.6563C32.104 41.1312 31.9088 43.9893 32.0794 46.3984C32.2166 48.328 34.4113 49.5199 36.103 50.2728C43.628 53.6205 61.7765 53.4348 66.7322 48.4192C67.0329 48.117 67.003 48.1946 67.2246 47.8857C68.2921 46.3967 67.7627 41.2477 67.775 38.6377Z" fill="#454F5B"/>
<path fill-rule="evenodd" clip-rule="evenodd" d="M67.7883 62.626C67.157 62.945 66.7648 63.3046 66.0473 63.6608C65.4635 63.9529 64.8339 64.2619 64.1903 64.5083C62.8151 65.0334 61.5084 65.4098 60.0119 65.7475C52.7208 67.3884 40.4055 67.2483 33.7668 63.6524C33.1637 63.3249 32.5605 62.8606 32.1138 62.6429C31.996 63.5461 32.0839 64.9844 32.0821 65.9484C32.0751 68.8555 34.6883 69.9325 37.3948 70.9404C46.1982 74.2206 67.6687 73 67.7743 66.1999C67.7936 65.0097 67.7373 63.8162 67.7883 62.626Z" fill="#454F5B"/>
<path fill-rule="evenodd" clip-rule="evenodd" d="M43.6499 62.2503C42.8216 59.5914 42.9271 58.8722 43.9576 56.4277C43.4248 56.1677 39.5929 55.695 37.4034 55.0299C33.8652 53.9528 33.9461 53.4142 32.0661 52.5566C32.0714 53.7283 31.885 56.5172 32.3088 57.4119C32.6517 58.1378 33.0597 58.4316 33.5346 58.8773C35.4919 60.7141 40.954 61.9566 43.6499 62.2503Z" fill="#454F5B"/>
<path fill-rule="evenodd" clip-rule="evenodd" d="M55.8862 56.325C56.1571 57.343 56.6248 57.787 56.7216 59.1781C56.8271 60.7042 56.2995 61.2866 56.2274 62.2489C60.3688 61.7138 67.7725 60.0391 67.7725 56.1781V52.54C65.6534 53.5867 66.0473 53.9109 62.5073 54.9981C60.455 55.6278 58.1671 56.1359 55.8862 56.325Z" fill="#454F5B"/>
<path fill-rule="evenodd" clip-rule="evenodd" d="M60.0504 16.1712C59.0041 16.5155 58.1688 17.5401 58.568 18.9377C58.9478 20.2678 60.1753 20.5142 61.3834 20.5142C62.8325 20.5125 69.2443 20.6695 70.1447 20.3842C72.3781 19.6753 72.5346 16.0344 68.8187 16.0378C67.3837 16.0378 60.8893 15.8927 60.0504 16.1712Z" fill="#919EAB"/>
<path fill-rule="evenodd" clip-rule="evenodd" d="M80.3861 64.6676C82.0075 64.7149 83.6835 64.6778 85.3101 64.6778C87.1056 64.6778 88.4439 64.9749 89.4868 63.859C91.0853 62.1488 88.5881 59.863 86.9439 57.7814L79.4541 48.3174C78.9705 48.0017 78.2213 47.7484 77.4335 47.9173C76.009 48.2245 75.652 49.3843 75.6573 50.9577L75.6591 65.2332C75.6591 68.3462 75.8877 71.0355 74.5248 73.6624C73.4028 75.825 71.7673 77.3646 69.4759 78.4502C66.7026 79.7653 63.9293 79.4884 60.6601 79.4884C57.3558 79.4884 54.0461 79.4681 50.7435 79.485C47.0734 79.5036 47.0997 83.9031 50.6134 83.9638C53.9371 84.0195 57.3276 83.9605 60.6601 83.9605C66.5074 83.9605 71.4297 84.0196 75.8595 79.4496C76.1022 79.1997 76.1796 79.1221 76.4399 78.8773L78.056 76.7957C81.5503 71.1081 79.7706 66.8876 80.3861 64.6676Z" fill="#919EAB"/>
<path fill-rule="evenodd" clip-rule="evenodd" d="M39.9487 83.8305C40.995 83.4844 41.8303 82.4599 41.4311 81.0623C41.0513 79.7322 39.8238 79.4857 38.6157 79.4874C37.1666 79.4874 30.7548 79.3305 29.8544 79.6157C27.621 80.3246 27.4645 83.9655 31.1804 83.9638C32.6154 83.9621 39.1098 84.1073 39.9487 83.8305Z" fill="#919EAB"/>
<path d="M49.9352 63.0445C51.8942 63.0445 53.4823 61.5202 53.4823 59.6399C53.4823 57.7596 51.8942 56.2354 49.9352 56.2354C47.9763 56.2354 46.3882 57.7596 46.3882 59.6399C46.3882 61.5202 47.9763 63.0445 49.9352 63.0445Z" fill="#454F5B"/>
</svg>
