<svg width="100" height="100" viewBox="0 0 100 100" fill="none" xmlns="http://www.w3.org/2000/svg">
<rect x="10" y="33" width="70.8202" height="49" rx="4" fill="#454F5B"/>
<path d="M64.2101 18C62.8205 18 61.6939 19.1086 61.6939 20.4762V22.3333H25.21C22.4308 22.3333 20.1777 24.5506 20.1777 27.2857V31H77.4198C80.199 31 82.8156 33.2649 82.8156 36V70H84.9682C87.7474 70 90.0005 67.7827 90.0005 65.0476V20.4762C90.0005 19.1086 88.8739 18 87.4843 18H64.2101Z" fill="#454F5B"/>
<path d="M46.4456 55.2419L42.981 58.7066L44.3668 63.5572L44.3668 64.2501C44.3668 65.4003 45.2953 66.3288 46.4456 66.3289C47.5959 66.3289 48.5244 65.4004 48.5245 64.2501V63.5572L49.9103 58.7066L46.4456 55.2419ZM42.8612 63.2541C42.9905 63.0639 43.0169 62.8231 42.9322 62.6092C42.4572 61.4088 42.0282 59.3672 41.7853 57.1476C41.7602 56.9222 41.6269 56.7233 41.4273 56.6151C41.0169 56.3917 40.6881 56.6717 40.5923 56.701C40.4637 56.7653 37.4375 58.3305 37.4375 62.8644C37.4375 66.2898 39.4317 66.329 39.5163 66.329C39.8994 66.329 40.2093 66.0191 40.2092 65.6361C40.2093 64.4898 41.1417 63.5573 42.2881 63.5573C42.5174 63.5573 42.732 63.4436 42.8612 63.2541ZM51.4641 56.615C51.2644 56.7233 51.1311 56.9222 51.1061 57.1476C50.8544 59.4443 50.4375 61.4324 49.9611 62.6031C49.8745 62.8169 49.8995 63.0598 50.0281 63.2513C50.1573 63.4422 50.3725 63.5572 50.6033 63.5572C51.7495 63.5572 52.682 64.4897 52.6821 65.636C52.6821 66.019 52.992 66.329 53.375 66.3289C53.4596 66.3289 55.4538 66.2897 55.4538 62.8643C55.4538 58.3304 52.4276 56.7652 52.2998 56.7016C52.2083 56.6737 51.8731 56.3917 51.4641 56.615ZM46.8614 41.5219C46.612 41.3417 46.2794 41.3417 46.0298 41.5219C45.8913 41.6327 43.7986 43.2403 42.1632 46.2338L46.4144 47.6196L50.7279 46.2338C49.0926 43.2403 46.9999 41.6327 46.8614 41.5219ZM43.6739 51.0843C43.6739 52.6088 44.9212 53.8561 46.4456 53.8561C47.9839 53.8561 49.2174 52.6088 49.2174 51.0843C49.2174 49.5461 47.9839 48.3126 46.4456 48.3126C44.9212 48.3126 43.6739 49.546 43.6739 51.0843Z" fill="#919EAB"/>
<path d="M42.163 46.2344C41.0821 48.1885 40.209 50.7385 40.209 53.8567C40.209 54.8823 40.2782 56.0741 40.4029 57.2936C40.6662 59.6358 41.1236 61.8116 41.6502 63.1143C41.7473 63.3777 41.9967 63.5578 42.2878 63.5578H44.3666L44.3666 58.7072C44.3666 57.557 45.2951 56.6284 46.4454 56.6284C47.6094 56.6284 48.5242 57.5431 48.5242 58.7072L48.5242 63.5578H50.603C50.8802 63.5578 51.1435 63.3915 51.2405 63.1282C51.7671 61.8393 52.2245 59.7189 52.4878 57.2936C52.6125 56.0741 52.6818 54.8822 52.6818 53.8567C52.6818 50.7385 51.8087 48.1885 50.7277 46.2344L42.163 46.2344ZM49.2171 51.0849C49.2171 52.6094 47.9837 53.8567 46.4454 53.8567C44.9209 53.8567 43.6736 52.6094 43.6736 51.0849C43.6736 49.5467 44.9209 48.3132 46.4454 48.3132C47.9837 48.3132 49.2171 49.5467 49.2171 51.0849ZM46.4522 67.7094C46.0692 67.7094 45.7593 68.0193 45.7592 68.4023L45.7524 73.4692C45.7524 73.8522 46.0623 74.1622 46.4453 74.1621C46.8283 74.1621 47.1383 73.8522 47.1383 73.4692L47.1451 68.4023C47.1451 68.0193 46.8352 67.7094 46.4522 67.7094ZM48.531 68.4023V69.7882C48.531 70.1712 48.8409 70.4811 49.2239 70.4811C49.6069 70.4811 49.9169 70.1712 49.9168 69.7882L49.9168 68.4023C49.9169 68.0193 49.6069 67.7094 49.2239 67.7094C48.8409 67.7094 48.531 68.0193 48.531 68.4023ZM44.3734 69.7882V68.4024C44.3734 68.0193 44.0634 67.7094 43.6804 67.7094C43.2974 67.7094 42.9875 68.0194 42.9875 68.4024L42.9875 69.7882C42.9875 70.1712 43.2974 70.4812 43.6804 70.4811C44.0634 70.4811 44.3734 70.1712 44.3734 69.7882Z" fill="white"/>
</svg>
