<svg width="100" height="100" viewBox="0 0 100 100" fill="none" xmlns="http://www.w3.org/2000/svg">
<path d="M58.3598 5C58.8833 5 59.3859 5.20522 59.7597 5.5716L88.3999 33.6399C88.7837 34.0161 89 34.5309 89 35.0683V84.5C89 90.299 84.111 95 78.08 95H21.92C15.8891 95 11 90.299 11 84.5V15.5C11 9.70101 15.8891 5 21.92 5H58.3598Z" fill="#454F5B"/>
<path d="M85.1832 33.1529C85.4894 33.4704 85.2643 34 84.8233 34H70.1208C64.2743 34 59 28.7104 59 22.8468V7.23884C59 6.78899 59.5477 6.56795 59.8599 6.89177L85.1832 33.1529Z" fill="#DFE3E8"/>
<path d="M33.3112 42.8392C37.6661 39.0656 43.2376 36.992 49 37C62.2552 37 73 47.7448 73 61C73 66.1264 71.392 70.8784 68.656 74.776L61 61H68.2C68.2003 57.2359 67.0942 53.5547 65.0192 50.4142C62.9442 47.2737 59.9918 44.8124 56.5292 43.3363C53.0666 41.8602 49.2465 41.4345 45.5439 42.1121C41.8413 42.7896 38.4195 44.5406 35.704 47.1472L33.3112 42.8392ZM64.6888 79.1608C60.3339 82.9344 54.7624 85.008 49 85C35.7448 85 25 74.2552 25 61C25 55.8736 26.608 51.1216 29.344 47.224L37 61H29.8C29.7997 64.7641 30.9058 68.4453 32.9808 71.5858C35.0558 74.7263 38.0082 77.1876 41.4708 78.6637C44.9334 80.1398 48.7535 80.5655 52.4561 79.8879C56.1587 79.2104 59.5805 77.4594 62.296 74.8528L64.6888 79.1608Z" fill="#DFE3E8"/>
<path fill-rule="evenodd" clip-rule="evenodd" d="M50.2 51.2222C50.2 50.8981 50.0736 50.5872 49.8485 50.358C49.6235 50.1288 49.3183 50 49 50C48.6817 50 48.3765 50.1288 48.1515 50.358C47.9264 50.5872 47.8 50.8981 47.8 51.2222V52.4444C46.527 52.4444 45.3061 52.9595 44.4059 53.8764C43.5057 54.7932 43 56.0367 43 57.3333C43 58.6299 43.5057 59.8735 44.4059 60.7903C45.3061 61.7071 46.527 62.2222 47.8 62.2222V67.1111C47.3036 67.1112 46.8194 66.9546 46.414 66.6628C46.0086 66.371 45.7019 65.9585 45.5362 65.4819C45.4261 65.1819 45.2047 64.9379 44.9198 64.8024C44.6348 64.667 44.309 64.6508 44.0125 64.7575C43.716 64.8642 43.4725 65.0851 43.3343 65.3728C43.1961 65.6605 43.1743 65.992 43.2736 66.2959C43.6047 67.2491 44.2177 68.0744 45.0283 68.6582C45.8389 69.2419 46.8072 69.5555 47.8 69.5556V70.7778C47.8 71.1019 47.9264 71.4128 48.1515 71.642C48.3765 71.8712 48.6817 72 49 72C49.3183 72 49.6235 71.8712 49.8485 71.642C50.0736 71.4128 50.2 71.1019 50.2 70.7778V69.5556C51.473 69.5556 52.6939 69.0405 53.5941 68.1236C54.4943 67.2068 55 65.9633 55 64.6667C55 63.3701 54.4943 62.1265 53.5941 61.2097C52.6939 60.2929 51.473 59.7778 50.2 59.7778V54.8889C50.6964 54.8888 51.1806 55.0454 51.586 55.3372C51.9914 55.629 52.2981 56.0415 52.4638 56.5181C52.5739 56.8181 52.7953 57.0621 53.0802 57.1976C53.3652 57.333 53.691 57.3492 53.9875 57.2425C54.284 57.1358 54.5275 56.9149 54.6657 56.6272C54.8039 56.3395 54.8257 56.008 54.7264 55.7041C54.3953 54.7509 53.7823 53.9256 52.9717 53.3418C52.1611 52.7581 51.1928 52.4445 50.2 52.4444V51.2222ZM47.8 54.8889C47.1635 54.8889 46.553 55.1464 46.1029 55.6048C45.6529 56.0633 45.4 56.685 45.4 57.3333C45.4 57.9816 45.6529 58.6034 46.1029 59.0618C46.553 59.5202 47.1635 59.7778 47.8 59.7778V54.8889ZM50.2 62.2222V67.1111C50.8365 67.1111 51.447 66.8536 51.8971 66.3951C52.3471 65.9367 52.6 65.315 52.6 64.6667C52.6 64.0184 52.3471 63.3966 51.8971 62.9382C51.447 62.4798 50.8365 62.2222 50.2 62.2222Z" fill="#DFE3E8"/>
</svg>
