<svg xmlns="http://www.w3.org/2000/svg" width="118" height="14" viewBox="0 0 118 14" fill="none">
  <path d="M118 8L108.051 2.13855L107.949 13.6851L118 8ZM1.27602 0.0388591C0.745193 -0.113584 0.191291 0.193158 0.0388482 0.723988C-0.113595 1.25482 0.193145 1.80872 0.723976 1.96116L1.27602 0.0388591ZM109.014 6.92074C95.8842 6.73954 73.1295 6.22513 51.546 5.14884C40.7536 4.61067 30.2626 3.93242 21.4179 3.08607C12.5487 2.23736 5.40931 1.22585 1.27602 0.0388591L0.723976 1.96116C5.05577 3.20516 12.3647 4.2289 21.2274 5.07697C30.1146 5.9274 40.6392 6.60745 51.4464 7.14636C73.0619 8.22424 95.8423 8.73915 108.986 8.92055L109.014 6.92074Z" fill="#27097A"/>
</svg>