<svg xmlns="http://www.w3.org/2000/svg" width="117" height="22" viewBox="0 0 117 22" fill="none">
  <path d="M117 6.5L106.902 0.899182L107.101 12.4445L117 6.5ZM0.305405 19.7806C-0.0919113 20.1642 -0.103012 20.7973 0.280602 21.1946C0.664215 21.5919 1.29728 21.603 1.6946 21.2194L0.305405 19.7806ZM107.974 5.65502C94.2965 6.01786 70.0264 7.06083 47.9129 9.22508C36.8588 10.307 26.3203 11.6712 17.9054 13.376C13.6991 14.2282 10.0006 15.17 7.0238 16.2127C4.07758 17.2446 1.72061 18.4142 0.305405 19.7806L1.6946 21.2194C2.78504 20.1666 4.79705 19.1117 7.68491 18.1002C10.5422 17.0995 14.1428 16.179 18.3026 15.3362C26.6198 13.6511 37.0808 12.2948 48.1077 11.2156C70.1565 9.05766 94.3751 8.01648 108.027 7.65432L107.974 5.65502Z" fill="#27097A"/>
</svg>