<svg version="1.2" xmlns="http://www.w3.org/2000/svg" viewBox="0 0 63 63" width="63" height="63">
	<title>Cost-svg</title>
	<style>
		.s0 { fill: #00a76f } 
		.s1 { fill: #ffffff } 
	</style>
	<g id="Layer">
		<path id="Layer" class="s0" d="m3 31.5c0-15.7 12.8-28.5 28.5-28.5 15.7 0 28.5 12.8 28.5 28.5 0 15.7-12.8 28.5-28.5 28.5-15.7 0-28.5-12.8-28.5-28.5z"/>
		<path id="Layer" fill-rule="evenodd" class="s1" d="m47.5 39.3q0 3.3 0 6.6c0 1.2-0.8 2-2.1 2-4.3 0-8.7 0-13 0-1.2 0-2.1-0.9-2.1-2q0-3.5 0-6.9c0-5.1 0-10.2 0-15.3 0-0.8 0.4-1.4 1.1-1.6q0.2 0 0.5 0 7 0 14 0c0.9 0 1.6 0.6 1.6 1.5q0 7.8 0 15.7zm-1.3-4.5c0.3 0 0.3-0.2 0.3-0.4q0-3 0-6c0-0.5 0-0.5-0.5-0.5q-5.8 0-11.5 0c-0.8 0-1.5 0-2.3 0-0.4 0-0.5 0-0.5 0.5q0 3 0 6c0 0.3 0.1 0.4 0.4 0.4 4.7 0 9.4 0 14.1 0zm-1.4-8.6q0.6 0 1.2 0c0.3 0 0.4-0.1 0.4-0.3q0-0.8 0-1.5c0-0.3-0.1-0.3-0.4-0.3q-2.7 0-5.5 0c-0.3 0-0.4 0.1-0.3 0.3q0 0.7-0.1 1.4c0 0.3 0.1 0.4 0.5 0.4 1.4 0 2.7 0 4.2 0zm-1 18.9q0.1 0.6 0.7 0.5c0.3 0 0.7 0 1 0 0.4 0 0.6-0.2 0.6-0.5q0-2.3 0-4.5 0-0.6-0.6-0.6-0.5 0-1 0c-0.5 0-0.7 0.2-0.7 0.7q0 2.2 0 4.4zm-1.3 0.5c0.2-0.1 0.3-0.2 0.3-0.4q0-0.7 0-1.4 0-0.5-0.5-0.5-1 0-2 0c-0.3 0-0.5 0.1-0.5 0.5q0 0.7 0 1.3c0 0.4 0.1 0.5 0.5 0.5q1.1 0 2.2 0zm-6.2 0q1 0 1.9 0c0.4 0 0.5-0.1 0.5-0.5q0-0.6 0-1.3c0-0.3-0.1-0.5-0.5-0.5q-1 0-2 0-0.4 0-0.4 0.5 0 0.6 0 1.3c0 0.4 0.1 0.5 0.5 0.5zm6.1-3.3q0.4 0 0.4-0.4 0-0.8 0-1.5 0-0.4-0.5-0.4-1 0-2 0-0.5 0-0.5 0.5 0 0.6 0 1.3c0 0.4 0.2 0.5 0.6 0.5q0.9 0 2 0zm-10 1c-0.6 0-0.7 0.1-0.7 0.7q0 0.5 0 1.1c0 0.4 0.1 0.5 0.5 0.5q1 0 2 0c0.3 0 0.4-0.1 0.5-0.4q0-0.7 0-1.3c0-0.5-0.2-0.6-0.6-0.6-0.6 0-1.1 0-1.7 0zm1.7-3.3q-1 0-1.9 0c-0.4 0-0.5 0.1-0.5 0.5q0 0.7 0 1.3c0 0.4 0.1 0.5 0.5 0.5q1 0 2 0c0.3 0 0.5-0.1 0.5-0.5q0-0.6 0-1.3c0-0.4-0.2-0.5-0.6-0.5zm2.5 2.3q0.8 0 1.6 0c0.3 0 0.5-0.1 0.5-0.4q0-0.7 0-1.5 0-0.4-0.4-0.4-1.1 0-2.1 0-0.4 0-0.4 0.4 0 0.8 0 1.5 0 0.4 0.3 0.4c0.2 0 0.3 0 0.5 0zm-0.7-3.4q0.1 0.1 0.2 0.1 1.1 0 2.3 0c0.2 0 0.3-0.2 0.3-0.4q0-0.7 0-1.5c0-0.2-0.1-0.4-0.3-0.4-0.8 0-1.5-0.1-2.3 0-0.1 0-0.3 0.1-0.3 0.3 0 0.6-0.1 1.2 0.1 1.9zm6.9-1q0-0.4 0-0.8 0-0.4-0.4-0.4-1.1 0-2.1 0-0.5 0-0.5 0.4 0 0.8 0 1.5 0 0.4 0.4 0.4 1.1 0 2.2 0 0.4 0 0.4-0.4c0-0.2 0-0.5 0-0.7zm-9.6 1.1q0.5 0 1 0 0.4 0 0.5-0.5 0-0.7 0-1.4-0.1-0.4-0.5-0.4-1 0-2.1 0-0.4 0-0.4 0.4 0 0.7 0 1.5 0 0.4 0.5 0.4c0.3 0 0.6 0 1 0zm12.9-1.7c0-0.3 0-0.6-0.4-0.6q-0.7-0.1-1.5 0-0.4 0-0.4 0.4 0 0.8 0 1.5 0 0.4 0.4 0.4 0.7 0 1.5 0 0.4 0 0.4-0.4c0-0.4 0-0.8 0-1.3z"/>
		<path id="Layer" class="s1" d="m18.7 35.6c-3.6-3.5-4.5-8.6-2.6-13 2-4.7 6.5-7.5 11.5-7 3.5 0.3 6.3 2 8.4 4.9-0.1 0.2-0.3 0.1-0.4 0.1q-1.9 0-3.8 0-0.3 0-0.5-0.1-2.4-1.7-5.2-1.5c-3.9 0.2-6.9 3.1-7.5 7-0.6 3.7 1.4 7.3 4.8 8.8q2.3 1 4.8 0.5c0.5-0.1 0.5-0.1 0.5 0.4q0 1.3 0 2.6c0 0.3-0.1 0.4-0.4 0.5q-4.2 0.6-7.7-1.7-1.1-0.6-1.9-1.5z"/>
		<path id="Layer" fill-rule="evenodd" class="s1" d="m23.8 24.5c0.3-0.7 1-1.1 1.8-1.3 0.4-0.1 0.6-0.3 0.5-0.6q0-0.3 0.2-0.5c0.2-0.3 0.5-0.5 0.9-0.4 0.4 0.1 0.7 0.3 0.7 0.7q0 0 0 0.1c0.1 0.5 0.1 0.5 0.7 0.6 0.3 0.1 0.5 0.2 0.4 0.5 0 0.3 0 0.5 0 0.7 0 0.3 0 0.4-0.3 0.3-0.8-0.1-0.8-0.1-0.8 0.6q0 0.7 0 1.3-0.1 0.3 0.2 0.3c1.1 0.4 0.9 0.2 0.9 1.2 0 1 0 1.9 0 2.8 0 0.3-0.1 0.5-0.4 0.5q-0.1 0.1-0.2 0.1c-0.4 0.1-0.7 0.2-0.7 0.7 0 0.3-0.6 0.7-0.9 0.6-0.5 0-0.9-0.4-0.9-0.8 0-0.3-0.1-0.4-0.5-0.5-0.6 0-1.1-0.2-1.6-0.4-0.4-0.2-0.6-0.6-0.4-0.9 0.1-0.4 0.5-0.6 1-0.4q0.6 0.2 1.2 0.3c0.3 0.1 0.4 0 0.4-0.2q0-0.9 0-1.7 0-0.3-0.3-0.4-0.3 0-0.5-0.1c-1.5-0.6-2-1.7-1.4-3.1zm5 4.6c-0.1-0.4-0.4-0.6-1-0.7q0 0.7 0 1.5c0 0.1 0.2 0.1 0.3 0.1 0.4-0.2 0.6-0.4 0.7-0.9zm-2.8-3.4c0-0.4 0.2-0.7 0-1.1-0.5 0.1-0.8 0.4-0.8 0.8 0 0.5 0.2 0.7 0.8 0.8 0-0.2 0-0.3 0-0.5z"/>
	</g>
</svg>