<svg width="101" height="100" viewBox="0 0 101 100" fill="none" xmlns="http://www.w3.org/2000/svg">
<g clip-path="url(#clip0_217_799)">
<path opacity="0.1" d="M17.735 22.3225C17.1999 22.9748 16.9939 23.8919 16.7634 24.7542C14.9081 31.703 10.3363 37.2922 5.12969 41.2846C2.92481 42.9757 0.240473 45.2435 0.722853 48.2756C0.982596 49.9039 2.12214 51.1026 2.96875 52.4288C4.74496 55.2057 5.32108 58.9803 4.47448 62.3046C3.51167 66.087 0.8205 69.6164 1.65344 73.441C2.16706 75.7952 3.91105 77.4706 5.58766 78.9106C8.20332 81.1556 10.9023 83.2587 13.6846 85.2198C15.5497 86.5343 17.5339 87.8134 19.7075 87.9801C21.6214 88.1273 23.4962 87.3965 25.3135 86.6755C26.9012 86.0448 28.529 85.3885 29.8111 84.1251C30.648 83.3002 31.3149 82.2359 32.2445 81.561C34.4279 79.9758 37.2323 80.9803 39.736 81.6591C45.6437 83.2521 51.9664 82.6704 57.588 80.017C66.2112 75.9462 72.7839 67.3976 81.2187 62.8108C84.8453 60.8382 88.7903 59.614 92.1484 57.0734C94.0403 55.6269 95.6662 53.8595 96.9527 51.851C99.4915 47.9165 100.864 42.9001 100.468 37.9897C100.072 33.0792 97.8501 28.3473 94.3611 25.5752C90.6261 22.6079 85.9087 22.0537 81.6591 20.2723C77.2728 18.4302 73.3688 15.2657 69.0245 13.2931C65.5069 11.6995 61.6787 10.9173 57.8209 11.0041C53.9631 11.0908 50.1736 12.0442 46.7305 13.7944C41.9995 16.1976 37.206 21.8045 31.9369 22.2303C28.1833 22.5245 20.6664 18.75 17.735 22.3225Z" fill="#00A76F"/>
<path d="M85.4367 45.0458C85.4367 45.0458 84.0149 40.1951 85.7033 36.6256C86.4213 35.1327 86.6379 33.4461 86.3204 31.8191C86.1636 31.0478 85.9367 30.2926 85.6427 29.563" stroke="#535461" stroke-width="2" stroke-miterlimit="10"/>
<path d="M86.6981 27.3076C86.6981 27.902 85.6239 29.6255 85.6239 29.6255C85.6239 29.6255 84.5498 27.902 84.5498 27.3076C84.5389 27.1596 84.5585 27.0109 84.6074 26.8709C84.6563 26.7308 84.7334 26.6024 84.834 26.4937C84.9345 26.3849 85.0563 26.2982 85.1917 26.2389C85.3271 26.1795 85.4733 26.1489 85.621 26.1489C85.7687 26.1489 85.9149 26.1795 86.0503 26.2389C86.1857 26.2982 86.3075 26.3849 86.408 26.4937C86.5086 26.6024 86.5857 26.7308 86.6346 26.8709C86.6835 27.0109 86.7031 27.1596 86.6922 27.3076H86.6981Z" fill="#00A76F"/>
<path d="M88.4647 30.5997C88.1434 31.0989 86.3076 31.9612 86.3076 31.9612C86.3076 31.9612 86.3408 29.9297 86.6621 29.4304C86.8255 29.2122 87.0652 29.0643 87.3328 29.0166C87.6005 28.9689 87.8762 29.0249 88.1044 29.1734C88.3326 29.3218 88.4962 29.5516 88.5623 29.8165C88.6285 30.0814 88.5922 30.3616 88.4607 30.6006L88.4647 30.5997Z" fill="#00A76F"/>
<path d="M88.3875 36.2272C87.8592 36.495 85.8486 36.3096 85.8486 36.3096C85.8486 36.3096 86.8983 34.5724 87.4266 34.3046C87.6771 34.2002 87.9576 34.1948 88.2119 34.2895C88.4662 34.3842 88.6754 34.572 88.7975 34.8153C88.9197 35.0585 88.9457 35.3392 88.8703 35.6009C88.795 35.8626 88.6239 36.086 88.3914 36.2263L88.3875 36.2272Z" fill="#00A76F"/>
<path d="M87.3748 40.4756C86.8992 40.8287 84.8818 40.9886 84.8818 40.9886C84.8818 40.9886 85.624 39.0984 86.1005 38.7443C86.3298 38.6043 86.603 38.5556 86.8662 38.6078C87.1295 38.66 87.3637 38.8093 87.5229 39.0263C87.6821 39.2433 87.7547 39.5123 87.7264 39.7803C87.6981 40.0484 87.5709 40.296 87.3699 40.4746L87.3748 40.4756Z" fill="#00A76F"/>
<path d="M84.0623 32.0761C84.4871 32.49 86.4644 32.9197 86.4644 32.9197C86.4644 32.9197 85.9762 30.947 85.5553 30.5321C85.4571 30.4215 85.3373 30.3324 85.2033 30.2704C85.0694 30.2084 84.9241 30.1748 84.7766 30.1716C84.6291 30.1685 84.4826 30.1959 84.3461 30.2521C84.2096 30.3084 84.0861 30.3923 83.9834 30.4986C83.8806 30.6049 83.8007 30.7313 83.7487 30.87C83.6967 31.0086 83.6736 31.1566 83.681 31.3046C83.6885 31.4526 83.7261 31.5975 83.7917 31.7302C83.8573 31.8629 83.9494 31.9807 84.0623 32.0761Z" fill="#00A76F"/>
<path d="M82.9402 37.0549C83.4684 37.3227 85.479 37.1373 85.479 37.1373C85.479 37.1373 84.4293 35.4001 83.901 35.1323C83.6505 35.0278 83.37 35.0224 83.1157 35.1171C82.8614 35.2118 82.6522 35.3997 82.5301 35.6429C82.408 35.8862 82.382 36.1668 82.4573 36.4285C82.5326 36.6903 82.7037 36.9137 82.9363 37.0539L82.9402 37.0549Z" fill="#00A76F"/>
<path d="M82.5105 42.0451C82.986 42.3982 85.0034 42.5581 85.0034 42.5581C85.0034 42.5581 84.2613 40.6679 83.7848 40.3138C83.6731 40.2145 83.5421 40.1397 83.4 40.0941C83.258 40.0486 83.108 40.0332 82.9598 40.049C82.8115 40.0648 82.6681 40.1115 82.5388 40.186C82.4094 40.2605 82.2969 40.3613 82.2085 40.4818C82.12 40.6024 82.0575 40.7402 82.0249 40.8864C81.9924 41.0325 81.9905 41.1839 82.0193 41.3309C82.0482 41.4778 82.1072 41.6171 82.1926 41.7399C82.278 41.8627 82.3879 41.9663 82.5154 42.0441L82.5105 42.0451Z" fill="#00A76F"/>
<path opacity="0.1" d="M86.6981 27.3076C86.6981 27.902 85.6239 29.6255 85.6239 29.6255C85.6239 29.6255 84.5498 27.902 84.5498 27.3076C84.5389 27.1596 84.5585 27.0109 84.6074 26.8709C84.6563 26.7308 84.7334 26.6024 84.834 26.4937C84.9345 26.3849 85.0563 26.2982 85.1917 26.2389C85.3271 26.1795 85.4733 26.1489 85.621 26.1489C85.7687 26.1489 85.9149 26.1795 86.0503 26.2389C86.1857 26.2982 86.3075 26.3849 86.408 26.4937C86.5086 26.6024 86.5857 26.7308 86.6346 26.8709C86.6835 27.0109 86.7031 27.1596 86.6922 27.3076H86.6981Z" fill="#00A76F"/>
<path opacity="0.1" d="M88.4647 30.5997C88.1434 31.0989 86.3076 31.9612 86.3076 31.9612C86.3076 31.9612 86.3408 29.9297 86.6621 29.4304C86.8255 29.2122 87.0652 29.0643 87.3328 29.0166C87.6005 28.9689 87.8762 29.0249 88.1044 29.1734C88.3326 29.3218 88.4962 29.5516 88.5623 29.8165C88.6285 30.0814 88.5922 30.3616 88.4607 30.6006L88.4647 30.5997Z" fill="#00A76F"/>
<path opacity="0.1" d="M88.3875 36.2272C87.8592 36.495 85.8486 36.3096 85.8486 36.3096C85.8486 36.3096 86.8983 34.5724 87.4266 34.3046C87.6771 34.2002 87.9576 34.1948 88.2119 34.2895C88.4662 34.3842 88.6754 34.572 88.7975 34.8153C88.9197 35.0585 88.9457 35.3392 88.8703 35.6009C88.795 35.8626 88.6239 36.086 88.3914 36.2263L88.3875 36.2272Z" fill="#00A76F"/>
<path opacity="0.1" d="M87.3748 40.4756C86.8992 40.8287 84.8818 40.9886 84.8818 40.9886C84.8818 40.9886 85.624 39.0984 86.1005 38.7443C86.3298 38.6043 86.603 38.5556 86.8662 38.6078C87.1295 38.66 87.3637 38.8093 87.5229 39.0263C87.6821 39.2433 87.7547 39.5123 87.7264 39.7803C87.6981 40.0484 87.5709 40.296 87.3699 40.4746L87.3748 40.4756Z" fill="#00A76F"/>
<path opacity="0.1" d="M84.0623 32.0761C84.4871 32.49 86.4644 32.9197 86.4644 32.9197C86.4644 32.9197 85.9762 30.947 85.5553 30.5321C85.4571 30.4215 85.3373 30.3324 85.2033 30.2704C85.0694 30.2084 84.9241 30.1748 84.7766 30.1716C84.6291 30.1685 84.4826 30.1959 84.3461 30.2521C84.2096 30.3084 84.0861 30.3923 83.9834 30.4986C83.8806 30.6049 83.8007 30.7313 83.7487 30.87C83.6967 31.0086 83.6736 31.1566 83.681 31.3046C83.6885 31.4526 83.7261 31.5975 83.7917 31.7302C83.8573 31.8629 83.9494 31.9807 84.0623 32.0761Z" fill="#00A76F"/>
<path opacity="0.1" d="M82.9402 37.0549C83.4684 37.3227 85.479 37.1373 85.479 37.1373C85.479 37.1373 84.4293 35.4001 83.901 35.1323C83.6505 35.0278 83.37 35.0224 83.1157 35.1171C82.8614 35.2118 82.6522 35.3997 82.5301 35.6429C82.408 35.8862 82.382 36.1668 82.4573 36.4285C82.5326 36.6903 82.7037 36.9137 82.9363 37.0539L82.9402 37.0549Z" fill="#00A76F"/>
<path opacity="0.1" d="M82.5105 42.0451C82.986 42.3982 85.0034 42.5581 85.0034 42.5581C85.0034 42.5581 84.2613 40.6679 83.7848 40.3138C83.6731 40.2145 83.5421 40.1397 83.4 40.0941C83.258 40.0486 83.108 40.0332 82.9598 40.049C82.8115 40.0648 82.6681 40.1115 82.5388 40.186C82.4094 40.2605 82.2969 40.3613 82.2085 40.4818C82.12 40.6024 82.0575 40.7402 82.0249 40.8864C81.9924 41.0325 81.9905 41.1839 82.0193 41.3309C82.0482 41.4778 82.1072 41.6171 82.1926 41.7399C82.278 41.8627 82.3879 41.9663 82.5154 42.0441L82.5105 42.0451Z" fill="#00A76F"/>
<path d="M91.3937 52.7948C91.3937 52.7948 89.972 47.9442 91.6603 44.3746C92.3783 42.8817 92.5949 41.1952 92.2774 39.5681C92.1206 38.7969 91.8938 38.0417 91.5998 37.312" stroke="#535461" stroke-width="2" stroke-miterlimit="10"/>
<path d="M92.6551 35.0571C92.6551 35.6515 91.581 37.375 91.581 37.375C91.581 37.375 90.5068 35.6515 90.5068 35.0571C90.4959 34.9091 90.5155 34.7604 90.5644 34.6204C90.6133 34.4803 90.6904 34.3519 90.791 34.2432C90.8915 34.1344 91.0133 34.0477 91.1487 33.9884C91.2841 33.9291 91.4303 33.8984 91.578 33.8984C91.7258 33.8984 91.8719 33.9291 92.0073 33.9884C92.1428 34.0477 92.2645 34.1344 92.3651 34.2432C92.4656 34.3519 92.5427 34.4803 92.5916 34.6204C92.6405 34.7604 92.6601 34.9091 92.6492 35.0571H92.6551Z" fill="#00A76F"/>
<path d="M94.4217 38.3487C94.1004 38.848 92.2686 39.7092 92.2686 39.7092C92.2686 39.7092 92.3018 37.6778 92.623 37.1785C92.6943 37.0489 92.7913 36.9354 92.9081 36.845C93.0249 36.7547 93.159 36.6895 93.302 36.6535C93.4449 36.6175 93.5938 36.6114 93.7392 36.6357C93.8846 36.6599 94.0235 36.714 94.1472 36.7944C94.2709 36.8749 94.3768 36.9802 94.4583 37.1035C94.5398 37.2269 94.5951 37.3658 94.6209 37.5116C94.6466 37.6574 94.6422 37.807 94.608 37.951C94.5737 38.095 94.5103 38.2304 94.4217 38.3487Z" fill="#00A76F"/>
<path d="M94.3445 43.9764C93.8162 44.2442 91.8057 44.0588 91.8057 44.0588C91.8057 44.0588 92.8554 42.3216 93.3836 42.0538C93.5103 41.9775 93.6512 41.9281 93.7977 41.909C93.9442 41.8898 94.093 41.9011 94.2349 41.9424C94.3768 41.9836 94.5087 42.0538 94.6224 42.1485C94.7361 42.2433 94.8291 42.3605 94.8956 42.493C94.9621 42.6255 95.0007 42.7704 95.009 42.9185C95.0173 43.0667 94.995 43.2149 94.9437 43.3541C94.8923 43.4932 94.813 43.6202 94.7105 43.7271C94.6081 43.834 94.4848 43.9186 94.3484 43.9754L94.3445 43.9764Z" fill="#00A76F"/>
<path d="M93.3318 48.2246C92.8563 48.5778 90.8389 48.7377 90.8389 48.7377C90.8389 48.7377 91.581 46.8474 92.0575 46.4933C92.2868 46.3533 92.56 46.3047 92.8233 46.3568C93.0865 46.409 93.3208 46.5583 93.48 46.7753C93.6392 46.9923 93.7117 47.2613 93.6834 47.5293C93.6551 47.7974 93.5279 48.0451 93.3269 48.2237L93.3318 48.2246Z" fill="#00A76F"/>
<path d="M90.0187 39.8251C90.4434 40.2391 92.4208 40.6687 92.4208 40.6687C92.4208 40.6687 91.9326 38.6961 91.5117 38.2812C91.3039 38.1055 91.0375 38.0155 90.7663 38.0292C90.495 38.0429 90.239 38.1593 90.0498 38.355C89.8605 38.5507 89.7521 38.8112 89.7463 39.0839C89.7406 39.3567 89.8379 39.6215 90.0187 39.8251Z" fill="#00A76F"/>
<path d="M88.8962 44.8044C89.4245 45.0722 91.4351 44.8868 91.4351 44.8868C91.4351 44.8868 90.3853 43.1496 89.8571 42.8818C89.6066 42.7773 89.3261 42.7719 89.0718 42.8666C88.8175 42.9613 88.6083 43.1492 88.4862 43.3924C88.364 43.6357 88.338 43.9163 88.4134 44.1781C88.4887 44.4398 88.6598 44.6632 88.8923 44.8034L88.8962 44.8044Z" fill="#00A76F"/>
<path d="M88.4665 49.7941C88.9421 50.1472 90.9595 50.3071 90.9595 50.3071C90.9595 50.3071 90.2174 48.4169 89.7408 48.0628C89.6291 47.9635 89.4981 47.8887 89.3561 47.8432C89.214 47.7976 89.0641 47.7822 88.9158 47.798C88.7675 47.8138 88.6242 47.8605 88.4948 47.935C88.3655 48.0095 88.253 48.1103 88.1645 48.2309C88.0761 48.3514 88.0136 48.4892 87.981 48.6354C87.9484 48.7816 87.9465 48.9329 87.9754 49.0799C88.0043 49.2269 88.0633 49.3662 88.1487 49.489C88.2341 49.6117 88.344 49.7153 88.4714 49.7931L88.4665 49.7941Z" fill="#00A76F"/>
<path opacity="0.1" d="M92.6551 35.0571C92.6551 35.6515 91.581 37.375 91.581 37.375C91.581 37.375 90.5068 35.6515 90.5068 35.0571C90.4959 34.9091 90.5155 34.7604 90.5644 34.6204C90.6133 34.4803 90.6904 34.3519 90.791 34.2432C90.8915 34.1344 91.0133 34.0477 91.1487 33.9884C91.2841 33.9291 91.4303 33.8984 91.578 33.8984C91.7258 33.8984 91.8719 33.9291 92.0073 33.9884C92.1428 34.0477 92.2645 34.1344 92.3651 34.2432C92.4656 34.3519 92.5427 34.4803 92.5916 34.6204C92.6405 34.7604 92.6601 34.9091 92.6492 35.0571H92.6551Z" fill="#00A76F"/>
<path opacity="0.1" d="M94.4217 38.3487C94.1004 38.848 92.2686 39.7092 92.2686 39.7092C92.2686 39.7092 92.3018 37.6778 92.623 37.1785C92.6943 37.0489 92.7913 36.9354 92.9081 36.845C93.0249 36.7547 93.159 36.6895 93.302 36.6535C93.4449 36.6175 93.5938 36.6114 93.7392 36.6357C93.8846 36.6599 94.0235 36.714 94.1472 36.7944C94.2709 36.8749 94.3768 36.9802 94.4583 37.1035C94.5398 37.2269 94.5951 37.3658 94.6209 37.5116C94.6466 37.6574 94.6422 37.807 94.608 37.951C94.5737 38.095 94.5103 38.2304 94.4217 38.3487Z" fill="#00A76F"/>
<path opacity="0.1" d="M94.3445 43.9764C93.8162 44.2442 91.8057 44.0588 91.8057 44.0588C91.8057 44.0588 92.8554 42.3216 93.3836 42.0538C93.5103 41.9775 93.6512 41.9281 93.7977 41.909C93.9442 41.8898 94.093 41.9011 94.2349 41.9424C94.3768 41.9836 94.5087 42.0538 94.6224 42.1485C94.7361 42.2433 94.8291 42.3605 94.8956 42.493C94.9621 42.6255 95.0007 42.7704 95.009 42.9185C95.0173 43.0667 94.995 43.2149 94.9437 43.3541C94.8923 43.4932 94.813 43.6202 94.7105 43.7271C94.6081 43.834 94.4848 43.9186 94.3484 43.9754L94.3445 43.9764Z" fill="#00A76F"/>
<path opacity="0.1" d="M93.3318 48.2246C92.8563 48.5778 90.8389 48.7377 90.8389 48.7377C90.8389 48.7377 91.581 46.8474 92.0575 46.4933C92.2868 46.3533 92.56 46.3047 92.8233 46.3568C93.0865 46.409 93.3208 46.5583 93.48 46.7753C93.6392 46.9923 93.7117 47.2613 93.6834 47.5293C93.6551 47.7974 93.5279 48.0451 93.3269 48.2237L93.3318 48.2246Z" fill="#00A76F"/>
<path opacity="0.1" d="M90.0187 39.8251C90.4434 40.2391 92.4208 40.6687 92.4208 40.6687C92.4208 40.6687 91.9326 38.6961 91.5117 38.2812C91.3039 38.1055 91.0375 38.0155 90.7663 38.0292C90.495 38.0429 90.239 38.1593 90.0498 38.355C89.8605 38.5507 89.7521 38.8112 89.7463 39.0839C89.7406 39.3567 89.8379 39.6215 90.0187 39.8251Z" fill="#00A76F"/>
<path opacity="0.1" d="M88.8962 44.8044C89.4245 45.0722 91.4351 44.8868 91.4351 44.8868C91.4351 44.8868 90.3853 43.1496 89.8571 42.8818C89.6066 42.7773 89.3261 42.7719 89.0718 42.8666C88.8175 42.9613 88.6083 43.1492 88.4862 43.3924C88.364 43.6357 88.338 43.9163 88.4134 44.1781C88.4887 44.4398 88.6598 44.6632 88.8923 44.8034L88.8962 44.8044Z" fill="#00A76F"/>
<path opacity="0.1" d="M88.4665 49.7941C88.9421 50.1472 90.9595 50.3071 90.9595 50.3071C90.9595 50.3071 90.2174 48.4169 89.7408 48.0628C89.6291 47.9635 89.4981 47.8887 89.3561 47.8432C89.214 47.7976 89.0641 47.7822 88.9158 47.798C88.7675 47.8138 88.6242 47.8605 88.4948 47.935C88.3655 48.0095 88.253 48.1103 88.1645 48.2309C88.0761 48.3514 88.0136 48.4892 87.981 48.6354C87.9484 48.7816 87.9465 48.9329 87.9754 49.0799C88.0043 49.2269 88.0633 49.3662 88.1487 49.489C88.2341 49.6117 88.344 49.7153 88.4714 49.7931L88.4665 49.7941Z" fill="#00A76F"/>
<path opacity="0.1" d="M53.3899 69.0126C79.9127 66.4143 101.076 60.8312 100.66 56.5425C100.243 52.2538 78.405 50.8835 51.8822 53.4818C25.3594 56.0802 4.19592 61.6632 4.61227 65.9519C5.02862 70.2406 26.8671 71.6109 53.3899 69.0126Z" fill="#00A76F"/>
<path d="M96.4804 57.2258C98.2859 53.5081 97.9129 47.4568 97.7206 45.4028C97.6786 44.9535 97.6454 44.6955 97.6454 44.6955C97.6454 44.6955 96.0537 44.4434 96.6406 42.5081C96.9277 41.5605 95.9082 41.0367 94.795 40.7493C93.9991 40.5581 93.187 40.4428 92.3695 40.405L76.9519 39.4486C74.8378 36.0782 70.678 36.6196 70.678 36.6196C70.678 36.6196 66.9674 36.2322 64.3368 36.192C63.9375 35.8386 63.4999 35.5316 63.0322 35.2768C62.7535 35.1085 62.4567 34.9726 62.1475 34.8716C61.7716 34.7627 61.3755 34.7436 60.9909 34.816C60.6064 34.8884 60.244 35.0502 59.9329 35.2885C59.7812 35.3981 59.6577 35.5424 59.5725 35.7093C59.5397 35.7853 59.5152 35.8645 59.4993 35.9457C59.4596 36.0843 59.427 36.2247 59.4017 36.3666C59.3788 36.4348 59.3458 36.4993 59.304 36.5578C59.1986 36.7079 59.0169 36.8207 58.9935 37.0022C58.9929 37.0127 58.9929 37.0231 58.9935 37.0336C58.9742 37.0683 58.9613 37.1061 58.9554 37.1454C58.9484 37.2262 58.9657 37.3072 59.0052 37.3779C59.0111 37.3897 59.0179 37.4004 59.0247 37.4112C58.8949 37.6 58.789 37.8043 58.7093 38.0194C58.6732 38.0392 58.6383 38.0611 58.6049 38.0851L58.5756 38.1067V38.1665L58.559 38.1793L58.5228 39.1455L58.5433 39.1612C58.5729 39.6119 58.7083 40.0492 58.9384 40.4373C59.1686 40.8253 59.4869 41.1531 59.8674 41.3938C59.8801 41.4556 59.8918 41.5183 59.9036 41.5841C59.9572 41.9009 59.9814 42.2221 59.9758 42.5434H59.9592C59.5003 42.3472 58.7152 42.6356 58.0404 42.9721H49.299C51.004 40.7689 53.0897 39.0602 53.0897 39.0602V37.1238C51.5996 37.0493 38.509 43.3664 35.6391 44.7612L35.5121 44.823L20.7625 45.2821C18.0908 45.2654 15.7551 45.6598 13.7318 46.3023C10.3509 47.3691 7.31263 49.319 4.92792 51.9523C3.18589 53.873 2.42228 55.4601 2.42228 55.4601L2.43888 55.5935L2.42228 55.6278L2.44572 55.6484L2.84314 58.7991L3.11656 60.967C1.21633 62.201 3.67803 62.6954 3.67803 62.6954C6.02158 64.7141 9.79175 64.6307 9.79175 64.6307C10.7126 65.8931 13.393 65.7244 13.393 65.7244H27.4631C27.6822 64.4268 27.9756 63.1429 28.3419 61.8792C28.9424 66.2237 32.3552 69.552 36.474 69.552C36.7795 69.5518 37.0847 69.5331 37.388 69.496C37.6912 69.5331 37.9964 69.5518 38.3019 69.552C42.4686 69.552 45.9116 66.1452 46.4536 61.7282H47.142C47.0135 62.715 46.7901 63.6871 46.4751 64.6307C59.1214 60.9287 82.6555 59.1621 82.6555 59.1621C82.7531 58.2302 82.8605 57.3297 82.9767 56.4655C83.9464 58.8835 86.1444 60.5717 88.7028 60.5717C88.9352 60.5713 89.1674 60.5569 89.398 60.5285C89.6287 60.5569 89.8609 60.5713 90.0933 60.5717C93.1311 60.5717 95.6592 58.191 96.2295 55.0344C96.305 55.5915 96.348 56.1525 96.3584 56.7147C96.25 57.2503 96.1553 57.5926 96.1426 57.6407C96.2187 57.5007 96.291 57.3575 96.3593 57.211C96.3593 57.2679 96.3593 57.3268 96.3593 57.3856C96.3359 57.4837 96.3193 57.5387 96.3144 57.5573L96.3574 57.4769C96.3574 57.52 96.3574 57.5622 96.3574 57.6054C96.3476 57.6093 96.3994 57.468 96.4804 57.2258Z" fill="url(#paint0_linear_217_799)"/>
<path d="M95.0053 43.8677H66.0137V55.6161H95.0053V43.8677Z" fill="#6F7D95"/>
<path d="M58.6426 38.3657L62.7604 47.6325L70.9149 47.1361L71.244 43.3301L71.4911 38.8621L59.9608 38.0342L58.6426 38.3657Z" fill="#4B5C7A"/>
<path d="M58.6426 38.3657C58.6426 38.3657 60.2049 36.8766 62.1022 36.5451C63.9995 36.2135 70.3388 36.8757 70.3388 36.8757L71.245 38.4451L71.0751 39.1926L58.6426 38.3657Z" fill="#004B50"/>
<path d="M74.1673 43.123H44.9287V51.7276H74.1673V43.123Z" fill="#4B5C7A"/>
<path d="M66.9733 48.9771C67.7457 46.3826 66.2058 44.6778 66.2058 44.6778L63.6533 42.8886C63.6511 42.8946 63.6485 42.9005 63.6454 42.9062C63.3135 42.5154 63.0759 42.0528 62.9512 41.5545C62.9434 41.5231 62.9365 41.4908 62.9287 41.4564C63.1621 41.2823 63.3664 41.072 63.5341 40.8335C63.9501 40.5775 64.1356 40.1655 64.2059 39.7545C64.4735 39.3556 64.6867 38.9224 64.8397 38.4666C64.865 38.3929 64.8865 38.3179 64.9041 38.242C64.9533 38.1006 64.9752 37.9511 64.9686 37.8015C64.9478 37.6349 64.8926 37.4746 64.8065 37.3307C64.3768 36.546 63.6035 35.9996 62.8194 35.5542C62.5453 35.3889 62.2534 35.2553 61.9493 35.156C61.5797 35.049 61.1902 35.0303 60.8121 35.1015C60.434 35.1727 60.0777 35.3318 59.7718 35.566C59.6226 35.6738 59.5011 35.8157 59.4173 35.98C59.385 36.0546 59.3608 36.1326 59.345 36.2124C59.3071 36.3487 59.2762 36.4869 59.2523 36.6264C59.231 36.693 59.2001 36.7562 59.1605 36.8137C59.056 36.9609 58.8783 37.0717 58.8549 37.2512C58.8543 37.2617 58.8543 37.2722 58.8549 37.2826C58.836 37.3167 58.8234 37.3539 58.8177 37.3925C58.8105 37.4719 58.8276 37.5516 58.8666 37.621C58.8724 37.6328 58.8793 37.6436 58.8861 37.6544C58.7583 37.8401 58.654 38.0411 58.5756 38.2527C58.5398 38.2722 58.5052 38.2938 58.4721 38.3175L58.4438 38.3381V38.3969L58.4272 38.4097L58.391 39.3602L58.4106 39.3759C58.4394 39.8192 58.5724 40.2494 58.7986 40.6312C59.0249 41.0129 59.338 41.3354 59.7122 41.5722C59.7249 41.633 59.7366 41.6948 59.7474 41.7595C59.8063 42.1018 59.8299 42.4492 59.8177 42.7964C59.8138 42.7664 59.8138 42.7361 59.8177 42.7061C59.1117 42.3853 57.5718 43.2721 56.9517 43.6645C56.8577 43.7092 56.77 43.7663 56.691 43.8342L56.6802 43.842C56.2535 44.1893 55.4108 45.1545 54.7419 47.6352C53.8143 51.0969 53.911 51.8816 53.2352 52.684C52.5595 53.4864 51.8887 59.1394 51.8887 59.1394L53.2489 59.5073L53.4227 58.9462C55.0398 60.4273 59.5677 61.1405 59.5677 61.1405L59.7063 60.7079C60.4006 60.959 61.5617 60.5774 61.5617 60.5774C63.2588 59.9751 63.8945 58.4469 65.1258 56.4311C66.3571 54.4153 66.9733 48.9771 66.9733 48.9771ZM60.1282 59.4072L63.2627 49.6402C63.5468 51.1567 62.293 53.5452 62.1817 55.1069C62.1124 56.1113 60.9484 58.1075 60.1282 59.4072Z" fill="url(#paint1_linear_217_799)"/>
<path d="M64.0499 38.7003C64.0499 38.7003 64.5958 40.7886 62.9758 41.1526C61.3558 41.5165 62.4231 40.2138 62.4231 40.2138L63.9855 38.6846L64.0499 38.7003Z" fill="#472727"/>
<path d="M57.2769 43.6772C57.2769 43.6772 56.0719 44.1677 55.1863 47.4714C54.3006 50.7752 54.3885 51.5207 53.7509 52.2887C53.1132 53.0568 52.46 58.4459 52.46 58.4459L53.7352 58.7912L54.8455 55.1893L57.8989 45.6744L57.2769 43.6772Z" fill="#DDE0E4"/>
<path opacity="0.05" d="M57.2769 43.6772C57.2769 43.6772 56.0719 44.1677 55.1863 47.4714C54.3006 50.7752 54.3885 51.5207 53.7509 52.2887C53.1132 53.0568 52.46 58.4459 52.46 58.4459L53.7352 58.7912L54.8455 55.1893L57.8989 45.6744L57.2769 43.6772Z" fill="black"/>
<path d="M63.9679 43.3046C63.9679 43.3046 58.9235 45.8805 59.6617 44.2002C60.0269 43.3703 60.0132 42.5101 59.9068 41.846C59.846 41.4548 59.7395 41.0722 59.5894 40.7062C59.5894 40.7062 63.0188 37.9812 62.8176 40.2059C62.7695 40.6847 62.8025 41.1683 62.9153 41.6361C63.2121 42.8161 63.9679 43.3046 63.9679 43.3046Z" fill="#DB8B8B"/>
<path opacity="0.1" d="M62.9157 41.64C62.5913 41.9017 62.2099 42.0826 61.8026 42.1678C61.3952 42.2531 60.9736 42.2403 60.5722 42.1305C60.3374 42.067 60.1123 41.9717 59.9033 41.847C59.8425 41.4558 59.736 41.0732 59.5859 40.7071C59.5859 40.7071 63.0153 37.9822 62.8142 40.2069C62.767 40.6869 62.8013 41.1715 62.9157 41.64Z" fill="black"/>
<path d="M63.8482 40.1271C64.2273 38.7126 63.3932 37.2572 61.9851 36.8763C60.577 36.4955 59.1281 37.3334 58.749 38.7479C58.3699 40.1624 59.204 41.6178 60.6121 41.9987C62.0202 42.3796 63.469 41.5416 63.8482 40.1271Z" fill="#DB8B8B"/>
<path opacity="0.1" d="M59.9722 38.1439C59.8998 38.1884 59.8192 38.2177 59.7352 38.23C59.6512 38.2424 59.5656 38.2376 59.4835 38.2158C59.4014 38.1941 59.3245 38.156 59.2575 38.1037C59.1905 38.0513 59.1346 37.986 59.0934 37.9114C59.0572 37.845 59.0415 37.7691 59.0485 37.6937C59.0709 37.523 59.2389 37.4171 59.3414 37.2758C59.5006 37.0472 59.4703 36.7343 59.5855 36.4803C59.6649 36.3251 59.7792 36.1907 59.9195 36.0879C60.2049 35.8638 60.539 35.7107 60.8945 35.6412C61.2501 35.5716 61.617 35.5875 61.9652 35.6877C62.2501 35.7811 62.5234 35.9071 62.7796 36.0634C63.5139 36.4842 64.2375 36.9992 64.6349 37.7476C64.7154 37.885 64.7666 38.0376 64.7853 38.1959C64.7897 38.3669 64.7598 38.537 64.6974 38.6962C64.5505 39.1358 64.3459 39.5537 64.0891 39.939C64.0031 39.8318 63.8952 39.7445 63.7727 39.683C63.7108 39.6536 63.6413 39.6445 63.574 39.657C63.5067 39.6695 63.445 39.703 63.3977 39.7526C63.3128 39.8615 63.261 40.0694 63.1321 40.0204C63.0481 39.989 63.0491 39.8723 63.053 39.782C63.0706 39.3897 62.8577 39.0199 62.5716 38.755C62.2855 38.4902 61.931 38.3156 61.5815 38.1439C61.3305 38.0203 60.9956 37.7368 60.7202 37.6868C60.3784 37.623 60.2173 37.9919 59.9722 38.1439Z" fill="black"/>
<path d="M60.0084 38.0096C59.9359 38.0541 59.8553 38.0834 59.7713 38.0957C59.6873 38.1081 59.6017 38.1033 59.5196 38.0816C59.4375 38.0598 59.3607 38.0217 59.2936 37.9694C59.2266 37.9171 59.1708 37.8517 59.1295 37.7772C59.0933 37.7107 59.0777 37.6349 59.0846 37.5594C59.1071 37.3887 59.275 37.2828 59.3776 37.1415C59.5367 36.913 59.5065 36.6001 59.6217 36.346C59.701 36.1908 59.8154 36.0565 59.9556 35.9536C60.241 35.7295 60.5751 35.5764 60.9307 35.5069C61.2862 35.4373 61.6531 35.4533 62.0014 35.5534C62.2863 35.6468 62.5595 35.7729 62.8157 35.9291C63.55 36.3499 64.2736 36.8649 64.671 37.6133C64.7516 37.7507 64.8028 37.9033 64.8214 38.0616C64.8258 38.2326 64.7959 38.4027 64.7335 38.5619C64.5867 39.0015 64.3821 39.4195 64.1252 39.8047C64.0393 39.6975 63.9314 39.6102 63.8088 39.5487C63.7469 39.5193 63.6774 39.5102 63.6101 39.5227C63.5428 39.5352 63.4812 39.5687 63.4338 39.6183C63.3489 39.7272 63.2971 39.9352 63.1682 39.8861C63.0843 39.8547 63.0852 39.738 63.0891 39.6478C63.1067 39.2554 62.8938 38.8856 62.6077 38.6207C62.3216 38.3559 61.9672 38.1813 61.6176 38.0096C61.3666 37.886 61.0317 37.6026 60.7563 37.5525C60.4146 37.4878 60.2535 37.8576 60.0084 38.0096Z" fill="#472727"/>
<path d="M61.3909 43.6556C61.3909 43.6556 63.4796 43.2446 63.5704 42.9082L65.9589 44.6022C65.9589 44.6022 67.3962 46.2198 66.6609 48.6956C66.6609 48.6956 66.0624 53.8837 64.8984 55.8092C63.7344 57.7347 63.0656 60.2292 61.471 60.8119C61.471 60.8119 59.9379 59.8192 59.4321 59.831C59.4321 59.831 62.0285 56.0515 62.1399 54.5634C62.2512 53.0754 63.4376 50.7938 63.1779 49.3499L59.6625 60.3263C59.6625 60.3263 53.999 59.4435 53.4248 57.5552C53.4248 57.5552 53.913 56.8186 53.8222 56.0721C53.7314 55.3256 55.9588 49.7099 55.9588 49.7099L57.0251 43.8538C57.0251 43.8538 59.1343 42.3736 59.974 42.7581C59.9701 42.7522 59.8178 43.483 61.3909 43.6556Z" fill="#DDE0E4"/>
<g opacity="0.1">
<path d="M62.152 39.1021C61.6365 38.3958 60.6531 38.9755 60.492 39.0766L60.2391 39.0511C60.0184 38.8098 59.3417 38.1682 58.7061 38.6401L58.6787 38.6607L58.6406 39.566L58.668 39.5876C58.8516 39.73 59.0598 39.8371 59.2822 39.9035C59.423 39.945 59.5715 39.9524 59.7157 39.9251C59.8224 39.9003 59.9224 39.8524 60.0086 39.7846C60.0948 39.7168 60.1652 39.6308 60.2147 39.5327L60.3465 39.5415L60.4442 39.5229C60.4637 39.6272 60.5052 39.7261 60.5658 39.8131C60.6264 39.9 60.7048 39.973 60.7957 40.0271C61.2322 40.2752 61.8698 40.0271 61.8962 40.0222L61.9294 40.0094L62.1638 39.1335L62.152 39.1021ZM61.821 39.8986C61.6911 39.9427 61.201 40.0879 60.8719 39.8986C60.7899 39.847 60.7209 39.7772 60.6701 39.6945C60.6193 39.6118 60.5881 39.5185 60.5789 39.4218L60.5672 39.3502L60.3534 39.3944L60.1385 39.3865L60.118 39.4277C60.0788 39.5168 60.0198 39.5957 59.9455 39.6583C59.8712 39.7209 59.7836 39.7655 59.6894 39.7887C59.3212 39.8682 58.8955 39.5817 58.7842 39.5003L58.8164 38.7352C59.3691 38.3615 59.9784 38.9677 60.1542 39.1658L60.1727 39.1864L60.5291 39.2217L60.5506 39.207C60.5604 39.2011 61.446 38.6038 61.9509 39.0844C61.9759 39.1077 61.9991 39.133 62.0202 39.1599L61.821 39.8986Z" fill="black"/>
<path d="M63.7518 39.5573L62.0918 39.419L61.9551 39.3925L62.0166 39.161C61.9955 39.134 61.9723 39.1088 61.9473 39.0854L62.1484 39.1051L63.5067 39.2385L63.7518 39.5573Z" fill="black"/>
</g>
<path d="M62.1696 39.0396C61.654 38.3333 60.6707 38.913 60.5096 39.0141L60.2567 38.9886C60.036 38.7473 59.3593 38.1057 58.7236 38.5776L58.6963 38.5982L58.6582 39.5035L58.6855 39.5251C58.8692 39.6675 59.0774 39.7746 59.2997 39.841C59.4405 39.8825 59.5891 39.8899 59.7333 39.8626C59.84 39.8378 59.94 39.7899 60.0262 39.7221C60.1124 39.6543 60.1828 39.5683 60.2323 39.4702L60.3641 39.479L60.4618 39.4604C60.4813 39.5647 60.5228 39.6636 60.5834 39.7506C60.644 39.8375 60.7224 39.9105 60.8133 39.9646C61.2498 40.2127 61.8874 39.9646 61.9138 39.9597L61.947 39.9469L62.1813 39.071L62.1696 39.0396ZM61.8386 39.8361C61.7087 39.8802 61.2185 40.0254 60.8895 39.8361C60.8075 39.7845 60.7385 39.7147 60.6877 39.632C60.6369 39.5493 60.6057 39.456 60.5965 39.3593L60.5848 39.2877L60.3709 39.3319L60.159 39.3181L60.1385 39.3593C60.1 39.449 60.0415 39.5285 59.9675 39.5918C59.8935 39.655 59.806 39.7004 59.7118 39.7242C59.3437 39.8037 58.9179 39.5173 58.8066 39.4359L58.8388 38.6707C59.3915 38.297 60.0009 38.9032 60.1766 39.1014L60.1952 39.122L60.5516 39.1573L60.5731 39.1426C60.5828 39.1367 61.4685 38.5393 61.9733 39.0199C61.9984 39.0433 62.0216 39.0685 62.0427 39.0955L61.8386 39.8361Z" fill="#472727"/>
<path d="M63.7664 39.4948L62.1123 39.3565L61.9756 39.33L62.0371 39.0985C62.016 39.0715 61.9928 39.0463 61.9678 39.0229L62.1689 39.0426L63.5272 39.176L63.7664 39.4948Z" fill="#472727"/>
<path d="M52.4232 49.8247H23.4316V61.5731H52.4232V49.8247Z" fill="#6F7D95"/>
<path d="M36.6995 69.2674C41.1675 69.2674 44.7896 65.2855 44.7896 60.3735C44.7896 55.4615 41.1675 51.4795 36.6995 51.4795C32.2314 51.4795 28.6094 55.4615 28.6094 60.3735C28.6094 65.2855 32.2314 69.2674 36.6995 69.2674Z" fill="#4B5C7A"/>
<path opacity="0.05" d="M36.6995 69.2674C41.1675 69.2674 44.7896 65.2855 44.7896 60.3735C44.7896 55.4615 41.1675 51.4795 36.6995 51.4795C32.2314 51.4795 28.6094 55.4615 28.6094 60.3735C28.6094 65.2855 32.2314 69.2674 36.6995 69.2674Z" fill="black"/>
<path d="M38.4973 69.2674C42.9654 69.2674 46.5874 65.2855 46.5874 60.3735C46.5874 55.4615 42.9654 51.4795 38.4973 51.4795C34.0293 51.4795 30.4072 55.4615 30.4072 60.3735C30.4072 65.2855 34.0293 69.2674 38.4973 69.2674Z" fill="#4B5C7A"/>
<path opacity="0.05" d="M38.318 64.0301C40.3037 64.0301 41.9134 62.4131 41.9134 60.4184C41.9134 58.4237 40.3037 56.8066 38.318 56.8066C36.3324 56.8066 34.7227 58.4237 34.7227 60.4184C34.7227 62.4131 36.3324 64.0301 38.318 64.0301Z" fill="black"/>
<path d="M38.3183 61.5023C38.9142 61.5023 39.3973 61.017 39.3973 60.4184C39.3973 59.8198 38.9142 59.3345 38.3183 59.3345C37.7223 59.3345 37.2393 59.8198 37.2393 60.4184C37.2393 61.017 37.7223 61.5023 38.3183 61.5023Z" stroke="#6F7D95" stroke-width="2" stroke-miterlimit="10"/>
<path d="M38.3183 58.7934C38.4672 58.7934 38.5878 58.6722 38.5878 58.5227C38.5878 58.3732 38.4672 58.252 38.3183 58.252C38.1695 58.252 38.0488 58.3732 38.0488 58.5227C38.0488 58.6722 38.1695 58.7934 38.3183 58.7934Z" fill="#6F7D95"/>
<path d="M39.966 59.2525C40.08 59.1564 40.0949 58.9856 39.9992 58.8711C39.9036 58.7565 39.7336 58.7416 39.6195 58.8377C39.5055 58.9338 39.4906 59.1046 39.5863 59.2191C39.682 59.3337 39.852 59.3486 39.966 59.2525Z" fill="#6F7D95"/>
<path d="M40.6099 60.5637C40.6357 60.4165 40.5378 60.2761 40.3912 60.2501C40.2447 60.2241 40.1049 60.3225 40.079 60.4697C40.0532 60.617 40.1511 60.7574 40.2976 60.7833C40.4442 60.8093 40.584 60.711 40.6099 60.5637Z" fill="#6F7D95"/>
<path d="M39.708 62.1207C39.8369 62.0459 39.8811 61.8803 39.8066 61.7508C39.7322 61.6213 39.5674 61.577 39.4385 61.6517C39.3096 61.7265 39.2654 61.8921 39.3398 62.0216C39.4143 62.1511 39.5791 62.1954 39.708 62.1207Z" fill="#6F7D95"/>
<path d="M38.2891 62.2672C38.34 62.1267 38.2679 61.9713 38.128 61.9202C37.9882 61.8691 37.8335 61.9415 37.7826 62.082C37.7317 62.2225 37.8038 62.3779 37.9437 62.429C38.0836 62.4802 38.2382 62.4077 38.2891 62.2672Z" fill="#6F7D95"/>
<path d="M36.9191 61.4313C37.0589 61.3802 37.131 61.2248 37.0801 61.0843C37.0292 60.9438 36.8746 60.8714 36.7347 60.9225C36.5948 60.9737 36.5227 61.129 36.5736 61.2695C36.6245 61.41 36.7792 61.4825 36.9191 61.4313Z" fill="#6F7D95"/>
<path d="M37.0449 59.7399C37.1193 59.6104 37.0752 59.4448 36.9463 59.3701C36.8174 59.2953 36.6525 59.3397 36.5781 59.4692C36.5037 59.5986 36.5479 59.7642 36.6768 59.839C36.8057 59.9137 36.9705 59.8694 37.0449 59.7399Z" fill="#6F7D95"/>
<path d="M96.6283 53.5001C96.3519 55.4168 95.5834 57.515 95.5834 57.515C95.5886 57.3842 95.5919 57.2551 95.5932 57.1276C95.5932 56.9628 95.5932 56.7999 95.5932 56.6371C95.4955 51.3539 92.6296 48.0943 90.7811 46.5337C90.3007 46.1224 89.7839 45.756 89.2373 45.439H94.2613C94.2613 45.439 96.2377 49.4931 96.6497 51.4785C96.7689 52.0356 96.7357 52.7546 96.6283 53.5001Z" fill="#004B50"/>
<path opacity="0.05" d="M96.6283 53.5001C96.3519 55.4168 95.5834 57.515 95.5834 57.515C95.5886 57.3842 95.5919 57.2551 95.5932 57.1276C95.5932 56.9628 95.5932 56.7999 95.5932 56.6371C95.4955 51.3539 92.6296 48.0943 90.7811 46.5337C90.3007 46.1224 89.7839 45.756 89.2373 45.439H94.2613C94.2613 45.439 96.2377 49.4931 96.6497 51.4785C96.7689 52.0356 96.7357 52.7546 96.6283 53.5001Z" fill="black"/>
<path d="M88.0629 60.436C91.461 60.436 94.2157 57.4075 94.2157 53.6716C94.2157 49.9358 91.461 46.9072 88.0629 46.9072C84.6649 46.9072 81.9102 49.9358 81.9102 53.6716C81.9102 57.4075 84.6649 60.436 88.0629 60.436Z" fill="#4B5C7A"/>
<path opacity="0.05" d="M88.0629 60.436C91.461 60.436 94.2157 57.4075 94.2157 53.6716C94.2157 49.9358 91.461 46.9072 88.0629 46.9072C84.6649 46.9072 81.9102 49.9358 81.9102 53.6716C81.9102 57.4075 84.6649 60.436 88.0629 60.436Z" fill="black"/>
<path d="M89.4301 60.436C92.8282 60.436 95.5829 57.4075 95.5829 53.6716C95.5829 49.9358 92.8282 46.9072 89.4301 46.9072C86.032 46.9072 83.2773 49.9358 83.2773 53.6716C83.2773 57.4075 86.032 60.436 89.4301 60.436Z" fill="#4B5C7A"/>
<path opacity="0.05" d="M89.2927 56.4526C90.8027 56.4526 92.0269 55.2229 92.0269 53.706C92.0269 52.1892 90.8027 50.9595 89.2927 50.9595C87.7827 50.9595 86.5586 52.1892 86.5586 53.706C86.5586 55.2229 87.7827 56.4526 89.2927 56.4526Z" fill="black"/>
<path d="M89.2929 54.5303C89.7459 54.5303 90.1131 54.1614 90.1131 53.7063C90.1131 53.2512 89.7459 52.8823 89.2929 52.8823C88.8399 52.8823 88.4727 53.2512 88.4727 53.7063C88.4727 54.1614 88.8399 54.5303 89.2929 54.5303Z" stroke="#6F7D95" stroke-width="2" stroke-miterlimit="10"/>
<path d="M89.2929 52.4701C89.4062 52.4701 89.498 52.3779 89.498 52.2641C89.498 52.1503 89.4062 52.0581 89.2929 52.0581C89.1797 52.0581 89.0879 52.1503 89.0879 52.2641C89.0879 52.3779 89.1797 52.4701 89.2929 52.4701Z" fill="#6F7D95"/>
<path d="M90.5467 52.8194C90.6334 52.7463 90.6448 52.6164 90.572 52.5292C90.4992 52.4421 90.3698 52.4307 90.2831 52.5038C90.1963 52.5769 90.185 52.7069 90.2578 52.794C90.3306 52.8812 90.4599 52.8925 90.5467 52.8194Z" fill="#6F7D95"/>
<path d="M91.0362 53.8174C91.0558 53.7054 90.9814 53.5985 90.8698 53.5788C90.7583 53.559 90.652 53.6338 90.6323 53.7459C90.6126 53.8579 90.6871 53.9647 90.7986 53.9845C90.9102 54.0043 91.0165 53.9294 91.0362 53.8174Z" fill="#6F7D95"/>
<path d="M90.3514 55.0014C90.4495 54.9445 90.4831 54.8185 90.4265 54.72C90.3698 54.6214 90.2444 54.5877 90.1463 54.6446C90.0483 54.7014 90.0147 54.8274 90.0713 54.926C90.1279 55.0245 90.2533 55.0582 90.3514 55.0014Z" fill="#6F7D95"/>
<path d="M89.2719 55.1124C89.3107 55.0055 89.2558 54.8873 89.1494 54.8484C89.0429 54.8094 88.9253 54.8646 88.8865 54.9715C88.8478 55.0784 88.9027 55.1966 89.0091 55.2355C89.1155 55.2744 89.2332 55.2193 89.2719 55.1124Z" fill="#6F7D95"/>
<path d="M88.2294 54.4759C88.3359 54.437 88.3907 54.3187 88.352 54.2118C88.3133 54.1049 88.1956 54.0498 88.0892 54.0887C87.9828 54.1276 87.9279 54.2458 87.9666 54.3527C88.0054 54.4597 88.123 54.5148 88.2294 54.4759Z" fill="#6F7D95"/>
<path d="M88.3259 53.1897C88.3825 53.0912 88.3489 52.9652 88.2508 52.9083C88.1527 52.8514 88.0273 52.8852 87.9707 52.9837C87.9141 53.0822 87.9477 53.2082 88.0458 53.2651C88.1438 53.322 88.2692 53.2882 88.3259 53.1897Z" fill="#6F7D95"/>
<path d="M3.95404 61.2839L3.20996 55.4092H12.0227L16.5525 59.4633L14.3291 64.6759C14.3291 64.6759 5.35821 63.1869 3.95404 61.2839Z" fill="#004B50"/>
<path opacity="0.05" d="M16.5555 59.4633L14.332 64.6759C14.332 64.6759 5.35821 63.1869 3.95404 61.2839L3.92181 61.0279L3.23828 55.5956L3.23144 55.5416L3.21484 55.4102H12.0275L16.5555 59.4633Z" fill="black"/>
<path d="M53.0424 37.3727V39.2757C53.0424 39.2757 48.4881 43.0032 47.4042 46.5198C47.215 47.0908 47.1436 47.6946 47.1943 48.2943C47.6063 52.1826 35.3359 45.1494 35.3359 45.1494L35.8818 44.8826C38.7028 43.5162 51.5767 37.2982 53.0424 37.3727Z" fill="#7597CE"/>
<path d="M63.4199 46.5573C63.4199 46.5573 67.6852 44.4523 68.3697 42.8946C68.4615 42.6856 68.5484 42.4748 68.6499 42.2697C69.0727 41.4154 69.9613 39.4113 69.5141 38.4491C68.938 37.2082 70.9144 38.6148 70.9144 38.6148L69.7612 44.4876L66.9606 46.0571L63.3369 46.5573" fill="#004B50"/>
<path opacity="0.05" d="M63.4199 46.5573C63.4199 46.5573 67.6852 44.4523 68.3697 42.8946C68.4615 42.6856 68.5484 42.4748 68.6499 42.2697C69.0727 41.4154 69.9613 39.4113 69.5141 38.4491C68.938 37.2082 70.9144 38.6148 70.9144 38.6148L69.7612 44.4876L66.9606 46.0571L63.3369 46.5573" fill="#004B50"/>
<path opacity="0.05" d="M16.5555 59.4633L14.332 64.6759C14.332 64.6759 5.35821 63.1869 3.95404 61.2839L3.92181 61.0279C3.95794 61.0033 3.99603 60.9778 4.03606 60.9533C4.03606 60.9533 6.75359 63.1045 12.9318 63.6018C12.9318 63.6018 16.6424 60.6227 10.6253 57.3141C10.6253 57.3141 5.39141 57.4789 3.23535 55.5965L3.21191 55.5769L3.22851 55.5426C3.24284 55.5145 3.26595 55.4706 3.29784 55.4111H12.0246L16.5555 59.4633Z" fill="black"/>
<path opacity="0.05" d="M47.1943 48.2935C47.6063 52.1828 35.3359 45.1496 35.3359 45.1496L35.8818 44.8828C36.2431 45.2693 37.6853 46.5729 40.5689 46.4317C42.4242 46.3405 45.2413 46.4238 47.4091 46.519C47.2183 47.0897 47.1452 47.6935 47.1943 48.2935Z" fill="black"/>
<path opacity="0.05" d="M52.4242 49.8247V61.5731H47.038C47.3934 58.8403 47.1883 54.8568 43.7336 52.5732C42.445 51.7272 40.9489 51.2551 39.4102 51.209C37.8715 51.163 36.35 51.5448 35.0136 52.3123C32.7492 53.611 30.2172 56.2517 28.6079 61.5731H23.4326V49.8247H52.4242Z" fill="black"/>
<path opacity="0.05" d="M96.6283 53.5001C96.4251 54.7969 96.099 56.0564 95.5942 57.1295C95.5291 57.2741 95.4581 57.415 95.3813 57.5523C95.394 57.5042 95.4868 57.1688 95.5942 56.641C96.1176 54.071 97.013 46.9594 91.0135 46.5533C90.9354 46.5484 90.8583 46.5435 90.7811 46.5405C90.301 46.1269 89.7842 45.7582 89.2373 45.439H94.2613C94.2613 45.439 96.2377 49.4931 96.6497 51.4785C96.7689 52.0356 96.7357 52.7546 96.6283 53.5001Z" fill="black"/>
<path d="M95.5444 57.4719C95.6226 57.1884 98.4055 46.9633 91.1767 46.4738C83.8463 45.9775 82.9401 51.5207 82.1169 59.0502C82.1169 59.0502 58.9744 60.7874 46.5361 64.4286C46.5361 64.4286 49.5221 56.2085 43.8996 52.4908C42.611 51.6447 41.1149 51.1726 39.5762 51.1266C38.0375 51.0805 36.516 51.4623 35.1796 52.2299C32.4064 53.8209 29.23 57.4287 27.8404 65.5036H14.0018C14.0018 65.5036 11.3653 65.6694 10.4601 64.4246C10.4601 64.4246 6.74951 64.507 4.44795 62.5216C4.44795 62.5216 1.97747 62.0253 3.95385 60.7844C3.95385 60.7844 6.75439 62.9356 12.9316 63.4329C12.9316 63.4329 16.6422 60.4539 10.6251 57.1452C10.6251 57.1452 5.35217 57.311 3.21271 55.408C3.21271 55.408 3.96362 53.8474 5.67734 51.9591C8.02128 49.3691 11.0079 47.4507 14.3319 46.4003C16.5716 45.7047 18.9061 45.3664 21.2502 45.3978L35.787 44.9426C35.787 44.9426 37.1912 46.7632 40.5639 46.5974C43.9367 46.4317 50.5298 46.8456 50.5298 46.8456H50.5953L64.1605 46.2286C64.55 46.1734 64.9353 46.0914 65.3137 45.9834C67.2803 45.4468 71.0105 43.8195 70.3377 39.2749L91.6698 40.5991C92.4738 40.6363 93.2725 40.7496 94.0553 40.9376C95.1509 41.2201 96.1528 41.736 95.8706 42.6679C95.2945 44.5709 96.8588 44.819 96.8588 44.819C96.8588 44.819 96.892 45.0731 96.933 45.5145C97.1283 47.596 97.512 53.8543 95.5444 57.4719Z" fill="#007867"/>
<path opacity="0.05" d="M30.3102 48.377C30.3102 48.377 21.4145 48.4594 15.5654 53.6739H18.8601C18.8601 53.6739 28.0848 51.2746 30.3083 49.3716L30.3102 48.377Z" fill="black"/>
<path d="M30.2272 48.2935C30.2272 48.2935 21.3315 48.3759 15.4824 53.5904H18.7771C18.7771 53.5904 28.0018 51.1911 30.2253 49.2881L30.2272 48.2935Z" fill="#FFEC9F"/>
<path opacity="0.05" d="M14.4143 46.4839V48.7076L6.9208 52.183L5.76074 52.0427C8.10442 49.4528 11.0907 47.5345 14.4143 46.4839Z" fill="black"/>
<path d="M14.3313 46.4014V48.6251L6.83681 52.0995L5.67676 51.9592C8.02082 49.3695 11.0074 47.4515 14.3313 46.4014Z" fill="#FFEC9F"/>
<path opacity="0.05" d="M24.9557 56.4854C24.9557 56.4854 20.9199 58.9671 20.5078 64.4308H22.8142C22.8142 64.4308 23.7204 58.4737 26.3559 56.4854H24.9557Z" fill="black"/>
<path opacity="0.05" d="M72.6449 56.6509L51.7238 59.1326C51.7238 59.1326 50.3402 50.2848 50.596 46.8427L64.1612 46.2257C64.5503 46.1714 64.9353 46.0905 65.3135 45.9834V46.8045L75.5264 44.3228C75.5264 44.3228 77.2568 46.8869 72.6449 56.6509Z" fill="black"/>
<path d="M70.3389 36.8757C70.3389 36.8757 74.7867 36.297 76.7631 40.1029L70.4023 39.8567L70.3389 36.8757Z" fill="#004B50"/>
<path opacity="0.05" d="M76.4546 41.437C76.2798 41.9873 76.4117 42.5925 77.4243 43.0114C78.267 43.3606 79.2552 42.9565 79.5432 42.0883C79.7112 41.5822 79.596 41.0093 78.6878 40.5434C77.7797 40.0775 76.7603 40.4757 76.4546 41.437Z" fill="black"/>
<path d="M3.36914 56.6489C3.36914 56.6489 8.64797 59.3955 12.4367 58.3557" stroke="#007867" stroke-miterlimit="10"/>
<path d="M3.55566 58.1318C3.55566 58.1318 6.9665 60.7744 13.8604 60.1604" stroke="#007867" stroke-miterlimit="10"/>
<path d="M3.71289 59.377C3.71289 59.377 7.09638 62.3266 14.0489 61.3918" stroke="#007867" stroke-miterlimit="10"/>
<path opacity="0.05" d="M76.5083 39.6587C76.5083 39.6587 73.7566 42.0453 71.2451 43.1243C71.2451 43.1243 75.0592 43.806 76.5083 39.6587Z" fill="black"/>
<path opacity="0.1" d="M47.3564 46.6827C47.3564 46.6827 60.4139 47.9216 65.3549 46.7631C65.3549 46.7631 65.6185 46.9387 64.0454 46.2305L47.3564 46.6827Z" fill="black"/>
<path opacity="0.05" d="M96.9343 45.5145C96.1209 44.9779 94.831 43.8646 95.0068 42.6257C95.0946 42.0047 94.6572 41.424 94.0566 40.9365C95.1522 41.219 96.1541 41.735 95.8719 42.6669C95.2958 44.5698 96.8601 44.818 96.8601 44.818C96.8601 44.818 96.8923 45.073 96.9343 45.5145Z" fill="black"/>
<path d="M31.3063 54.1506C31.3141 53.823 31.3063 53.4826 31.2819 53.1697C31.2819 53.1099 31.2721 53.052 31.2663 52.9951C31.4499 53.1344 31.5592 53.2403 31.5592 53.2403L31.3981 44.7221L30.5095 40.2599C30.5095 37.0954 28.8134 36.2038 28.8134 36.2038C28.8134 36.2038 27.9248 35.7977 27.6826 35.2307C27.4404 34.6637 25.2941 33.4651 25.2932 33.4651C25.2762 33.2585 25.2696 33.0513 25.2736 32.8441C25.2736 32.7902 25.2736 32.7343 25.2785 32.6784C25.8166 32.32 26.2069 31.7776 26.377 31.1519C26.547 30.5263 26.4853 29.8599 26.2032 29.2765C26.3224 29.2765 26.419 29.2265 26.464 29.049C26.6065 28.4869 26.4688 27.6404 26.1447 27.1911C26.0753 27.0971 25.9972 27.0101 25.9113 26.9312C25.8107 26.8298 25.7047 26.7338 25.5939 26.6438C25.3166 26.4123 25.008 26.169 24.6643 26.1886C24.4693 26.2142 24.282 26.2811 24.1146 26.3848C23.2559 26.8386 22.3995 27.2964 21.5454 27.7581C21.23 27.9297 20.9049 28.1102 20.6842 28.4182C20.4635 28.7262 20.3747 29.1206 20.3131 29.508C20.2614 29.7705 20.2492 30.0394 20.277 30.3055C20.3028 30.5477 20.4132 30.7729 20.5885 30.9412C20.6239 30.9841 20.6642 31.0226 20.7086 31.0559C20.8824 31.1834 21.106 31.2148 21.2877 31.3178C21.425 31.7183 21.6549 32.0804 21.9585 32.3743C21.9585 32.4243 21.9517 32.4724 21.9478 32.5273C21.937 32.6676 21.9204 32.8216 21.8989 32.9775C21.8989 32.9775 21.3023 32.9618 20.4137 34.1782C19.5251 35.3945 17.5868 35.5573 17.5868 35.5573C17.5868 35.5573 16.8603 35.2327 16.0528 38.8836C15.2452 42.5346 15.0031 44.9653 15.4063 45.3734C15.5776 45.5219 15.7706 45.6429 15.9786 45.7324C16.6631 46.0795 17.3997 46.3115 18.159 46.419C18.1687 46.4483 18.1851 46.4748 18.2069 46.4965L18.2645 47.2038C18.3133 48.6967 18.37 51.6915 18.0692 52.3555C17.6649 53.2482 18.1502 53.8161 18.1502 53.8161L18.2479 53.8093C18.2659 53.8401 18.2862 53.8696 18.3084 53.8975L18.699 53.8711C18.6707 55.5386 18.5945 57.8516 18.3934 58.3597C18.0702 59.171 18.3934 63.6332 18.3934 63.6332L17.828 71.6649C17.828 71.6649 17.5185 75.8573 17.8085 76.3429C17.6503 77.2149 17.3661 78.8766 17.4247 79.2905C17.5058 79.8585 19.363 80.6697 19.363 80.6697C19.363 80.6697 21.5435 81.1602 22.5932 80.9944C23.142 80.9091 23.3597 80.5363 23.3617 80.2097C24.0735 80.3244 25.0002 80.4343 25.5812 80.344C26.6309 80.1822 26.4698 78.9649 25.9044 79.0463C25.3391 79.1277 24.6926 77.9859 24.2122 77.418C23.9681 77.1315 23.765 76.6195 23.6263 76.181C23.7285 76.1656 23.8222 76.1154 23.8919 76.0388C24.1341 75.6327 24.5384 71.9013 24.5384 71.9013L25.5881 65.4116C25.5881 65.4116 26.1534 62.2471 26.6378 61.5173C27.004 60.966 27.4619 56.8521 27.6641 54.8706H27.6816H27.6875L27.709 54.801L28.0127 53.8161C28.1748 54.1035 28.5829 54.2458 29.0585 54.3066C29.0077 54.5145 28.9657 54.6842 28.9413 54.7814C28.8202 55.2718 30.5857 56.0791 31.0114 55.674C31.1901 55.5043 31.2829 54.8893 31.3044 54.2163H31.319L31.3063 54.1506ZM20.6959 76.2742C20.6686 76.4322 20.6412 76.5969 20.6139 76.7647C20.5524 76.5685 20.5036 76.3919 20.4704 76.2615C20.5504 76.2644 20.6256 76.2683 20.6959 76.2742Z" fill="url(#paint2_linear_217_799)"/>
<path d="M23.4037 74.5831C23.4037 74.5831 23.7152 75.9897 24.1849 76.5361C24.6546 77.0825 25.2737 78.1762 25.8176 78.0987C26.3615 78.0212 26.5177 79.1924 25.5061 79.3484C24.4944 79.5043 22.395 79.0355 22.395 79.0355C22.395 79.0355 20.6061 78.2507 20.529 77.7073C20.4518 77.1639 20.9957 74.3477 20.9957 74.3477L23.4037 74.5831Z" fill="#53526B"/>
<path opacity="0.05" d="M23.4037 74.5831C23.4037 74.5831 23.7152 75.9897 24.1849 76.5361C24.6546 77.0825 25.2737 78.1762 25.8176 78.0987C26.3615 78.0212 26.5177 79.1924 25.5061 79.3484C24.4944 79.5043 22.395 79.0355 22.395 79.0355C22.395 79.0355 20.6061 78.2507 20.529 77.7073C20.4518 77.1639 20.9957 74.3477 20.9957 74.3477L23.4037 74.5831Z" fill="black"/>
<path d="M20.5258 75.2081C20.5258 75.2081 20.8373 76.6147 21.307 77.1611C21.7767 77.7074 22.3957 78.8012 22.9396 78.7237C23.4835 78.6462 23.6398 79.8174 22.6281 79.9734C21.6165 80.1293 19.5171 79.6614 19.5171 79.6614C19.5171 79.6614 17.7282 78.8767 17.651 78.3333C17.5739 77.7898 18.1178 74.9736 18.1178 74.9736L20.5258 75.2081Z" fill="#53526B"/>
<path d="M27.6029 53.8022C27.6029 53.8022 26.9809 60.5205 26.5141 61.2239C26.0474 61.9272 25.5035 64.9739 25.5035 64.9739L24.4928 71.2233C24.4928 71.2233 24.1022 74.8174 23.8708 75.2078C23.6394 75.5982 20.7529 75.4305 20.7529 75.4305L22.5438 54.74L27.6029 53.8022Z" fill="#5F5D7E"/>
<path opacity="0.05" d="M27.6029 53.8022C27.6029 53.8022 26.9809 60.5205 26.5141 61.2239C26.0474 61.9272 25.5035 64.9739 25.5035 64.9739L24.4928 71.2233C24.4928 71.2233 24.1022 74.8174 23.8708 75.2078C23.6394 75.5982 20.7529 75.4305 20.7529 75.4305L22.5438 54.74L27.6029 53.8022Z" fill="black"/>
<path d="M28.8475 50.5996L28.6443 51.248L27.5458 54.7508L27.5243 54.8176H27.5185C27.371 54.8509 24.258 55.5699 23.5862 55.7906C23.55 55.8019 23.5144 55.8153 23.4798 55.8308C23.1683 55.9868 22.7796 61.6114 22.7796 61.6114C22.7796 61.6114 22.5462 66.924 22.389 67.3144C22.2318 67.7048 21.6079 75.7503 21.2221 75.5169C20.8364 75.2834 18.034 75.5169 18.034 75.5169C17.7225 75.2039 18.034 70.986 18.034 70.986L18.5778 63.2515C18.5778 63.2515 18.2664 58.9551 18.5778 58.1733C18.8893 57.3915 18.8893 52.1583 18.8893 52.1583L25.2589 51.1676L25.8741 51.0695L28.8475 50.5996Z" fill="#5F5D7E"/>
<path opacity="0.02" d="M28.6441 51.248L27.5455 54.7509L27.5192 54.8195C27.3717 54.8529 24.2587 55.5719 23.5869 55.7926H23.5195L25.2586 51.1676L25.3084 51.0342L25.8738 51.0705L28.6441 51.248Z" fill="black"/>
<path opacity="0.1" d="M21.3808 34.9756C21.3808 34.9756 24.2585 38.1008 26.0474 35.522L27.7582 36.6942L27.4467 38.4912L28.4573 52.0847C28.4573 52.0847 25.813 52.0063 23.947 52.6311C23.4272 52.8163 22.8657 52.8485 22.3284 52.7239C21.791 52.5993 21.3004 52.3231 20.914 51.9278L21.2255 39.9753L20.5254 36.3037L21.3808 34.9756Z" fill="black"/>
<path d="M21.3808 34.7412C21.3808 34.7412 24.2585 37.8664 26.0474 35.2876L27.7582 36.4598L27.4467 38.2568L28.4583 51.8543C28.4583 51.8543 25.814 51.7758 23.9479 52.4007C23.4282 52.5858 22.8667 52.618 22.3293 52.4934C21.792 52.3688 21.3013 52.0926 20.915 51.6973L21.2265 39.7449L20.5264 36.0733L21.3808 34.7412Z" fill="#53526B"/>
<path d="M27.125 48.6582V49.1496H27.2822V48.822H27.8535V49.1496H28.0107V48.6592L27.125 48.6582Z" fill="#53526B"/>
<path d="M27.2656 48.4993H27.8691C27.9086 48.4897 27.9448 48.4695 27.9737 48.4408C28.0026 48.4121 28.0232 48.376 28.0331 48.3364H27.1025C27.1126 48.376 27.1332 48.412 27.1621 48.4407C27.191 48.4694 27.2271 48.4896 27.2666 48.4993" fill="#53526B"/>
<path d="M26.6503 49.1496C26.6845 49.1363 26.715 49.1147 26.739 49.0869C26.763 49.059 26.7798 49.0256 26.788 48.9897H26.084V48.3364H25.9258V49.1496H26.6494" fill="#53526B"/>
<path d="M24.7539 48.4963H25.3115C25.3511 48.4863 25.3877 48.4664 25.4177 48.4384C25.4478 48.4105 25.4703 48.3754 25.4833 48.3364H24.5947V48.8131H25.3193V48.9819H24.751C24.7076 48.9934 24.6671 49.0141 24.6323 49.0425C24.5975 49.0709 24.569 49.1064 24.5488 49.1467H25.4736V48.6562H24.75V48.4953" fill="#53526B"/>
<path d="M23.3779 48.4983H23.9814C24.0209 48.4888 24.0571 48.4686 24.086 48.4399C24.1149 48.4112 24.1355 48.3751 24.1454 48.3354H23.2148C23.2249 48.375 23.2455 48.4111 23.2744 48.4397C23.3033 48.4684 23.3394 48.4887 23.3789 48.4983" fill="#53526B"/>
<path d="M23.3779 48.8191H23.9814C24.021 48.8097 24.0572 48.7895 24.0861 48.7608C24.1151 48.7321 24.1356 48.6959 24.1454 48.6562H23.2148C23.2249 48.6958 23.2455 48.7319 23.2744 48.7606C23.3033 48.7892 23.3394 48.8095 23.3789 48.8191" fill="#53526B"/>
<path d="M23.3779 49.1496H23.9814C24.0209 49.1401 24.0571 49.1199 24.086 49.0912C24.1149 49.0625 24.1355 49.0264 24.1454 48.9868H23.2148C23.2249 49.0264 23.2455 49.0624 23.2744 49.0911C23.3033 49.1198 23.3394 49.14 23.3789 49.1496" fill="#53526B"/>
<path d="M21.8086 48.3374C21.8189 48.3766 21.8395 48.4122 21.8681 48.4407C21.8968 48.4692 21.9326 48.4894 21.9717 48.4993H22.2255L22.2382 48.5042V49.1476H22.3964V48.5042L22.4111 48.4993H22.665C22.7039 48.4891 22.7395 48.4688 22.7682 48.4404C22.7968 48.4119 22.8175 48.3764 22.828 48.3374H21.8086Z" fill="#53526B"/>
<path d="M24.9207 46.7288L25.7126 42.2528C26.4674 42.2528 26.7057 42.3362 26.7408 42.6756C26.7408 42.6756 27.2476 42.4863 27.5025 42.1008C26.8717 41.8164 26.194 41.6517 25.5036 41.6152L24.9177 42.3303L24.3319 41.6152C23.6414 41.6517 22.9637 41.8163 22.333 42.1008C22.5879 42.4863 23.0947 42.6756 23.0947 42.6756C23.1288 42.3362 23.3671 42.2528 24.117 42.2518L24.9158 46.7288" fill="#53526B"/>
<path d="M24.9206 41.4083C25.8393 41.3969 26.75 41.5804 27.5933 41.9469C27.6554 41.8417 27.7087 41.7314 27.7524 41.6173C25.9363 40.8782 23.905 40.8782 22.0889 41.6173C22.1355 41.7307 22.1897 41.8408 22.251 41.9469C23.0942 41.5804 24.0049 41.3969 24.9236 41.4083" fill="#53526B"/>
<path d="M27.3701 50.9116C27.3701 50.9116 27.3701 52.9431 27.8369 53.8024C28.3036 54.6617 31.0251 54.1947 31.0251 54.1947L30.4812 51.304L27.3701 50.9116Z" fill="#D39999"/>
<path d="M30.7292 55.5995C30.3191 55.9919 28.6191 55.2071 28.7362 54.7402C28.8183 54.4097 29.1054 53.2267 29.2684 52.5557L29.3817 52.0839C29.3817 52.0839 30.3777 51.771 30.7292 52.0839C30.8572 52.1977 30.947 52.646 30.989 53.1874C31.0612 54.1281 30.99 55.3513 30.7292 55.5995Z" fill="#FDC2CC"/>
<path d="M26.98 36.1466L24.2586 38.2556C24.2586 38.2556 20.215 38.0212 21.2256 36.0682C21.6657 35.2092 21.9313 34.2709 22.0068 33.3079C22.0397 32.9525 22.0397 32.5949 22.0068 32.2396C22.0068 32.2396 25.7399 28.8064 25.2731 32.7085C25.2364 33.008 25.2148 33.3092 25.2087 33.611C25.1569 36.54 26.98 36.1466 26.98 36.1466Z" fill="#FDC2CC"/>
<path opacity="0.1" d="M25.2692 32.7097C25.2325 33.0092 25.211 33.3104 25.2048 33.6121C24.7859 33.8909 24.2943 34.039 23.7918 34.0379C23.0956 34.0379 22.583 33.3571 22.1201 32.9049C22.1719 32.2565 22.0039 32.2408 22.0039 32.2408C22.0039 32.2408 25.736 28.8027 25.2692 32.7097Z" fill="black"/>
<path d="M23.7918 33.8808C25.209 33.8808 26.3579 32.7267 26.3579 31.3029C26.3579 29.8792 25.209 28.7251 23.7918 28.7251C22.3745 28.7251 21.2256 29.8792 21.2256 31.3029C21.2256 32.7267 22.3745 33.8808 23.7918 33.8808Z" fill="#FDC2CC"/>
<path opacity="0.1" d="M21.9653 33.7642C21.9653 33.7642 21.5376 33.8034 20.6822 34.9746C19.8268 36.1458 17.9549 36.3028 17.9549 36.3028C17.9549 36.3028 17.2548 35.9899 16.4775 39.5055C15.7002 43.0211 15.4668 45.3645 15.8555 45.7549C16.2441 46.1453 17.7996 46.6926 18.5769 46.6926C18.5769 46.6926 18.8103 51.6139 18.4217 52.4732C18.033 53.3325 18.4998 53.8798 18.4998 53.8798L21.9174 53.6454C21.9174 53.6454 23.0843 52.1613 23.3177 49.5834C23.5511 47.0056 24.3284 39.6614 23.9397 38.8021C23.5511 37.9429 21.8403 35.7554 21.9174 35.521C21.9946 35.2865 21.9653 33.7642 21.9653 33.7642Z" fill="black"/>
<path d="M21.9578 33.7407C21.9578 33.7407 21.3827 33.725 20.5273 34.8972C19.6719 36.0694 17.8058 36.2254 17.8058 36.2254C17.8058 36.2254 17.1057 35.9125 16.3284 39.4281C15.5512 42.9437 15.3178 45.2871 15.7084 45.6746C16.099 46.062 17.6525 46.6123 18.4298 46.6123C18.4298 46.6123 18.6632 51.5336 18.2745 52.3929C17.8859 53.2521 18.3527 53.7995 18.3527 53.7995L21.7703 53.5651C21.7703 53.5651 22.9372 52.0809 23.1706 49.5031C23.404 46.9252 24.1813 39.5811 23.7926 38.7218C23.404 37.8625 21.6932 35.6751 21.7703 35.4407C21.8475 35.2062 21.9578 33.7407 21.9578 33.7407Z" fill="#D39999"/>
<path d="M19.9072 43.8029C19.9072 43.8029 23.7985 39.3201 23.2517 42.3962C22.8611 44.5837 21.3856 45.7559 20.6855 45.9903C19.9853 46.2248 19.9072 43.8029 19.9072 43.8029Z" fill="#FDC2CC"/>
<path opacity="0.1" d="M30.9881 53.1874C30.6161 52.902 29.914 52.4576 29.2676 52.5557L29.3808 52.0839C29.3808 52.0839 30.3769 51.771 30.7284 52.0839C30.8573 52.1977 30.9461 52.646 30.9881 53.1874Z" fill="black"/>
<path opacity="0.1" d="M25.2302 34.2329C25.2302 34.2329 27.2134 35.5218 27.4468 36.0692C27.6802 36.6165 28.5356 37.0069 28.5356 37.0069C28.5356 37.0069 30.1682 37.8662 30.1682 40.913L31.0236 45.2094L27.1333 50.677C27.1333 50.677 26.6666 45.2084 26.4332 43.8802C26.1998 42.5521 25.8893 40.0547 25.8893 40.0547C25.8893 40.0547 24.7224 38.5705 24.8787 38.1801C25.0349 37.7897 25.2302 34.2329 25.2302 34.2329Z" fill="black"/>
<path d="M25.2234 34.2095C25.2234 34.2095 27.2915 35.366 27.5239 35.9123C27.7563 36.4587 28.6137 36.8462 28.6137 36.8462C28.6137 36.8462 30.2464 37.7055 30.2464 40.7522L31.1017 45.0486L31.257 53.251C31.257 53.251 29.8567 51.9229 28.8461 52.5477C27.8354 53.1726 27.2134 50.5162 27.2134 50.5162C27.2134 50.5162 26.7467 45.0476 26.5133 43.7195C26.2799 42.3913 25.9694 39.8939 25.9694 39.8939C25.9694 39.8939 24.8025 38.4156 24.9587 38.0233C25.115 37.6309 25.2234 34.2095 25.2234 34.2095Z" fill="#D39999"/>
<path opacity="0.1" d="M26.0445 28.1682C25.9129 27.9999 25.7606 27.849 25.5915 27.7189C25.3239 27.4953 25.028 27.2618 24.696 27.2814C24.5082 27.3066 24.3278 27.3714 24.1668 27.4717C23.34 27.9092 22.5156 28.3513 21.6934 28.7979C21.3897 28.9627 21.0762 29.1373 20.8643 29.4336C20.6524 29.7298 20.5665 30.1104 20.5069 30.4831C20.4571 30.7356 20.4452 30.9942 20.4718 31.2502C20.496 31.5012 20.6173 31.7326 20.8096 31.8947C21.0313 32.0565 21.335 32.0575 21.5205 32.2694C21.6279 32.392 21.6748 32.5637 21.751 32.7128C21.8271 32.8619 21.959 33.007 22.1093 32.9806C22.2597 32.9541 22.3505 32.7942 22.372 32.6323C22.3816 32.4683 22.3721 32.3037 22.3437 32.1419C22.3144 31.8476 22.3515 31.5357 22.5214 31.3169C22.6386 31.1678 22.8065 31.0776 22.9198 30.9246C23.1913 30.5557 23.0673 29.9436 23.3651 29.5974C23.4516 29.5069 23.5604 29.441 23.6805 29.4066C23.8006 29.3721 23.9276 29.3702 24.0486 29.4012C24.2898 29.4522 24.5105 29.5836 24.7322 29.6955C25.0316 29.8472 25.3453 29.9688 25.6686 30.0584C25.9401 30.133 26.2545 30.3115 26.3472 29.9485C26.4888 29.4159 26.3521 28.6008 26.0445 28.1682Z" fill="black"/>
<path d="M25.9664 28.0896C25.8347 27.9213 25.6825 27.7704 25.5133 27.6403C25.2458 27.4167 24.9499 27.1832 24.6179 27.2028C24.4301 27.2279 24.2497 27.2928 24.0887 27.3931C23.2626 27.8306 22.5761 27.4167 21.6152 28.7193C21.4102 28.9979 20.9981 29.0587 20.7862 29.3549C20.5743 29.6512 20.4884 30.0318 20.4288 30.4045C20.379 30.657 20.3671 30.9156 20.3937 31.1716C20.4179 31.4226 20.5392 31.654 20.7315 31.8161C20.9532 31.9779 21.2569 31.9789 21.4424 32.1908C21.5498 32.3134 21.5967 32.4851 21.6728 32.6342C21.749 32.7833 21.8808 32.9284 22.0312 32.9019C22.1816 32.8755 22.2724 32.7156 22.2939 32.5537C22.3035 32.3897 22.294 32.2251 22.2656 32.0633C22.2363 31.769 22.2734 31.4571 22.4433 31.2383C22.5605 31.0892 22.7284 30.999 22.8417 30.8459C23.1131 30.4771 22.9891 29.865 23.287 29.5188C23.3734 29.4283 23.4823 29.3624 23.6024 29.3279C23.7224 29.2935 23.8495 29.2916 23.9705 29.3226C24.2117 29.3736 24.4324 29.505 24.654 29.6169C24.9535 29.7686 25.2672 29.8902 25.5905 29.9798C25.8619 30.0543 26.1764 30.2329 26.2691 29.8699C26.4117 29.3373 26.2789 28.5221 25.9664 28.0896Z" fill="#865A61"/>
<path d="M18.9705 39.6626C18.9705 39.6626 18.8924 42.5534 18.5037 42.9438C18.1151 43.3342 18.7371 43.803 18.7371 43.803L20.2927 43.4107C20.2927 43.4107 19.9021 45.9885 21.5367 45.6766C21.5367 45.6766 20.4479 46.6918 19.3591 46.8488C18.2704 47.0057 18.3456 46.6153 18.3456 46.6153L16.7129 44.6623L18.9705 39.6626Z" fill="#D39999"/>
<path opacity="0.1" d="M18.9575 40.0137C18.9575 40.0137 17.9205 42.67 18.6987 43.7637L20.4095 43.3713C20.4095 43.3713 18.854 43.8402 19.0874 42.9025C19.3207 41.9647 18.9575 40.0137 18.9575 40.0137Z" fill="black"/>
<path opacity="0.1" d="M18.3867 46.5761C18.3867 46.5761 20.6424 46.7321 21.2644 46.2632C20.4458 46.893 19.4785 47.2986 18.457 47.4403L18.3867 46.5761Z" fill="black"/>
<path opacity="0.1" d="M28.1104 41.5762C28.1104 41.5762 29.2772 45.1702 29.1991 45.7166C29.121 46.263 28.9657 52.279 28.9657 52.279L28.7324 52.2005L28.8105 45.6381L28.1104 41.5762Z" fill="black"/>
<path d="M77.238 51.7393C77.238 51.7393 78.9468 55.1087 77.5544 56.9518C76.1619 58.795 77.6813 63.8183 77.6813 63.8183" stroke="#6C63FF" stroke-miterlimit="10"/>
<path d="M77.7441 50.6908C77.7441 51.3401 77.2695 51.8679 77.2695 51.8679C77.2695 51.8679 76.7949 51.3411 76.7949 50.6908C76.7949 50.0404 77.2695 49.5137 77.2695 49.5137C77.2695 49.5137 77.7441 50.0414 77.7441 50.6908Z" fill="#00A76F"/>
<path d="M78.1244 51.7393C78.1244 51.7393 76.4156 55.1087 77.808 56.9518C79.2005 58.795 77.6811 63.8183 77.6811 63.8183" stroke="#6C63FF" stroke-miterlimit="10"/>
<path d="M77.6172 50.6908C77.6172 51.3401 78.0918 51.8679 78.0918 51.8679C78.0918 51.8679 78.5663 51.3411 78.5663 50.6908C78.5663 50.0404 78.0918 49.5137 78.0918 49.5137C78.0918 49.5137 77.6172 50.0414 77.6172 50.6908Z" fill="#00A76F"/>
<path opacity="0.1" d="M77.6172 50.6908C77.6172 51.3401 78.0918 51.8679 78.0918 51.8679C78.0918 51.8679 78.5663 51.3411 78.5663 50.6908C78.5663 50.0404 78.0918 49.5137 78.0918 49.5137C78.0918 49.5137 77.6172 50.0414 77.6172 50.6908Z" fill="black"/>
<path d="M78.82 51.7393C78.82 51.7393 80.5289 55.1087 79.1364 56.9518C77.744 58.795 79.2634 63.8183 79.2634 63.8183" stroke="#6C63FF" stroke-miterlimit="10"/>
<path d="M79.3261 50.6908C79.3261 51.3401 78.8515 51.8679 78.8515 51.8679C78.8515 51.8679 78.377 51.3411 78.377 50.6908C78.377 50.0404 78.8515 49.5137 78.8515 49.5137C78.8515 49.5137 79.3261 50.0414 79.3261 50.6908Z" fill="#00A76F"/>
<path d="M79.0604 53.3905C78.6122 53.8584 77.9062 53.9074 77.9062 53.9074C77.9062 53.9074 77.9277 53.1972 78.3759 52.7303C78.8241 52.2634 79.5301 52.2134 79.5301 52.2134C79.5301 52.2134 79.5086 52.9226 79.0604 53.3905Z" fill="#00A76F"/>
<path d="M79.1044 55.7152C78.6562 56.1831 77.9502 56.2321 77.9502 56.2321C77.9502 56.2321 77.9717 55.5219 78.4199 55.055C78.8681 54.5881 79.5702 54.5371 79.5702 54.5371C79.5702 54.5371 79.5526 55.2463 79.1044 55.7152Z" fill="#00A76F"/>
<path d="M76.6738 56.9933C77.0976 57.4837 77.0829 58.1939 77.0829 58.1939C77.0829 58.1939 76.3808 58.1086 75.9571 57.6181C75.5333 57.1277 75.5479 56.4175 75.5479 56.4175C75.5479 56.4175 76.25 56.5028 76.6738 56.9933Z" fill="#00A76F"/>
<path d="M77.0673 52.0365C77.6063 52.3955 77.7811 53.0841 77.7811 53.0841C77.7811 53.0841 77.0809 53.19 76.5429 52.8349C76.0049 52.4798 75.8291 51.7873 75.8291 51.7873C75.8291 51.7873 76.5283 51.6775 77.0673 52.0365Z" fill="#00A76F"/>
<path opacity="0.1" d="M77.0673 52.0365C77.6063 52.3955 77.7811 53.0841 77.7811 53.0841C77.7811 53.0841 77.0809 53.19 76.5429 52.8349C76.0049 52.4798 75.8291 51.7873 75.8291 51.7873C75.8291 51.7873 76.5283 51.6775 77.0673 52.0365Z" fill="black"/>
<path d="M79.7064 51.7393C79.7064 51.7393 77.9976 55.1087 79.39 56.9518C80.7825 58.795 79.2631 63.8183 79.2631 63.8183" stroke="#6C63FF" stroke-miterlimit="10"/>
<path d="M79.2002 50.6908C79.2002 51.3401 79.6748 51.8679 79.6748 51.8679C79.6748 51.8679 80.1493 51.3411 80.1493 50.6908C80.1493 50.0404 79.6748 49.5137 79.6748 49.5137C79.6748 49.5137 79.2002 50.0414 79.2002 50.6908Z" fill="#00A76F"/>
<path opacity="0.1" d="M79.2002 50.6908C79.2002 51.3401 79.6748 51.8679 79.6748 51.8679C79.6748 51.8679 80.1493 51.3411 80.1493 50.6908C80.1493 50.0404 79.6748 49.5137 79.6748 49.5137C79.6748 49.5137 79.2002 50.0414 79.2002 50.6908Z" fill="black"/>
<path d="M79.3369 53.4402C78.8828 53.9032 78.8486 54.6173 78.8486 54.6173C78.8486 54.6173 79.5546 54.5771 80.0087 54.1141C80.4627 53.6511 80.4969 52.937 80.4969 52.937C80.4969 52.937 79.79 52.9772 79.3369 53.4402Z" fill="#00A76F"/>
<path opacity="0.1" d="M79.3369 53.4402C78.8828 53.9032 78.8486 54.6173 78.8486 54.6173C78.8486 54.6173 79.5546 54.5771 80.0087 54.1141C80.4627 53.6511 80.4969 52.937 80.4969 52.937C80.4969 52.937 79.79 52.9772 79.3369 53.4402Z" fill="black"/>
<path d="M80.2265 56.6609C79.7725 57.1239 79.7383 57.838 79.7383 57.838C79.7383 57.838 80.4443 57.7978 80.8983 57.3348C81.3524 56.8718 81.3866 56.1577 81.3866 56.1577C81.3866 56.1577 80.6806 56.196 80.2265 56.6609Z" fill="#00A76F"/>
<path d="M78.917 55.9513C78.917 55.9513 79.9452 54.3229 81.3894 54.2837" stroke="#6C63FF" stroke-miterlimit="10"/>
<path d="M78.116 54.9679C78.116 54.9679 77.0878 53.3395 75.6436 53.3003" stroke="#6C63FF" stroke-miterlimit="10"/>
<path d="M77.9824 57.2926C77.9824 57.2926 79.0107 55.6642 80.4549 55.625" stroke="#6C63FF" stroke-miterlimit="10"/>
<path d="M81.3418 54.5429C81.489 54.5429 81.6083 54.423 81.6083 54.2751C81.6083 54.1272 81.489 54.0073 81.3418 54.0073C81.1945 54.0073 81.0752 54.1272 81.0752 54.2751C81.0752 54.423 81.1945 54.5429 81.3418 54.5429Z" fill="#00A76F"/>
<path d="M75.6679 53.5815C75.8152 53.5815 75.9345 53.4616 75.9345 53.3137C75.9345 53.1658 75.8152 53.0459 75.6679 53.0459C75.5207 53.0459 75.4014 53.1658 75.4014 53.3137C75.4014 53.4616 75.5207 53.5815 75.6679 53.5815Z" fill="#00A76F"/>
<path d="M78.739 57.8292C78.739 57.8292 77.7108 56.2009 76.2666 56.1616" stroke="#6C63FF" stroke-miterlimit="10"/>
<path d="M76.291 56.4428C76.4382 56.4428 76.5576 56.3229 76.5576 56.175C76.5576 56.0271 76.4382 55.9072 76.291 55.9072C76.1438 55.9072 76.0244 56.0271 76.0244 56.175C76.0244 56.3229 76.1438 56.4428 76.291 56.4428Z" fill="#00A76F"/>
<path d="M80.4746 55.9062C80.6218 55.9062 80.7412 55.7863 80.7412 55.6384C80.7412 55.4905 80.6218 55.3706 80.4746 55.3706C80.3274 55.3706 80.208 55.4905 80.208 55.6384C80.208 55.7863 80.3274 55.9062 80.4746 55.9062Z" fill="#00A76F"/>
<path d="M84.4241 61.8598C84.4241 61.8598 81.9458 61.3615 81.2847 60.6974C80.6237 60.0333 77.6493 58.8749 77.3193 59.7018C76.9892 60.5287 72.8577 63.3567 75.6641 63.854C78.4705 64.3513 82.2739 64.5181 83.1 64.1855C83.9261 63.853 84.4241 61.8598 84.4241 61.8598Z" fill="#A8A8A8"/>
<path opacity="0.2" d="M75.6639 63.5456C78.4732 64.0439 82.2736 64.2097 83.0997 63.8772C83.7286 63.6241 84.1661 62.4058 84.3389 61.8447L84.4219 61.8624C84.4219 61.8624 83.9258 63.8546 83.0997 64.1862C82.2736 64.5177 78.4732 64.352 75.6639 63.8546C74.8534 63.7104 74.621 63.373 74.7089 62.9463C74.7802 63.2239 75.0624 63.4387 75.6639 63.5456Z" fill="black"/>
<path d="M11.7316 70.1641C11.7316 70.1641 12.5499 71.2431 11.3537 72.8616C10.1576 74.4801 9.17131 75.8544 9.57069 76.8677C9.57069 76.8677 11.3752 73.8533 12.8438 73.8111C14.3125 73.7689 13.3467 71.9768 11.7316 70.1641Z" fill="#00A76F"/>
<path opacity="0.1" d="M11.7313 70.1641C11.8026 70.268 11.8588 70.3816 11.8982 70.5015C13.3317 72.1926 14.0943 73.7709 12.7175 73.8111C11.4344 73.8484 9.89548 76.1526 9.52637 76.7352C9.53855 76.7802 9.55322 76.8244 9.57031 76.8677C9.57031 76.8677 11.3748 73.8533 12.8435 73.8111C14.3121 73.7689 13.3463 71.9768 11.7313 70.1641Z" fill="black"/>
<path d="M13.2529 71.5335C13.2529 71.9121 13.2109 72.2201 13.1553 72.2201C13.0996 72.2201 13.0576 71.9131 13.0576 71.5335C13.0576 71.1538 13.1103 71.3373 13.1621 71.3373C13.2139 71.3373 13.2529 71.1558 13.2529 71.5335Z" fill="#FFD037"/>
<path d="M13.7741 71.9856C13.443 72.167 13.155 72.2799 13.1306 72.2298C13.1062 72.1798 13.3532 71.9993 13.6842 71.8188C14.0153 71.6383 13.8844 71.7698 13.9098 71.8188C13.9352 71.8679 14.1051 71.8041 13.7741 71.9856Z" fill="#FFD037"/>
<path d="M7.40855 70.1641C7.40855 70.1641 6.59026 71.2431 7.78644 72.8616C8.98263 74.4801 9.96887 75.8544 9.56949 76.8667C9.56949 76.8667 7.76496 73.8523 6.29634 73.8101C4.82772 73.768 5.79345 71.9768 7.40855 70.1641Z" fill="#00A76F"/>
<path opacity="0.1" d="M7.40855 70.1641C7.33724 70.268 7.28102 70.3816 7.24157 70.5015C5.8081 72.1926 5.04547 73.7709 6.4223 73.8111C7.7054 73.8484 9.24432 76.1526 9.61343 76.7352C9.60125 76.7802 9.58658 76.8244 9.56949 76.8677C9.56949 76.8677 7.76496 73.8533 6.29634 73.8111C4.82772 73.7689 5.79345 71.9768 7.40855 70.1641Z" fill="black"/>
<path d="M5.8877 71.5335C5.8877 71.9121 5.92968 72.2201 5.98534 72.2201C6.041 72.2201 6.08299 71.9131 6.08299 71.5335C6.08299 71.1538 6.03026 71.3373 5.97851 71.3373C5.92676 71.3373 5.8877 71.1558 5.8877 71.5335Z" fill="#FFD037"/>
<path d="M5.36588 71.9856C5.69691 72.167 5.98497 72.2799 6.00938 72.2298C6.03379 72.1798 5.78674 71.9993 5.45572 71.8188C5.12469 71.6383 5.25554 71.7698 5.23015 71.8188C5.20476 71.8679 5.03486 71.8041 5.36588 71.9856Z" fill="#FFD037"/>
<path d="M6.14844 76.7253C6.14844 76.7253 8.43632 76.6547 9.12572 76.1613C9.81511 75.6679 12.641 75.0822 12.8158 75.867C12.9906 76.6517 16.254 79.8014 13.6712 79.822C11.0884 79.8426 7.66979 79.4179 6.98137 78.9971C6.29296 78.5763 6.14844 76.7253 6.14844 76.7253Z" fill="#A8A8A8"/>
<path opacity="0.2" d="M13.7181 79.5501C11.1353 79.5707 7.71666 79.146 7.02824 78.7252C6.50388 78.4044 6.29491 77.2538 6.22558 76.7231H6.14941C6.14941 76.7231 6.29393 78.5771 6.98235 78.9979C7.67076 79.4187 11.0894 79.8444 13.6722 79.8228C14.4182 79.817 14.675 79.5501 14.6614 79.1558C14.5569 79.3971 14.2727 79.5452 13.7181 79.5501Z" fill="black"/>
</g>
<defs>
<linearGradient id="paint0_linear_217_799" x1="50.1427" y1="69.5559" x2="50.1427" y2="34.7745" gradientUnits="userSpaceOnUse">
<stop stop-color="#808080" stop-opacity="0.25"/>
<stop offset="0.54" stop-color="#808080" stop-opacity="0.12"/>
<stop offset="1" stop-color="#808080" stop-opacity="0.1"/>
</linearGradient>
<linearGradient id="paint1_linear_217_799" x1="57.594" y1="60.7361" x2="64.3373" y2="35.8056" gradientUnits="userSpaceOnUse">
<stop stop-color="#808080" stop-opacity="0.25"/>
<stop offset="0.54" stop-color="#808080" stop-opacity="0.12"/>
<stop offset="1" stop-color="#808080" stop-opacity="0.1"/>
</linearGradient>
<linearGradient id="paint2_linear_217_799" x1="23.389" y1="81.0209" x2="23.389" y2="26.1867" gradientUnits="userSpaceOnUse">
<stop stop-color="#808080" stop-opacity="0.25"/>
<stop offset="0.54" stop-color="#808080" stop-opacity="0.12"/>
<stop offset="1" stop-color="#808080" stop-opacity="0.1"/>
</linearGradient>
<clipPath id="clip0_217_799">
<rect width="100" height="100" fill="white" transform="translate(0.666016)"/>
</clipPath>
</defs>
</svg>
