<svg xmlns="http://www.w3.org/2000/svg" width="145" height="144" viewBox="0 0 145 144" fill="none">
  <path d="M100.455 85.1302C100.407 87.6035 100.407 89.8701 100.407 92.3211C82.1443 92.3211 63.6832 92.3211 44.9462 92.3211C45.9964 86.7513 45.2898 81.606 41.1191 77.3854C38.3996 74.6332 35.101 73.1772 31.2832 72.979C26.466 72.729 22.499 74.6326 19.3518 78.1973C16.1895 81.7792 15.2777 86.1002 15.8656 91.4685C11.0835 90.7245 6.64362 90.2616 2.32472 89.271C-0.0366856 88.7295 -0.566234 86.0432 0.586588 83.8272C1.07554 82.8873 1.12912 81.7158 1.34298 80.6421C1.38755 80.4183 1.25362 80.163 1.22339 79.9196C0.0386362 70.3769 0.906122 68.6209 9.69705 65.0122C15.2904 62.7161 21.1061 60.9681 26.7544 58.798C32.6154 56.5463 38.3695 57.9168 44.1595 58.9475C46.5582 59.3745 48.9507 59.8361 51.6965 60.3471C51.6965 58.7024 51.6304 57.3287 51.7126 55.9639C51.8242 54.1136 52.685 52.8017 54.7054 52.7499C56.851 52.6948 57.8149 54.0224 57.9255 55.9857C58.0259 57.7686 57.9467 59.5616 57.9467 62.0206C60.5686 62.0206 62.9841 62.0206 65.3997 62.0206C69.0856 62.0205 72.7721 62.0509 76.4571 61.9923C77.1209 61.9818 78.2416 61.7549 78.3648 61.3737C79.1907 58.818 81.2798 58.8205 83.8516 58.7319C83.1167 58.0414 82.7459 57.5683 82.2677 57.2643C79.5745 55.5526 76.8653 53.8653 74.1414 52.2028C72.5929 51.2577 70.6198 50.412 71.7415 48.1358C72.8539 45.8783 74.8076 46.7349 76.4185 47.5591C83.6288 51.2482 90.9885 54.7008 97.9128 58.8721C101.892 61.2689 106.144 61.217 110.311 62.1328C114.54 63.0622 118.789 63.9151 122.984 64.9812C129.007 66.512 134.172 69.5381 138.249 74.3032C138.622 74.7383 138.971 75.2385 139.439 75.5395C145.109 79.1834 144.345 84.7385 143.884 90.3941C139.303 90.3941 134.759 90.3941 130.326 90.3941C130.039 88.1389 130.008 85.851 129.426 83.7133C127.737 77.5101 121.918 73.0385 115.727 72.9208C108.836 72.7897 103.238 76.6482 101.058 83.041C100.847 83.6597 100.687 84.2956 100.455 85.1302Z" fill="#FF5630"/>
  <path d="M25.5234 96.7223C20.6846 93.3955 19.1495 88.452 21.3266 83.6282C23.2547 79.3561 28.3028 76.9424 32.9813 78.0557C38.5359 79.3774 41.8601 85.1715 40.2944 90.8025C38.7951 96.1947 32.8599 99.338 27.4841 97.5718C26.8675 97.3692 26.2826 97.0698 25.5234 96.7223Z" fill="#FF5630"/>
  <path d="M115.482 98.0452C109.279 97.85 105.158 93.7696 105.133 88.0132C105.108 82.3965 109.133 78.0893 114.619 77.8604C120.266 77.6248 124.888 81.6492 125.295 87.1575C125.716 92.8596 121.772 97.3332 115.482 98.0452Z" fill="#FF5630"/>
</svg>