<svg width="372" height="178" viewBox="0 0 372 178" fill="none" xmlns="http://www.w3.org/2000/svg">
<path d="M5.5 52.5C5.5 52.5 121.5 2.99983 141.5 100C161.5 197 274.5 175 274.5 175" stroke="#FF5630" stroke-dasharray="4 4"/>
<path fill-rule="evenodd" clip-rule="evenodd" d="M287.042 162.344C286.331 162.609 284.812 166.293 284.671 166.963C283.298 166.795 279.532 165.152 278.358 165.589C276.697 166.208 276.262 168.185 278.316 168.85C279.833 169.342 281.586 169.593 282.933 170.247C282.369 172.893 278.854 175.66 283.177 176.136C284.237 176.253 284.681 175.855 285.072 175.116C285.709 173.896 286.06 172.488 286.902 171.399C288.3 171.568 289.97 172.238 291.4 172.642C294.125 173.411 294.679 170.952 294.353 170.372C293.803 169.409 289.678 168.352 288.417 168.197C288.65 167.094 290.776 164.05 290.252 163.123C289.817 162.35 288.083 161.956 287.042 162.344Z" fill="#13005A"/>
</svg>
