<svg width="343" height="567" viewBox="0 0 343 567" fill="none" xmlns="http://www.w3.org/2000/svg">
<path fill-rule="evenodd" clip-rule="evenodd" d="M0 0V81H227.5C249.868 81 268 99.1323 268 121.5C268 143.868 249.868 162 227.5 162H171.5H121.5C54.3974 162 0 216.397 0 283.5C0 350.603 54.3974 405 121.5 405H171H171.5H227C249.368 405 267.5 423.133 267.5 445.5C267.5 467.867 249.368 486 227 486H0V567H221C288.103 567 342.5 512.603 342.5 445.5C342.5 378.397 288.103 324 221 324H171.5H171H115.5C93.1325 324 75 305.868 75 283.5C75 261.132 93.1325 243 115.5 243H171.5H221.5C288.603 243 343 188.603 343 121.5C343 54.3975 288.603 0 221.5 0H0Z" fill="#454F5B"/>
<path d="M0 41H231C332.5 41 325 208.5 236.5 201.5H104.5C0 201.5 11 363.5 104.5 363.5H230C344.5 363.5 344.5 526 230 526H0" stroke="white" stroke-width="12" stroke-dasharray="72 72"/>
</svg>
