<svg width="93" height="95" viewBox="0 0 93 95" fill="none" xmlns="http://www.w3.org/2000/svg">
<path d="M41.841 10.6522C41.8438 11.4402 41.887 12.1312 41.8385 12.8158C41.768 13.8105 42.2032 14.1319 43.1917 14.1272C49.1263 14.0992 55.0611 14.1195 60.9959 14.1189C65.7088 14.1184 70.4219 14.1293 75.1345 14.0947C76.3406 14.0859 77.2561 14.4494 78.0405 15.3919C81.205 19.1944 84.4208 22.9556 87.6159 26.7334C88.2071 27.4325 88.2012 28.8022 87.5519 29.5783C84.9106 32.7351 82.2532 35.8789 79.5983 39.0246C79.0853 39.6324 78.4896 40.1836 78.05 40.8379C77.3023 41.9507 76.2486 42.2375 74.9872 42.2371C52.7494 42.2289 30.5116 42.2293 8.27382 42.2384C6.52105 42.2391 5.27941 41.7856 5.30457 39.3643C5.38289 31.8301 5.33223 24.2945 5.3317 16.7595C5.33156 14.7611 5.97817 14.1119 8.01789 14.1093C15.2443 14.1001 22.4708 14.1007 29.6972 14.0936C31.3172 14.092 31.3451 14.0498 31.3674 12.4882C31.387 11.1141 31.3652 9.7416 31.5768 8.37143C31.9282 6.09676 34.0047 4.37502 36.1484 4.20602C38.6712 4.00713 41.0554 5.56923 41.6167 7.78319C41.8413 8.6693 41.7746 9.62717 41.841 10.6522Z" fill="#00A76F"/>
<path d="M36.7795 90.0436C35.3026 90.0434 33.9305 90.0219 32.5602 90.0512C31.8095 90.0672 31.4879 89.8742 31.4892 89.233C31.5015 83.2276 31.4914 77.2221 31.4717 71.2168C31.4691 70.4327 31.9887 70.1741 32.8605 70.1735C35.4272 70.1716 37.994 70.1586 40.5607 70.1678C41.9027 70.1726 42.0883 70.3218 42.0798 71.4013C42.0477 75.4606 41.9833 79.5198 41.9647 83.5791C41.9562 85.4105 41.9994 87.2429 42.0753 89.0733C42.1049 89.7881 41.8536 90.0997 40.8928 90.0583C39.5604 90.0011 38.2214 90.0437 36.7795 90.0436Z" fill="#00A76F"/>
<path d="M14.8516 32.0627V24.1845H20.205L20.1996 25.5248H16.4312V27.4371H19.7036V28.7501H16.4204V30.7061L20.2589 30.7115V32.0627H14.8516Z" fill="white"/>
<path d="M23.0821 32.1716C22.7263 32.1716 22.4064 32.1044 22.1224 31.9701C21.8385 31.8357 21.6139 31.6413 21.4486 31.3871C21.2832 31.1292 21.2006 30.8168 21.2006 30.45C21.2006 29.8325 21.4288 29.364 21.8852 29.0443C22.3417 28.7211 23.0623 28.554 24.0471 28.5431L24.7425 28.5322V28.1944C24.7425 27.9365 24.6671 27.7386 24.5161 27.6006C24.3688 27.4589 24.1387 27.3899 23.8261 27.3935C23.596 27.3971 23.3768 27.4516 23.1683 27.557C22.9635 27.6623 22.8233 27.8457 22.7478 28.1072H21.4378C21.4593 27.7004 21.5761 27.3663 21.7882 27.1048C22.0002 26.8396 22.2878 26.6435 22.6508 26.5163C23.0174 26.3856 23.4325 26.3202 23.8961 26.3202C24.4676 26.3202 24.9258 26.3929 25.2709 26.5381C25.6159 26.6798 25.8657 26.885 26.0202 27.1538C26.1748 27.4189 26.2521 27.7349 26.2521 28.1018V32.0627H24.9366L24.8072 31.0929C24.6168 31.4997 24.3777 31.7812 24.0902 31.9374C23.8063 32.0935 23.4702 32.1716 23.0821 32.1716ZM23.6104 31.1256C23.7542 31.1256 23.8925 31.1001 24.0255 31.0493C24.1621 30.9948 24.2825 30.924 24.3867 30.8368C24.4946 30.746 24.5808 30.6443 24.6455 30.5317C24.7102 30.4191 24.7425 30.3029 24.7425 30.183V29.3494L24.1765 29.3603C23.9141 29.364 23.6697 29.3967 23.4433 29.4584C23.2169 29.5165 23.0336 29.6128 22.8934 29.7472C22.7568 29.8816 22.6885 30.0632 22.6885 30.292C22.6885 30.5535 22.7784 30.7587 22.9581 30.9076C23.1378 31.0529 23.3552 31.1256 23.6104 31.1256Z" fill="white"/>
<path d="M29.7874 32.1716C29.3992 32.1716 29.0254 32.1081 28.666 31.9809C28.3066 31.8502 28.0029 31.6468 27.7549 31.3707C27.5069 31.0911 27.3488 30.7297 27.2805 30.2865H28.6445C28.6912 30.4863 28.7757 30.6443 28.8979 30.7605C29.0236 30.8768 29.1656 30.9603 29.3238 31.0112C29.4819 31.0584 29.6328 31.082 29.7766 31.082C30.0785 31.082 30.3211 31.0348 30.5044 30.9403C30.6913 30.8423 30.7848 30.6933 30.7848 30.4936C30.7848 30.341 30.729 30.2193 30.6176 30.1285C30.5098 30.0377 30.3301 29.9687 30.0785 29.9215L29.0973 29.7145C28.6049 29.6091 28.2096 29.4312 27.9113 29.1805C27.613 28.9263 27.4602 28.5667 27.453 28.1018C27.453 27.764 27.5411 27.4607 27.7172 27.1919C27.8969 26.9232 28.1611 26.7107 28.5097 26.5545C28.8583 26.3983 29.286 26.3202 29.7928 26.3202C30.4793 26.3202 31.0274 26.4728 31.4371 26.7779C31.8504 27.083 32.0607 27.5134 32.0678 28.0691H30.7524C30.7129 27.8512 30.6051 27.6841 30.4289 27.5679C30.2564 27.448 30.039 27.3881 29.7766 27.3881C29.5035 27.3881 29.2788 27.4371 29.1027 27.5352C28.9266 27.6332 28.8386 27.7822 28.8386 27.9819C28.8386 28.1308 28.9104 28.2489 29.0542 28.3361C29.198 28.4196 29.4208 28.4922 29.7227 28.554L30.6284 28.761C30.9411 28.8373 31.1945 28.9426 31.3886 29.077C31.5862 29.2078 31.739 29.3513 31.8468 29.5074C31.9546 29.6636 32.0283 29.8216 32.0678 29.9814C32.111 30.1376 32.1325 30.2793 32.1325 30.4064C32.1325 30.7805 32.0337 31.1001 31.836 31.3653C31.6384 31.6268 31.3634 31.8266 31.0112 31.9646C30.659 32.1026 30.251 32.1716 29.7874 32.1716Z" fill="white"/>
<path d="M34.0627 33.8606C33.6817 33.8606 33.4121 33.8279 33.254 33.7625C33.0994 33.7008 33.0222 33.6699 33.0222 33.6699V32.6565L33.5721 32.6783C33.8129 32.6929 34.0069 32.6801 34.1543 32.6402C34.3017 32.6039 34.4131 32.5548 34.4886 32.4931C34.5676 32.4313 34.6233 32.366 34.6557 32.2969C34.688 32.2316 34.7114 32.1789 34.7258 32.1389L34.8282 31.8284L32.661 26.4292H34.219L35.556 30.1013L36.9092 26.4292H38.4457L36.1868 32.0954C35.9927 32.5748 35.7878 32.9417 35.5722 33.1959C35.3565 33.4502 35.1229 33.6245 34.8713 33.7189C34.6233 33.8134 34.3538 33.8606 34.0627 33.8606Z" fill="white"/>
<path d="M44.5978 32.1716C44.2132 32.1716 43.8358 32.1226 43.4657 32.0245C43.0955 31.9265 42.7576 31.7794 42.4521 31.5832C42.1466 31.3871 41.8932 31.1419 41.692 30.8477C41.4943 30.5535 41.3757 30.2084 41.3362 29.8125H42.9481C43.002 30.0523 43.1044 30.2539 43.2554 30.4173C43.4064 30.5807 43.5968 30.7061 43.8269 30.7932C44.0569 30.8804 44.3121 30.924 44.5924 30.924C44.8799 30.924 45.1423 30.8877 45.3795 30.815C45.6167 30.7424 45.8072 30.6334 45.951 30.4881C46.0947 30.3392 46.1666 30.154 46.1666 29.9324C46.1666 29.7326 46.1073 29.5692 45.9887 29.4421C45.8737 29.3149 45.7174 29.2114 45.5197 29.1315C45.322 29.0516 45.0974 28.9862 44.8458 28.9354L43.498 28.6575C42.9086 28.5449 42.4413 28.3088 42.0963 27.9492C41.7513 27.586 41.5734 27.1029 41.5626 26.5C41.559 26.006 41.6884 25.5792 41.9507 25.2197C42.2167 24.8564 42.5761 24.5768 43.029 24.3806C43.4854 24.1845 43.9958 24.0864 44.5601 24.0864C45.2322 24.0864 45.7964 24.1936 46.2529 24.4079C46.7129 24.6185 47.0615 24.9055 47.2988 25.2687C47.5396 25.6283 47.6636 26.0296 47.6708 26.4728H46.0911C46.0624 26.1967 45.9797 25.977 45.8432 25.8135C45.7066 25.6501 45.5305 25.532 45.3148 25.4594C45.1028 25.3867 44.8602 25.3504 44.587 25.3504C44.3786 25.3504 44.1881 25.374 44.0156 25.4212C43.8466 25.4685 43.7029 25.5357 43.5843 25.6228C43.4657 25.7064 43.374 25.8063 43.3093 25.9225C43.2446 26.0387 43.2123 26.1695 43.2123 26.3148C43.2123 26.5436 43.2877 26.7288 43.4387 26.8705C43.5897 27.0121 43.8718 27.1284 44.2851 27.2192L45.6221 27.497C46.1001 27.5915 46.4793 27.7313 46.7596 27.9165C47.0436 28.1018 47.2556 28.3106 47.3958 28.5431C47.5396 28.7756 47.633 29.0135 47.6761 29.2568C47.7229 29.4965 47.7462 29.7181 47.7462 29.9215C47.7462 30.3465 47.6132 30.7297 47.3473 31.0711C47.0849 31.4089 46.7183 31.6777 46.2475 31.8774C45.7767 32.0736 45.2268 32.1716 44.5978 32.1716Z" fill="white"/>
<path d="M52.1854 27.5352H50.9454L50.9562 30.5372C50.9562 30.6752 50.9724 30.7787 51.0047 30.8477C51.0407 30.9131 51.0946 30.9567 51.1665 30.9785C51.242 30.9966 51.3372 31.0057 51.4522 31.0057H52.2016V31.9864C52.1297 32.0191 52.0165 32.05 51.8619 32.079C51.711 32.1081 51.4989 32.1226 51.2258 32.1226C50.737 32.1226 50.3578 32.059 50.0883 31.9319C49.8223 31.8048 49.6372 31.6268 49.533 31.398C49.4287 31.1692 49.3766 30.904 49.3766 30.6025V27.5352H48.4709V26.4292H49.4305L49.8241 24.7293H50.9454V26.4237H52.1854V27.5352Z" fill="white"/>
<path d="M53.3483 32.0627V26.4292H54.8632V27.764C54.9531 27.4771 55.0789 27.2264 55.2406 27.0121C55.4059 26.7942 55.6054 26.6253 55.839 26.5055C56.0726 26.382 56.3368 26.3202 56.6315 26.3202C56.6818 26.3202 56.7285 26.3238 56.7717 26.3311C56.8184 26.3347 56.8525 26.342 56.8741 26.3529V27.8675C56.8418 27.853 56.8022 27.8439 56.7555 27.8403C56.7124 27.8366 56.6728 27.833 56.6369 27.8294C56.3278 27.804 56.0636 27.813 55.8444 27.8566C55.6252 27.9002 55.4473 27.9747 55.3107 28.08C55.1741 28.1853 55.0753 28.3143 55.0142 28.4668C54.9531 28.6194 54.9225 28.7901 54.9225 28.979V32.0627H53.3483Z" fill="white"/>
<path d="M59.0014 29.611C58.9978 29.8979 59.0428 30.1485 59.1362 30.3628C59.2296 30.5735 59.3644 30.7369 59.5405 30.8532C59.7202 30.9658 59.9359 31.0221 60.1875 31.0221C60.457 31.0221 60.6924 30.9639 60.8937 30.8477C61.0986 30.7315 61.2405 30.5408 61.3196 30.2756H62.7375C62.6764 30.6752 62.5182 31.0166 62.2631 31.2999C62.0115 31.5832 61.706 31.7993 61.3466 31.9483C60.9872 32.0972 60.6134 32.1716 60.2252 32.1716C59.6753 32.1716 59.1901 32.0554 58.7696 31.8229C58.3527 31.5869 58.0274 31.2545 57.7938 30.8259C57.5602 30.3973 57.4434 29.8924 57.4434 29.3113C57.4434 28.7483 57.5494 28.2416 57.7615 27.7912C57.9735 27.3372 58.2808 26.9794 58.6833 26.7179C59.0895 26.4528 59.5765 26.3202 60.1443 26.3202C60.7122 26.3202 61.1884 26.4419 61.573 26.6852C61.9612 26.925 62.2523 27.2609 62.4464 27.6932C62.644 28.1218 62.7429 28.6176 62.7429 29.1805V29.611H59.0014ZM58.996 28.663H61.2711C61.2711 28.4378 61.2298 28.2307 61.1471 28.0419C61.0644 27.853 60.9386 27.7041 60.7697 27.5951C60.6044 27.4861 60.3959 27.4317 60.1443 27.4317C59.8999 27.4317 59.6915 27.4916 59.519 27.6114C59.35 27.7277 59.2207 27.8802 59.1308 28.0691C59.041 28.258 58.996 28.4559 58.996 28.663Z" fill="white"/>
<path d="M65.1296 29.611C65.126 29.8979 65.171 30.1485 65.2644 30.3628C65.3579 30.5735 65.4926 30.7369 65.6688 30.8532C65.8485 30.9658 66.0641 31.0221 66.3157 31.0221C66.5852 31.0221 66.8207 30.9639 67.0219 30.8477C67.2268 30.7315 67.3688 30.5408 67.4478 30.2756H68.8657C68.8046 30.6752 68.6465 31.0166 68.3913 31.2999C68.1397 31.5832 67.8342 31.7993 67.4748 31.9483C67.1154 32.0972 66.7416 32.1716 66.3534 32.1716C65.8035 32.1716 65.3183 32.0554 64.8978 31.8229C64.4809 31.5869 64.1556 31.2545 63.922 30.8259C63.6884 30.3973 63.5716 29.8924 63.5716 29.3113C63.5716 28.7483 63.6776 28.2416 63.8897 27.7912C64.1017 27.3372 64.409 26.9794 64.8116 26.7179C65.2177 26.4528 65.7047 26.3202 66.2726 26.3202C66.8404 26.3202 67.3166 26.4419 67.7012 26.6852C68.0894 26.925 68.3805 27.2609 68.5746 27.6932C68.7723 28.1218 68.8711 28.6176 68.8711 29.1805V29.611H65.1296ZM65.1242 28.663H67.3993C67.3993 28.4378 67.358 28.2307 67.2753 28.0419C67.1926 27.853 67.0669 27.7041 66.8979 27.5951C66.7326 27.4861 66.5241 27.4317 66.2726 27.4317C66.0282 27.4317 65.8197 27.4916 65.6472 27.6114C65.4783 27.7277 65.3489 27.8802 65.259 28.0691C65.1692 28.258 65.1242 28.4559 65.1242 28.663Z" fill="white"/>
<path d="M73.1814 27.5352H71.9414L71.9522 30.5372C71.9522 30.6752 71.9684 30.7787 72.0007 30.8477C72.0367 30.9131 72.0906 30.9567 72.1625 30.9785C72.2379 30.9966 72.3332 31.0057 72.4482 31.0057H73.1976V31.9864C73.1257 32.0191 73.0125 32.05 72.8579 32.079C72.707 32.1081 72.4949 32.1226 72.2218 32.1226C71.733 32.1226 71.3538 32.059 71.0842 31.9319C70.8183 31.8048 70.6332 31.6268 70.529 31.398C70.4247 31.1692 70.3726 30.904 70.3726 30.6025V27.5352H69.4669V26.4292H70.4265L70.8201 24.7293H71.9414V26.4237H73.1814V27.5352Z" fill="white"/>
<path d="M70.1843 67.3717H16.0289C15.3787 67.3717 14.8516 66.8474 14.8516 66.2005V48.9257C14.8516 48.2789 15.3787 47.7545 16.0289 47.7545H31.2279C31.466 47.6219 31.4712 47.3202 31.4657 46.6342C31.4654 46.5953 31.465 46.5563 31.4646 46.5174C31.4637 46.4383 31.4628 46.3592 31.463 46.2801C31.465 45.2028 31.6076 45.0512 32.6921 45.0454C33.3565 45.0419 35.0818 45.0425 35.7463 45.0431C36.7654 45.044 39.9061 45.0449 40.9249 45.031C41.5359 45.0226 41.7993 45.281 41.7864 45.8709C41.7826 46.0459 41.7833 46.2212 41.784 46.3964V46.3974C41.785 46.6469 41.786 46.8967 41.7739 47.1456C41.7585 47.4622 41.8457 47.6501 42.0126 47.7545H70.1843C70.8345 47.7545 71.3615 48.2789 71.3615 48.9257V49.0018C71.3893 49.1417 71.4035 49.294 71.4037 49.4576C71.4081 52.502 71.4093 55.5465 71.4104 58.5909C71.4108 59.6784 71.4113 60.7658 71.4118 61.8533C71.412 62.2137 71.4082 62.5743 71.4043 62.9349C71.3956 63.7555 71.3869 64.5761 71.4255 65.3944C71.4393 65.6874 71.4173 65.9419 71.3615 66.1606V66.2005C71.3615 66.8474 70.8345 67.3717 70.1843 67.3717Z" fill="#00A76F"/>
<path d="M29.7036 60.3094V54.4561H31.909C32.3456 54.4561 32.7367 54.5303 33.0821 54.6787C33.4276 54.8244 33.6998 55.0403 33.8988 55.3264C34.1005 55.6124 34.2014 55.9619 34.2014 56.3748C34.2014 56.7634 34.113 57.0953 33.9361 57.3706C33.7592 57.6459 33.5105 57.8563 33.1899 58.0021C32.8721 58.1478 32.4976 58.2207 32.0665 58.2207H30.9224V60.3094H29.7036ZM30.9099 57.3058H32.0333C32.3373 57.3058 32.5861 57.2114 32.7795 57.0225C32.973 56.8309 33.0697 56.5947 33.0697 56.3141C33.0697 56.0226 32.9674 55.7919 32.7629 55.6219C32.5584 55.4492 32.3097 55.3628 32.0168 55.3628H30.9099V57.3058Z" fill="white"/>
<path d="M34.9587 60.3094V56.1238H36.1236V57.1156C36.1927 56.9024 36.2894 56.7162 36.4138 56.5569C36.5409 56.395 36.6943 56.2695 36.8739 56.1805C37.0535 56.0887 37.2567 56.0429 37.4833 56.0429C37.522 56.0429 37.5579 56.0456 37.5911 56.051C37.627 56.0537 37.6532 56.059 37.6698 56.0671V57.1925C37.645 57.1817 37.6145 57.1749 37.5786 57.1722C37.5455 57.1695 37.5151 57.1668 37.4874 57.1641C37.2498 57.1453 37.0466 57.152 36.878 57.1844C36.7095 57.2168 36.5727 57.2721 36.4676 57.3503C36.3626 57.4286 36.2866 57.5244 36.2397 57.6378C36.1927 57.7511 36.1692 57.8779 36.1692 58.0183V60.3094H34.9587Z" fill="white"/>
<path d="M39.5456 56.1238V60.3094H38.3891V56.1238H39.5456ZM39.5581 54.4601V55.5247H38.3808V54.4601H39.5581Z" fill="white"/>
<path d="M44.3278 56.1238L42.7193 60.3094H41.8447L40.2321 56.1238H41.3265L42.2633 58.7914H42.2965L43.2209 56.1238H44.3278Z" fill="white"/>
<path d="M46.0153 60.3904C45.7417 60.3904 45.4958 60.3404 45.2775 60.2406C45.0591 60.1407 44.8864 59.9964 44.7593 59.8075C44.6321 59.6159 44.5686 59.3838 44.5686 59.1112C44.5686 58.6524 44.7441 58.3043 45.0951 58.0668C45.446 57.8267 46.0001 57.7025 46.7574 57.6944L47.2921 57.6863V57.4354C47.2921 57.2438 47.2341 57.0967 47.118 56.9941C47.0047 56.8889 46.8278 56.8376 46.5874 56.8403C46.4105 56.843 46.242 56.8835 46.0817 56.9617C45.9241 57.04 45.8164 57.1763 45.7583 57.3706H44.751C44.7676 57.0683 44.8574 56.8201 45.0204 56.6258C45.1835 56.4288 45.4046 56.283 45.6837 56.1886C45.9656 56.0914 46.2848 56.0429 46.6413 56.0429C47.0807 56.0429 47.4331 56.0968 47.6984 56.2048C47.9637 56.31 48.1558 56.4625 48.2746 56.6622C48.3934 56.8592 48.4528 57.094 48.4528 57.3665V60.3094H47.4414L47.3419 59.5889C47.1954 59.8911 47.0116 60.1003 46.7905 60.2163C46.5722 60.3323 46.3138 60.3904 46.0153 60.3904ZM46.4216 59.6132C46.5321 59.6132 46.6385 59.5943 46.7408 59.5565C46.8458 59.516 46.9384 59.4634 47.0185 59.3986C47.1014 59.3312 47.1678 59.2556 47.2175 59.1719C47.2673 59.0883 47.2921 59.0019 47.2921 58.9129V58.2935L46.8569 58.3016C46.6551 58.3043 46.4672 58.3286 46.2931 58.3745C46.119 58.4177 45.978 58.4892 45.8702 58.589C45.7652 58.6889 45.7127 58.8238 45.7127 58.9938C45.7127 59.1881 45.7818 59.3406 45.92 59.4512C46.0582 59.5592 46.2254 59.6132 46.4216 59.6132Z" fill="white"/>
<path d="M51.9498 56.9456H50.9963L51.0046 59.176C51.0046 59.2785 51.0171 59.3554 51.0419 59.4067C51.0696 59.4553 51.111 59.4877 51.1663 59.5039C51.2243 59.5174 51.2976 59.5241 51.386 59.5241H51.9622V60.2527C51.9069 60.277 51.8199 60.3 51.701 60.3216C51.585 60.3431 51.4219 60.3539 51.2119 60.3539C50.836 60.3539 50.5445 60.3067 50.3372 60.2123C50.1327 60.1178 49.9904 59.9856 49.9102 59.8156C49.8301 59.6455 49.79 59.4485 49.79 59.2246V56.9456H49.0936V56.1238H49.8315L50.1341 54.8609H50.9963V56.1198H51.9498V56.9456Z" fill="white"/>
<path d="M53.7012 58.4878C53.6984 58.701 53.733 58.8872 53.8048 59.0464C53.8767 59.203 53.9803 59.3244 54.1158 59.4108C54.2539 59.4944 54.4198 59.5362 54.6132 59.5362C54.8205 59.5362 55.0015 59.4931 55.1563 59.4067C55.3138 59.3204 55.4229 59.1787 55.4837 58.9817H56.574C56.527 59.2785 56.4054 59.5322 56.2092 59.7427C56.0157 59.9532 55.7808 60.1138 55.5045 60.2244C55.2281 60.335 54.9407 60.3904 54.6422 60.3904C54.2194 60.3904 53.8463 60.304 53.523 60.1313C53.2024 59.9559 52.9523 59.709 52.7726 59.3905C52.593 59.0721 52.5032 58.697 52.5032 58.2652C52.5032 57.8469 52.5847 57.4704 52.7478 57.1358C52.9108 56.7985 53.1471 56.5327 53.4566 56.3384C53.7689 56.1414 54.1434 56.0429 54.58 56.0429C55.0167 56.0429 55.3829 56.1333 55.6786 56.3141C55.9771 56.4922 56.2009 56.7418 56.3501 57.0629C56.5021 57.3814 56.5781 57.7497 56.5781 58.168V58.4878H53.7012ZM53.6971 57.7835H55.4464C55.4464 57.6162 55.4147 57.4623 55.3511 57.322C55.2875 57.1817 55.1908 57.071 55.0609 56.9901C54.9338 56.9091 54.7735 56.8686 54.58 56.8686C54.3921 56.8686 54.2318 56.9132 54.0992 57.0022C53.9693 57.0886 53.8698 57.2019 53.8007 57.3423C53.7316 57.4826 53.6971 57.6297 53.6971 57.7835Z" fill="white"/>
</svg>
