<svg version="1.2" xmlns="http://www.w3.org/2000/svg" viewBox="0 0 69 64" width="69" height="64">
	<style>
		.s0 { fill: #00a76f } 
		.s1 { fill: #ffffff } 
	</style>
	<g id="Layer">
		<path id="Layer" class="s0" d="m6 32.5c0-15.7 12.8-28.5 28.5-28.5 15.7 0 28.5 12.8 28.5 28.5 0 15.7-12.8 28.5-28.5 28.5-15.7 0-28.5-12.8-28.5-28.5z"/>
		<path id="Layer" fill-rule="evenodd" class="s1" d="m34.1 51.4q-5.1-0.1-10.2 0c-0.6 0-1.1-0.2-1.6-0.7q-0.6-0.6-0.7-1.5 0-0.2 0-0.3 0-14.1 0-28.2 0-1.2 0.8-2.1 0.4-0.4 1.1-0.5 2 0.1 3.9 0c0.2 0 0.3 0.1 0.3 0.3q-0.1 1.3 0.6 2.2c0.5 0.7 1.2 1.1 2.1 1.1q3.6 0 7.2 0c1.6 0 2.9-1.6 2.7-3.3 0-0.2 0-0.2 0.2-0.2q2.1-0.1 4.2 0c0.5 0 0.8 0.3 1.1 0.7q0.6 0.8 0.6 1.8 0 14.1 0 28.1c0 0.7-0.1 1.2-0.5 1.7-0.4 0.5-0.9 0.8-1.5 0.8q-2.4 0.1-4.8 0.1-2.7 0-5.5 0zm-9.7-24.8q0 10.7 0 21.4c0 0.4 0 0.4 0.3 0.4q9.3 0 18.6 0c0.3 0 0.3 0 0.3-0.4q0-11.4 0-22.9c0-0.4 0-0.4-0.3-0.4q-9.3 0-18.6 0-0.1 0-0.1 0-0.3 0-0.2 0.2 0 0.8 0 1.7z"/>
		<path id="Layer" fill-rule="evenodd" class="s1" d="m32.1 15.4c0.1-0.3 0.2-0.5 0.3-0.8 0.5-1 2-1.4 2.9-0.4q0.6 0.6 0.6 1.5 0.1 0.9 0.9 0.9 0.6 0 1.2 0.1c0.5 0.1 1.1 0.7 1.2 1.3 0.1 0.7-0.1 1.4-0.6 1.9q-0.4 0.3-0.9 0.3-3.7 0-7.4 0c-0.8 0-1.4-0.9-1.5-1.6-0.1-1 0.5-1.6 1-1.8 0.3-0.2 0.7-0.1 1-0.2q0.2 0 0.5 0c0.4 0 0.8-0.3 0.8-0.9q0-0.1 0-0.3zm1.7-0.5q-0.1 0-0.2 0.1c-0.3 0.2-0.5 0.7-0.4 1 0.1 0.4 0.5 0.7 0.9 0.6 0.4 0 0.7-0.4 0.7-0.8 0.1-0.5-0.4-1.1-1-0.9z"/>
		<path id="Layer" class="s1" d="m39.2 27.6q0.9 0 1.8 0c0.4 0 0.6 0.2 0.6 0.5q0 0.3 0 0.5 0 0.6-0.7 0.6-2.4 0-4.8 0-1.9 0-3.8 0c-0.5 0-0.7-0.2-0.7-0.7q0-0.1 0-0.3c0-0.3 0.3-0.6 0.6-0.6q3.5 0 7 0z"/>
		<path id="Layer" class="s1" d="m34.3 32.9q3.3 0 6.6 0c0.5 0 0.7 0.2 0.7 0.9q0 0.2 0 0.5c0 0.4-0.3 0.7-0.6 0.7q-4.4 0-8.8 0c-0.3 0-0.6-0.3-0.6-0.6q0-0.5 0-0.9c0-0.4 0.3-0.6 0.6-0.6q1 0 2.1 0z"/>
		<path id="Layer" class="s1" d="m31.6 39q0-0.3 0-0.6c0-0.3 0.3-0.6 0.6-0.6q4.4 0 8.8 0c0.3 0 0.6 0.3 0.6 0.6q0 0.2 0 0.4c0 0.5-0.2 0.7-0.7 0.7q-3.4 0-6.8 0-1 0-2 0c-0.3 0-0.4-0.2-0.5-0.5z"/>
		<path id="Layer" class="s1" d="m38.7 44.8q-3.2 0-6.4 0c-0.5 0-0.7-0.2-0.7-0.7q0-0.1 0-0.3 0-0.6 0.6-0.6 2.8 0 5.6 0 1.6 0 3.1 0 0.7 0 0.7 0.6 0 0.2 0 0.4 0 0.6-0.6 0.6-1.1 0-2.3 0z"/>
		<path id="Layer" class="s1" d="m27.5 27.9q0.2 0.2 0.5 0.4c0.1 0.1 0.2 0.1 0.3 0q0.8-0.9 1.6-1.8c0.2-0.2 0.5-0.2 0.7 0 0.2 0.2 0.3 0.5 0.1 0.7q-0.8 0.8-1.5 1.6-0.3 0.3-0.6 0.7-0.4 0.3-0.7 0-0.7-0.5-1.3-1c-0.2-0.2-0.3-0.5-0.1-0.7q0.3-0.4 0.8 0 0.1 0 0.2 0.1z"/>
		<path id="Layer" class="s1" d="m27.9 33.8c0.3 0.2 0.2 0.2 0.5-0.1q0.7-0.9 1.4-1.8c0.3-0.3 0.6-0.3 0.8-0.1 0.3 0.3 0.3 0.6 0 0.9q-0.7 0.9-1.4 1.7c-0.2 0.3-0.4 0.5-0.6 0.7-0.3 0.3-0.5 0.3-0.8 0.1q-0.6-0.5-1.2-1.1c-0.2-0.2-0.3-0.6-0.1-0.8 0.2-0.2 0.5-0.3 0.7-0.1q0.4 0.3 0.7 0.6z"/>
		<path id="Layer" class="s1" d="m29.8 43.7q-0.6 0.7-1.2 1.3-0.4 0.4-0.8 0-0.6-0.4-1.2-0.9c-0.2-0.2-0.3-0.5-0.1-0.7 0.2-0.2 0.5-0.3 0.7-0.1q0.4 0.3 0.8 0.6c0.1 0.1 0.2 0.1 0.3-0.1q0.8-0.8 1.6-1.7c0.2-0.2 0.5-0.2 0.7 0 0.3 0.2 0.3 0.5 0 0.7q-0.4 0.5-0.8 0.9z"/>
		<path id="Layer" class="s1" d="m27.1 39.5q-0.3-0.3-0.5-0.5c-0.2-0.2-0.3-0.5-0.1-0.8 0.1-0.2 0.5-0.2 0.7-0.1q0.4 0.3 0.7 0.6c0.2 0.2 0.3 0.2 0.5 0q0.7-0.9 1.4-1.8c0.2-0.3 0.5-0.4 0.7-0.2 0.3 0.2 0.4 0.6 0.2 0.8q-1 1.3-2 2.5-0.4 0.5-0.9 0.1-0.3-0.3-0.7-0.6z"/>
	</g>
</svg>