<?xml version="1.0" encoding="UTF-8"?>
<!DOCTYPE svg PUBLIC "-//W3C//DTD SVG 1.1//EN" "http://www.w3.org/Graphics/SVG/1.1/DTD/svg11.dtd">
<!-- Creator: CorelDRAW -->
<svg xmlns="http://www.w3.org/2000/svg" xml:space="preserve" width="1024px" height="1024px" version="1.1" style="shape-rendering:geometricPrecision; text-rendering:geometricPrecision; image-rendering:optimizeQuality; fill-rule:evenodd; clip-rule:evenodd"
viewBox="0 0 1024 1024"
 xmlns:xlink="http://www.w3.org/1999/xlink"
 xmlns:xodm="http://www.corel.com/coreldraw/odm/2003">
 <defs>
  <style type="text/css">
   <![CDATA[
    .str0 {stroke:#F86F03;stroke-width:10;stroke-linecap:round;stroke-miterlimit:2.61313;stroke-dasharray:20.000000 30.000000}
    .fil2 {fill:none}
    .fil1 {fill:#13005A}
    .fil3 {fill:#03C988;fill-rule:nonzero}
    .fil0 {fill:#13005A;fill-rule:nonzero}
   ]]>
  </style>
 </defs>
 <g id="Layer_x0020_1">
  <metadata id="CorelCorpID_0Corel-Layer"/>
  <path class="fil0" d="M183 559.55l-1.15 137.34c0,28.21 10.61,46.26 31.76,54.14 15.38,5.74 13.3,1.73 13.18,17.43l0 119.72c0.12,21.62 2.43,19.15 -23.35,19.15 -71.53,0 -123.66,-15.67 -156.36,-47.03 -32.02,-30.7 -48.03,-80.33 -48.03,-148.9l0 -151.85 0 -151.86c0,-68.57 16.01,-118.2 48.03,-148.9 32.7,-31.36 84.83,-48.05 156.36,-48.05l341.96 -0.04c89.99,0 82.85,182.35 -1.16,182.35l-301.1 1.06c-40.86,0 -61.29,19.61 -61.29,58.78l1.15 106.66z"/>
  <path class="fil1" d="M1020.7 34.01c-2.58,-2.45 -23.6,-1.91 -27.17,-1.25 -1.58,-6 -0.01,-24.62 -4.25,-28.65 -6.02,-5.73 -16.62,-3.87 -16.32,5.87 0.23,7.16 2.04,14.89 1.15,21.66 -14.17,2.58 -34.11,-6.84 -28.89,11.92 1.28,4.59 4.05,5.71 8.4,5.94 7.21,0.37 14.84,-0.77 21.73,0.69 1.61,6.09 1.22,14.24 1.72,20.89 0.95,12.7 14.17,10.44 16.48,8.01 3.84,-4.04 1.85,-23.06 0.4,-28.56 5.91,-1.08 24.8,2.08 28.51,-1.81 3.07,-3.23 1.99,-11.14 -1.76,-14.71z"/>
  <path class="fil2 str0" d="M10.74 342.52c23.46,-99.27 95.78,-179.12 213.01,-125.58 92.88,51.96 52.07,171.33 -50.04,174.15 -141.98,3.89 -214.01,-161.75 -74.01,-265.01 123.92,-91.4 235.23,-55.86 333.84,106.6 60.99,114.26 130.75,154.51 209.24,120.79 21.26,-9.2 35.81,-16.61 43.64,-22.24 94.2,-58.08 197.25,-181.69 276.78,-266.32"/>
  <path class="fil3" d="M841.52 461.3c0,-23.51 22.26,-42.55 49.71,-42.55l59.99 1.83c27.44,0 49.68,19.04 49.68,42.55l0 392.87c0,59.76 -16.62,103.29 -49.92,130.61 -27.01,22.18 -39.89,33.32 -94.49,37.11 -15.01,1.04 -14.97,1.68 -14.97,-9.28l0 -160.27 0 -392.87z"/>
  <path class="fil3" d="M645.78 461.27c0,-23.5 22.26,-42.54 49.71,-42.54l59.99 1.83c27.43,0 49.68,19.04 49.68,42.54l0 392.87c0,59.77 -16.63,103.29 -49.92,130.62 -27.02,22.17 -39.89,33.31 -94.49,37.11 -15.01,1.04 -14.97,1.68 -14.97,-9.28l0 -80.77c0,-16.22 -1.23,-13.81 12.58,-14.22l84.52 0.28c9.81,-0.04 10.53,0.9 10.07,-5.62 -7.08,-99.15 -20.07,-148.84 -107.4,-165.9l0.23 -286.92z"/>
  <path class="fil3" d="M259.27 752.83l167.08 -290.52c20.6,-30.34 24.55,-44.5 54.19,-43.99 36.38,0.65 61.37,0.78 82.52,0.17 15.8,-0.44 44.73,18.83 44.2,47.85l0.2 199.78 -0.23 66.92c0,23.14 -2.69,22.52 11.22,24.19 101.33,12.15 112.24,54.45 118.76,145.85 0.38,5.34 -0.21,4.57 -8.24,4.6l-105.45 -0.33c-10.89,-0.12 -16.49,-0.88 -17.38,7.82 -0.15,1.46 -0.44,3.26 -0.71,5.36 -8.06,65.56 -40.72,97.14 -118.58,102.67 -4.55,0.33 -3.89,-0.18 -3.92,-7.02l0.43 -93.11c0.15,-18.83 1.4,-15.96 -18.49,-16.28l-189.09 0.57c-32.62,0.8 -26.37,-18.58 -28.52,-61.11 0,-35.69 -3.61,-69.98 12.01,-93.42zm224.6 -4.49l0 -37.78 0.11 -47.72 -0.1 -0.22 0 -29.47c0,-30.8 1.06,-23.48 -13.35,-0.37l-63.07 109.24c-7.25,12.55 -9.85,14.2 4.17,13.7l64.79 0c7.04,0.14 7.64,0.23 7.45,-7.38z"/>
 </g>
</svg>
