<svg width="128" height="128" viewBox="0 0 128 128" fill="none" xmlns="http://www.w3.org/2000/svg">
<path d="M24.2493 69.7092L24.1088 86.3453C24.1088 89.763 25.3924 91.9496 27.9498 92.9026C29.8098 93.5992 29.5604 93.113 29.5458 95.0141V109.517C29.5604 112.136 29.8389 111.837 26.7196 111.837C18.0688 111.837 11.7648 109.938 7.80996 106.14C3.93746 102.42 2 96.4097 2 88.1038V69.7092V51.3122C2 43.0086 3.93746 36.9956 7.80996 33.2756C11.7648 29.4781 18.0688 27.456 26.7196 27.456L68.0795 27.4512C78.9631 27.4512 78.101 49.5392 67.939 49.5392L31.522 49.6698C26.5815 49.6698 24.1088 52.0426 24.1088 56.7882L24.2493 69.7092Z" fill="#13005A"/>
<path fill-rule="evenodd" clip-rule="evenodd" d="M125.278 8.74217C124.755 8.2439 120.483 8.35517 119.756 8.4882C119.437 7.26915 119.756 3.47897 118.894 2.65659C117.671 1.49075 115.518 1.8705 115.579 3.85145C115.625 5.30996 115.993 6.88457 115.811 8.26083C112.932 8.7857 108.88 6.87005 109.943 10.6868C110.202 11.6205 110.767 11.8478 111.648 11.8938C113.113 11.9712 114.663 11.739 116.065 12.0365C116.392 13.2749 116.313 14.9317 116.414 16.2862C116.606 18.8719 119.294 18.4099 119.761 17.9165C120.543 17.0941 120.139 13.2241 119.844 12.1042C121.045 11.8841 124.883 12.5275 125.637 11.7366C126.261 11.0787 126.041 9.47021 125.278 8.74217Z" fill="#13005A"/>
<path d="M103.893 57.8065C103.893 54.9596 106.586 52.6522 109.907 52.6522L117.163 52.8747C120.48 52.8747 123.171 55.1822 123.171 58.029V105.618C123.171 112.857 121.161 118.13 117.134 121.439C113.866 124.126 112.309 125.476 105.705 125.935C103.891 126.061 103.893 126.139 103.893 124.811V105.395V57.8065Z" fill="#03C988"/>
<path d="M80.2201 57.8041C80.2201 54.9572 82.9132 52.6497 86.2335 52.6497L93.4893 52.8723C96.8072 52.8723 99.4954 55.1797 99.4954 58.0266V105.615C99.4954 112.855 97.4853 118.128 93.4578 121.437C90.1907 124.124 88.6335 125.473 82.0316 125.933C80.2152 126.059 80.2201 126.136 80.2201 124.808V115.024C80.2201 113.06 80.0724 113.353 81.741 113.302L91.9635 113.336C93.1502 113.331 93.2374 113.445 93.1817 112.654C92.3268 100.645 90.755 94.6271 80.1935 92.5591L80.2201 57.8041Z" fill="#03C988"/>
<path d="M33.474 93.1202L53.6817 57.9298C56.1737 54.2558 56.6508 52.5384 60.2351 52.6013C64.6356 52.6787 67.658 52.6957 70.2155 52.6207C72.1263 52.5675 75.6258 54.9016 75.5604 58.4184L75.5847 82.618L75.558 90.7233C75.558 93.5266 75.2335 93.4516 76.9142 93.6548C89.1711 95.1254 90.4886 100.251 91.2781 111.321C91.3241 111.97 91.2539 111.875 90.2827 111.88L77.527 111.839C76.2119 111.824 75.5338 111.733 75.4248 112.787C75.4079 112.964 75.3715 113.181 75.3401 113.435C74.3641 121.376 70.4165 125.203 60.998 125.873C60.4483 125.911 60.5282 125.851 60.5233 125.021L60.5766 113.742C60.5936 111.462 60.7437 111.81 58.3389 111.771L35.4696 111.841C31.5244 111.936 32.28 109.589 32.0209 104.438C32.0209 100.113 31.5825 95.9598 33.474 93.1202ZM60.6372 92.5784V87.9997L60.6517 82.2213L60.6396 82.1923V78.6247C60.6396 74.8925 60.7679 75.7802 59.0242 78.5787L51.3955 91.8117C50.5188 93.3307 50.2064 93.5314 51.9016 93.4709H59.7363C60.5863 93.4879 60.6614 93.5 60.6372 92.5784Z" fill="#03C988"/>
<path d="M4.89407 41.2864C5.19438 40.3189 3.76793 39.8594 3.44098 40.8099C3.11403 41.7968 2.8331 42.7982 2.59576 43.8116C2.38749 44.8009 3.82605 45.1395 4.08276 44.1599C4.31768 43.1876 4.57924 42.237 4.89407 41.2864Z" fill="#F86F03"/>
<path d="M8.11029 34.618C8.66731 33.7835 7.4225 32.9321 6.84368 33.7617C6.25518 34.6252 5.71995 35.5443 5.24285 36.4731C4.79724 37.3923 6.15104 38.0526 6.60634 37.1649C7.0568 36.2917 7.5557 35.4282 8.11029 34.618Z" fill="#F86F03"/>
<path d="M13.2905 29.5289C14.1406 29.0016 13.368 27.7076 12.4889 28.2276C11.588 28.7718 10.7089 29.4442 9.93388 30.1578C9.20249 30.8423 10.2245 31.9549 10.9728 31.2776C11.6485 30.6415 12.4962 30.0078 13.2905 29.5289Z" fill="#F86F03"/>
<path d="M20.1661 27.5625C21.159 27.5407 21.1615 26.0362 20.137 26.0362C19.0448 26.0532 18.0131 26.1741 16.9499 26.4111C15.9763 26.6433 16.2912 28.1091 17.289 27.9011C18.2359 27.6834 19.1974 27.5794 20.1661 27.5625Z" fill="#F86F03"/>
<path d="M27.3226 29.004C28.2889 29.3572 28.7999 27.9398 27.8772 27.5794C26.8818 27.1924 25.9107 26.8755 24.8766 26.6119C23.8933 26.3821 23.5324 27.8382 24.5084 28.0946C25.4747 28.3364 26.395 28.6412 27.3226 29.004Z" fill="#F86F03"/>
<path d="M32.8637 33.382C33.4401 34.2116 34.6825 33.3771 34.1327 32.5306C33.537 31.6211 32.8104 30.8133 31.9991 30.0901C31.2483 29.4297 30.2312 30.552 30.9868 31.2341C31.6988 31.8678 32.3382 32.5838 32.8637 33.382Z" fill="#F86F03"/>
<path d="M34.2902 40.123C34.1303 41.105 35.6125 41.3784 35.799 40.3746C35.983 39.2716 36.0072 38.2122 35.8619 37.1044C35.7263 36.12 34.2296 36.2917 34.3483 37.31C34.4742 38.2533 34.4476 39.1821 34.2902 40.123Z" fill="#F86F03"/>
<path d="M30.8076 46.165C30.0568 46.8229 31.0352 47.9743 31.8126 47.3164C32.6433 46.6028 33.3529 45.7901 33.9729 44.8879C34.5202 44.0438 33.2778 43.2069 32.7014 44.039C32.171 44.8202 31.5244 45.5507 30.8076 46.165Z" fill="#F86F03"/>
<path d="M24.2953 48.966C23.2975 49.1063 23.4888 50.5986 24.4915 50.4825C25.5619 50.3519 26.6081 50.1028 27.6253 49.7424C28.5577 49.4014 28.0733 47.9767 27.1046 48.3081C26.1916 48.6298 25.2568 48.8499 24.2953 48.966Z" fill="#F86F03"/>
<path d="M17.0347 48.3347C16.0369 48.0735 15.6639 49.532 16.6157 49.8029C17.645 50.1028 18.6573 50.3084 19.7229 50.4463C20.7183 50.5624 20.9144 49.07 19.9118 48.9297C18.9261 48.8015 17.9889 48.6128 17.0347 48.3347Z" fill="#F86F03"/>
<path d="M10.6992 44.8299C9.94601 44.1671 8.93369 45.2943 9.68445 45.974C10.4885 46.6899 11.3264 47.3139 12.2443 47.8775C13.1283 48.3879 13.8863 47.0987 13.0387 46.5714C12.1959 46.0562 11.4354 45.4854 10.6992 44.8299Z" fill="#F86F03"/>
<path d="M6.64024 38.887C6.2697 37.9389 4.86504 38.4831 5.20652 39.4216C5.57706 40.4229 6.05416 41.3856 6.61118 42.295C7.13913 43.1416 8.43723 42.3724 7.91412 41.4944C7.41038 40.6721 6.97445 39.7916 6.64024 38.887Z" fill="#F86F03"/>
<path d="M5.84829 31.7348C5.96454 30.7383 4.4727 30.5448 4.33223 31.5437C4.19419 32.6104 4.15302 33.6625 4.21598 34.7364C4.2838 35.7281 5.79017 35.6604 5.74416 34.6373C5.68361 33.6601 5.72236 32.7047 5.84829 31.7348Z" fill="#F86F03"/>
<path d="M8.37911 24.9357C8.8998 24.0601 7.60413 23.2885 7.07617 24.1351C6.51431 25.0373 6.01783 25.9637 5.60128 26.9433C5.23074 27.8963 6.62329 28.4477 7.0132 27.5286C7.41765 26.6095 7.84631 25.7871 8.37911 24.9357Z" fill="#F86F03"/>
<path d="M13.3026 19.4645C14.0752 18.8114 13.0992 17.6529 12.3242 18.289C11.5105 18.9614 10.7525 19.658 10.0162 20.4151C9.32843 21.148 10.4013 22.1904 11.1157 21.4745C11.8108 20.761 12.5349 20.0982 13.3026 19.4645Z" fill="#F86F03"/>
<path d="M19.5461 15.3719C20.4446 14.8906 19.7326 13.5603 18.8438 14.0174C17.9186 14.4915 17.0105 15.0091 16.1313 15.5654C15.2861 16.1121 16.095 17.3868 16.9499 16.8546C17.7976 16.3225 18.6573 15.8291 19.5461 15.3719Z" fill="#F86F03"/>
<path d="M26.5331 12.9943C27.526 12.8081 27.2669 11.3278 26.2739 11.4874C25.2253 11.6616 24.2178 11.9059 23.2031 12.2203C22.261 12.5106 22.663 13.9618 23.6584 13.6764C24.6077 13.3837 25.5522 13.1564 26.5331 12.9943Z" fill="#F86F03"/>
<path d="M33.8082 13.2701C34.7891 13.4974 35.1499 12.0413 34.1739 11.785C33.1398 11.5286 32.0936 11.3641 31.0328 11.2794C30.0302 11.2093 29.9091 12.7089 30.9166 12.8008C31.895 12.8831 32.854 13.0306 33.8082 13.2701Z" fill="#F86F03"/>
<path d="M40.4925 16.3104C41.3304 16.8546 42.1756 15.6187 41.3377 15.0382C40.461 14.4504 39.5625 13.9231 38.6204 13.4466C37.7146 13.0064 37.0389 14.3537 37.9374 14.8132C38.8117 15.2438 39.6836 15.7686 40.4925 16.3104Z" fill="#F86F03"/>
<path d="M46.128 21.1842C46.8376 21.9147 47.925 20.8625 47.2421 20.1369C46.5325 19.3847 45.7914 18.6397 45.0237 17.9455C44.2657 17.2804 43.2582 18.3882 43.9968 19.0775C44.7355 19.7523 45.4427 20.4538 46.128 21.1842Z" fill="#F86F03"/>
<path d="M50.841 27.0497C51.4561 27.8745 52.6573 26.9819 52.093 26.1692C51.4997 25.3251 50.8918 24.4979 50.2597 23.6828C49.6349 22.8991 48.4433 23.8013 49.0512 24.6188C49.6688 25.4146 50.2646 26.2225 50.841 27.0497Z" fill="#F86F03"/>
<path d="M54.8175 33.4932C55.36 34.3664 56.6315 33.5755 56.135 32.7192C55.6289 31.8388 55.1493 30.9076 54.6262 30.0465C54.0983 29.1975 52.8026 29.9715 53.3233 30.8447L53.5025 31.1398C53.9263 31.9355 54.3671 32.712 54.8175 33.4932Z" fill="#F86F03"/>
<path d="M59.2471 39.8618C59.8961 40.6285 61.0586 39.6586 60.4192 38.8798C59.7726 38.1154 59.1696 37.3245 58.5835 36.5118C57.9805 35.6991 56.7671 36.5747 57.3387 37.3995C57.9441 38.2412 58.5762 39.0684 59.2471 39.8618Z" fill="#F86F03"/>
<path d="M65.1006 45.0911C65.9434 45.616 66.7693 44.3534 65.9095 43.7971C65.1273 43.3182 64.2215 42.67 63.541 42.058C62.7733 41.4074 61.7852 42.549 62.5432 43.2142C63.3133 43.889 64.2264 44.5566 65.1006 45.0911Z" fill="#F86F03"/>
<path d="M72.6954 47.4518C73.6932 47.4736 73.7586 45.9716 72.7366 45.9256C71.7776 45.9063 70.8161 45.7684 69.8885 45.5289C68.9028 45.2943 68.5275 46.7286 69.501 47.0068C70.5303 47.2753 71.6322 47.4301 72.6954 47.4518Z" fill="#F86F03"/>
<path d="M87.1658 41.8331C87.982 41.2671 87.1489 40.0093 86.2964 40.5777C85.4681 41.1486 84.6157 41.7049 83.7656 42.2442C82.9228 42.8078 83.7365 44.0607 84.5914 43.531C85.4536 42.9699 86.3206 42.4184 87.1658 41.8331Z" fill="#F86F03"/>
<path d="M93.2422 37.073C94.0002 36.4078 93.0121 35.2662 92.2444 35.9168C91.4791 36.5747 90.7066 37.2229 89.9195 37.8567C89.1372 38.5 90.0914 39.6707 90.8761 39.0491C91.6777 38.4033 92.4648 37.743 93.2422 37.073Z" fill="#F86F03"/>
<path d="M98.8923 31.8582C99.6019 31.1495 98.563 30.0731 97.8243 30.7649C97.0978 31.4712 96.3688 32.175 95.6277 32.8668C94.9012 33.5682 95.9232 34.6591 96.6715 33.9818C97.4199 33.2828 98.1585 32.5741 98.8923 31.8582Z" fill="#F86F03"/>
<path d="M104.271 26.3942C104.952 25.6686 103.891 24.614 103.164 25.3396C102.465 26.0749 101.757 26.8054 101.05 27.5359C100.358 28.2712 101.433 29.3088 102.145 28.6001C102.859 27.8696 103.566 27.1319 104.271 26.3942Z" fill="#F86F03"/>
<path d="M109.49 20.7924C110.166 20.028 109.049 19.0315 108.364 19.762L106.296 22.0042C105.615 22.754 106.729 23.7747 107.417 23.0442L109.49 20.7924Z" fill="#F86F03"/>
<path d="M113.908 15.9573C114.574 15.1978 113.464 14.194 112.777 14.9269L111.454 16.3782C110.786 17.1352 111.895 18.139 112.585 17.4061L113.908 15.9573Z" fill="#F86F03"/>
<path d="M79.7842 44.2664L80.4041 45.662C79.4185 46.0998 78.4957 46.4819 77.4568 46.7915C76.4929 47.0673 76.0594 45.6257 77.0257 45.3282C77.7135 45.1178 78.3553 44.8831 79.0164 44.6026L79.7842 44.2664Z" fill="#F86F03"/>
</svg>
