<?xml version="1.0" encoding="UTF-8"?>
<!DOCTYPE svg PUBLIC "-//W3C//DTD SVG 1.1//EN" "http://www.w3.org/Graphics/SVG/1.1/DTD/svg11.dtd">
<!-- Creator: CorelDRAW -->
<svg xmlns="http://www.w3.org/2000/svg" xml:space="preserve" width="256px" height="256px" version="1.1" style="shape-rendering:geometricPrecision; text-rendering:geometricPrecision; image-rendering:optimizeQuality; fill-rule:evenodd; clip-rule:evenodd"
viewBox="0 0 256 256"
 xmlns:xlink="http://www.w3.org/1999/xlink"
 xmlns:xodm="http://www.corel.com/coreldraw/odm/2003">
 <defs>
  <style type="text/css">
   <![CDATA[
    .str0 {stroke:#F86F03;stroke-width:4;stroke-linecap:round;stroke-miterlimit:2.61313;stroke-dasharray:8.000000 12.000000}
    .fil2 {fill:none}
    .fil1 {fill:#13005A}
    .fil3 {fill:#03C988;fill-rule:nonzero}
    .fil0 {fill:#13005A;fill-rule:nonzero}
   ]]>
  </style>
 </defs>
 <g id="Layer_x0020_1">
  <metadata id="CorelCorpID_0Corel-Layer"/>
  <path class="fil0" d="M45.8 140.27l-0.29 34.2c0,7.03 2.65,11.52 7.91,13.49 3.84,1.43 3.32,0.43 3.29,4.34l0 29.82c0.03,5.38 0.6,4.76 -5.82,4.76 -17.81,0 -30.8,-3.9 -38.94,-11.71 -7.98,-7.64 -11.96,-20.01 -11.96,-37.08l0 -37.82 0 -37.82c0,-17.08 3.98,-29.44 11.96,-37.09 8.14,-7.81 21.13,-11.96 38.94,-11.96l85.17 -0.01c22.41,0 20.63,45.41 -0.29,45.41l-74.99 0.27c-10.18,0 -15.27,4.88 -15.27,14.63l0.29 26.57z"/>
  <path class="fil1" d="M254.43 9.38c-0.64,-0.61 -5.88,-0.47 -6.77,-0.31 -0.39,-1.49 0,-6.13 -1.05,-7.14 -1.5,-1.42 -4.14,-0.96 -4.07,1.47 0.06,1.78 0.51,3.71 0.29,5.39 -3.53,0.64 -8.5,-1.7 -7.2,2.97 0.32,1.14 1.01,1.42 2.1,1.48 1.79,0.09 3.69,-0.19 5.41,0.17 0.4,1.52 0.3,3.55 0.43,5.2 0.23,3.17 3.53,2.6 4.1,2 0.96,-1.01 0.46,-5.74 0.1,-7.12 1.47,-0.26 6.18,0.52 7.1,-0.45 0.77,-0.8 0.5,-2.77 -0.44,-3.66z"/>
  <path class="fil2 str0" d="M2.9 86.22c5.84,-24.73 23.85,-44.61 53.05,-31.28 23.13,12.94 12.97,42.67 -12.46,43.37 -35.36,0.97 -53.3,-40.28 -18.43,-66 30.86,-22.76 58.58,-13.91 83.14,26.55 15.19,28.46 32.56,38.48 52.11,30.08 5.3,-2.29 8.92,-4.13 10.87,-5.54 23.46,-14.46 49.12,-45.25 68.93,-66.32"/>
  <path class="fil3" d="M209.81 115.8c0,-5.86 5.54,-10.6 12.38,-10.6l14.94 0.46c6.83,0 12.37,4.74 12.37,10.59l0 97.85c0,14.88 -4.14,25.72 -12.43,32.53 -6.73,5.52 -9.94,8.3 -23.53,9.24 -3.74,0.26 -3.73,0.42 -3.73,-2.31l0 -39.92 0 -97.84z"/>
  <path class="fil3" d="M161.06 115.79c0,-5.85 5.54,-10.59 12.38,-10.59l14.94 0.45c6.83,0 12.37,4.74 12.37,10.6l0 97.84c0,14.89 -4.14,25.73 -12.43,32.53 -6.73,5.53 -9.94,8.3 -23.53,9.25 -3.74,0.26 -3.73,0.41 -3.73,-2.32l0 -20.11c0,-4.04 -0.31,-3.44 3.13,-3.54l21.05 0.07c2.44,-0.01 2.62,0.22 2.51,-1.4 -1.76,-24.7 -5,-37.07 -26.75,-41.32l0.06 -71.46z"/>
  <path class="fil3" d="M64.8 188.41l41.61 -72.36c5.13,-7.55 6.11,-11.08 13.49,-10.95 9.06,0.16 15.29,0.19 20.56,0.04 3.93,-0.11 11.14,4.69 11,11.91l0.05 49.76 -0.05 16.67c0,5.76 -0.67,5.61 2.79,6.02 25.24,3.03 27.95,13.56 29.58,36.33 0.09,1.33 -0.05,1.13 -2.05,1.14l-26.27 -0.08c-2.71,-0.03 -4.1,-0.22 -4.33,1.95 -0.03,0.36 -0.11,0.81 -0.17,1.33 -2.01,16.33 -10.14,24.19 -29.53,25.57 -1.14,0.08 -0.97,-0.04 -0.98,-1.75l0.11 -23.19c0.03,-4.69 0.34,-3.97 -4.61,-4.05l-47.09 0.14c-8.13,0.2 -6.57,-4.63 -7.11,-15.22 0,-8.89 -0.9,-17.43 3,-23.26zm55.93 -1.12l0 -9.41 0.03 -11.89 -0.02 -0.05 0 -7.34c0,-7.67 0.26,-5.85 -3.33,-0.09l-15.71 27.2c-1.8,3.13 -2.45,3.54 1.04,3.41l16.14 0c1.75,0.04 1.9,0.06 1.85,-1.83z"/>
 </g>
</svg>
