<?xml version="1.0" encoding="UTF-8"?>
<!DOCTYPE svg PUBLIC "-//W3C//DTD SVG 1.1//EN" "http://www.w3.org/Graphics/SVG/1.1/DTD/svg11.dtd">
<!-- Creator: CorelDRAW -->
<svg xmlns="http://www.w3.org/2000/svg" xml:space="preserve" width="512px" height="512px" version="1.1" style="shape-rendering:geometricPrecision; text-rendering:geometricPrecision; image-rendering:optimizeQuality; fill-rule:evenodd; clip-rule:evenodd"
viewBox="0 0 512 512"
 xmlns:xlink="http://www.w3.org/1999/xlink"
 xmlns:xodm="http://www.corel.com/coreldraw/odm/2003">
 <defs>
  <style type="text/css">
   <![CDATA[
    .str0 {stroke:#F86F03;stroke-width:6;stroke-linecap:round;stroke-miterlimit:2.61313;stroke-dasharray:12.000000 18.000000}
    .fil2 {fill:none}
    .fil1 {fill:#13005A}
    .fil3 {fill:#03C988;fill-rule:nonzero}
    .fil0 {fill:#13005A;fill-rule:nonzero}
   ]]>
  </style>
 </defs>
 <g id="Layer_x0020_1">
  <metadata id="CorelCorpID_0Corel-Layer"/>
  <path class="fil0" d="M91.59 280.02l-0.58 68.56c0,14.08 5.3,23.09 15.86,27.03 7.68,2.86 6.64,0.86 6.58,8.7l0 59.76c0.06,10.8 1.21,9.56 -11.66,9.56 -35.7,0 -61.72,-7.82 -78.05,-23.47 -15.99,-15.33 -23.97,-40.11 -23.97,-74.34l0 -75.8 0 -75.81c0,-34.23 7.98,-59 23.97,-74.33 16.33,-15.65 42.35,-23.98 78.05,-23.98l170.71 -0.02c44.92,0 41.36,91.03 -0.58,91.03l-150.31 0.53c-20.39,0 -30.6,9.78 -30.6,29.34l0.58 53.24z"/>
  <path class="fil1" d="M509.77 17.68c-1.29,-1.23 -11.79,-0.96 -13.57,-0.63 -0.79,-2.99 0,-12.29 -2.12,-14.3 -3,-2.86 -8.29,-1.93 -8.15,2.93 0.12,3.57 1.02,7.43 0.58,10.81 -7.08,1.29 -17.03,-3.41 -14.42,5.95 0.64,2.29 2.02,2.85 4.19,2.97 3.6,0.18 7.41,-0.39 10.85,0.34 0.8,3.04 0.61,7.11 0.86,10.43 0.47,6.34 7.07,5.21 8.22,4 1.92,-2.02 0.93,-11.51 0.2,-14.26 2.95,-0.54 12.38,1.04 14.24,-0.9 1.53,-1.62 0.99,-5.56 -0.88,-7.34z"/>
  <path class="fil2 str0" d="M5.6 171.68c11.71,-49.55 47.81,-89.41 106.33,-62.69 46.37,25.94 25.99,85.53 -24.98,86.94 -70.87,1.94 -106.83,-80.75 -36.94,-132.29 61.86,-45.63 117.42,-27.89 166.65,53.21 30.45,57.04 65.27,77.13 104.45,60.3 10.61,-4.6 17.87,-8.3 21.79,-11.11 47.02,-28.99 98.46,-90.69 138.16,-132.94"/>
  <path class="fil3" d="M420.32 230.97c0,-11.73 11.11,-21.24 24.82,-21.24l29.94 0.92c13.7,0 24.8,9.5 24.8,21.24l0 196.11c0,29.84 -8.3,51.57 -24.92,65.21 -13.48,11.07 -19.91,16.63 -47.17,18.52 -7.49,0.52 -7.47,0.84 -7.47,-4.63l0 -80.01 0 -196.12z"/>
  <path class="fil3" d="M322.61 230.96c0,-11.73 11.11,-21.24 24.81,-21.24l29.95 0.92c13.69,0 24.8,9.5 24.8,21.23l0 196.12c0,29.84 -8.3,51.57 -24.92,65.21 -13.49,11.06 -19.91,16.63 -47.17,18.52 -7.49,0.52 -7.47,0.84 -7.47,-4.63l0 -40.32c0,-8.1 -0.62,-6.89 6.27,-7.1l42.2 0.14c4.89,-0.02 5.26,0.45 5.02,-2.81 -3.53,-49.49 -10.01,-74.29 -53.61,-82.81l0.12 -143.23z"/>
  <path class="fil3" d="M129.66 376.5l83.41 -145.02c10.28,-15.14 12.25,-22.22 27.05,-21.96 18.16,0.32 30.64,0.39 41.19,0.08 7.89,-0.21 22.33,9.4 22.07,23.89l0.1 99.73 -0.12 33.4c0,11.56 -1.34,11.25 5.6,12.08 50.59,6.07 56.03,27.18 59.29,72.81 0.19,2.67 -0.11,2.28 -4.12,2.3l-52.64 -0.17c-5.43,-0.06 -8.23,-0.44 -8.67,3.91 -0.08,0.72 -0.22,1.62 -0.35,2.67 -4.03,32.73 -20.33,48.49 -59.2,51.25 -2.27,0.17 -1.94,-0.09 -1.95,-3.5l0.21 -46.48c0.07,-9.4 0.69,-7.97 -9.23,-8.13l-94.4 0.29c-16.28,0.39 -13.16,-9.28 -14.23,-30.51 0,-17.82 -1.8,-34.93 5.99,-46.64zm112.12 -2.24l0 -18.85 0.06 -23.83 -0.05 -0.11 0 -14.71c0,-15.37 0.53,-11.72 -6.66,-0.18l-31.49 54.53c-3.62,6.26 -4.92,7.09 2.08,6.84l32.34 0c3.52,0.07 3.82,0.11 3.72,-3.69z"/>
 </g>
</svg>
